<?xml version="1.0" encoding="UTF-8"?>
<svg width="100pt" height="100pt" version="1.1" viewBox="0 0 100 100" xmlns="http://www.w3.org/2000/svg">
 <path d="m76.543 17.254-37.352 3.0352c-0.87109 0.070313-1.5508 0.070313-2.1758-0.082031-4.207 5.957-7.1484 11.844-9.1875 17.852-2.0859 6.1406-3.2266 12.414-3.8125 19.023-0.21875 2.4648-0.35938 4.9453-0.44141 7.457-0.085938 2.5469-0.11328 5.1445-0.10156 7.8047 0.007813 2.5195 0.027344 5.0391 0.027344 7.5547 0.015625 0.85547 0.027344 1.3867 0.57422 1.8359l18.613 15.328c0.30078 0.24609 0.59375 0.41406 0.89062 0.51953 0.48828-1.9844 1.0547-3.8711 1.6797-5.6758 0.70313-2.0312 1.4805-3.9414 2.3164-5.75 2.9961-6.5117 6.7617-11.891 10.586-17.352 2.7734-3.9609 5.582-7.9727 8.1406-12.492 2.6328-4.6523 5.0078-9.8477 6.8125-16.102 0.44141-1.5273 0.84766-3.1133 1.2148-4.7734 0.003906-0.019531 0.007813-0.039062 0.011719-0.058594 1.1367-5.1367 1.9102-10.953 2.1914-17.668 0.007812-0.16406 0.007812-0.3125 0.003906-0.44922zm-47.344 13.777-0.003907-0.003906-3.0586-3.4727c-0.054688 0.67187-0.11719 1.3828-0.19922 2.1445-0.14844 1.4023-0.28516 2.6914-0.42578 3.9805-0.4375 4.0234-0.87109 8.0469-1.1641 12.031 0.58594-2.7266 1.3164-5.418 2.2227-8.0859 0.75-2.2109 1.6211-4.4062 2.6289-6.5938zm-2.9453-5.3477c0.023438 0.019531 0.046875 0.042968 0.066406 0.066406l3.4961 3.9688c1.1172-2.3008 2.3945-4.5938 3.8438-6.8945l-9.4414-10.719c0.074219 0.27734 0.14844 0.5625 0.22266 0.83984 1.3438 5.0273 2.043 7.6367 1.8086 12.734zm39.336 5.5156c-0.43359 0.59375-0.90625 1.168-1.418 1.7188-0.70703 0.75781-1.4883 1.4766-2.3438 2.1406-3.6289 2.8164-7.8828 4.1211-11.828 3.957-3.9883-0.16406-7.668-1.8281-10.09-4.9492-0.14453-0.1875-0.28125-0.37109-0.40625-0.55469-0.76953 1.3906-1.3164 2.8477-1.6289 4.3125-0.75 3.5312-0.12891 7.1133 2.0391 9.9062 2.168 2.793 5.4844 4.2812 9.0898 4.4336 3.6484 0.15234 7.5898-1.0625 10.965-3.6836 3.3711-2.6172 5.5234-6.1328 6.2812-9.7031 0.55469-2.6133 0.35938-5.2539-0.66016-7.582zm-25.32 1.0586c0.058594 0.09375 0.12109 0.19141 0.18359 0.28906 0.16406 0.25 0.33203 0.48828 0.50781 0.71094 2.168 2.793 5.4844 4.2812 9.0898 4.4336 3.6484 0.15234 7.5898-1.0664 10.965-3.6836 0.79297-0.61719 1.5234-1.2852 2.1836-1.9961 0.63672-0.68359 1.2031-1.3984 1.7031-2.1406-0.21094-0.34375-0.44141-0.67578-0.69141-1-2.168-2.793-5.4844-4.2812-9.0898-4.4336-3.6484-0.15234-7.5898 1.0625-10.965 3.6836-1.5625 1.2148-2.8633 2.6211-3.8867 4.1367zm3.0742-5.1875c3.6289-2.8164 7.8828-4.1211 11.828-3.957 3.9688 0.16406 7.6289 1.8086 10.051 4.8984l0.003906 0.003906 0.035157 0.046875c2.4219 3.1172 3.1172 7.0938 2.2891 10.996-0.81641 3.8477-3.1211 7.6289-6.7227 10.441l-0.046875 0.035156c-3.6289 2.8164-7.8828 4.1211-11.828 3.957-3.9688-0.16406-7.6289-1.8086-10.051-4.8984l-0.003906-0.003906-0.035157-0.046875c-2.4219-3.1172-3.1172-7.0938-2.2891-10.996 0.81641-3.8477 3.1211-7.6289 6.7227-10.441zm-19.664-17.598 0.003906 0.003906 10.734 12.184c0.44141-0.67578 0.89844-1.3477 1.375-2.0234-0.36328-0.25391-0.71875-0.59375-1.1016-1.0352l-9.8984-11.41c-0.23438-0.23047-0.42969-0.45703-0.58594-0.67969-0.35547 1.0586-0.56641 2.2188-0.52344 2.9609zm0.88281-6.1133c0.007812-0.003906 0.015625-0.007813 0.019531-0.015625 0.089844-0.0625 0.18359-0.12109 0.28516-0.17578 0.5625-0.30469 1.3047-0.48438 2.1641-0.49219l29.086-1.8086c1.0039-0.0625 1.7891-0.003907 2.5352 0.23047 0.75 0.23438 1.4258 0.63281 2.2031 1.2539 0.007812 0.007813 0.019531 0.015626 0.027343 0.023438l15.605 12.207c0.57812 0.45312 0.93359 0.88281 1.1484 1.4062 0.20703 0.50781 0.25781 1.0586 0.23047 1.7656-0.28125 6.793-1.0664 12.684-2.2227 17.895-0.89062 6.2969-1.3516 10.227-1.3906 13.891-0.042968 3.6641 0.33203 7.1133 1.1055 12.465 0.10547 0.72656 0.21484 1.4023 0.32812 2.0781 0.31641 1.9453 0.63281 3.875 0.67578 5.8906v0.027344l-0.050781 16.309c-0.003906 0.76953-0.14453 1.4922-0.48047 2.0781-0.32422 0.56641-0.8125 1-1.5039 1.2227l-26.465 8.6172c-0.41797 0.13672-0.47656 0.15625-0.53516 0.17578-1.125 0.375-2.0742 0.69141-2.9922 0.67578-0.12891 0.0625-0.28125 0.078125-0.43359 0.042969-0.09375-0.023438-0.17969-0.0625-0.25391-0.12109-0.58203-0.125-1.168-0.41016-1.7969-0.92578l-18.613-15.328c-1.0195-0.83984-1.0352-1.6094-1.0586-2.8398-0.09375-2.4648-0.019532-5.0938-0.027344-7.5781-0.011719-2.6797 0.015625-5.293 0.10156-7.8438 0.085938-2.582 0.22656-5.0859 0.44141-7.5156-0.20703-7.6719 0.64844-15.559 1.5-23.441 0.14844-1.3633 0.29688-2.7266 0.42578-3.9766 0.8125-7.7812 0.15625-10.238-1.4531-16.27-0.14062-0.52344-0.28906-1.0781-0.51172-1.9336-0.078125-0.29688-0.14062-0.58594-0.1875-0.87109-0.050781-0.28906-0.082031-0.57422-0.10547-0.85547-0.070312-0.91406 0.17969-2.3398 0.60547-3.5938 0.27734-0.81641 0.64062-1.5781 1.0508-2.1211 0.12109-0.17578 0.26953-0.33203 0.44922-0.47656 0.035156-0.027344 0.070312-0.054688 0.10156-0.078126zm0.79688 1.0664c-0.007813 0.007813-0.015625 0.011719-0.023437 0.019531-0.0625 0.042969-0.125 0.10156-0.1875 0.17188-0.039063 0.046874-0.070313 0.09375-0.09375 0.14453-0.066407 0.13672-0.074219 0.30859-0.015626 0.50391 0.089844 0.28906 0.3125 0.625 0.69531 0.99609 0.011719 0.011719 0.027344 0.027343 0.039063 0.042969l9.918 11.434c0.48047 0.55469 0.88281 0.88281 1.3047 1.0664 0.011718 0.003906 0.019531 0.007812 0.03125 0.011718 0.039062 0.015625 0.082031 0.03125 0.12109 0.046875 0.49609 0.16797 1.1016 0.16797 1.9375 0.10156l36.953-3.0039c-0.10156-0.10547-0.22656-0.21484-0.37109-0.32813l-15.605-12.207c-0.011719-0.007812-0.023438-0.015625-0.035156-0.027343-0.64844-0.51563-1.1953-0.84375-1.7734-1.0234s-1.2227-0.22266-2.0625-0.17188l-29.086 1.8086h-0.035157c-0.64844 0.003906-1.1875 0.125-1.5703 0.33203-0.050781 0.027344-0.10156 0.058594-0.14453 0.089844zm0.046875 69.117c0 0.23047-0.1875 0.41406-0.41406 0.41406-0.23047 0-0.41406-0.1875-0.41406-0.41406-0.011719-2.6758 0.015625-5.2852 0.10156-7.8359 0.085937-2.5742 0.22656-5.0781 0.44141-7.5195 0.019531-0.23047 0.22266-0.39844 0.44922-0.37891 0.23047 0.019531 0.39844 0.22266 0.37891 0.44922-0.21875 2.4609-0.35938 4.9453-0.44141 7.4727-0.085937 2.5508-0.11328 5.1484-0.10156 7.8125zm43.148-15.848c0.11328-0.19922 0.36719-0.26953 0.56641-0.15625 0.19922 0.11328 0.26953 0.36719 0.15625 0.56641-2.5781 4.5547-5.4023 8.5898-8.1953 12.578-3.793 5.418-7.5273 10.754-10.488 17.188-0.097656 0.20703-0.34375 0.30078-0.55078 0.20312-0.20703-0.097657-0.30078-0.34375-0.20312-0.55078 2.9883-6.4922 6.7461-11.859 10.566-17.316 2.7773-3.9688 5.5898-7.9844 8.1562-12.512zm4.6719-13.441c-1.6445 4.7695-3.6211 8.9141-5.7656 12.703-2.582 4.5625-5.4141 8.6016-8.2109 12.598-3.7891 5.4102-7.5156 10.734-10.469 17.148-0.82422 1.793-1.5859 3.6602-2.2695 5.625-0.58594 1.6875-1.1172 3.4688-1.5898 5.3516 0.59766-0.082032 1.2422-0.29297 1.9805-0.53906 0.28906-0.097656 0.49219-0.16406 0.54297-0.17969l26.465-8.6172c0.34766-0.11328 0.59766-0.33203 0.76172-0.62109 0.21484-0.37891 0.30859-0.875 0.30859-1.418l0.050781-16.309c-0.039062-1.9102-0.35156-3.8008-0.66016-5.7031-0.11719-0.71484-0.23438-1.4297-0.33203-2.1055-0.78125-5.4062-1.1602-8.9023-1.1172-12.664 0.019531-1.6562 0.12109-3.3516 0.30469-5.2734z" fill="#338cc8"/>
</svg>
