<?xml version="1.0" encoding="UTF-8"?>
<svg width="100pt" height="100pt" version="1.1" viewBox="0 0 100 100" xmlns="http://www.w3.org/2000/svg">
 <defs>
  <clipPath id="a">
   <path d="m18.512 38h62.977v23h-62.977z"/>
  </clipPath>
 </defs>
 <g clip-path="url(#a)">
  <path d="m26.023 52.652-4.5703 6.5352h-2.2852c-0.35938 0-0.65625 0.29297-0.65625 0.65625 0 0.35938 0.29688 0.65234 0.65625 0.65234h61.664c0.36328 0 0.65625-0.29297 0.65625-0.65234 0-0.36328-0.29297-0.65625-0.65625-0.65625h-2.2812l-4.5742-6.5352c0.26563-1.2383 0.36719-2.5703 0.29688-3.9961-0.007813-0.13672-0.058594-0.26562-0.14453-0.375-4.7617-5.9883-12.832-9.125-24.109-9.4297h-0.035156c-11.277 0.30469-19.348 3.4414-24.113 9.4297-0.085938 0.10938-0.13281 0.23828-0.14062 0.375-0.070313 1.4258 0.027343 2.7578 0.29297 3.9961zm0.46094 1.6289-3.4336 4.9062h5.3008v-1.3125c-0.35937 0-0.65625-0.29688-0.65625-0.65625 0-0.12109 0.03125-0.23047 0.089844-0.32812-0.53516-0.8125-0.96875-1.6836-1.3008-2.6094zm47.031 0c-0.32812 0.92578-0.76172 1.7969-1.2969 2.6094 0.054688 0.097656 0.085938 0.20703 0.085938 0.32812 0 0.35938-0.29297 0.65625-0.65625 0.65625v1.3125h5.3008zm-16.953 3.5938v1.3125h2.6211v-1.3125zm-26.898 0v1.3125h1.9688v-1.3125zm19.023 0v1.3125h2.625v-1.3125zm-15.742 0v1.3125h2.625v-1.3125zm27.551 0v1.3125h2.625v-1.3125zm-23.613 0v1.3125h2.6211v-1.3125zm15.742 0v1.3125h2.625v-1.3125zm-11.809 0v1.3125h2.625v-1.3125zm23.617 0v1.3125h2.625v-1.3125zm-19.68 0v1.3125h2.625v-1.3125zm23.617 0v1.3125h1.9648v-1.3125zm2.918-1.9688h-42.578c0.0625 0.097656 0.125 0.19531 0.1875 0.29297 0.074218 0.11328 0.10937 0.23828 0.10937 0.36328h41.984c0-0.125 0.035156-0.25 0.10937-0.36328 0.066407-0.097657 0.12891-0.19531 0.1875-0.29297zm1.6484-5.25h-45.875c0.10938 1.4297 0.42969 2.7383 0.96094 3.9375h43.957c0.52734-1.1953 0.84766-2.5078 0.95703-3.9375zm-0.16797-1.9648h-45.535c-0.070313 0.078125-0.13672 0.16016-0.20312 0.24219-0.007812 0.14062-0.007812 0.27734-0.011719 0.41406h45.961c0-0.13672-0.003907-0.27734-0.011719-0.41406-0.0625-0.082032-0.13281-0.16406-0.19922-0.24219zm-7.4062-5.4805c0.71875 1.3867 1.207 2.8242 1.5508 4.168h4.6406c-1.7227-1.6914-3.7891-3.0781-6.1914-4.168zm-30.723 0c-2.4023 1.0898-4.4688 2.4766-6.1914 4.168h4.6367c0.34375-1.3438 0.83594-2.7812 1.5547-4.168zm16.016-3.0273v7.1953h5.7734c-0.44141-2.2617-1.1289-4.7266-2.2578-6.957-1.1328-0.11328-2.3047-0.19141-3.5156-0.23828zm5.0586 0.41797c1.0039 2.2148 1.6367 4.5938 2.0508 6.7773h7.793c-0.44141-1.6289-1.1211-3.3945-2.2031-4.9844-2.2852-0.82422-4.8359-1.4219-7.6406-1.793zm-11.426 0c-2.8086 0.37109-5.3555 0.96484-7.6406 1.793-1.082 1.5898-1.7617 3.3516-2.207 4.9844h7.7969c0.41016-2.1836 1.0469-4.5625 2.0508-6.7773zm5.0156-0.41797c-0.60547 0.027344-1.2148 0.058594-1.8242 0.097656-0.54688 0.039062-1.0977 0.085938-1.6445 0.14062h-0.003907c-1.1289 2.2305-1.8164 4.6953-2.2578 6.957h5.7695v-7.1953z" fill="#338cc8" fill-rule="evenodd"/>
 </g>
</svg>
