<?xml version="1.0" encoding="UTF-8"?>
<svg width="100pt" height="100pt" version="1.1" viewBox="0 0 100 100" xmlns="http://www.w3.org/2000/svg">
 <path d="m96.117 38.508c-1.7969-1.2109-5.8945-2.2422-8.0742-2.7773-0.62109-0.15234-1.3438-0.23047-1.9375-0.44922-0.88281-0.32422-1.1172-0.82812-5.3086-2.8633-19.258-9.2188-32.457-7.4336-34.703-7.6172-14.469 0.042969-32.367 10.547-32.383 10.555-0.64063 0.23828-1.3906 0.33594-2.0586 0.49609-2.1562 0.51172-6.832 1.5391-8.3555 3.0664-0.25391 0.25781-0.50781 0.50391-0.50781 0.83984 0 0.082032 0.019532 4.2734-0.011718 6.2734 0.35938 0.73828 1.4414 1.168 2.1406 1.5156-0.27734 0.54688-0.37109 1.1445-0.22266 1.7422 0.33203 1.3281 1.5977 2.0898 2.6914 2.7422 0 0.027344 0.003906 13.609 0.027343 14.453 0.023438 0.83594 0.25391 1.3281 0.86719 1.8984 6.1406 5.7266 33.871 6.8945 42.824 6.8281 7.7891-0.058594 35.508-1.2305 40.77-6.9648 0.24609-0.26953 0.57031-0.66797 0.62891-1.0312 0.10938-0.66406 0.082032-13.68 0.023438-15.285 0.64844-0.3125 1.2773-0.76953 1.7812-1.2812 0.92969-0.95313 0.99609-1.8867 0.98828-3.1641 0.78125-0.55078 1.4492-0.91406 1.918-1.7266v-6.0938c-0.22656-0.46875-0.625-0.83594-1.0977-1.1562zm-14.438-4.3008c1.5703 0.62109 6.3984 4 7.7773 4.9805-0.34375 0.003906-10.992 0.015625-11.02 0.015625 0.66016-1.1445 3.2305-4.9805 3.2422-4.9961zm-1.1406-0.51953c-0.52344 1.0664-1.5391 2.1836-3.5195 5.4727-1.3398 0.019532-5.707 0.09375-7.1211 0.019532 0.3125-0.73047 3.3789-6.9023 4.2148-8.3945 1.4727 0.60547 5.418 2.3125 6.4258 2.9023zm-7.5977-3.3203c-0.44531 0.9375-3.8828 7.7109-4.3945 8.8438-2.207-0.042969-4.4102 0.019531-6.6172-0.019532 0.10547-0.37891 3.4609-11.02 3.4805-11.109 2.4805 0.76172 3.4844 0.87891 7.5312 2.2852zm-17.234-3.9766c1.4062 0.17969 7.0664 0.91797 8.5547 1.375-0.41406 1.0703-1.6602 5.418-3.6133 11.43-1.9336 0.023438-3.8672 0.027344-5.7969 0.007813 0-0.015625 0.85547-12.793 0.85547-12.812zm-10.234-0.36719c4.4062-0.046876 4.668 0.011718 9.0195-0.058594 0 0.019531 0.011718 0.69141-0.83594 13.242l-7.3438-0.003906c-0.015625-0.14844-0.95703-12.871-0.83984-13.18zm-1.3242 0.37109 0.023437 0.011719c0.17578 0.22656 0.80078 11.504 0.89453 12.801-1.8828 0.011719-3.7656 0.003907-5.6445-0.019531-2.8789-9.1367-3.4648-11.004-3.5664-11.32v-0.007813c0-0.003906-0.003907-0.007813-0.003907-0.015625 0 0.003906 0 0.003906 0.003907 0.007812-0.003907-0.007812-0.003907-0.015624-0.007813-0.023437 0 0.003906 0 0.003906 0.003906 0.007813 0-0.003907-0.003906-0.007813-0.003906-0.011719-0.003906-0.007813-0.003906-0.015625-0.003906-0.015625 2.5938-0.58984 5.6602-1.2188 8.3047-1.4141zm-9.6289 1.6953c0.22266-0.003906 3.4375 10.426 3.625 11.113l-6.6406 0.003906c-0.011718-0.023437-3.2188-6.1055-4.4727-8.7891 2.4258-0.91406 4.9688-1.7188 7.4883-2.3281zm-8.6406 2.7969c0.18359 0.11328 4.1328 8.0977 4.2227 8.2891h-0.019531 0.003907-0.011719 0.003906-0.078125c-0.36719 0-1.8516 0-6.957-0.003906-1.1875-1.8398-2.5391-3.5859-3.6602-5.4648 2.1328-1.25 6.4805-2.8125 6.4961-2.8203zm-13.809 7.1328c1.9375-1.3594 4.043-2.6523 6.1875-3.6719 0.1875 0.050782 3.3633 4.793 3.3789 4.8125-3.8047 0.058594-5.2656 0.023438-11.125-0.003906 0.49219-0.40625 1.0352-0.76562 1.5586-1.1367zm-0.97656-0.81641c-0.67969 0.46484-1.3672 0.98828-1.957 1.5664-0.26172 0.25781-0.56641 0.58594-0.55469 0.98047 0.003907 0.17188 0.078125 0.35156 0.21094 0.46484 0.19922 0.16406 0.74219 0.14453 1 0.14844 0.17969 0.003907 20.066 0.027344 40.074 0.039063 20.008 0.011718 40.133 0.007812 40.793-0.050782 0.20312-0.019531 0.42578-0.0625 0.55469-0.23828 0.10938-0.14453 0.14844-0.30469 0.12109-0.48047-0.097657-0.67187-1.9766-2.0117-2.5586-2.418 0.39844 0.015625 0.85156 0.1875 1.2344 0.29297 1.4922 0.40625 4.668 1.2852 5.8047 2.1836 0.14062 0.11328 0.26562 0.22266 0.28516 0.41016-0.066406 0.16406-0.17187 0.24609-0.32031 0.33594-5.2383 3.1836-34.414 3.8789-45.805 3.9609-8.5234 0.0625-44.949-0.96484-45.938-4.3203-0.3125-1.0781 5.7891-2.4531 7.0547-2.875zm8.2656 34c-0.48047 0.070313-4.668-1.1367-5.4648-1.4219l-0.027343-14.953c1.6875 0.79688 3.6875 1.168 5.5117 1.5117zm16.145 2.2578c-0.95703 0.18359-9.3633-0.96094-11.969-1.3906 0.082032-5.0117 0.015625-10.035 0.015625-15.051 2.4453 0.51953 9.4688 1.2227 11.977 1.5117 0.035156 4.9766 0.03125 9.9531-0.023438 14.93zm9.9219 0.51172 0.011719-12.844c1.6016-0.003906 4.6602-0.03125 9.1406 0.003906l0.003906 12.801c-3.3633 0.023437 0.66016 0.097656-9.1562 0.039062zm19.012-0.48828c-0.070312-0.070313-0.082031-12.613-0.070312-15.094 10.832-0.91016 11.965-1.3867 12.172-1.2617 0.046876 0.26562 0.015626-0.82031 0.039063 14.941-4.0352 0.65234-7.3242 1.0234-12.141 1.4141zm21.656-3.6523c-1.9727 0.73828-5.3359 1.5117-5.5352 1.4883-0.046875-0.17969-0.035156-14.895-0.035156-14.914 1.3633-0.15234 3.3516-0.65234 5.5-1.2578 0.13281 0.21875 0.058593 13.582 0.070312 14.684zm6.332-19.258c-0.28125 0.15625-0.65625 0.30859-0.89453 0.52734-0.13672 0.125-0.16406 0.24609-0.17969 0.42578 0 0.019531 0.078126 13.496-0.007812 15.457-0.375 0.5-0.80469 0.88672-1.3477 1.1953-0.12891-11.402 0.10547-14.949-0.15625-15.254-0.17578-0.20312-0.96875-0.5-1.0469 0.51953-0.023438 0.28516-0.023438 15.406-0.023438 15.426-0.50391 0.20312-1.0078 0.39844-1.5195 0.58594 0.007812-1.5977 0.03125-14.582 0.019531-15.074-0.011719-0.46094-0.125-0.71094-0.93359-0.55078-0.019532 0.003907-6.4453 1.5352-6.4609 1.543-0.17188 0.046875-0.32812 0.09375-0.46875 0.20703-0.13281 0.65625-0.070312 15.992-0.070312 16.016-0.52344 0.085938-1.0469 0.18359-1.5664 0.29688 0.015625-1.4688 0.019531-15.34-0.015625-15.672-0.054687-0.58594-0.62891-0.41406-2.0039-0.25-11.707 1.3984-12.227 1.1953-12.473 1.5078-0.14453 0.18359-0.17188-0.33203-0.11719 16.117-2.4648 0.15234-4.9297 0.26562-7.3945 0.33203 0-0.019532 0.0625-13.172-0.082031-13.562-0.050782-0.13672-0.16406-0.26563-0.30078-0.31641-0.39062-0.14062-10.336-0.089843-10.355-0.089843-0.65625 0.023437-0.72656 0.10156-0.76953 0.79687-0.082031 1.3008 0.10938 8.6172-0.019531 13.184-2.5-0.011718-5.0391-0.13672-7.5312-0.32812 0-0.019531 0.023438-15.285 0.023438-15.305-0.035157-0.80859-0.11719-0.83203-0.55859-0.90234-0.019531-0.003906-13.438-1.793-13.586-1.6484-0.125 0.12109-0.19922 0.28125-0.21875 0.45313-0.042969 0.36328-0.027344-1-0.019532 15.625-0.58984-0.082032-1.1797-0.19141-1.7656-0.28516 0.015625-16.613 0.078125-15.512-0.097656-16.121-1.3359-0.47266-2.9727-0.52344-6.1914-1.6641-0.30859-0.10938-0.66797-0.28906-0.98828-0.32812-0.30469-0.035156-0.54297 0.13281-0.57422 0.44922-0.046875 0.51953-0.003907 15.141-0.007813 15.5-0.51953-0.15234-1.0078-0.38281-1.5039-0.60156 0-16.812 0.046875-16-0.082031-16.18-0.1875-0.26172-1.0273-0.42578-1.0781 0.41406 0 0.03125 0.011718 15.152 0.011718 15.18-0.48828-0.3125-1.1758-0.73047-1.4023-1.293-0.23828-0.58594-0.050781-13.832-0.082031-15.055-0.003907-0.15234 0.007812-0.38672-0.082032-0.51562-0.22656-0.32422-0.93359-0.57031-1.2773-0.79297-0.32422-0.21094-0.63281-0.45703-0.89453-0.74219-0.55859-0.61328-0.4375-1.125-0.40234-1.8789 11.539 3.6562 29.984 4.5195 44.07 4.4844 11.684-0.027344 33.051-0.78516 44.188-4.3984-0.082031 1.2539-0.62891 1.9375-1.7617 2.5664zm3.8008-5.3164c-0.55469 0.76172-1.5703 1.2305-2.4258 1.5664-8.7305 3.4609-33.062 4.3398-43.805 4.2852-16.145-0.085937-41.129-1.1172-46.02-5.5078-0.007812-1.3164-0.003906-2.6328 0.007813-3.9531 9.1953 3.6016 36.102 3.957 45.988 3.9258 14.031-0.042969 39.461-0.69922 46.156-3.9648 0.078125 3.0156 0.097656 3.3672 0.097656 3.3945 0.003907-0.007812 0.003907-0.007812 0 0.25391z" fill="#338cc8"/>
</svg>

