<?xml version="1.0" encoding="UTF-8"?>
<svg width="100pt" height="100pt" version="1.1" viewBox="0 0 100 100" xmlns="http://www.w3.org/2000/svg">
 <path d="m67.801 49.574c1.3281-1.3281 1.3281-3.4805 0-4.8086s-3.4805-1.3281-4.8086 0c-1.3281 1.3281-1.3281 3.4805 0 4.8086 1.3281 1.3281 3.4805 1.3281 4.8086 0zm-22.031 4.0586c1.3281-1.3281 1.3281-3.4805 0-4.8086s-3.4805-1.3281-4.8086 0c-1.3281 1.3281-1.3281 3.4805 0 4.8086 1.3281 1.3281 3.4805 1.3281 4.8086 0zm14.688 0.003907c1.3281-1.3281 1.3281-3.4805 0-4.8086s-3.4805-1.3281-4.8086 0c-1.3281 1.3281-1.3281 3.4805 0 4.8086 1.3281 1.3281 3.4805 1.3281 4.8086 0zm-7.3438 4.1289c1.3281-1.3281 1.3281-3.4805 0-4.8086s-3.4805-1.3281-4.8086 0c-1.3281 1.3281-1.3281 3.4805 0 4.8086 1.3281 1.3281 3.4805 1.3281 4.8086 0zm-14.688-8.2148c1.3281-1.3281 1.3281-3.4805 0-4.8086-1.3281-1.3281-3.4805-1.3281-4.8086 0-1.3281 1.3281-1.3281 3.4805 0 4.8086 1.3281 1.3281 3.4805 1.3281 4.8086 0zm-7.3438-4.082c1.3281-1.3281 1.3281-3.4805 0-4.8086s-3.4805-1.3281-4.8086 0c-1.3281 1.3281-1.3281 3.4805 0 4.8086 1.3281 1.3281 3.4805 1.3281 4.8086 0zm44.066 0c1.3281-1.3281 1.3281-3.4805 0-4.8086-1.3281-1.3281-3.4805-1.3281-4.8086 0s-1.3281 3.4805 0 4.8086 3.4805 1.3281 4.8086 0z" fill="#338cc8"/>
</svg>
