<?xml version="1.0" encoding="UTF-8"?>
<svg width="100pt" height="100pt" version="1.1" viewBox="0 0 100 100" xmlns="http://www.w3.org/2000/svg">
 <path d="m98.891 76.16-13.738-11.109v-31.211l13.738-8.082c0.30469-0.20312 0.40234-0.60547 0.20312-1.0117-0.20312-0.30469-0.60547-0.40234-1.0117-0.20312l-13.84 8.1836h-10.707v-4.3438c0-0.40234-0.30469-0.70703-0.70703-0.70703h-45.453c-0.40234 0-0.70703 0.30469-0.70703 0.70703v4.3438h-10.508l-13.836-8.1797c-0.30469-0.20312-0.80859-0.10156-1.0117 0.20312s-0.10156 0.80859 0.20312 1.0117l13.738 8.082v31.211l-13.738 11.109c-0.30469 0.20313-0.30469 0.70703-0.10156 1.0117 0.10156 0.20312 0.30469 0.30469 0.50391 0.30469 0.20312 0 0.30469-0.10156 0.40234-0.20312l13.84-11.109h10.504v9.293c0 0.40234 0.30469 0.70703 0.70703 0.70703h45.453c0.40234 0 0.70703-0.30469 0.70703-0.70703v-9.293h10.707l13.84 11.109c0.10156 0.10156 0.30469 0.20312 0.40234 0.20312 0.20312 0 0.40234-0.10156 0.50391-0.30469 0.30859-0.40625 0.20703-0.8125-0.09375-1.0156zm-25.355-32.523h3.6367v10.605h-3.6367zm0 11.312h3.9375c0.20312 0 0.30469-0.10156 0.30469-0.30469v-11.312c0-0.20312-0.10156-0.30469-0.30469-0.30469h-3.9375v-1.4141h5.5547v14.645h-5.5547zm-46.867-0.60547h-3.7383v-10.707h3.7383zm0-11.312h-4.0391c-0.20312 0-0.30469 0.10156-0.30469 0.30469v11.211c0 0.20312 0.10156 0.30469 0.30469 0.30469h4.0391v1.4141h-5.6562v-14.547h5.6562zm-10 21.613v-30.504h10v6.5664h-6.1602c-0.30469 0-0.50391 0.20312-0.50391 0.50391v15.656c0 0.30469 0.20312 0.50391 0.50391 0.50391h6.1602v7.2734zm55.453 10h-44.039v-45.555h44.039zm11.617-10h-10.203v-7.375h6.0625c0.30469 0 0.50391-0.20312 0.50391-0.50391v-15.555c0-0.30469-0.20312-0.50391-0.50391-0.50391h-6.0625v-6.5664h10.203z" fill="#338cc8"/>
 <path d="m36.566 67.879h27.879c0.40234 0 0.70703-0.30469 0.70703-0.70703v-31.918c0-0.40234-0.30469-0.60547-0.70703-0.60547l-27.879-0.003907c-0.40234 0-0.60547 0.30469-0.60547 0.60547v32.02c0 0.40625 0.30078 0.60938 0.60547 0.60938zm0.70703-31.918h26.566v30.707h-26.566z" fill="#338cc8"/>
 <path d="m62.223 37.07h-23.332c-0.20312 0-0.40234 0.20313-0.40234 0.40234v27.477c0 0.20312 0.20312 0.40234 0.40234 0.40234h23.332c0.20312 0 0.40234-0.20312 0.40234-0.40234v-27.473c0-0.20312-0.19922-0.40625-0.40234-0.40625zm-0.40625 27.574h-22.523v-26.766h22.523z" fill="#338cc8"/>
</svg>
