<?xml version="1.0" encoding="UTF-8"?>
<svg width="100pt" height="100pt" version="1.1" viewBox="0 0 100 100" xmlns="http://www.w3.org/2000/svg">
 <path d="m37.156 60.387-1.8477-0.76562c2.6211-6.3281-1.5859-12.621-4.3281-15.82l1.5195-1.3008c3.0391 3.5391 7.6875 10.57 4.6562 17.887z" fill="#338cc8"/>
 <path d="m33.793 39.34-1.2578-1.5547c4.9648-4.0234 7.9648-8.8242 8.918-14.266 0.71484-4.0703-0.050781-7.0039-0.058594-7.0352l1.9297-0.52344c0.035156 0.13281 0.87891 3.3125 0.11328 7.8008h0.003906c-0.45312 2.6445-1.3633 5.1914-2.6875 7.5234-1.6641 2.9492-4.0078 5.6602-6.9609 8.0547z" fill="#338cc8"/>
 <path d="m29.375 60.387-1.8477-0.76562c2.3438-5.6562-0.68359-11.273-3.6367-14.984l1.5664-1.2422c1.8984 2.3945 3.2773 4.8359 4.082 7.2578 1.1406 3.4375 1.0859 6.7148-0.16406 9.7344z" fill="#338cc8"/>
 <path d="m26.383 39.035-1.2812-1.5352c4.7969-4 7.6875-8.7422 8.5938-14.102 0.67969-4.0078-0.070312-6.8867-0.078124-6.9141l1.9297-0.52344c0.035156 0.13281 0.86328 3.25 0.13672 7.6641-0.66797 4.0469-2.8203 10.004-9.3008 15.41z" fill="#338cc8"/>
 <path d="m77.801 61.004h-55.602v-45.781h55.602zm-53.602-2h51.602v-41.781h-51.602z" fill="#338cc8"/>
 <path d="m23.316 45.188-0.24219-1.9883 10.926-1.332c0.58984-0.074219 1.0234-0.58594 1-1.1797s-0.5-1.0703-1.0938-1.0977l-10.746-0.42578 0.078125-2 10.746 0.42578c1.6367 0.066406 2.9492 1.3789 3.0156 3.0156s-1.1328 3.0469-2.7578 3.2461z" fill="#338cc8"/>
 <path d="m63.145 60.387c-3.0312-7.3164 1.6172-14.348 4.6562-17.887l1.5156 1.3008c-2.7422 3.1914-6.9492 9.4883-4.3281 15.816z" fill="#338cc8"/>
 <path d="m66.508 39.34c-2.9531-2.3945-5.3008-5.1016-6.9609-8.0547v-0.003906c-1.3242-2.332-2.2344-4.8789-2.6875-7.5234-0.76172-4.4844 0.078125-7.6641 0.11719-7.8008l1.9297 0.52344c-0.007812 0.027343-0.76953 2.9648-0.058594 7.0352 0.95312 5.4453 3.9531 10.246 8.918 14.27z" fill="#338cc8"/>
 <path d="m70.926 60.387c-1.25-3.0195-1.3047-6.3008-0.16016-9.7344 0.80469-2.4219 2.1797-4.8633 4.082-7.2578l1.5664 1.2422c-2.9531 3.7148-5.9805 9.3281-3.6406 14.984z" fill="#338cc8"/>
 <path d="m73.922 39.035c-6.4844-5.3984-8.6367-11.363-9.3008-15.406-0.72656-4.4141 0.10156-7.5352 0.13672-7.6641l1.9297 0.52344c-0.007812 0.027344-0.75781 2.9062-0.078125 6.9141 0.90625 5.3594 3.8008 10.102 8.5938 14.102z" fill="#338cc8"/>
 <path d="m76.684 45.148-10.621-1.293c-1.625-0.19922-2.8242-1.6133-2.7578-3.25 0.066406-1.6367 1.3789-2.9453 3.0156-3.0117l10.445-0.41406 0.078125 2-10.445 0.41016c-0.59375 0.027344-1.0664 0.50391-1.0938 1.0977-0.023438 0.59375 0.41016 1.1055 1 1.1797l10.617 1.2969z" fill="#338cc8"/>
 <path d="m28.539 73.621h-14.867v-2.9219c0.046875-4.0703 3.3633-7.3477 7.4336-7.3477 4.0742 0 7.3867 3.2773 7.4336 7.3477zm-12.867-2h10.867v-0.92188c-0.039062-2.9727-2.4609-5.3594-5.4336-5.3594-2.9727 0-5.3945 2.3867-5.4336 5.3594z" fill="#338cc8"/>
 <path d="m47.801 73.621h-14.867v-2.9219c0.09375-4.0391 3.3945-7.2617 7.4336-7.2617 4.0391 0 7.3398 3.2227 7.4336 7.2617zm-12.867-2h10.867v-0.92188c-0.042969-2.9727-2.4609-5.3594-5.4336-5.3594-2.9727 0-5.3945 2.3867-5.4375 5.3594z" fill="#338cc8"/>
 <path d="m67.066 73.621h-14.867v-2.9219c0.046875-4.0703 3.3633-7.3477 7.4336-7.3477 4.0742 0 7.3906 3.2773 7.4375 7.3477zm-12.867-2h10.867v-0.92188c-0.082031-2.9414-2.4883-5.2852-5.4336-5.2852-2.9453 0-5.3516 2.3438-5.4336 5.2852z" fill="#338cc8"/>
 <path d="m86.328 73.621h-14.867v-2.9219c0.046874-4.0703 3.3594-7.3477 7.4336-7.3477 4.0703 0 7.3867 3.2773 7.4336 7.3477zm-12.867-2h10.867v-0.92188c-0.039063-2.9727-2.4609-5.3594-5.4336-5.3594-2.9727 0-5.3945 2.3867-5.4336 5.3594z" fill="#338cc8"/>
 <path d="m27.133 67.441h7.207v2h-7.207z" fill="#338cc8"/>
 <path d="m65.66 67.441h7.207v2h-7.207z" fill="#338cc8"/>
 <path d="m46.398 67.441h7.207v2h-7.207z" fill="#338cc8"/>
 <path d="m28.539 83.777h-2v-1.8516c0.003907-0.64844-0.11328-1.293-0.33984-1.8984-0.27344-0.73047-0.69922-1.3906-1.25-1.9414-1.5547-1.5547-3.8906-2.0195-5.9219-1.1758-2.0312 0.83984-3.3555 2.8203-3.3555 5.0195v1.8516h-2v-1.8516c-0.023437-1.9883 0.75-3.9023 2.1484-5.3125 1.3945-1.4141 3.3008-2.2109 5.2852-2.2109 1.9883 0 3.8906 0.79688 5.2891 2.2109 1.3945 1.4102 2.168 3.3242 2.1445 5.3125z" fill="#338cc8"/>
 <path d="m47.801 83.777h-2v-1.8516c0-0.64844-0.11719-1.293-0.34375-1.8984-0.27344-0.73047-0.69922-1.3906-1.25-1.9414-1.0156-1.0234-2.3984-1.5938-3.8438-1.5898-1.4414-0.003906-2.8242 0.57031-3.8438 1.5898-1.0195 1.0195-1.5898 2.4023-1.5898 3.8438v1.8516h-2v-1.8516c-0.023438-1.9883 0.75-3.9023 2.1484-5.3125 1.3945-1.4141 3.3008-2.2109 5.2891-2.2109 1.9844 0 3.8906 0.79688 5.2852 2.2109 1.3984 1.4102 2.1719 3.3242 2.1484 5.3125z" fill="#338cc8"/>
 <path d="m67.066 83.777h-2v-1.8516c0.019532-1.4531-0.54688-2.8555-1.5664-3.8906-1.0234-1.0352-2.4141-1.6172-3.8711-1.6172-1.4531 0-2.8477 0.58203-3.8672 1.6172-1.0234 1.0352-1.5859 2.4375-1.5664 3.8906v1.8516h-1.9961v-1.8516c0-0.88672 0.16016-1.7695 0.47266-2.6016 1.0938-2.8984 3.8633-4.8164 6.9648-4.8281 1.9727-0.003906 3.8633 0.77734 5.2539 2.1797 1.3984 1.3906 2.1797 3.2852 2.1797 5.2539z" fill="#338cc8"/>
 <path d="m86.328 83.777h-2v-1.8516c0-3-2.4336-5.4336-5.4336-5.4336-2.2656 0.003906-4.293 1.4102-5.0938 3.5312-0.22656 0.60547-0.34375 1.25-0.34375 1.8984v1.8516h-2v-1.8516c0-0.88672 0.16016-1.7695 0.46875-2.6016 1.0977-2.8984 3.8672-4.8164 6.9648-4.8281 4.1055 0 7.4336 3.3281 7.4336 7.4336z" fill="#338cc8"/>
 <path d="m27.133 78.672h7.207v2h-7.207z" fill="#338cc8"/>
 <path d="m65.66 78.672h7.207v2h-7.207z" fill="#338cc8"/>
 <path d="m46.398 78.672h7.207v2h-7.207z" fill="#338cc8"/>
 <path d="m14.672 59h70.656v2h-70.656z" fill="#338cc8"/>
 <path d="m91 84.777h-82v-17.367h6.2891v2h-4.2891v13.367h78v-13.367h-4.2891v-2h6.2891z" fill="#338cc8"/>
</svg>
