<?xml version="1.0" encoding="UTF-8"?>
<svg width="100pt" height="100pt" version="1.1" viewBox="0 0 100 100" xmlns="http://www.w3.org/2000/svg">
 <path d="m45.953 82.59c-0.62109 0.84766-1.3164 1.6523-2.0625 2.4102-0.72656 0.72656-1.5156 1.4102-2.332 2.0156-0.41016 0.30469-0.48438 0.86328-0.19531 1.2734 0.18359 0.24219 0.45312 0.36328 0.72656 0.36328 0.18359 0 0.37891-0.0625 0.54688-0.18359 0.89453-0.66797 1.7578-1.3945 2.5469-2.1953 0.81641-0.81641 1.5625-1.6953 2.2422-2.6211 0.30469-0.41016 0.21094-0.96875-0.19531-1.2734-0.41406-0.28906-0.97266-0.19531-1.2773 0.21094z" fill="#338cc8"/>
 <path d="m36.031 89.895c-1.9688 0.68359-4.0469 1.0469-6.1367 1.0898-0.5 0.015625-0.89453 0.42578-0.87891 0.92578s0.42578 0.87891 0.91016 0.87891h0.03125c2.2891-0.0625 4.5312-0.45312 6.6836-1.1953 0.46875-0.16797 0.72656-0.68359 0.5625-1.1523-0.17188-0.45703-0.6875-0.71484-1.1719-0.54688z" fill="#338cc8"/>
 <path d="m10.273 78.047c-0.18359-0.46875-0.71094-0.69531-1.1836-0.51562-0.46875 0.18359-0.69531 0.71094-0.51562 1.1836 0.83203 2.1211 1.9844 4.0898 3.4258 5.8477 0.18359 0.22656 0.4375 0.33203 0.69531 0.33203 0.19531 0 0.41016-0.0625 0.57422-0.19531 0.39453-0.31641 0.45312-0.89453 0.13672-1.2734-1.3008-1.6211-2.3594-3.4414-3.1328-5.3789z" fill="#338cc8"/>
 <path d="m23.711 90.211c-2.0156-0.57422-3.9258-1.4531-5.668-2.6055-0.42578-0.27344-0.98438-0.16797-1.2578 0.25781-0.27344 0.42578-0.16797 0.98438 0.25781 1.2578 1.8945 1.2578 3.9688 2.2109 6.168 2.832 0.074218 0.03125 0.16797 0.03125 0.24219 0.03125 0.39453 0 0.75781-0.25781 0.87891-0.65234 0.13672-0.48438-0.13672-0.98438-0.62109-1.1211z" fill="#338cc8"/>
 <path d="m33.137 50.273c2.0625 0.37891 4.0469 1.0742 5.8789 2.0469 0.13672 0.074219 0.28906 0.10547 0.42578 0.10547 0.31641 0 0.63672-0.18359 0.80469-0.48438 0.24219-0.4375 0.0625-1-0.37891-1.2266-2-1.0625-4.168-1.8164-6.4102-2.2266-0.48438-0.089843-0.96875 0.22656-1.0625 0.72656-0.078125 0.49609 0.24219 0.96875 0.74219 1.0586z" fill="#338cc8"/>
 <path d="m50.805 70.031c-0.48438 0-0.89453 0.39453-0.91016 0.89453-0.046875 2.0898-0.41016 4.168-1.0742 6.1367-0.16797 0.46875 0.089844 0.98438 0.57422 1.1523 0.089844 0.03125 0.19531 0.046875 0.28906 0.046875 0.37891 0 0.72656-0.24219 0.86328-0.62109 0.72656-2.1523 1.1211-4.4102 1.168-6.6836 0.015625-0.5-0.39453-0.91016-0.89453-0.92578z" fill="#338cc8"/>
 <path d="m8.8945 71.969c-0.03125-0.5-0.0625-1-0.0625-1.5 0-1.5898 0.18359-3.168 0.54688-4.7109 0.12109-0.48437-0.18359-0.96875-0.68359-1.0898-0.48437-0.12109-0.96875 0.17969-1.0742 0.66406-0.39453 1.6836-0.58984 3.4102-0.58984 5.1367 0 0.54688 0.015625 1.0898 0.0625 1.6367 0.03125 0.46875 0.4375 0.84766 0.91016 0.84766h0.0625c0.49609-0.058594 0.85938-0.48438 0.82812-0.98438z" fill="#338cc8"/>
 <path d="m20.516 51.832c0.12109 0 0.25781-0.03125 0.37891-0.074219 1.9102-0.86328 3.9258-1.4258 6-1.668 0.5-0.0625 0.84766-0.51562 0.78906-1.0156-0.0625-0.5-0.51562-0.84766-1.0156-0.78906-2.2734 0.27344-4.4688 0.87891-6.5312 1.8164-0.45312 0.21094-0.66797 0.74219-0.45312 1.1953 0.16406 0.33984 0.5 0.53516 0.83203 0.53516z" fill="#338cc8"/>
 <path d="m10.469 60.289c0.15234 0.089844 0.30469 0.12109 0.46875 0.12109 0.30469 0 0.60547-0.15234 0.78906-0.4375 0.84766-1.4727 1.9102-2.8203 3.1211-4.0352 0.27344-0.27344 0.54688-0.53125 0.83203-0.78906 0.37891-0.33203 0.41016-0.91016 0.074218-1.2891-0.33203-0.37891-0.91016-0.41016-1.2891-0.074219-0.30469 0.27344-0.60547 0.5625-0.89453 0.84766-1.3164 1.3164-2.4688 2.7891-3.4102 4.3789-0.26562 0.45703-0.12891 1.0195 0.30859 1.2773z" fill="#338cc8"/>
 <path d="m60.637 46.438 18.773-18.773c0.54688 0.39453 1.1836 0.58984 1.8164 0.58984 0.69531 0 1.4102-0.24219 1.9844-0.71094l1.1523-0.9375 2.7734 2.7734c0.48438 0.48438 1.1211 0.75781 1.8164 0.75781s1.3477-0.27344 1.8164-0.74219c0.48438-0.48438 0.75781-1.1367 0.75781-1.8164 0-0.68359-0.27344-1.332-0.75781-1.8164l-2.4102-2.4102 1.7891-1.4688 2.2773 2.2383c0.48438 0.48438 1.1211 0.75781 1.8164 0.75781 0.69531 0 1.3477-0.27344 1.8164-0.75781 1-1 1-2.6211 0-3.6211l-1.8789-1.8789 0.68359-0.54688c0.68359-0.5625 1.1055-1.3945 1.1523-2.2734 0.046875-0.89453-0.28906-1.7578-0.92578-2.3789l-8.6523-8.6523c-0.62109-0.63672-1.5-0.95312-2.3789-0.92578-0.89453 0.046875-1.7109 0.46875-2.2891 1.1523l-0.54688 0.68359-1.8789-1.8789c-1-1-2.6367-1-3.6367 0-0.48438 0.48438-0.75781 1.1367-0.75781 1.8164 0 0.68359 0.27344 1.332 0.75781 1.8164l2.2422 2.2422-1.4531 1.7891-2.4062-2.4336c-1-1-2.6367-0.98438-3.6211 0-0.48438 0.48438-0.75781 1.1211-0.75781 1.832 0 0.68359 0.27344 1.332 0.75781 1.8164l2.7734 2.7734-0.9375 1.1523c-0.91016 1.1211-0.9375 2.6836-0.12109 3.8164l-3.4102 3.4102-3.4688 3.4414-21.168 21.168c-10.516-7.0742-24.484-5.7578-33.516 3.2734-5 5-7.7734 11.668-7.7734 18.742s2.7578 13.742 7.7734 18.742c5 5.0156 11.668 7.7734 18.742 7.7734s13.742-2.7578 18.742-7.7734c9.0312-9.0312 10.332-23 3.2578-33.5l5.8047-5.8047zm-4.0898 1.5469-1.6953-1.6953 2.1836-2.1836 1.6953 1.6953zm-4.2305 4.2266-1.6953-1.6953 2.9375-2.9375 1.6953 1.6953zm-3.4531 3.457-1.6953-1.6953 2.1836-2.1836 1.6953 1.6953zm-5.1367 5.1211c-0.12109 0.10547-12.348 10.605-15.305 13.137l-0.62109-0.62109 18.062-18.062 1.6953 1.6953zm2.6211-11.984 1.6953 1.6953-2.1836 2.1836-1.6953-1.6953zm4.2266-4.2305 1.6953 1.6953-2.9375 2.9375-1.6953-1.6953zm3.457-3.4531 1.6953 1.6953-2.1836 2.1836-1.6953-1.6953zm4.2266-4.2266 1.6953 1.6953-2.9375 2.9375-1.6953-1.6953zm3.4688-3.457 1.6953 1.6953-2.1836 2.1836-1.6914-1.7109zm4.2266-4.2266 1.6953 1.6953-2.9375 2.9375-1.6953-1.6953zm3.457-3.4688 1.6953 1.6953-2.1836 2.1836-1.6953-1.6953zm5.7109-2.3164-2.7422 2.7422-1.6953-1.6953 2.7422-2.7422zm0.25781 5.7266-1.6953-1.6953 2.7422-2.7422 1.6953 1.6953zm-3.4688 3.4531-1.6953-1.6953 2.1836-2.1836 1.6953 1.6953zm-4.2266 4.2266-1.6953-1.6953 2.9375-2.9375 1.6953 1.6953zm-3.457 3.457-1.6953-1.6953 2.1836-2.1836 1.6953 1.6953zm-21.332 11.969 1.6953 1.6953-18.059 18.078-0.62109-0.62109 13.137-15.289zm-13.469 25.227c0.22656 0.22656 0.34766 0.51562 0.34766 0.83203s-0.12109 0.60547-0.34766 0.83203c-0.4375 0.4375-1.2266 0.45312-1.668 0l-7.0742-7.0742c-0.22656-0.22656-0.34766-0.51562-0.34766-0.83203 0-0.31641 0.12109-0.60547 0.34766-0.83203 0.22656-0.22656 0.51562-0.34766 0.83203-0.34766s0.60547 0.12109 0.83203 0.34766zm-4.8047-7.3633-0.98438-0.98438c-0.5625-0.5625-1.3164-0.87891-2.1211-0.87891s-1.5625 0.31641-2.1211 0.87891c-0.5625 0.5625-0.87891 1.3164-0.87891 2.1211 0 0.80469 0.31641 1.5625 0.87891 2.1211l7.0742 7.0742c0.5625 0.5625 1.3164 0.87891 2.1211 0.87891 0.80469 0 1.5625-0.31641 2.1211-0.87891 0.5625-0.5625 0.87891-1.3164 0.87891-2.1211 0-0.80469-0.31641-1.5625-0.87891-2.1211l-0.98438-0.98438 12.711-10.91c0.71094-0.60547 1.2422-1.0625 1.6367-1.4102 3.2891 6.3633 2.1211 14.137-3 19.273-6.4531 6.4531-16.938 6.4531-23.395 0-6.4375-6.4531-6.4375-16.938 0-23.395 5.1367-5.1211 12.91-6.2891 19.273-3zm33.684-27.305 2.9375-2.9375 1.6953 1.6953-2.9375 2.9375zm31.227-15.785c0.13672 0.13672 0.22656 0.33203 0.22656 0.53125 0 0.19531-0.074218 0.39453-0.22656 0.54688-0.18359 0.18359-0.41016 0.21094-0.53125 0.21094-0.13672 0-0.34766-0.046874-0.53125-0.22656l-2.6523-2.6523 1.168-0.95312zm5.2422-5.2578c0.28906 0.28906 0.28906 0.77344 0 1.0742-0.18359 0.18359-0.41016 0.21094-0.53125 0.21094-0.13672 0-0.34766-0.046875-0.53125-0.22656l-2.1211-2.1211 1.168-0.95313zm-10.621-16.137h0.074218c0.34766 0 0.68359 0.13672 0.9375 0.39453l8.6523 8.6523c0.27344 0.27344 0.41016 0.63672 0.39453 1.0156-0.015626 0.37891-0.19531 0.72656-0.48438 0.96875l-11.621 9.4844c-0.53125 0.4375-1.3047 0.39453-1.7891-0.089844l-6.5156-6.5156c-0.48438-0.48438-0.53125-1.2578-0.089843-1.7891l9.4844-11.621c0.23047-0.30469 0.57813-0.48438 0.95703-0.5zm-7.1523 0.48438c-0.13672-0.13672-0.22656-0.33203-0.22656-0.53125 0-0.19531 0.074218-0.39453 0.22656-0.53125 0.28906-0.28906 0.77344-0.28906 1.0625 0l2.0156 2.0156-0.95312 1.168zm-5.2578 5.2578c-0.13672-0.13672-0.22656-0.33203-0.22656-0.53125 0-0.12109 0.03125-0.34766 0.22656-0.53125 0.28906-0.28906 0.77344-0.28906 1.0742 0l2.5469 2.5469-0.96875 1.168zm-24.91 76.547c-4.668 4.668-10.863 7.2266-17.469 7.2266s-12.805-2.5742-17.469-7.2266c-4.668-4.6523-7.2266-10.863-7.2266-17.453s2.5742-12.805 7.2266-17.453c8.3164-8.3164 21.168-9.6211 30.926-3.2422l-4.6367 4.6367c-7.1367-3.9258-16-2.7109-21.805 3.0898-7.1523 7.1523-7.1523 18.805 0 25.953 3.5742 3.5742 8.2734 5.3633 12.984 5.3633 4.6953 0 9.3945-1.7891 12.984-5.3633 5.8047-5.8047 7.0312-14.668 3.1055-21.805l1.6055-1.6055c0.86328 1.4688 1.5625 3.0469 2.0469 4.6953 0.12109 0.39453 0.48438 0.65234 0.87891 0.65234 0.089844 0 0.16797-0.015625 0.25781-0.03125 0.48437-0.13672 0.75781-0.63672 0.62109-1.1211-0.5625-1.9531-1.3945-3.8047-2.4688-5.5156l1.6953-1.6953c6.3477 9.7266 5.0625 22.574-3.2578 30.895z" fill="#338cc8"/>
 <path d="m96.816 67.332c-3.0469-8.5898-4.3633-12.227-7.2734-20.195l-0.60547-1.6367c-0.41016-1.1367-1.0469-1.832-1.8789-2.0742-0.86328-0.24219-1.8047 0.015625-2.8164 0.80469-5.7734 4.4375-11.547 8.8633-17.305 13.305-2.3789 1.8164-2.9102 3.6367-1.8945 6.4375 1.5312 4.2422 2.1836 6.0625 3.1211 8.6523l1.9688 5.4531c-0.30469 0.10547-0.60547 0.22656-0.89453 0.33203-1.2578 0.45312-2.5625 0.92578-3.6523 1.7109-1.6953 1.2422-2.6055 3.0898-2.5 5.0625 0.10547 1.8945 1.1836 3.6055 2.8633 4.5898 1.0469 0.60547 2.2266 0.89453 3.4258 0.89453 1.7734 0 3.5898-0.63672 5.1055-1.8789 2.3477-1.9258 2.9844-4.4688 1.8789-7.5625l-0.9375-2.6055c-1.5625-4.3477-2.9258-8.1211-4.6836-12.91-0.21094-0.5625-0.18359-0.63672 0.27344-0.96875 2.3633-1.7578 4.7422-3.5898 7.0312-5.3477 1.0742-0.81641 2.1523-1.6523 3.2109-2.4688 1.4375-1.0898 2.8633-2.1836 4.332-3.2891l0.89453-0.68359 3.7422 10.379c-0.16797 0.0625-0.33203 0.10547-0.5 0.16797-1.0156 0.31641-2.0742 0.65234-3.0312 1.1836-1.7109 0.95312-2.8945 2.5312-3.2578 4.3477-0.33203 1.6523 0.0625 3.3477 1.0898 4.6367 1.832 2.3164 5.6367 2.9531 8.6523 1.4258 3.1406-1.5938 4.6719-4.8516 3.6406-7.7617zm-4.4531 6.1367c-2.2422 1.1367-5.1055 0.71094-6.4102-0.9375-0.69531-0.89453-0.96875-2.0156-0.74219-3.168 0.25781-1.2891 1.1211-2.4375 2.3633-3.1211 0.80469-0.4375 1.7266-0.74219 2.6953-1.0469 0.46875-0.15234 0.95312-0.30469 1.4375-0.46875 0.22656-0.074218 0.41016-0.25781 0.51562-0.46875 0.10547-0.21094 0.10547-0.46875 0.03125-0.69531l-4.4844-12.41c-0.089843-0.27344-0.31641-0.48438-0.58984-0.5625-0.27344-0.074219-0.57422-0.03125-0.80469 0.15234l-1.8789 1.4258c-1.4688 1.1055-2.9102 2.1953-4.3477 3.3047-1.0742 0.81641-2.1523 1.6523-3.2266 2.4688-2.2891 1.7578-4.6523 3.5742-7.0156 5.332-1.1055 0.81641-1.3789 1.7422-0.87891 3.0625 1.7578 4.7891 3.0469 8.3633 4.6836 12.895l0.9375 2.6055c0.86328 2.3789 0.45312 4.0898-1.3164 5.5469-1.9258 1.5742-4.5742 1.9102-6.4688 0.80469-1.1836-0.68359-1.8945-1.8164-1.9688-3.1211-0.074219-1.3477 0.57422-2.6211 1.7578-3.5 0.87891-0.63672 2-1.0469 3.1836-1.4688 0.58984-0.21094 1.1836-0.42578 1.7891-0.68359 0.4375-0.18359 0.66797-0.69531 0.5-1.1523l-2.2734-6.2891c-0.9375-2.5898-1.5898-4.3945-3.1211-8.6523-0.75781-2.0898-0.46875-3.0312 1.2891-4.3945 5.7734-4.4375 11.547-8.8633 17.305-13.305 0.4375-0.33203 0.81641-0.51562 1.0742-0.51562 0.046874 0 0.089843 0 0.12109 0.015625 0.24219 0.074218 0.48438 0.42578 0.68359 0.95312l0.60547 1.6367c2.9102 7.9688 4.2266 11.59 7.2734 20.184 0.76562 2.1055-0.37109 4.3789-2.7188 5.5742z" fill="#338cc8"/>
 <path d="m15.695 31.332c1.2578 0.69531 2.5742 1.0469 3.8477 1.0469 2.0898 0 4.0625-0.92578 5.5312-2.6953 1.1836-1.4258 2.3477-2.8477 3.5156-4.2734 0.75781-0.92578 1.5312-1.8633 2.2891-2.7891 1.5742-1.9102 2.4258-2.9258 3.3477-4.0469 0.62109-0.74219 1.2578-1.5312 2.1836-2.6367 2.9531 4.2109 4.5742 7.9375 0.37891 12.605-0.27344 0.30469-0.30469 0.75781-0.089843 1.1055 0.22656 0.34766 0.65234 0.5 1.0469 0.36328 0.31641-0.10547 0.54688-0.16797 0.72656-0.22656 0.31641-0.089844 0.51562-0.15234 0.72656-0.28906 0.28906-0.19531 0.66797-0.45312 0.98438-0.80469 2.8047-3.1211 3.7578-6.7109 2.8633-10.684-0.5-2.2109-0.9375-4.6836-1.332-7.5469-0.046875-0.36328 0.12109-0.96875 0.41016-1.4258 0.39453-0.63672 1.4688-2.3477-0.28906-3.7578-0.58984-0.46875-2.1367-1.3789-3.8047 0.5625-0.62109 0.72656-1.2422 1.4688-1.8477 2.2266l-11.195 13.59c-0.34766-0.25781-0.68359-0.53125-1.0156-0.78906-1.2266-0.96875-2.3945-1.8945-3.7734-2.4844-1.7266-0.74219-3.6055-0.75781-5.2734-0.03125-1.5781 0.67969-2.8047 2.0117-3.3633 3.6172-1.168 3.3789 0.62109 7.3945 4.1328 9.3633zm-2.4062-8.7695c0.39453-1.1367 1.2578-2.0625 2.3633-2.5625 0.58984-0.25781 1.2109-0.39453 1.8477-0.39453 0.65234 0 1.332 0.13672 1.9688 0.42578 1.1523 0.5 2.2266 1.3477 3.3633 2.2422 0.5625 0.4375 1.1367 0.89453 1.7578 1.3477 0.39453 0.27344 0.92578 0.21094 1.2266-0.16797l10.938-13.273 0.80469-0.98438c0.60547-0.72656 1.1953-1.4688 1.8164-2.1836 0.69531-0.80469 1-0.5625 1.2891-0.33203 0.34766 0.27344 0.5 0.41016-0.10547 1.3789-0.41016 0.65234-0.80469 1.6953-0.66797 2.6523 0.41016 2.9102 0.84766 5.4258 1.3633 7.6953 0.41016 1.832 0.37891 3.5312-0.12109 5.1367 0.25781-3.3945-1.6836-6.5-3.9531-9.6211-0.16797-0.22656-0.42578-0.36328-0.71094-0.37891-0.27344-0.015625-0.54688 0.10547-0.72656 0.33203-1.332 1.6211-2.168 2.6211-2.9258 3.5469-0.92578 1.1211-1.7734 2.1367-3.3477 4.0469-0.77344 0.92578-1.5312 1.8633-2.2891 2.8047-1.168 1.4258-2.332 2.8477-3.5 4.2578-1.8164 2.1836-4.5312 2.6523-7.1055 1.2266-2.7109-1.5312-4.1641-4.6836-3.2852-7.1953z" fill="#338cc8"/>
</svg>
