<?xml version="1.0" encoding="UTF-8"?>
<svg width="100pt" height="100pt" version="1.1" viewBox="0 0 100 100" xmlns="http://www.w3.org/2000/svg">
 <path d="m84.715 68.762c0.003906-0.015625 0.011718-0.027344 0.015625-0.042969 0.1875-0.12891 0.44141-0.16406 0.49609-0.26953 0.089844-0.13281 0.125-0.19141 0.27344-0.71484 0.16406-0.51953 0.14844-0.55078 0.16406-0.69141 0.003907-0.12109-0.19141-0.29297-0.27344-0.5 0.003906-0.015625 0.007813-0.03125 0.011719-0.050781 0.16016-0.16797 0.41016-0.23828 0.45312-0.35938 0.046875-0.12891 0.085937-0.19531 0.15234-0.73437 0.058594-0.55078 0.050782-0.57813 0.027344-0.71875-0.027344-0.125-0.25-0.26563-0.36328-0.45313v-0.046874c0.12109-0.18359 0.34766-0.30078 0.37109-0.41797 0.046875-0.14844 0.066406-0.21484 0.035156-0.75391-0.039063-0.55469-0.054687-0.59766-0.10547-0.72266-0.035156-0.12109-0.27734-0.21484-0.42188-0.38281 0-0.011719-0.003906-0.019532-0.003906-0.03125 0.089844-0.21484 0.30469-0.37891 0.3125-0.49609-0.007813-0.16016 0.003906-0.19531-0.12109-0.75391-0.12891-0.53516-0.14844-0.55859-0.21484-0.67969-0.070313-0.10547-0.32031-0.15234-0.5-0.30078-0.003907-0.015625-0.007813-0.027344-0.011719-0.042969 0.054687-0.22266 0.23047-0.41016 0.21875-0.52734-0.027344-0.15234-0.035157-0.19922-0.24219-0.71875-0.21875-0.50781-0.23828-0.51953-0.34375-0.64453-0.078125-0.09375-0.33203-0.089843-0.52344-0.19531-0.007813-0.019531-0.019532-0.035157-0.03125-0.054688 0.015625-0.21484 0.15234-0.43359 0.11328-0.55859-0.039063-0.15234-0.046875-0.19922-0.36328-0.65625-0.28125-0.46875-0.32031-0.48047-0.41797-0.58203-0.09375-0.078125-0.35547-0.03125-0.57422-0.10938-0.011718-0.015625-0.023437-0.03125-0.035156-0.046875-0.023438-0.21875 0.070312-0.45312 0.027344-0.5625-0.082032-0.125-0.097656-0.17578-0.47656-0.57812-0.375-0.41406-0.39453-0.41406-0.54297-0.50391-0.097656-0.058594-0.33984 0.039063-0.5625-0.007813-0.015624-0.011718-0.03125-0.027343-0.042968-0.039062-0.054688-0.21484 0-0.46094-0.070313-0.55469-0.085937-0.12891-0.12109-0.16406-0.56641-0.5-0.4375-0.33594-0.45312-0.33203-0.60156-0.39453-0.12109-0.035156-0.34375 0.089844-0.56641 0.097657-0.015625-0.007813-0.03125-0.019532-0.046875-0.027344-0.10156-0.19922-0.089843-0.47266-0.16797-0.54297-0.12109-0.10547-0.17578-0.16016-0.66016-0.39844-0.48828-0.24219-0.51172-0.23047-0.65625-0.27344-0.125-0.023438-0.32422 0.13672-0.53516 0.18359-0.019531-0.007813-0.039062-0.015625-0.058594-0.023438-0.12891-0.18359-0.16016-0.44531-0.26172-0.5-0.13672-0.078125-0.1875-0.125-0.71094-0.26953-0.51953-0.17188-0.53516-0.15234-0.70312-0.16406-0.12109 0.003907-0.28906 0.20703-0.49219 0.28125-0.015626-0.003906-0.035157-0.007812-0.050782-0.011718-0.16016-0.15625-0.23438-0.40625-0.33984-0.44141-0.16406-0.066407-0.20703-0.10156-0.75-0.15234-0.54687-0.0625-0.56641-0.054688-0.73047-0.03125-0.12109 0.019531-0.25 0.25-0.44531 0.36328h-0.042969c-0.19141-0.13672-0.30859-0.36719-0.43359-0.38672-0.14453-0.035156-0.21094-0.042968-0.76562-0.015625-0.53906 0.027344-0.54688 0.042969-0.70703 0.097657-0.11719 0.039062-0.20312 0.28516-0.38281 0.42969-0.007812 0-0.019531 0.003906-0.027344 0.003906-0.20703-0.09375-0.36719-0.30859-0.49609-0.30469-0.15625-0.007813-0.21484-0.015625-0.74609 0.10547-0.53906 0.14063-0.54688 0.15625-0.69531 0.23047-0.10547 0.054688-0.14844 0.32812-0.30078 0.5-0.003906 0-0.007813 0.003907-0.011719 0.003907-0.23828-0.042969-0.43359-0.23438-0.54297-0.22266-0.16016 0.019531-0.21094 0.046875-0.71094 0.25781-0.52344 0.21484-0.52734 0.23438-0.63281 0.33203-0.10156 0.078125-0.11328 0.35156-0.23438 0.53906-0.007812 0.003906-0.019531 0.011718-0.027343 0.015624-0.21875-0.011718-0.4375-0.16797-0.55859-0.125-0.15234 0.039063-0.20312 0.0625-0.66797 0.35938-0.45312 0.30078-0.46094 0.31641-0.57422 0.45312-0.089844 0.09375-0.035157 0.35547-0.10938 0.5625-0.007812 0.003907-0.015624 0.011719-0.019531 0.015626-0.22656 0.023437-0.47266-0.082032-0.57422-0.023438-0.074218 0.039062-0.12891 0.0625-0.21484 0.13281l-1.707-1.5938c0.42578-0.80859 0.84766-1.6133 1.2656-2.4258 3.1094-2.0586 6.1484-4.1875 9.3555-6.1406l1.1914 0.66016c0.6875 0.35547 1.5312 0.078126 1.8867-0.60156 0.35156-0.69141 0.078125-1.5312-0.60547-1.8906-0.050782-0.023437-0.097657-0.046875-0.14063-0.0625 1.0508-3.3867 1.2656-9.0156-3.9844-14.941-2.3008-2.6055-5.2422-7.3555-8.3789-5.3555-0.12109 0.066406-0.24219 0.13672-0.35547 0.22266l-7.5195 5.5859-12.09 2.3672c-0.84375 0.16016-1.3906 0.97266-1.2227 1.8164 0.14062 0.74219 0.79688 1.2539 1.5234 1.2578h0.10547l1.4219 1.4883-5.4492 4.4336c-0.11719-0.11328-0.15625-0.13672-0.25-0.19141-0.10156-0.058594-0.33984 0.027343-0.56641-0.019531-0.015626-0.015626-0.03125-0.027344-0.046876-0.042969-0.058593-0.21094-0.003906-0.45703-0.066406-0.54688-0.09375-0.13281-0.12109-0.16016-0.57031-0.5-0.44922-0.33984-0.46094-0.33203-0.60938-0.39453-0.11719-0.035156-0.33594 0.089844-0.55078 0.097657-0.019532-0.011719-0.035157-0.023438-0.054688-0.035157-0.10156-0.20312-0.089844-0.46094-0.17969-0.53906-0.12109-0.10938-0.15234-0.15625-0.64453-0.39453-0.49609-0.24609-0.51953-0.24609-0.67188-0.28906-0.12109-0.023437-0.32031 0.15234-0.53125 0.19141-0.015625-0.003906-0.027344-0.011718-0.042968-0.015624-0.14063-0.18359-0.16016-0.45703-0.27344-0.50781-0.13672-0.066406-0.1875-0.11328-0.70312-0.27344-0.51953-0.16797-0.55469-0.14453-0.71094-0.15234-0.125-0.003906-0.30078 0.19922-0.50781 0.27344-0.011719-0.003906-0.023437-0.003906-0.035156-0.007812-0.16406-0.16016-0.23828-0.41016-0.34375-0.4375-0.16797-0.070313-0.21094-0.10156-0.75-0.15625-0.55859-0.066407-0.56641-0.066407-0.71875-0.042969-0.125 0.023438-0.26953 0.26172-0.46484 0.36719h-0.035156c-0.1875-0.13281-0.30078-0.37109-0.42578-0.39063-0.14453-0.023437-0.21484-0.035156-0.76953-0.003906-0.53906 0.015625-0.55078 0.039063-0.69922 0.082032-0.125 0.050781-0.21484 0.30078-0.39453 0.4375-0.007812 0-0.011718 0.003906-0.019531 0.003906-0.21484-0.089844-0.375-0.30469-0.5-0.30078-0.15234-0.007812-0.20703-0.015624-0.73828 0.10547-0.54297 0.13281-0.55078 0.15625-0.69531 0.23047-0.10156 0.058594-0.15234 0.32812-0.30859 0.49219-0.003907 0.003906-0.011719 0.003906-0.015626 0.003906-0.23437-0.050782-0.43359-0.23828-0.53125-0.21875-0.15625 0.019531-0.22266 0.035156-0.71484 0.25391-0.52344 0.21484-0.52344 0.22656-0.64062 0.32812-0.097656 0.074219-0.10938 0.34766-0.22266 0.53906-0.011719 0.007812-0.027344 0.015624-0.039063 0.019531-0.21875-0.023438-0.43359-0.17188-0.55469-0.12109-0.14844 0.042969-0.19922 0.054687-0.67188 0.36328-0.44141 0.28906-0.45312 0.3125-0.5625 0.44922-0.085937 0.085937-0.039062 0.33984-0.10547 0.54688-0.011719 0.007812-0.023438 0.015625-0.035156 0.027344-0.22656 0.023437-0.46875-0.082032-0.57031-0.023438-0.14844 0.074219-0.19922 0.10547-0.58984 0.48047-0.40625 0.37109-0.40625 0.38672-0.50391 0.52734-0.066406 0.10938 0.027344 0.36328-0.003906 0.58594-0.007813 0.007813-0.015625 0.019532-0.023438 0.027344-0.22266 0.066406-0.48828 0.003906-0.57812 0.066406-0.11328 0.082032-0.19141 0.125-0.48828 0.58203-0.33984 0.4375-0.32812 0.45312-0.40625 0.60547-0.035156 0.11719 0.097656 0.34766 0.10156 0.57031-0.003907 0.007812-0.007813 0.015625-0.015626 0.023437-0.20312 0.10156-0.47656 0.078125-0.54297 0.19531-0.11719 0.10938-0.15234 0.14453-0.40234 0.64453-0.25781 0.5-0.24219 0.51562-0.28906 0.66016-0.011719 0.125 0.14453 0.32031 0.19141 0.53516-0.007813 0.019532-0.015625 0.039063-0.023438 0.058594-0.1875 0.12891-0.44141 0.16016-0.5 0.25391-0.082031 0.14063-0.097656 0.17969-0.27344 0.71094-0.16406 0.51953-0.15625 0.55469-0.14062 0.70312-0.011719 0.125 0.17578 0.29297 0.26172 0.49219-0.003906 0.027344-0.011718 0.050782-0.015624 0.074219-0.16406 0.15234-0.40234 0.22656-0.44531 0.34375-0.0625 0.13281-0.085937 0.17188-0.14453 0.72656-0.066406 0.5625-0.054688 0.57422-0.027344 0.73438 0.011719 0.11328 0.23828 0.24219 0.35547 0.43359v0.050782c-0.125 0.18359-0.36328 0.29688-0.38672 0.41016-0.035156 0.18359-0.039062 0.22656-0.015625 0.77344 0.015625 0.55078 0.035156 0.56641 0.10938 0.71094 0.023438 0.11328 0.27344 0.20312 0.41797 0.375 0 0.015625 0.003906 0.027344 0.003906 0.042969-0.085937 0.21094-0.30078 0.37109-0.29297 0.48828-0.011718 0.15234-0.011718 0.21094 0.10547 0.75781 0.12109 0.53125 0.14844 0.5625 0.21875 0.68359 0.0625 0.10547 0.3125 0.15625 0.48828 0.28516 0.003906 0.019531 0.011719 0.035156 0.015625 0.050781-0.058593 0.21875-0.24219 0.41016-0.21875 0.52344 0.027344 0.16797 0.03125 0.23047 0.23828 0.73438 0.21875 0.49609 0.25 0.50781 0.34766 0.625 0.066406 0.10547 0.32031 0.10547 0.51562 0.20703 0.007812 0.015626 0.015625 0.03125 0.027344 0.046876-0.011719 0.22266-0.14844 0.44531-0.11328 0.55859 0.046875 0.16016 0.0625 0.1875 0.36719 0.63672 0.30078 0.48438 0.31641 0.5 0.42578 0.59766 0.097656 0.078125 0.34375 0.035156 0.55469 0.10547 0.015626 0.023437 0.035157 0.046875 0.050782 0.066406 0.007812 0.21875-0.082032 0.44141-0.007813 0.54297 0.058594 0.14062 0.085938 0.1875 0.45312 0.59375 0.375 0.39062 0.41016 0.39453 0.53906 0.48047 0.089843 0.054687 0.32422-0.019531 0.53906 0.007812 0.019531 0.019531 0.042969 0.035157 0.0625 0.054688 0.054688 0.21484 0 0.46484 0.070313 0.55078 0.10156 0.13672 0.14062 0.16406 0.57422 0.49219 0.44922 0.33984 0.47656 0.33203 0.61719 0.38672 0.10938 0.042969 0.32422-0.074218 0.53906-0.082031 0.027344 0.015625 0.050782 0.035156 0.078126 0.050781 0.082031 0.19922 0.066406 0.44141 0.15234 0.51953 0.10938 0.10547 0.17188 0.14062 0.65234 0.39062 0.5 0.25781 0.51953 0.25 0.66406 0.28125 0.11719 0.03125 0.32031-0.125 0.53516-0.17969 0.019531 0.007813 0.039062 0.015625 0.0625 0.023437 0.125 0.1875 0.16406 0.4375 0.25781 0.5 0.12891 0.070313 0.18359 0.10547 0.71094 0.26172 0.53516 0.17578 0.53906 0.15625 0.71094 0.16406 0.125 0.003906 0.30078-0.19141 0.50391-0.26953 0.015624 0.003907 0.027343 0.007813 0.042968 0.007813 0.16016 0.15625 0.23438 0.39844 0.33984 0.44531 0.14062 0.054687 0.19141 0.078124 0.73828 0.13281 0.55469 0.078125 0.57812 0.070312 0.71875 0.039062 0.12891-0.011718 0.26172-0.23828 0.45703-0.35156h0.035157c0.19141 0.12109 0.31641 0.36328 0.43359 0.39453 0.16016 0.023438 0.19141 0.035157 0.76172 0.011719 0.53516-0.042969 0.55469-0.054688 0.72656-0.10156 0.10547-0.035157 0.19531-0.28516 0.36328-0.42969 0.019531-0.003906 0.039063-0.003906 0.058594-0.007812 0.19531 0.097656 0.35156 0.30469 0.46484 0.30469 0.16406 0.019531 0.21094 0.007813 0.75-0.12109 0.53516-0.125 0.55859-0.13672 0.69922-0.20703 0.10938-0.066406 0.15625-0.32422 0.30078-0.5 0.007813-0.003906 0.019532-0.003906 0.027344-0.007812 0.22266 0.050781 0.41406 0.23437 0.53906 0.21484 0.15625-0.015625 0.20312-0.023437 0.71875-0.25 0.49609-0.20312 0.51172-0.22266 0.63281-0.32422 0.09375-0.078124 0.09375-0.33203 0.19922-0.53516 0.011719-0.007812 0.023438-0.011718 0.035156-0.019531 0.23047 0.003906 0.45312 0.15234 0.56641 0.125 0.14453-0.058594 0.22266-0.074219 0.66797-0.37891 0.44531-0.30859 0.45312-0.32422 0.57812-0.4375 0.074219-0.097657 0.035156-0.35938 0.10938-0.56641 0.011719-0.007812 0.019531-0.015624 0.03125-0.023437 0.22266-0.023437 0.46094 0.082031 0.5625 0.027344 0.15234-0.074219 0.20312-0.10938 0.61328-0.49219 0.39453-0.36719 0.39844-0.39062 0.48047-0.53906 0.0625-0.089844-0.023437-0.33984 0.007813-0.5625 0.007812-0.007813 0.011718-0.015625 0.019531-0.023438 0.21875-0.066406 0.48828-0.007812 0.57031-0.070312 0.12109-0.10547 0.17578-0.14062 0.51172-0.57812 0.31641-0.44141 0.32422-0.46094 0.37109-0.62109 0.046875-0.10547-0.082031-0.33594-0.082031-0.56641 0-0.003906 0.003906-0.003906 0.003906-0.007813 0.20703-0.10938 0.48047-0.089843 0.5625-0.17578 0.10547-0.13281 0.14062-0.16406 0.38281-0.66406 0.26172-0.48047 0.25391-0.51953 0.29297-0.65625 0.023438-0.12891-0.15625-0.33594-0.19141-0.5625 0.003906-0.007813 0.003906-0.015626 0.007812-0.023438 0.19141-0.14062 0.44922-0.16797 0.50391-0.26562 0.09375-0.13672 0.12109-0.1875 0.27344-0.71875 0.16016-0.51562 0.14844-0.55469 0.15234-0.69141 0.003906-0.12109-0.19141-0.30078-0.26953-0.51172 0.003906-0.011719 0.003906-0.027344 0.007812-0.039062 0.15625-0.16406 0.41797-0.23828 0.46094-0.35938 0.046875-0.12891 0.070312-0.19531 0.14062-0.73047 0.0625-0.5625 0.050781-0.57812 0.035156-0.73828-0.03125-0.11719-0.26172-0.25391-0.37109-0.44531v-0.027344c0.11719-0.19531 0.35938-0.3125 0.38281-0.42969 0.042969-0.14453 0.042969-0.21484 0.015625-0.76172-0.035156-0.54688-0.039063-0.58984-0.09375-0.71484-0.039063-0.125-0.28906-0.21484-0.42969-0.39062 0-0.003906 0-0.011719-0.003906-0.015625 0.089844-0.21875 0.30078-0.38281 0.3125-0.49609-0.003906-0.16797 0.003906-0.20312-0.11719-0.76172-0.12109-0.52344-0.14844-0.55078-0.21875-0.69141-0.0625-0.097657-0.32422-0.14453-0.5-0.29297-0.003906-0.007813-0.003906-0.015625-0.007812-0.027344 0.054688-0.22656 0.23047-0.42188 0.21875-0.54688-0.027344-0.14062-0.03125-0.17969-0.23828-0.72266-0.21875-0.48828-0.23828-0.50391-0.34766-0.62891-0.078124-0.097657-0.33594-0.097657-0.52344-0.20313-0.007813-0.011718-0.015625-0.027343-0.023437-0.039062 0.007812-0.22266 0.15625-0.44531 0.11719-0.5625-0.039063-0.14844-0.0625-0.20312-0.36328-0.67188-0.003906-0.003906-0.003906-0.003906-0.003906-0.007813l1.3008-1.0586c0.015625 0.074219 0.035156 0.15234 0.0625 0.22656l6.1797 15.871c0.023438 0.058594 0.050782 0.11719 0.078125 0.16797-0.55078 0.47266-1 1.0742-1.2852 1.7773-0.47266 1.1641-0.46875 2.4492 0.019531 3.6172 0.49219 1.168 1.4062 2.0781 2.5703 2.543 0.27734 0.12109 0.57422 0.20312 0.86328 0.26953 1.9453 0.40234 3.9062-0.47656 4.9414-2.1211 0.003906 0 0.007813 0.003907 0.011719 0.003907l3.5625 0.72656c-0.035156 0.3125-0.023437 0.33984-0.011719 0.46875 0.007813 0.11328 0.25 0.25 0.35938 0.45312v0.011719c-0.12109 0.19141-0.37109 0.31641-0.38672 0.42969-0.042968 0.17578-0.046874 0.22656-0.027343 0.76562 0.027343 0.55859 0.042969 0.57031 0.10547 0.71484 0.03125 0.12109 0.28906 0.20312 0.42969 0.38672 0 0.007812 0.003906 0.019531 0.003906 0.027343-0.085937 0.21094-0.30469 0.37109-0.29688 0.48828-0.023437 0.16797-0.015625 0.22266 0.10938 0.75781 0.125 0.54297 0.14062 0.5625 0.21094 0.69531 0.058593 0.10156 0.32031 0.15234 0.5 0.28906 0.003906 0.007813 0.003906 0.015625 0.007812 0.023438-0.058593 0.22266-0.25 0.42969-0.22656 0.53906 0.039062 0.16797 0.042969 0.23047 0.24609 0.73438 0.21875 0.51172 0.25 0.51562 0.34766 0.65234 0.0625 0.089844 0.34375 0.089844 0.54297 0.21094 0 0.003906 0.003906 0.003906 0.003906 0.007812-0.011719 0.23438-0.15625 0.46484-0.11328 0.57031 0.039063 0.16016 0.050782 0.20313 0.36328 0.66016 0.30469 0.47266 0.31641 0.48047 0.43359 0.58594 0.097656 0.078125 0.35937 0.035156 0.57031 0.11328 0.007812 0.011718 0.015625 0.023437 0.027344 0.035156 0.023437 0.22656-0.078125 0.46484-0.003906 0.57031 0.050781 0.15234 0.078124 0.1875 0.44531 0.58984 0.38281 0.39844 0.41797 0.40234 0.53906 0.49219 0.09375 0.054687 0.34766-0.035157 0.57813 0.007812 0.007812 0.007812 0.019531 0.015625 0.027343 0.023438 0.0625 0.21484 0 0.47656 0.074219 0.56641 0.10156 0.13672 0.13281 0.16797 0.5625 0.49609 0.44922 0.34766 0.49219 0.34375 0.62891 0.38672 0.11328 0.046875 0.33203-0.082031 0.55078-0.085937 0.019531 0.011719 0.039062 0.023437 0.058593 0.035156 0.09375 0.19922 0.074219 0.46484 0.16797 0.54297 0.10938 0.097656 0.16797 0.12891 0.64062 0.38281 0.50781 0.25391 0.52734 0.24609 0.66406 0.28906 0.11719 0.027343 0.32422-0.13281 0.53906-0.19141 0.019531 0.007813 0.039062 0.015626 0.054688 0.019532 0.13281 0.1875 0.16797 0.44141 0.25391 0.49609 0.13672 0.085937 0.19922 0.11719 0.71484 0.27344 0.53906 0.16797 0.54687 0.15625 0.71094 0.17188 0.125-0.003906 0.29688-0.20312 0.49609-0.28516 0.019531 0.003906 0.039062 0.007812 0.0625 0.015625 0.15234 0.16016 0.22266 0.40234 0.33594 0.44922 0.14453 0.050781 0.19922 0.066406 0.75781 0.125 0.54297 0.09375 0.55469 0.058593 0.69141 0.039062 0.13672-0.007812 0.27344-0.23047 0.46484-0.34766h0.054687c0.18359 0.12891 0.29297 0.36328 0.41406 0.39453 0.14062 0.007813 0.19531 0.035156 0.76172 0.011719 0.53125-0.046875 0.5625-0.078125 0.73437-0.10938 0.09375-0.035157 0.17969-0.27344 0.33984-0.42188 0.027344-0.003906 0.050782-0.007813 0.078125-0.011719 0.19531 0.10547 0.35156 0.30859 0.46875 0.30859 0.16016 0.007812 0.21094 0.007812 0.74219-0.12891 0.53906-0.11719 0.55859-0.14453 0.69531-0.20703 0.11328-0.058593 0.16016-0.31641 0.30078-0.49609 0.015626-0.003907 0.027344-0.007813 0.042969-0.015626 0.21484 0.0625 0.40234 0.23438 0.52344 0.21875 0.15234-0.027343 0.21484-0.035156 0.71875-0.24609 0.49219-0.20703 0.52734-0.23438 0.64062-0.33594 0.097656-0.074219 0.089844-0.32031 0.19141-0.52344 0.015625-0.007813 0.03125-0.015625 0.046875-0.027344 0.22656 0.015625 0.44531 0.15625 0.55859 0.12109 0.14453-0.054688 0.20312-0.070313 0.67578-0.37891 0.44531-0.29297 0.44141-0.3125 0.57031-0.42188 0.078126-0.10937 0.035157-0.36328 0.10938-0.57031 0.011718-0.011719 0.027343-0.019531 0.039062-0.027344 0.22266-0.019531 0.46484 0.074219 0.55859 0.023438 0.16016-0.074219 0.19141-0.10156 0.60938-0.48438 0.39844-0.36328 0.41016-0.38672 0.47656-0.53516 0.070313-0.097656-0.019531-0.34375 0.015625-0.57031 0.003906-0.003906 0.003906-0.007812 0.007813-0.007812 0.22266-0.074219 0.49609-0.003907 0.58594-0.085938 0.12891-0.097656 0.17188-0.13281 0.50781-0.57031 0.32812-0.44141 0.33203-0.46484 0.38281-0.62109 0.042969-0.10156-0.089843-0.34375-0.082031-0.57812 0.003906-0.003907 0.003906-0.007813 0.007812-0.011719 0.19922-0.10547 0.46875-0.082031 0.55078-0.16016 0.10938-0.14062 0.14453-0.17969 0.40234-0.67578 0.24609-0.48047 0.24609-0.51172 0.27734-0.66016 0.03125-0.10938-0.13672-0.30859-0.17969-0.52344zm-47.367-14.488c-3.4922 4.668-10.102 5.6133-14.777 2.1172-4.6523-3.4922-5.6055-10.086-2.1016-14.754 3.4844-4.6758 10.102-5.625 14.758-2.125 0.31641 0.23828 0.61719 0.48828 0.89844 0.75391l-8.1094 6.5977c-0.59766 0.49609-0.69531 1.3633-0.19922 1.9688 0.19922 0.26172 0.5 0.42188 0.79297 0.47656 0.39844 0.089844 0.82812 0.003906 1.168-0.28516l8.1133-6.5977c2.1953 3.5781 2.1172 8.2852-0.54297 11.848zm26.434 3.3984 4.0156 3.7617-5.3984-1.1055c0.32422-0.92578 0.78516-1.8203 1.3828-2.6562zm-13.406 3.293c-0.48047-0.19531-0.85938-0.5625-1.0586-1.0547-0.20312-0.47656-0.21094-0.99219-0.003906-1.4727 0.33984-0.86719 1.2695-1.3594 2.1758-1.168 0.12109 0.015625 0.23828 0.058594 0.35547 0.097657 0.98828 0.40234 1.4805 1.543 1.0664 2.5391-0.40234 0.97656-1.5234 1.4492-2.5352 1.0586zm4.3516-4.8398c-0.47656-0.56641-1.0938-1.0312-1.8242-1.3281-0.76953-0.32422-1.5781-0.41797-2.3555-0.32422-0.003906-0.015625-0.007813-0.03125-0.011719-0.046875l-6.1875-15.875c-0.007812-0.023437-0.023437-0.046875-0.035156-0.070312l9.1992 5.6055 2.5508 8.3984c-0.4375 1.2227-0.87891 2.4336-1.3359 3.6406zm5.0195-11.496-1.2031-0.73438-0.44531-2.4102 3.6289-0.625 1.918-5.6016-8.875 0.39063-0.28906 0.011718c-1.4766 0.035156-2.6406 1.2695-2.6055 2.7344 0.015625 0.24219 0.046875 0.49609 0.11719 0.71094l0.29687 0.97656-6.582-4.0117 1.2812-1.043c0.019531-0.015625 0.03125-0.035156 0.050781-0.050782 0.011719-0.011718 0.023438-0.019531 0.035157-0.03125 0.015625-0.015624 0.027343-0.035156 0.042969-0.050781 0.039062-0.039062 0.074218-0.078125 0.10547-0.12109 0.03125-0.042969 0.058594-0.082032 0.082032-0.125 0.019531-0.03125 0.035156-0.0625 0.050781-0.089844 0.027343-0.054688 0.050781-0.11328 0.070312-0.16797 0.007813-0.023437 0.015625-0.050781 0.023438-0.074219 0.015625-0.0625 0.027343-0.125 0.039062-0.1875 0.003907-0.023437 0.007813-0.050781 0.007813-0.074218 0.003906-0.0625 0.003906-0.12109 0-0.18359 0-0.03125-0.003906-0.058594-0.007813-0.089844-0.007812-0.054688-0.019531-0.11328-0.03125-0.16797-0.007812-0.035156-0.015625-0.070312-0.027343-0.10156-0.015626-0.050781-0.035157-0.097657-0.058594-0.14453-0.015625-0.039063-0.035156-0.074219-0.054688-0.11328-0.023437-0.039062-0.050781-0.078125-0.078125-0.11719-0.019531-0.027344-0.03125-0.054688-0.050781-0.078125-0.011719-0.015625-0.03125-0.03125-0.046875-0.046875-0.007813-0.007813-0.015625-0.019531-0.023437-0.03125l-0.64453-0.67969 9.3125-0.046875c0.45312 0.003906 0.87109-0.14844 1.207-0.39844l0.1875-0.14062 6.75-5.0156-2.1328 3.25 4.5039 5.4219h-0.011719l1.168 1.3945c-0.003906 0.003906-0.007812 0.007813-0.011719 0.011719-2.4805 2.7227-5.1094 5.2617-7.6992 7.8516zm0.52734 9.7539 1.1484 1.0742c-0.023437 0.03125-0.042969 0.0625-0.066406 0.097657-0.34375 0.44141-0.33203 0.46094-0.41016 0.61328-0.042968 0.11719 0.097657 0.35156 0.10156 0.57422 0 0-0.003906 0.003906-0.003906 0.007812-0.19922 0.11719-0.48438 0.09375-0.55859 0.19922-0.11328 0.10938-0.15234 0.14844-0.40234 0.64062-0.23828 0.5-0.23828 0.51172-0.28516 0.67578-0.015625 0.12891 0.15234 0.32422 0.19922 0.54688-0.003906 0.011719-0.011719 0.027344-0.015625 0.039062-0.19141 0.13281-0.44922 0.16016-0.50391 0.25781-0.078124 0.12109-0.10547 0.17969-0.23437 0.57422l-1.4805-0.30469c0.79297-1.6797 1.6445-3.3398 2.5117-4.9961zm20.527 15.727c-3.4805 4.668-10.098 5.6211-14.773 2.1133-2.9688-2.2305-4.4258-5.7148-4.1875-9.1602l10.238 2.0898c0.60547 0.12109 1.2227-0.1875 1.5156-0.73828 0.28516-0.54297 0.16406-1.2266-0.28516-1.6641l-7.625-7.125c3.6641-3.0156 9.0352-3.2695 12.996-0.28516 4.6758 3.4922 5.6172 10.113 2.1211 14.77z" fill="#338cc8"/>
 <path d="m54.379 21.094c2.4102 0.98047 5.1562-0.1875 6.1406-2.5859 0.98828-2.4141-0.16406-5.1562-2.5781-6.1406-2.4062-0.97266-5.1641 0.16797-6.1406 2.5742-0.98828 2.4141 0.16406 5.1562 2.5781 6.1523z" fill="#338cc8"/>
 <path d="m72.043 66.469c-0.53516-0.10547-1.0547 0.23828-1.1641 0.76562s0.23828 1.0469 0.76172 1.1523c0.52734 0.11328 1.043-0.23438 1.1562-0.75781 0.11328-0.53516-0.22656-1.043-0.75391-1.1602z" fill="#338cc8"/>
 <path d="m83.801 85.039-6.0508-1.8008h-11.188l-14.297-12.281h-9.457l-7.332-4.4023h-11.957l-15.984-11.523 0.97656-1.3516 15.547 11.211h11.879l7.332 4.3984h9.6133l14.297 12.281h10.812l6.2852 1.8711z" fill="#338cc8"/>
 <path d="m81.113 79.754c0 0.94531-1.418 0.94531-1.418 0 0-0.94531 1.418-0.94531 1.418 0z" fill="#338cc8"/>
 <path d="m86.188 81.551c0 0.94531-1.418 0.94531-1.418 0 0-0.94531 1.418-0.94531 1.418 0z" fill="#338cc8"/>
 <path d="m84.168 77.832c0 1.5703-2.3555 1.5703-2.3555 0 0-1.5703 2.3555-1.5703 2.3555 0z" fill="#338cc8"/>
</svg>
