<?xml version="1.0" encoding="UTF-8"?>
<svg width="100pt" height="100pt" version="1.1" viewBox="0 0 100 100" xmlns="http://www.w3.org/2000/svg">
 <path d="m22.199 72.148c-1.3711-0.050782-1.2891-2.1289 0.078125-2.0781 5.8711 0.23828 11.871 0.69922 17.66 1.7617v-4.6094h-2.4805c-1.3711 0-1.3711-2.0781 0-2.0781h2.4805v-9.4609h-2.2617c-0.57812 0-1.0391-0.46875-1.0391-1.0391 0-0.57812 0.46094-1.0508 1.0391-1.0508h2.2617v-3.6406h-2.5391c-1.3711 0-1.3711-2.0781 0-2.0781h2.5391v-4.4414l-2.8281 0.011718v2.1602c0 1.3711-2.0898 1.3711-2.0898 0v-2.1719c-1.0391 0-1.9805-0.019532-2.8398-0.050782v2.2188c0 1.3711-2.0781 1.3711-2.0781 0v-2.3516c-6.0195-0.58984-6.2109-2.8984-5.9688-11.859h-2.1406c-1.3711 0-1.3711-2.0781 0-2.0781h2.1992c0.039063-1.3711 0.078125-2.8594 0.10938-4.5117h-2.0312c-1.3711 0-1.3711-2.0781 0-2.0781h2.0508v-1.5898c0-0.94141 0.25-1.8398 0.69141-2.6094l-1.9102-1.9102c-0.96875-0.96094 0.51172-2.4414 1.4805-1.4688l1.7891 1.7891c0.60938-0.48047 1.3281-0.82812 2.1211-1.0117v-2.6289c0-1.3711 2.0781-1.3711 2.0781 0v2.5781c2.5508 0.42969 4.4414 2.6719 4.4414 5.2617v4.3203h2.2617c1.3711 0 1.3711 2.0781 0 2.0781h-2.2617v5.2188h4.9297v-3.7891c0-4.3086 3.3516-7.8711 7.5586-8.2305v-2.3086c0-1.3711 2.0898-1.3711 2.0898 0v2.3984c1.7812 0.30859 3.3203 1.1602 4.5781 2.4492l1.6914-1.6914c0.96094-0.96875 2.4414 0.51172 1.4688 1.4805l-1.9102 1.9102c0.51953 0.94922 0.87109 2.0117 0.98828 3.1289h2.3516c1.3711 0 1.3711 2.0781 0 2.0781h-2.3086v14.359h4.6992v-5.2109h-2.25c-1.3711 0-1.3711-2.0781 0-2.0781h2.25v-4.3203c0-2.6016 1.8906-4.8281 4.4492-5.2617v-2.5781c0-1.3711 2.0781-1.3711 2.0781 0v2.6289c0.78125 0.17969 1.5 0.53125 2.1094 1.0117l1.8008-1.7891c0.96875-0.96875 2.4414 0.5 1.4688 1.4688l-1.9102 1.9102c0.44141 0.76953 0.69141 1.6719 0.69141 2.6094l0.011718 1.5898h2.0391c1.3711 0 1.3711 2.0781 0 2.0781h-2.0195c0.019531 1.6484 0.058593 3.1406 0.10156 4.5117h2.2109c1.3711 0 1.3711 2.0781 0 2.0781h-2.1484c0.21875 8.1797 0.078125 10.82-4.4883 11.66v2.6289c0 1.3711-2.0898 1.3711-2.0898 0v-2.3789c-0.75 0.050781-1.5781 0.089844-2.5117 0.10938v2.2695c0 1.3711-2.0781 1.3711-2.0781 0v-2.25c-1.3203 0.011719-2.7812 0-4.4102 0v3.6484h2.3516c1.3711 0 1.3711 2.0898 0 2.0898h-2.3516v4.5h2.6289c1.3711 0 1.3711 2.0898 0 2.0898h-2.6289v5.3594c6.5312-0.60156 13.762-0.35156 21.699 0.75 1.3594 0.19141 1.0781 2.25-0.28125 2.0586-17.199-2.3789-36.969-1.5508-49.84 11.68-0.94922 0.98047-2.4414-0.46875-1.4883-1.4492 4.9297-5.0586 11.051-8.6797 18.359-10.871-7.1289-2.0117-15.34-2.6406-22.699-2.9414zm24.969 1.4688 0.078125-9.2812h-2.2109c-1.3711 0-1.3711-2.0898 0-2.0898h2.2188l0.10938-12.289h-2.4219c-1.3711 0-1.3711-2.0898 0-2.0898h2.4414c0.12109-13.672 0.17969-18.809 0.17969-18.828 0.10156-2.0117-0.089844-5.3789-2.8789-5.1484-1.6602 1.1484-2.6602 3.0391-2.6602 5.0703v43.281c1.8789 0.41016 3.5898 0.87109 5.1406 1.3789zm7.1992-0.46875v-44.191c0-1.6992-0.69922-3.2383-1.8086-4.3594-1.1211-1.1211-2.6719-1.8086-4.3594-1.8086-0.12891 0-0.25 0-0.37891 0.011719 0.10156 0.089844 0.19922 0.19141 0.30078 0.28906l0.058594 0.058594c1.3008 1.5 1.5 3.8984 1.4688 5.8203l-0.050782 4.3906h2.1719c1.3711 0 1.3711 2.0898 0 2.0898h-2.1914c-0.058594 6.4688-0.17969 18.449-0.33984 38.539 1.6602-0.33984 3.3711-0.62891 5.1289-0.83984zm-28.25-36.691c0.17969 5.5586 2.3398 4.8906 13.82 4.8906v-6.5195h-5.9688c-0.57812 0-1.0391-0.46875-1.0391-1.0391v-12.66c0-1.7891-1.4688-3.2617-3.2617-3.2617-1.7891 0-3.2617 1.4688-3.2617 3.2617 0 5.0898-0.46094 10.32-0.28906 15.328zm43.641-3.5312c0-1.7891-1.4688-3.2617-3.2617-3.2617-1.8008 0-3.2617 1.4688-3.2617 3.2617v12.66c0 0.57031-0.46875 1.0391-1.0508 1.0391h-5.7383v6.5195c10.961 0 13.801 0.60938 13.68-4.4297l-0.37109-15.789z" fill="#338cc8"/>
</svg>
