<?xml version="1.0" encoding="UTF-8"?>
<svg width="100pt" height="100pt" version="1.1" viewBox="0 0 100 100" xmlns="http://www.w3.org/2000/svg">
 <path d="m83.332 73.957c1.1484 0 2.082-0.93359 2.082-2.082v-3.125c0-1.1484-0.93359-2.082-2.082-2.082h-1.043c0.11328-18.004-9.2578-33.77-22.918-38.887v-2.7812c0.007812-1.8398-1.5977-3.2617-3.4141-3.125l-2.4141-7.2383c-0.37891-1.1289-1.3516-1.9297-2.5039-2.1016v-7.3281c0-0.57422-0.46484-1.043-1.043-1.043-0.57422 0-1.043 0.46484-1.043 1.043v7.3281c-1.1523 0.17188-2.1289 0.96875-2.5039 2.1016l-2.4141 7.2383c-1.8203-0.13672-3.4258 1.2812-3.4141 3.125v2.7812c-13.66 5.1133-23.027 20.883-22.918 38.887h-1.043c-1.1484 0-2.082 0.93359-2.082 2.082v3.125c0 1.1484 0.93359 2.082 2.082 2.082h1.043v14.582h-1.043c-1.1484 0-2.082 0.93359-2.082 2.082v3.125c0 1.1484 0.93359 2.082 2.082 2.082h66.668c1.1484 0 2.082-0.93359 2.082-2.082v-3.125c0-1.1484-0.93359-2.082-2.082-2.082h-1.043v-14.582zm-3.125-7.5625v0.26953h-8.332c0.074219-15.723-4.7969-29.902-12.203-36.527 12.227 5.1953 20.535 19.613 20.535 36.258zm-50 0.26953c0.007813-17.363 6.3164-34.496 15.914-37.5-3.3047 5.9609-5.5391 20.957-5.4961 37.5zm12.5-0.26953c0-19.562 2.9062-33.309 5.8672-37.23h2.8516c2.9609 3.8086 5.9258 18.141 5.8672 37.5h-14.582v-0.26953zm11.168-37.23c9.5938 3 15.91 20.137 15.914 37.5h-10.418c0.039062-16.543-2.1953-31.539-5.4961-37.5zm-5.4492-13.871c0.27344-0.92578 1.4297-0.6875 2.1523-0.71094 0.44922 0 0.84766 0.28516 0.98828 0.71094l2.1914 6.5781h-7.5273l2.1914-6.5781zm-5.7227 9.7031c0-0.57422 0.46875-1.043 1.043-1.043h12.5c0.57422 0 1.043 0.46875 1.043 1.043v2.082h-14.582v-2.082zm-22.918 41.395c0-16.645 8.3086-31.062 20.535-36.258-7.4062 6.625-12.277 20.805-12.203 36.527h-8.332zm-3.125 2.3555h66.668v3.125l-66.66 0.003906v-3.125zm66.668 25-66.66 0.003906v-3.125h66.668v3.125zm-3.125-5.207-60.41 0.003907v-14.582h60.418v14.582z" fill="#338cc8"/>
 <path d="m25 86.457h6.25c0.57422 0 1.043-0.46484 1.043-1.043v-5.207c0-2.2969-1.8711-4.168-4.168-4.168s-4.168 1.8672-4.168 4.168v5.207c0 0.57422 0.46484 1.043 1.043 1.043zm1.043-6.25c0.074219-2.7461 4.0938-2.7461 4.168 0v4.168h-4.168z" fill="#338cc8"/>
 <path d="m39.582 86.457h6.25c0.57422 0 1.043-0.46484 1.043-1.043v-5.207c0-2.2969-1.8711-4.168-4.168-4.168s-4.168 1.8672-4.168 4.168v5.207c0 0.57422 0.46484 1.043 1.043 1.043zm1.043-6.25c0.074219-2.7461 4.0938-2.7461 4.168 0v4.168h-4.168z" fill="#338cc8"/>
 <path d="m54.168 86.457h6.25c0.57422 0 1.043-0.46484 1.043-1.043v-5.207c0-2.2969-1.8711-4.168-4.168-4.168s-4.168 1.8672-4.168 4.168v5.207c0 0.57422 0.46484 1.043 1.043 1.043zm1.043-6.25c0.074218-2.7461 4.0938-2.7461 4.168 0v4.168h-4.168z" fill="#338cc8"/>
 <path d="m68.75 86.457h6.25c0.57422 0 1.043-0.46484 1.043-1.043v-5.207c0-2.2969-1.8711-4.168-4.168-4.168s-4.168 1.8672-4.168 4.168v5.207c0 0.57422 0.46484 1.043 1.043 1.043zm1.043-6.25c0.074219-2.7461 4.0938-2.7461 4.168 0v4.168h-4.168z" fill="#338cc8"/>
</svg>
