<?xml version="1.0" encoding="UTF-8"?>
<svg width="100pt" height="100pt" version="1.1" viewBox="0 0 100 100" xmlns="http://www.w3.org/2000/svg">
 <path d="m46.094 97.656c-0.53906 0-0.97656-0.4375-0.97656-0.97656v-23.242c0-1.6562-0.46094-2.9414-1.3672-3.8281-1.5195-1.4844-3.8516-1.4453-3.8789-1.4453h-9.5977c-1.6562 0-2.9414 0.46094-3.8281 1.3672-1.4844 1.5195-1.4453 3.8516-1.4453 3.8789v23.27c0 0.53906-0.4375 0.97656-0.97656 0.97656-0.53906 0-0.97656-0.4375-0.97656-0.97656v-23.23c0-0.28906-0.011719-3.2031 1.9844-5.2656 1.2695-1.3086 3.0312-1.9727 5.2422-1.9727h9.5586c0.28906 0 3.2031-0.011719 5.2656 1.9844 1.3086 1.2695 1.9727 3.0312 1.9727 5.2422v23.242c0 0.25781-0.10156 0.50781-0.28516 0.69141s-0.43359 0.28516-0.69141 0.28516z" fill="#338cc8"/>
 <path d="m46.094 90.137h-22.07c-0.53906 0-0.97656-0.4375-0.97656-0.97656 0-0.53906 0.4375-0.97656 0.97656-0.97656h22.07c0.53906 0 0.97656 0.4375 0.97656 0.97656 0 0.53906-0.4375 0.97656-0.97656 0.97656z" fill="#338cc8"/>
 <path d="m75.977 97.656c-0.53906 0-0.97656-0.4375-0.97656-0.97656v-23.242c0-1.6562-0.46094-2.9414-1.3672-3.8281-1.5195-1.4844-3.8516-1.4453-3.8789-1.4453h-9.5977c-1.6562 0-2.9414 0.46094-3.8281 1.3672-1.4844 1.5195-1.4453 3.8516-1.4453 3.8789v23.27c0 0.53906-0.4375 0.97656-0.97656 0.97656s-0.97656-0.4375-0.97656-0.97656v-23.23c0-0.28906-0.011719-3.2031 1.9844-5.2656 1.2695-1.3086 3.0312-1.9727 5.2422-1.9727h9.5586c0.28906 0 3.2031-0.011719 5.2656 1.9844 1.3086 1.2695 1.9727 3.0312 1.9727 5.2422v23.242c0 0.25781-0.10156 0.50781-0.28516 0.69141-0.18359 0.18359-0.43359 0.28516-0.69141 0.28516z" fill="#338cc8"/>
 <path d="m75.977 90.137h-22.07c-0.53906 0-0.97656-0.4375-0.97656-0.97656 0-0.53906 0.4375-0.97656 0.97656-0.97656h22.07c0.53906 0 0.97656 0.4375 0.97656 0.97656 0 0.53906-0.4375 0.97656-0.97656 0.97656z" fill="#338cc8"/>
 <path d="m12.695 91.406c-0.53906 0-0.97656-0.4375-0.97656-0.97656v-14.453c0-0.53906 0.4375-0.97656 0.97656-0.97656 0.53906 0 0.97656 0.4375 0.97656 0.97656v14.453c0 0.25781-0.10156 0.50781-0.28516 0.69141-0.18359 0.18359-0.43359 0.28516-0.69141 0.28516z" fill="#338cc8"/>
 <path d="m87.695 91.406c-0.53906 0-0.97656-0.4375-0.97656-0.97656v-14.062c0-0.53906 0.4375-0.97656 0.97656-0.97656 0.53906 0 0.97656 0.4375 0.97656 0.97656v14.062c0 0.25781-0.10156 0.50781-0.28516 0.69141-0.18359 0.18359-0.43359 0.28516-0.69141 0.28516z" fill="#338cc8"/>
 <path d="m35.352 17.328c-3.6562-0.007813-6.6211-2.9727-6.625-6.6328v-1.8828-0.035156 0.003906c0-3.6602 2.9688-6.6289 6.625-6.6289 3.6602 0 6.6289 2.9688 6.6289 6.625v1.9258c-0.007813 3.6562-2.9727 6.6172-6.6289 6.625zm-4.6758-8.5625v1.9336-0.003907c0 2.582 2.0898 4.6758 4.6719 4.6758 2.582 0 4.6758-2.0938 4.6758-4.6758v-1.9062c0.003906-2.582-2.082-4.6797-4.6641-4.6875-2.582-0.007812-4.6797 2.082-4.6836 4.6602z" fill="#338cc8"/>
 <path d="m27.57 25.586c-0.53906 0-0.97656-0.4375-0.97656-0.97656v-2.7344c0-5.3164 3.6172-7.1797 5.5312-7.4219h0.003906c0.52344-0.046875 0.98828 0.32812 1.0547 0.84766s-0.28906 1-0.80469 1.0898c-0.17188 0.023437-3.8281 0.60938-3.8281 5.4844v2.7344-0.003906c0 0.25781-0.10156 0.50781-0.28516 0.69141-0.18359 0.1875-0.43359 0.28906-0.69531 0.28906z" fill="#338cc8"/>
 <path d="m43 25.586c-0.53906 0-0.97656-0.4375-0.97656-0.97656v-2.7969c0-4.8242-3.4219-5.2734-3.8125-5.3125-0.53906-0.042969-0.94141-0.51562-0.89844-1.0547 0.042969-0.53906 0.51562-0.94141 1.0547-0.89844 1.9414 0.14844 5.6094 1.8555 5.6094 7.2578v2.8047c0 0.53906-0.43359 0.97656-0.97656 0.97656z" fill="#338cc8"/>
 <path d="m64.844 17.328c-3.6562-0.007813-6.6211-2.9727-6.625-6.6328v-1.8828-0.035156 0.003906c0-3.6602 2.9688-6.6289 6.625-6.6289 3.6602 0 6.6289 2.9688 6.6289 6.625v1.9258c-0.007812 3.6562-2.9727 6.6172-6.6289 6.625zm-4.6797-8.5625v1.9336-0.003907c0 2.582 2.0938 4.6758 4.6758 4.6758 2.582 0 4.6758-2.0938 4.6758-4.6758v-1.9062c0.003906-2.582-2.082-4.6797-4.6641-4.6875-2.582-0.007812-4.6797 2.082-4.6875 4.6602z" fill="#338cc8"/>
 <path d="m57.062 25.586c-0.53906 0-0.97656-0.4375-0.97656-0.97656v-2.7344c0-5.3164 3.6172-7.1797 5.5312-7.4219h0.003906c0.52344-0.046875 0.98828 0.32812 1.0547 0.84766 0.066407 0.51953-0.28906 1-0.80469 1.0898-0.17188 0.023437-3.8281 0.60938-3.8281 5.4844v2.7344l-0.003907-0.003906c0.003907 0.25781-0.097656 0.50781-0.28125 0.69141-0.18359 0.1875-0.43359 0.28906-0.69141 0.28906z" fill="#338cc8"/>
 <path d="m72.492 25.586c-0.53906 0-0.97656-0.4375-0.97656-0.97656v-2.7969c0-4.8242-3.4219-5.2734-3.8125-5.3125-0.53906-0.042969-0.94141-0.51562-0.89844-1.0547 0.042968-0.53906 0.51562-0.94141 1.0547-0.89844 1.9414 0.14844 5.6094 1.8555 5.6094 7.2578l0.003906 2.8047c0 0.25781-0.10547 0.50781-0.28906 0.69141-0.18359 0.18359-0.42969 0.28516-0.69141 0.28516z" fill="#338cc8"/>
 <path d="m29.719 68.094c-0.4375 0-0.82031-0.29297-0.9375-0.71094-0.16797-0.58984-0.25-1.1953-0.25-1.8047v-1.8828-0.035156 0.003906c0-3.6602 2.9688-6.6289 6.625-6.6289 3.6602 0 6.6289 2.9688 6.6289 6.6289v1.9219c0 0.59766-0.082031 1.1953-0.23828 1.7734v-0.003906c-0.14453 0.52344-0.68359 0.82812-1.2031 0.68359-0.51953-0.14453-0.82422-0.68359-0.67969-1.2031 0.11328-0.40625 0.16797-0.82813 0.16797-1.25v-1.9102c0.007813-2.5781-2.0781-4.6758-4.6602-4.6836-2.582-0.007813-4.6797 2.0781-4.6875 4.6602v1.9336c0 0.42969 0.058594 0.85937 0.17578 1.2734 0.070313 0.25 0.039063 0.51562-0.089844 0.74219-0.125 0.22656-0.33594 0.39453-0.58594 0.46094-0.085937 0.023438-0.17578 0.03125-0.26562 0.03125z" fill="#338cc8"/>
 <path d="m59.23 68.164c-0.43359 0-0.8125-0.28516-0.93359-0.70312h-0.003906c-0.17969-0.60938-0.26953-1.2422-0.26953-1.8828v-1.8828-0.035156 0.003906c0-3.6602 2.9688-6.6289 6.625-6.6289 3.6602 0 6.6289 2.9688 6.6289 6.6289v1.9219c0 0.58594-0.078125 1.1758-0.23047 1.7422-0.14844 0.51562-0.67969 0.81641-1.1992 0.67969-0.51562-0.14062-0.82031-0.67187-0.6875-1.1875 0.10938-0.40234 0.16406-0.81641 0.16406-1.2344v-1.9062c0.007812-2.582-2.0781-4.6797-4.6602-4.6875-2.582-0.007813-4.6797 2.0781-4.6875 4.6602v1.9336c0 0.44922 0.066407 0.89844 0.19531 1.3281 0.085937 0.29688 0.03125 0.61719-0.15234 0.86328-0.1875 0.24609-0.47656 0.39453-0.78516 0.39453z" fill="#338cc8"/>
 <path d="m46.289 25.586c-0.53906 0-0.97656-0.4375-0.97656-0.97656v-5.8594c0-4.1562-2.9453-5.0781-4.7031-5.2461-0.54297-0.054687-0.93359-0.53516-0.88281-1.0742 0.054688-0.53906 0.53516-0.93359 1.0781-0.87891 1.5156 0.16797 6.4609 1.1289 6.4609 7.1992v5.8594c0 0.25781-0.10156 0.50781-0.28516 0.69141-0.18359 0.18359-0.43359 0.28516-0.69141 0.28516z" fill="#338cc8"/>
 <path d="m24.219 25.586c-0.53906 0-0.97656-0.4375-0.97656-0.97656v-5.8438c-0.070313-2.3906 1.2422-6.9531 6.707-7.2266v-0.003906c0.53906-0.023437 1 0.39062 1.0273 0.92969 0.023438 0.53906-0.39062 1-0.92969 1.0234-4.9531 0.24609-4.8516 5.0273-4.8516 5.2305v5.8906c0 0.25781-0.10156 0.50781-0.28516 0.69141-0.18359 0.18359-0.43359 0.28516-0.69141 0.28516z" fill="#338cc8"/>
 <path d="m75.781 25.586c-0.53906 0-0.97656-0.4375-0.97656-0.97656v-5.8594c0-4.1562-2.9453-5.0781-4.7031-5.2461-0.54297-0.054687-0.93359-0.53516-0.88281-1.0742 0.054688-0.53906 0.53516-0.93359 1.0781-0.87891 1.5156 0.16797 6.4609 1.1289 6.4609 7.1992v5.8594c0 0.25781-0.10156 0.50781-0.28516 0.69141-0.18359 0.18359-0.43359 0.28516-0.69141 0.28516z" fill="#338cc8"/>
 <path d="m53.711 25.586c-0.53906 0-0.97656-0.4375-0.97656-0.97656v-5.8438c-0.070313-2.3906 1.2422-6.9531 6.707-7.2266v-0.003906c0.53906-0.023437 1 0.39062 1.0273 0.92969 0.023438 0.53906-0.39062 1-0.92969 1.0234-4.9531 0.24609-4.8516 5.0273-4.8516 5.2305v5.8906c0 0.25781-0.10156 0.50781-0.28516 0.69141-0.18359 0.18359-0.43359 0.28516-0.69141 0.28516z" fill="#338cc8"/>
 <path d="m53.906 77.246h-7.7305c-0.53906 0-0.97656-0.4375-0.97656-0.97656 0-0.53906 0.4375-0.97656 0.97656-0.97656h7.7305c0.53906 0 0.97656 0.4375 0.97656 0.97656 0 0.53906-0.4375 0.97656-0.97656 0.97656z" fill="#338cc8"/>
 <path d="m75.977 76.938c-0.51172 0.003906-0.93359-0.39062-0.97656-0.89844-0.039062-0.50781 0.32031-0.96094 0.82422-1.0391 5.5625-0.90625 10.621-3.7539 14.281-8.0391 3.6602-4.2852 5.6758-9.7305 5.6953-15.367v-2.2109c-0.007812-6.2852-2.5039-12.309-6.9492-16.75-4.4414-4.4453-10.465-6.9414-16.75-6.9492h-44.203c-6.2852 0.007812-12.309 2.5039-16.75 6.9492-4.4453 4.4414-6.9414 10.465-6.9492 16.75v2.2109c0.019531 5.6133 2.0234 11.043 5.6562 15.324 3.6367 4.2773 8.668 7.1328 14.207 8.0625 0.53125 0.085937 0.89062 0.58984 0.80469 1.1211-0.089844 0.53516-0.58984 0.89453-1.125 0.80469h0.003906c-5.9961-1-11.445-4.0938-15.379-8.7266-3.9336-4.6328-6.1016-10.508-6.1211-16.586v-2.2109c0-14.145 11.508-25.652 25.652-25.652h44.203c14.145 0 25.652 11.508 25.652 25.652v2.2109c-0.019531 6.1016-2.2031 11.996-6.1641 16.633-3.9609 4.6406-9.4375 7.7227-15.457 8.7031-0.054687 0.003906-0.10547 0.007812-0.15625 0.007812z" fill="#338cc8"/>
 <path d="m23.703 81.801c-0.054687 0-0.10938-0.003906-0.16406-0.015625-5.9492-1.0469-11.344-4.1523-15.238-8.7734-3.8906-4.6211-6.0312-10.465-6.0508-16.508v-4.9414c0-0.53906 0.4375-0.97656 0.97656-0.97656 0.53906 0 0.97656 0.4375 0.97656 0.97656v4.9453-0.003906c0.019531 5.582 1.9961 10.98 5.5938 15.25 3.5938 4.2695 8.5781 7.1406 14.074 8.1055 0.5 0.085937 0.85547 0.54297 0.80859 1.0469-0.042969 0.50781-0.46484 0.89453-0.97656 0.89453z" fill="#338cc8"/>
 <path d="m53.906 82.227h-7.7305c-0.53906 0-0.97656-0.4375-0.97656-0.97656s0.4375-0.97656 0.97656-0.97656h7.7305c0.53906 0 0.97656 0.4375 0.97656 0.97656s-0.4375 0.97656-0.97656 0.97656z" fill="#338cc8"/>
 <path d="m76.098 81.914c-0.50781-0.003906-0.92578-0.39453-0.96484-0.89844-0.039062-0.50391 0.3125-0.95312 0.8125-1.0391 5.5547-0.90625 10.613-3.7578 14.266-8.043 3.6523-4.2852 5.668-9.7266 5.6875-15.359v-4.9453c0-0.53906 0.4375-0.97656 0.97656-0.97656s0.97656 0.4375 0.97656 0.97656v4.9453c-0.019531 6.0938-2.1992 11.984-6.1562 16.625-3.9531 4.6367-9.4258 7.7227-15.441 8.707-0.050781 0.003906-0.10547 0.007812-0.15625 0.007812z" fill="#338cc8"/>
 <path d="m35.352 25.586c-0.53906 0-0.97656-0.4375-0.97656-0.97656v-8.2031c0-0.53906 0.4375-0.97656 0.97656-0.97656 0.53906 0 0.97656 0.4375 0.97656 0.97656v8.2031c0 0.25781-0.10156 0.50781-0.28516 0.69141-0.18359 0.18359-0.43359 0.28516-0.69141 0.28516z" fill="#338cc8"/>
 <path d="m64.844 25.586c-0.53906 0-0.97656-0.4375-0.97656-0.97656v-8.2031c0-0.53906 0.4375-0.97656 0.97656-0.97656s0.97656 0.4375 0.97656 0.97656v8.2031c0 0.25781-0.10156 0.50781-0.28516 0.69141-0.18359 0.18359-0.43359 0.28516-0.69141 0.28516z" fill="#338cc8"/>
 <path d="m54.734 52.93h-9.375c-0.53906 0-0.97656-0.4375-0.97656-0.97656v-11.719c0-0.53906 0.4375-0.97656 0.97656-0.97656h9.375c0.26172 0 0.50781 0.10156 0.69141 0.28516 0.18359 0.18359 0.28516 0.43359 0.28516 0.69141v11.719c0 0.25781-0.10156 0.50781-0.28516 0.69141-0.18359 0.18359-0.42969 0.28516-0.69141 0.28516zm-8.3984-1.9531h7.4219v-9.7656h-7.4219z" fill="#338cc8"/>
 <path d="m25.098 52.93h-9.375c-0.53906 0-0.97656-0.4375-0.97656-0.97656v-11.719c0-0.53906 0.4375-0.97656 0.97656-0.97656h9.375c0.25781 0 0.50781 0.10156 0.69141 0.28516 0.18359 0.18359 0.28516 0.43359 0.28516 0.69141v11.719c0 0.25781-0.10156 0.50781-0.28516 0.69141-0.18359 0.18359-0.43359 0.28516-0.69141 0.28516zm-8.3984-1.9531h7.4219v-9.7656h-7.4219z" fill="#338cc8"/>
 <path d="m84.375 52.93h-9.375c-0.53906 0-0.97656-0.4375-0.97656-0.97656v-11.719c0-0.53906 0.4375-0.97656 0.97656-0.97656h9.375c0.25781 0 0.50781 0.10156 0.69141 0.28516 0.18359 0.18359 0.28516 0.43359 0.28516 0.69141v11.719c0 0.25781-0.10156 0.50781-0.28516 0.69141-0.18359 0.18359-0.43359 0.28516-0.69141 0.28516zm-8.3984-1.9531h7.4219v-9.7656h-7.4219z" fill="#338cc8"/>
 <path d="m69.555 52.93h-9.375c-0.53906 0-0.97656-0.4375-0.97656-0.97656v-11.719c0-0.53906 0.4375-0.97656 0.97656-0.97656h9.375c0.25781 0 0.50781 0.10156 0.69141 0.28516 0.18359 0.18359 0.28516 0.43359 0.28516 0.69141v11.719c0 0.25781-0.10156 0.50781-0.28516 0.69141-0.18359 0.18359-0.43359 0.28516-0.69141 0.28516zm-8.3984-1.9531h7.4219v-9.7656h-7.4219z" fill="#338cc8"/>
 <path d="m39.918 52.93h-9.375c-0.53906 0-0.97656-0.4375-0.97656-0.97656v-11.719c0-0.53906 0.4375-0.97656 0.97656-0.97656h9.375c0.25781 0 0.50781 0.10156 0.69141 0.28516 0.18359 0.18359 0.28516 0.43359 0.28516 0.69141v11.719c0 0.25781-0.10156 0.50781-0.28516 0.69141-0.18359 0.18359-0.43359 0.28516-0.69141 0.28516zm-8.3984-1.9531h7.4219v-9.7656h-7.4219z" fill="#338cc8"/>
 <path d="m29.504 36.914c-1.6602 0-3.1562-1-3.793-2.5312-0.63281-1.5352-0.28125-3.2969 0.89062-4.4688 1.1719-1.1758 2.9375-1.5273 4.4688-0.89062 1.5352 0.63281 2.5312 2.1289 2.5312 3.7891 0 2.2656-1.8359 4.1016-4.1016 4.1016zm0-6.25c-0.87109 0-1.6562 0.52344-1.9883 1.3281-0.33203 0.80078-0.14844 1.7266 0.46875 2.3398 0.61328 0.61328 1.5352 0.79688 2.3398 0.46484 0.80078-0.33203 1.3281-1.1172 1.3281-1.9844 0-1.1875-0.96484-2.1484-2.1484-2.1484z" fill="#338cc8"/>
 <path d="m60.656 36.719c-1.6602 0-3.1562-1-3.793-2.5312-0.63281-1.5352-0.28125-3.2969 0.89062-4.4688 1.1719-1.1758 2.9375-1.5273 4.4688-0.89062 1.5352 0.63281 2.5352 2.1289 2.5352 3.7891 0 2.2656-1.8398 4.1016-4.1016 4.1016zm0-6.25c-0.87109 0-1.6562 0.52344-1.9883 1.3281-0.33203 0.80078-0.14844 1.7266 0.46875 2.3398 0.61328 0.61328 1.5352 0.79688 2.3398 0.46484 0.80078-0.33203 1.3281-1.1172 1.3281-1.9844 0-1.1875-0.96484-2.1484-2.1484-2.1484z" fill="#338cc8"/>
 <path d="m67.176 36.719c-1.6602 0-3.1562-1-3.7891-2.5312-0.63672-1.5352-0.28516-3.2969 0.89062-4.4688 1.1719-1.1758 2.9336-1.5273 4.4688-0.89062 1.5312 0.63281 2.5312 2.1289 2.5312 3.7891 0 2.2656-1.8359 4.1016-4.1016 4.1016zm0-6.25c-0.86719 0-1.6523 0.52344-1.9844 1.3281-0.33203 0.80078-0.14844 1.7266 0.46484 2.3398s1.5391 0.79688 2.3398 0.46484c0.80469-0.33203 1.3281-1.1172 1.3281-1.9844 0-1.1875-0.96094-2.1484-2.1484-2.1484z" fill="#338cc8"/>
 <path d="m80.176 68.094c-1.6602 0-3.1562-1-3.7891-2.5312-0.63672-1.5352-0.28516-3.2969 0.89062-4.4688 1.1719-1.1758 2.9336-1.5273 4.4688-0.89062 1.5312 0.63281 2.5312 2.1289 2.5312 3.7891 0 2.2656-1.8359 4.1016-4.1016 4.1016zm0-6.25c-0.86719 0-1.6523 0.52344-1.9844 1.3281-0.33203 0.80078-0.14844 1.7266 0.46484 2.3398s1.5391 0.79688 2.3398 0.46484c0.80469-0.33203 1.3281-1.1172 1.3281-1.9844 0-1.1875-0.96094-2.1484-2.1484-2.1484z" fill="#338cc8"/>
</svg>
