<?xml version="1.0" encoding="UTF-8"?>
<svg width="100pt" height="100pt" version="1.1" viewBox="0 0 100 100" xmlns="http://www.w3.org/2000/svg">
 <path d="m87.844 38.844c3.1602 0 6.0078-1.9023 7.2188-4.8242 1.207-2.918 0.53906-6.2773-1.6953-8.5117-2.2344-2.2344-5.5938-2.9023-8.5117-1.6953-2.9219 1.2109-4.8242 4.0586-4.8242 7.2188 0 2.0703 0.82422 4.0586 2.2891 5.5234 1.4648 1.4648 3.4531 2.2891 5.5234 2.2891zm0-13.391c2.2578 0 4.2891 1.3594 5.1523 3.4453 0.86328 2.082 0.38672 4.4805-1.207 6.0781-1.5977 1.5938-3.9961 2.0703-6.0781 1.207-2.0859-0.86328-3.4453-2.8945-3.4453-5.1523-0.035156-1.4883 0.54297-2.9297 1.5977-3.9805 1.0508-1.0547 2.4922-1.6328 3.9805-1.5977z" fill="#338cc8"/>
 <path d="m88.625 63.859 6.25-13.422c0.60938-1.332 0.94141-2.7695 0.98438-4.2344v-0.67188c-0.035156-2.4531-2.0156-4.4336-4.4688-4.4688h-14.344l-7.8125-5.8125c-1.3594-1.0078-3.168-1.1719-4.6875-0.42188l-11.312-26.844v-3.75c0.003906-0.35938-0.17188-0.69922-0.46875-0.90625-0.28516-0.23047-0.66406-0.30469-1.0156-0.20312-1.1406 0.40625-28.125 10.484-43.094 52.016-0.125 0.28906-0.125 0.61719 0 0.90625 0.14844 0.26953 0.40234 0.46875 0.70312 0.54688l41.844 11.016-0.078125 0.1875h-18.031v-1.125c-0.03125-0.57031-0.49219-1.0234-1.0625-1.0469h-17.859c-0.29688-0.003906-0.58203 0.10938-0.79297 0.32031-0.21484 0.20703-0.33203 0.49219-0.33203 0.78906 0.019531 4.9375 1.0117 9.8242 2.9219 14.375-0.59375 0.085937-1.1953 0.13281-1.7969 0.14062-5.875 0-7.9219-3.7031-7.9219-3.8438-0.22656-0.46484-0.74609-0.71094-1.25-0.59375-0.50391 0.12109-0.85938 0.57422-0.85938 1.0938v17.859c0 0.61328 0.49609 1.1094 1.1094 1.1094h89.281c0.29688 0.003906 0.58203-0.10938 0.79297-0.32031 0.21484-0.20703 0.33203-0.49219 0.33203-0.78906v-17.859c0.015625-0.52344-0.33594-0.98828-0.84375-1.1133-0.51172-0.125-1.0391 0.125-1.2656 0.59766-0.09375 0.15625-2.0625 3.8594-7.9375 3.8594-0.60547-0.007812-1.2109-0.054688-1.8125-0.14062 1.9102-4.5508 2.9023-9.4375 2.9219-14.375 0.023438-0.12891 0.023438-0.26172 0-0.39062 0.80078-0.6875 1.4531-1.5312 1.9062-2.4844zm-20.656-26.812 8.0469 6.0312c0.19141 0.14062 0.41797 0.21875 0.65625 0.21875h14.734c1.2188 0.039063 2.1953 1.0156 2.2344 2.2344v0.67188c-0.042969 1.1484-0.30859 2.2812-0.78125 3.3281l-6.25 13.359c-0.6875 1.3672-1.9375 2.3633-3.4219 2.7344h-0.09375c-0.20703 0.042969-0.41406 0.10547-0.60938 0.1875h-12.062c-0.35156 0.007812-0.67969 0.17188-0.89062 0.45312l-2.4844 3.2656-5.2031 6.8438c-0.45312 0.41406-1.0586 0.62109-1.6719 0.57812-0.32031 0.011719-0.63672-0.039063-0.9375-0.14062h-0.125c-0.20312-0.082031-0.38672-0.19922-0.54688-0.34375-0.9375-1.0312-1.0234-2.5781-0.20312-3.7031l8.8281-11.047c0.45312-0.40625 1.0508-0.60938 1.6562-0.5625h7.8125c0.17188-0.011719 0.33984-0.066406 0.48438-0.15625 0.054687-0.019531 0.10156-0.050781 0.14062-0.09375 0.15234-0.10547 0.26953-0.25391 0.34375-0.42188l4.4531-11.156c0.039063-0.16406 0.039063-0.33594 0-0.5v-0.14062c-0.027344-0.11328-0.070313-0.22266-0.125-0.32812v-0.078125c-0.066406-0.09375-0.15234-0.17188-0.25-0.23438l-0.14062-0.09375c-0.11719-0.019531-0.24219-0.019531-0.35938 0h-5.6406c-0.48438-0.011719-0.95312-0.16797-1.3438-0.45312l-8.9531-6.875c-0.50781-0.37109-0.83203-0.94141-0.88281-1.5703-0.054687-0.625 0.16406-1.2422 0.60156-1.6953 0.35156-0.44531 0.86328-0.72656 1.4258-0.78516 0.5625-0.058594 1.125 0.10938 1.5586 0.47266zm-35 33.047h24.688l-1.0312 1.2812c-1.5273 1.9883-1.4102 4.7891 0.28125 6.6406 0.09375 0.09375 0.20312 0.15625 0.29688 0.23438-1.8594 2.0547-4.5469 3.1562-7.3125 3-5.875 0-7.8125-3.7031-7.9375-3.8438-0.1875-0.37109-0.56641-0.61328-0.98438-0.625-0.41406 0.007812-0.79297 0.24219-0.98438 0.60938-0.09375 0.15625-2.0625 3.8594-7.9375 3.8594-0.60156-0.007812-1.2031-0.054688-1.7969-0.14062 1.4648-3.5117 2.3828-7.2266 2.7188-11.016zm32.188-26.781 7.8125 5.8281c0.76953 0.54297 1.6836 0.84375 2.625 0.85938h3.9375l-3.3906 8.4531-0.125 0.23438s-0.078125 0.15625-0.125 0.23438h-7.0312c-1.2461-0.050781-2.4531 0.42578-3.3281 1.3125l-6.1562 7.625h-5.7812zm2.0469 29.688c0.46875 2.7734 1.2656 5.4805 2.375 8.0625-0.60547 0.10156-1.2148 0.15234-1.8281 0.15625-2.3398 0.10156-4.6367-0.66016-6.4531-2.1406 0.83984-0.16797 1.6094-0.58594 2.2031-1.2031zm-56.031-18.188c12.656-34.094 34.031-46.141 39.828-48.875v59.375zm42.062-41.078 9.6094 22.781c-1.0859 1.6953-0.875 3.9141 0.51562 5.375l-10.125 21.594zm-22.344 54.125v1.0469c-0.23828 4.0117-1.1758 7.9492-2.7656 11.641h-0.1875l-0.46875-0.21875-0.53125-0.26562-0.39062-0.23438-0.4375-0.29688-0.3125-0.23438-0.35938-0.3125-0.23438-0.21875-0.28125-0.29688-0.17188-0.1875-0.20312-0.26562-0.10938-0.14062-0.14062-0.21875s0-0.125-0.078125-0.125c-0.1875-0.375-0.57031-0.61328-0.99219-0.61328-0.42187 0-0.80469 0.23828-0.99219 0.61328l-0.078125 0.125v0.09375l-0.14062 0.1875-0.10938 0.15625-0.20312 0.25-0.17188 0.20312-0.51562 0.51562c-0.11328 0.10547-0.23438 0.20703-0.35938 0.29688-0.097656 0.089844-0.20312 0.17578-0.3125 0.25l-0.4375 0.29688-0.39062 0.23438-0.54688 0.26562-0.45312 0.21875h-0.1875c-1.7891-4.0312-2.8086-8.3594-3.0156-12.766zm62.5 26.781h-87.031v-9.2812l0.71875 0.51562c0.21875 0.14062 0.39062 0.28125 0.625 0.42188 0.3125 0.16797 0.63672 0.32031 0.96875 0.45312 0.25 0.125 0.48438 0.25 0.75 0.35938s0.89062 0.25 1.3594 0.35938c0.25 0.085938 0.50781 0.15234 0.76562 0.20312 0.84375 0.15625 1.7031 0.23438 2.5625 0.23438 2.2383 0.0625 4.4492-0.47656 6.4062-1.5625 0.94531-0.55469 1.793-1.2539 2.5156-2.0781 0.72656 0.82031 1.5742 1.5195 2.5156 2.0781 1.9609 1.0859 4.1797 1.6289 6.4219 1.5625 3.3711 0.15625 6.6406-1.1875 8.9219-3.6719 2.2891 2.4844 5.5625 3.8281 8.9375 3.6719 3.3711 0.15625 6.6406-1.1875 8.9219-3.6719 2.2891 2.4844 5.5625 3.8281 8.9375 3.6719 2.2383 0.0625 4.4492-0.47656 6.4062-1.5625 0.94531-0.55469 1.793-1.2539 2.5156-2.0781 0.72656 0.82031 1.5742 1.5195 2.5156 2.0781 1.9609 1.0859 4.1797 1.6289 6.4219 1.5625 0.85938 0 1.7188-0.082031 2.5625-0.23438 0.25781-0.050781 0.51562-0.11719 0.76562-0.20312 0.46875-0.10938 0.9375-0.21875 1.3438-0.35938s0.5-0.23438 0.76562-0.35938c0.32812-0.12891 0.64453-0.28125 0.95312-0.45312l0.64062-0.42188c0.23438-0.17188 0.5-0.34375 0.70312-0.51562zm0-13.75v1.1719c-0.082031 0.12891-0.16797 0.25781-0.26562 0.375l-0.15625 0.17188c-0.10547 0.14453-0.21875 0.28125-0.34375 0.40625l-0.25 0.23438c-0.14453 0.14844-0.30078 0.28516-0.46875 0.40625l-0.35938 0.26562-0.60938 0.45312-0.46875 0.25c-0.25391 0.12891-0.51562 0.24609-0.78125 0.34375l-0.54688 0.20312c-0.34766 0.10938-0.70312 0.19922-1.0625 0.26562l-0.54688 0.125c-0.63672 0.10156-1.2773 0.15625-1.9219 0.15625-1.8477 0.035156-3.6758-0.42578-5.2812-1.3438-1.0859-0.61719-2-1.5-2.6562-2.5625-0.18359-0.375-0.56641-0.60938-0.98438-0.60938-0.41797 0.003906-0.79688 0.23828-0.98438 0.60938-0.66016 1.0625-1.582 1.9453-2.6719 2.5625-1.6133 0.89844-3.4375 1.3477-5.2812 1.2969-5.875 0-7.8125-3.7031-7.9375-3.8594-0.18359-0.375-0.56641-0.60938-0.98438-0.60938-0.41797 0.003906-0.79688 0.23828-0.98438 0.60938-0.09375 0.15625-2.0625 3.8594-7.9375 3.8594s-7.8125-3.7031-7.9375-3.8594c-0.18359-0.375-0.56641-0.60938-0.98438-0.60938-0.41797 0.003906-0.79688 0.23828-0.98438 0.60938-0.09375 0.15625-2.0625 3.8594-7.9375 3.8594-1.8555 0.058594-3.6914-0.39062-5.3125-1.2969-1.0859-0.61719-2-1.5-2.6562-2.5625-0.18359-0.375-0.56641-0.60938-0.98438-0.60938-0.41797 0.003906-0.79688 0.23828-0.98438 0.60938-0.66016 1.0625-1.582 1.9453-2.6719 2.5625-1.6133 0.89844-3.4375 1.3477-5.2812 1.2969-0.64453 0-1.2852-0.054687-1.9219-0.15625l-0.5625-0.125c-0.35156-0.070313-0.70312-0.16016-1.0469-0.26562l-0.5625-0.20312c-0.26562-0.10938-0.53125-0.21875-0.76562-0.34375-0.16406-0.074219-0.32031-0.16406-0.46875-0.26562l-0.60938-0.375-0.42188-0.23438c-0.17188-0.14062-0.32812-0.26562-0.46875-0.40625l-0.25-0.23438c-0.14062-0.14062-0.25-0.28125-0.35938-0.40625l-0.14062-0.17188c-0.10938-0.13281-0.20703-0.27344-0.29688-0.42188v-1.1719c2.207 1.7734 4.9805 2.6953 7.8125 2.5938 1.25 0.007813 2.4961-0.15625 3.7031-0.48438 2.0078-0.51172 3.8203-1.5977 5.2188-3.125 1.3984 1.5273 3.2109 2.6133 5.2188 3.125 1.207 0.32812 2.4531 0.49219 3.7031 0.48438 3.3711 0.15625 6.6406-1.1875 8.9219-3.6719 2.2891 2.4844 5.5625 3.8281 8.9375 3.6719 3.375 0.13672 6.6406-1.2109 8.9375-3.6875 2.2773 2.4961 5.5469 3.8477 8.9219 3.6875 1.25 0.007813 2.4961-0.15625 3.7031-0.48438 2.0078-0.51172 3.8203-1.5977 5.2188-3.125 1.3984 1.5273 3.2109 2.6133 5.2188 3.125 1.207 0.32812 2.4531 0.49219 3.7031 0.48438 2.8633 0.125 5.6719-0.79688 7.9062-2.5938zm-11.797-0.34375h-0.20312l-0.4375-0.1875-0.5625-0.28125-0.35938-0.23438-0.46875-0.29688-0.29688-0.23438-0.35938-0.3125-0.23438-0.21875-0.28125-0.29688-0.17188-0.1875c-0.074219-0.082031-0.14062-0.17188-0.20312-0.26562l-0.10938-0.14062-0.14062-0.21875v-0.125c-0.1875-0.375-0.57031-0.61328-0.99219-0.61328-0.42188 0-0.80469 0.23828-0.99219 0.61328v0.125l-0.14062 0.21875-0.10938 0.14062-0.20312 0.25-0.17188 0.20312-0.28125 0.29688-0.23438 0.21875-0.35938 0.3125-0.3125 0.23438-0.4375 0.29688-0.40625 0.23438-0.51562 0.26562-0.48438 0.21875h-0.17188c-1.3828-3.1719-2.2773-6.5312-2.6562-9.9688l1.9062-2.5h11.5c0.30859-0.019531 0.60938-0.09375 0.89062-0.21875h1.0938c-0.23047 4.375-1.2695 8.6719-3.0625 12.672z" fill="#338cc8"/>
</svg>
