<?xml version="1.0" encoding="UTF-8"?>
<svg width="100pt" height="100pt" version="1.1" viewBox="0 0 100 100" xmlns="http://www.w3.org/2000/svg">
 <path d="m85.242 57.578h-4.0508v-16.949h4.8281l-14.688-7.5664-41.555-0.003906-14.691 7.5664h4.6875v16.949l-4.1055 0.003906c-0.42578 0-0.76953 0.34375-0.76953 0.76953 0 0.42578 0.34375 0.76953 0.76953 0.76953h21.348v11.027h44.176v-11.027h4.0508c0.42578 0 0.76953-0.34375 0.76953-0.76953 0-0.42578-0.34766-0.76953-0.76953-0.76953zm-8.0859-3.9023h-7.4688l7.4688-7.4727zm-8.3516-8.3555h7.4727l-7.4727 7.4766zm-0.99609 0v7.4766l-7.4727-7.4766zm-8.3359 0.90234 7.4531 7.457h-7.4531zm-1.0117 7.4531h-6.957l6.957-6.9609zm-7.8438-8.3555h7.4727l-7.4727 7.4766zm-0.99219 0v7.4766l-7.4727-7.4766zm-8.3555 0.88281 7.4766 7.4727h-7.4766zm-18.871 2.3984c0-3.9844 3.2266-7.2109 7.2148-7.2109 3.9844 0 7.2148 3.2266 7.2148 7.2109v8.9766h-14.43zm56.164 15.566c-2.2539 0.38672-4.0273 2.1719-4.3906 4.4336h-26.961v-3.8945c0.23828-0.09375 0.41016-0.32422 0.41016-0.60156v-1.6328c0-0.27344-0.16797-0.50391-0.41016-0.60156v-0.33984c0-0.14062-0.11328-0.25781-0.25781-0.25781-0.14062 0-0.25781 0.11328-0.25781 0.25781v0.35547c-0.21875 0.10156-0.375 0.32422-0.375 0.58203v1.6328c0 0.25781 0.15234 0.48047 0.375 0.58203v3.9141h-1.1758v-4.8281c0.23828-0.09375 0.41016-0.32422 0.41016-0.59766v-1.6328c0-0.27344-0.16797-0.50391-0.41016-0.60156v-0.33984c0-0.14062-0.11328-0.25781-0.25781-0.25781-0.14062 0-0.25781 0.11328-0.25781 0.25781v0.35547c-0.21875 0.10156-0.375 0.32422-0.375 0.58203v1.6328c0 0.25781 0.15234 0.47656 0.375 0.58203v4.8438h-0.97266c-0.35547-1.0078-1.1797-1.7969-2.2148-2.1055-0.125-1.3086-0.99609-2.3945-2.1836-2.832v-4.5508h38.922z" fill="#338cc8"/>
</svg>
