<?xml version="1.0" encoding="UTF-8"?>
<svg width="100pt" height="100pt" version="1.1" viewBox="0 0 100 100" xmlns="http://www.w3.org/2000/svg">
 <path d="m31.125 52.207c-1.1484-1.2305-1.1133-3.1484 0.078125-4.3398 1.1875-1.1875 3.1055-1.2227 4.3398-0.074219l11.332 11.332v-42.457c0-1.7266 1.3984-3.125 3.125-3.125s3.125 1.3984 3.125 3.125v42.457l11.332-11.332c1.2344-1.1484 3.1523-1.1133 4.3398 0.074219 1.1914 1.1914 1.2266 3.1094 0.078125 4.3398l-16.668 16.668c-1.2188 1.2188-3.1953 1.2188-4.4141 0zm56.375 7.168c-1.7148 0.023438-3.1016 1.4102-3.125 3.125v16.668c0 0.27344-0.10938 0.53906-0.30469 0.73438-0.19531 0.19531-0.46094 0.30469-0.73828 0.30469h-66.664c-0.57812 0-1.043-0.46484-1.043-1.0391v-16.668c0-1.7266-1.3984-3.125-3.125-3.125s-3.125 1.3984-3.125 3.125v16.668c0.023438 4.0156 3.2734 7.2695 7.293 7.2891h66.664c4.0195-0.019531 7.2695-3.2734 7.293-7.2891v-16.668c-0.023438-1.7148-1.4102-3.1016-3.125-3.125z" fill="#fff"/>
</svg>
