<?xml version="1.0" encoding="UTF-8"?>
<svg width="100pt" height="100pt" version="1.1" viewBox="0 0 100 100" xmlns="http://www.w3.org/2000/svg">
 <path d="m55.531 8.457c-0.73438-0.45312-1.6953-0.22266-2.1484 0.51172l-9.8125 15.988h-29.688c-1.2148 0-2.3242 0.69531-2.8555 1.7852-0.53516 1.0898-0.40234 2.3906 0.34375 3.3516l20.289 26.086v26.664l-9.2188 5.4414c-0.71875 0.39453-1.0781 1.2266-0.875 2.0234 0.33594 0.95312 1.2773 1.5586 2.2891 1.4648h18.738c1.0117 0.09375 1.9531-0.51172 2.2891-1.4648 0.20313-0.79688-0.15625-1.6289-0.875-2.0234l-9.2227-5.4414v-26.664l20.293-26.086c0.74609-0.96094 0.87891-2.2617 0.34766-3.3516-0.53516-1.0898-1.6445-1.7852-2.8594-1.7852h-5.3281l8.8086-14.355v0.003907c0.21875-0.35547 0.28516-0.77734 0.1875-1.1797-0.09375-0.40625-0.34766-0.75391-0.70312-0.96875zm-13.918 19.691-1.207 1.9688h-24.949l-1.5742-2.0352zm-4.3438 9.793c0.57812 0.3125 1.0039 0.84766 1.1758 1.4805 0.30078 1.1367 0.13281 2.3477-0.46484 3.3594-1.0625 1.9375-3.2031 2.9414-4.668 2.1875-0.57812-0.3125-1.0039-0.84766-1.1797-1.4805-0.30078-1.3125-0.03125-2.6953 0.74219-3.8008 0.76953-1.1016 1.9766-1.8281 3.3164-1.9961 0.375-0.003906 0.74219 0.082032 1.0781 0.25zm-5.2188 11.758 0.94922-1.543c0.44531 0.11719 0.90625 0.17969 1.3711 0.18359 1.1484-0.019532 2.2734-0.33594 3.2656-0.91797l-4.4102 5.6719-2.0938-2.707c0.38281-0.10156 0.71094-0.34766 0.91797-0.6875zm9.3828-11.195c-0.24219-0.78906-0.65234-1.5156-1.2031-2.1289l1.9219-3.1328h6.5156l-7.2695 9.3477c0.40625-1.332 0.41797-2.75 0.035156-4.0859zm-3.8672-3.7617c-3.1484-0.5625-6.2891 1.0195-7.707 3.8867-1.0039 1.7539-1.2578 3.8359-0.71094 5.7773 0.23828 0.78516 0.64453 1.5039 1.1875 2.1172l-0.94922 1.543c-0.007813 0.011719-0.007813 0.03125-0.015625 0.042969l-11.5-14.867h20.617zm-9.5938 53.906 5.25-3.0977 5.25 3.0977zm24.637-60.477-1.5117 1.9414-7.0273 0.003907 1.2031-1.9609z" fill="#338cc8"/>
 <path d="m89.297 76.301-0.28516-17.469c-0.011719-0.58984-0.30469-1.1367-0.78516-1.4805-0.48047-0.33984-1.0938-0.43359-1.6562-0.25l-11.797 3.8516c-0.875 0.28516-1.457 1.1055-1.4414 2.0195l0.21094 12.77c-1.4609-0.35938-3.0039-0.20703-4.3711 0.42969-3 1.3477-4.5469 4.2617-3.5156 6.6406h0.003906c0.44922 0.99609 1.2812 1.7695 2.3047 2.1445 0.64844 0.24609 1.332 0.36719 2.0234 0.36328 1.0039-0.007812 1.9961-0.23047 2.9141-0.64453 2.2227-0.83203 3.7227-2.918 3.8008-5.2891 0.003906-0.046875 0.027344-0.085938 0.023437-0.13281l-0.16016-9.6406 9.4414-3.125 0.10547 6.3203v-0.003906c-1.4648-0.35547-3.0039-0.20313-4.3711 0.43359-3.0039 1.3477-4.5469 4.2617-3.5156 6.6406h0.003907c0.44531 0.99609 1.2773 1.7695 2.3047 2.1445 0.64453 0.24609 1.332 0.36719 2.0234 0.36328 1.0039-0.007813 1.9961-0.23047 2.9102-0.64844 2.2305-0.82812 3.7305-2.9258 3.8008-5.3008 0.003907-0.046875 0.027344-0.089844 0.027344-0.13672zm-17.676 5.5195c-0.78125 0.39063-1.6836 0.47266-2.5234 0.22266-0.24609-0.074219-0.45312-0.24609-0.57031-0.47266-0.28125-0.65234 0.49609-1.9062 1.9258-2.5469 0.51562-0.23438 1.0742-0.36328 1.6406-0.37109 0.30078-0.003906 0.60156 0.046875 0.88281 0.14844 0.24609 0.074219 0.45313 0.24609 0.57422 0.47656 0.28125 0.65234-0.5 1.9062-1.9297 2.543zm4.8906-15.484-0.042969-2.6484 9.4414-3.0859 0.042969 2.6094zm7.6758 12.551h0.003906c-0.78516 0.39062-1.6836 0.46875-2.5234 0.22266-0.25-0.074219-0.45312-0.24609-0.57031-0.47656-0.28125-0.65234 0.49609-1.9062 1.9258-2.5469v0.003906c0.51562-0.23828 1.0742-0.36328 1.6406-0.37109 0.30078-0.007812 0.60156 0.042969 0.88281 0.14844 0.24609 0.074218 0.45312 0.24609 0.57031 0.47266 0.28516 0.65234-0.49609 1.9062-1.9258 2.5469z" fill="#338cc8"/>
 <path d="m73.844 36.625c-0.30859-0.45703-0.67188-0.99219-1.0625-1.6797h-0.003906c-0.74609-1.3203-1.3281-2.7305-1.7266-4.1953-0.10938-0.39844-0.375-0.73828-0.73438-0.94531-0.35938-0.20313-0.78906-0.25781-1.1875-0.14453-0.64844 0.17969-1.1016 0.76172-1.125 1.4336-0.011718 0.046875-0.039062 0.082031-0.046875 0.12891l-2.4023 16.57c-1.5117-0.66016-3.207-0.78906-4.8047-0.36719-1.7891 0.36719-3.3555 1.4414-4.3516 2.9727-0.57031 0.93359-0.73828 2.0586-0.46094 3.1172 0.82812 2.1602 2.9922 3.5078 5.2969 3.293 0.66016 0 1.3164-0.082032 1.957-0.23828 1.7891-0.36719 3.3555-1.4414 4.3516-2.9727 0.30859-0.53125 0.50391-1.125 0.5625-1.7383 0.007812-0.039063 0.03125-0.070313 0.035156-0.10938l2.1523-14.875c0.34766 0.58203 0.67969 1.0859 0.96484 1.5039 0.60938 0.89844 0.80469 1.2188 0.80469 1.6094-0.003906 0.76172-0.75391 1.7422-2.1133 2.7617v0.003906c-0.33203 0.25-0.55078 0.61719-0.60938 1.0273-0.0625 0.41016 0.046875 0.82812 0.29297 1.1602 0.51953 0.69141 1.5 0.83203 2.1875 0.3125 2.2266-1.668 3.3555-3.4336 3.3633-5.25h0.003906c-0.066406-1.2422-0.53906-2.4297-1.3438-3.3789zm-8.9961 15.391c-0.57422 0.79688-1.4297 1.3398-2.3945 1.5195-1.8633 0.45312-3.3242-0.20312-3.5039-0.85547-0.050781-0.24609 0.003906-0.49609 0.14453-0.69922 0.57422-0.79688 1.4297-1.3398 2.3945-1.5195 0.39844-0.097657 0.80469-0.14844 1.2148-0.15234 1.2539 0 2.1484 0.50391 2.2891 1.0078 0.046874 0.24219-0.003907 0.49609-0.14453 0.69922z" fill="#338cc8"/>
</svg>
