<?xml version="1.0" encoding="UTF-8"?>
<svg width="100pt" height="100pt" version="1.1" viewBox="0 0 100 100" xmlns="http://www.w3.org/2000/svg">
 <path d="m54.398 28.758c0.55078 0 1-0.44922 1-1v-3.6562c0-0.55078-0.44922-1-1-1-0.55078 0-1 0.44922-1 1v3.6562c0 0.55469 0.44922 1 1 1z" fill="#338cc8"/>
 <path d="m59.789 28.758c0.55078 0 1-0.44922 1-1v-3.6562c0-0.55078-0.44922-1-1-1-0.55078 0-1 0.44922-1 1v3.6562c0 0.55469 0.44531 1 1 1z" fill="#338cc8"/>
 <path d="m65.176 28.758c0.55078 0 1-0.44922 1-1v-3.6562c0-0.55078-0.44922-1-1-1s-1 0.44922-1 1v3.6562c0 0.55469 0.44922 1 1 1z" fill="#338cc8"/>
 <path d="m54.398 36.895c0.55078 0 1-0.44922 1-1v-3.6562c0-0.55078-0.44922-1-1-1-0.55078 0-1 0.44922-1 1v3.6562c0 0.55078 0.44922 1 1 1z" fill="#338cc8"/>
 <path d="m59.789 36.895c0.55078 0 1-0.44922 1-1v-3.6562c0-0.55078-0.44922-1-1-1-0.55078 0-1 0.44922-1 1v3.6562c0 0.55078 0.44531 1 1 1z" fill="#338cc8"/>
 <path d="m65.176 36.895c0.55078 0 1-0.44922 1-1v-3.6562c0-0.55078-0.44922-1-1-1s-1 0.44922-1 1v3.6562c0 0.55078 0.44922 1 1 1z" fill="#338cc8"/>
 <path d="m41.711 36.832c-0.55078 0-1 0.44922-1 1v3.3516c0 0.55078 0.44922 1 1 1 0.55078 0 1-0.44922 1-1v-3.3516c0-0.55469-0.44531-1-1-1z" fill="#338cc8"/>
 <path d="m35.918 36.832c-0.55078 0-1 0.44922-1 1v3.3516c0 0.55078 0.44922 1 1 1s1-0.44922 1-1v-3.3516c0-0.55469-0.44922-1-1-1z" fill="#338cc8"/>
 <path d="m41.711 29.371c-0.55078 0-1 0.44922-1 1v3.3516c0 0.55078 0.44922 1 1 1 0.55078 0 1-0.44922 1-1v-3.3516c0-0.55469-0.44531-1-1-1z" fill="#338cc8"/>
 <path d="m35.918 29.371c-0.55078 0-1 0.44922-1 1v3.3516c0 0.55078 0.44922 1 1 1s1-0.44922 1-1v-3.3516c0-0.55469-0.44922-1-1-1z" fill="#338cc8"/>
 <path d="m41.711 21.91c-0.55078 0-1 0.44922-1 1v3.3516c0 0.55078 0.44922 1 1 1 0.55078 0 1-0.44922 1-1v-3.3516c0-0.55469-0.44531-1-1-1z" fill="#338cc8"/>
 <path d="m35.918 21.91c-0.55078 0-1 0.44922-1 1v3.3516c0 0.55078 0.44922 1 1 1s1-0.44922 1-1v-3.3516c0-0.55469-0.44922-1-1-1z" fill="#338cc8"/>
 <path d="m41.711 44.293c-0.55078 0-1 0.44922-1 1v3.3516c0 0.55078 0.44922 1 1 1 0.55078 0 1-0.44922 1-1v-3.3516c0-0.55469-0.44531-1-1-1z" fill="#338cc8"/>
 <path d="m35.918 44.293c-0.55078 0-1 0.44922-1 1v3.3516c0 0.55078 0.44922 1 1 1s1-0.44922 1-1v-3.3516c0-0.55469-0.44922-1-1-1z" fill="#338cc8"/>
 <path d="m41.711 51.473c-0.55078 0-1 0.44922-1 1v3.3516c0 0.55078 0.44922 1 1 1 0.55078 0 1-0.44922 1-1v-3.3516c0-0.55469-0.44531-1-1-1z" fill="#338cc8"/>
 <path d="m35.918 51.473c-0.55078 0-1 0.44922-1 1v3.3516c0 0.55078 0.44922 1 1 1s1-0.44922 1-1v-3.3516c0-0.55469-0.44922-1-1-1z" fill="#338cc8"/>
 <path d="m41.711 58.934c-0.55078 0-1 0.44922-1 1v3.3516c0 0.55078 0.44922 1 1 1 0.55078 0 1-0.44922 1-1v-3.3516c0-0.55469-0.44531-1-1-1z" fill="#338cc8"/>
 <path d="m35.918 58.934c-0.55078 0-1 0.44922-1 1v3.3516c0 0.55078 0.44922 1 1 1s1-0.44922 1-1v-3.3516c0-0.55469-0.44922-1-1-1z" fill="#338cc8"/>
 <path d="m89 69.16h-4.6875v-3.0859h4.6875c0.33594 0 0.64844-0.16797 0.83594-0.44922 0.18359-0.28125 0.21875-0.63281 0.085937-0.94531l-2.2969-5.3867c0.32422-0.019531 0.625-0.19141 0.79688-0.46875 0.17969-0.29688 0.19531-0.66406 0.039063-0.97656l-4.2539-8.3555c-0.33984-0.67188-1.4414-0.67188-1.7812 0l-4.2539 8.3555c-0.15625 0.30859-0.14453 0.67969 0.039063 0.97656 0.17187 0.28125 0.47266 0.45312 0.79687 0.46875l-2.3008 5.3867c-0.13281 0.30859-0.10156 0.66406 0.085938 0.94531 0.18359 0.28125 0.5 0.44922 0.83594 0.44922h4.6875v3.0859h-10.902v-58.168c0-0.55078-0.44922-1-1-1-11.367 0-18.293 6.7617-21.371 10.711v-3.5078c0-0.33203-0.16406-0.64453-0.44141-0.82812l-9.2266-6.2031c-0.33594-0.22656-0.77734-0.22656-1.1172 0l-9.2266 6.2031c-0.27734 0.1875-0.44141 0.49609-0.44141 0.82812v51.965h-10.902v-3.0859h4.6875c0.33594 0 0.64844-0.16797 0.83594-0.44922 0.18359-0.28125 0.21875-0.63281 0.085937-0.94531l-2.3008-5.3867c0.32422-0.019531 0.625-0.19141 0.79688-0.46875 0.17969-0.29688 0.19531-0.66406 0.039062-0.97656l-4.2539-8.3555c-0.33984-0.67188-1.4414-0.67188-1.7812 0l-4.2539 8.3555c-0.15625 0.30859-0.14453 0.67969 0.039062 0.97656 0.17188 0.28125 0.46875 0.45312 0.79688 0.46875l-2.2969 5.3867c-0.13281 0.30859-0.10156 0.66406 0.085938 0.94531 0.18359 0.28125 0.49609 0.44922 0.83203 0.44922h4.6875v3.0859h-4.6875c-0.55078 0-1 0.44922-1 1 0 0.55078 0.44922 1 1 1h78c0.55078 0 1-0.44922 1-1 0-0.55078-0.44922-1-1-1zm-5.6875-17.008 2.6211 5.1484h-5.2422zm-2.1367 7.1484h4.2734l2.0352 4.7734h-8.3477zm-64.488-7.1484 2.6211 5.1484h-5.2422zm-2.1367 7.1484h4.2734l2.0352 4.7734h-8.3477zm48.508 9.8594h-7.6562v-8.0195h7.6562zm1-10.02h-9.6562c-0.55078 0-1 0.44922-1 1v9.0195h-4.3594v-16.754h20.371v16.754h-4.3555v-9.0195c0-0.55469-0.44922-1-1-1zm5.3555-8.7344h-20.371v-8.1211h20.371zm0-38.395v28.273h-20.371v-16.074c0.91797-1.5742 7.3203-11.703 20.371-12.199zm-38.824 5.7148 8.2266-5.5312 8.2266 5.5312v51.434h-16.453z" fill="#338cc8"/>
 <path d="m15.879 80.84c1.8672 0 3.6094-0.76953 4.875-2.0898 1.2656 1.3203 3.0078 2.0898 4.875 2.0898 1.8672 0 3.6094-0.76953 4.875-2.0898 1.2656 1.3203 3.0078 2.0898 4.875 2.0898 1.8711 0 3.6094-0.76953 4.875-2.0898 1.2656 1.3203 3.0039 2.0898 4.875 2.0898 1.8672 0 3.6094-0.76953 4.875-2.0898 1.2656 1.3203 3.0078 2.0898 4.875 2.0898 1.8672 0 3.6094-0.76953 4.875-2.0898 1.2656 1.3203 3.0078 2.0898 4.875 2.0898 1.8672 0 3.6094-0.76953 4.875-2.0898 1.2656 1.3203 3.0078 2.0898 4.875 2.0898 1.8711 0 3.6094-0.76953 4.875-2.0898 1.2656 1.3203 3.0039 2.0898 4.875 2.0898 2.3242 0 4.4609-1.1719 5.7188-3.1406 0.29688-0.46484 0.16016-1.0859-0.30469-1.3828-0.46484-0.29688-1.0859-0.16016-1.3828 0.30469-0.88672 1.3867-2.3945 2.2148-4.0312 2.2148-1.6367 0-3.1445-0.82813-4.0312-2.2148-0.003906-0.003906-0.007812-0.007813-0.011718-0.011719-0.039063-0.058594-0.09375-0.10156-0.14453-0.14844-0.046875-0.046876-0.085937-0.097657-0.13672-0.13281-0.003907-0.003906-0.007813-0.007813-0.011719-0.011719-0.042969-0.027344-0.09375-0.03125-0.13672-0.054687-0.070312-0.03125-0.13672-0.066407-0.21094-0.082031-0.0625-0.011719-0.125-0.003907-0.1875-0.003907-0.066406 0-0.12891-0.007812-0.19141 0.003907-0.074218 0.015624-0.13672 0.050781-0.20703 0.078124-0.046875 0.019532-0.097656 0.027344-0.14062 0.054688l-0.011719 0.011719c-0.054687 0.035156-0.09375 0.089843-0.14062 0.13672-0.046875 0.046874-0.10156 0.089843-0.14062 0.14453l-0.011719 0.011719c-0.88672 1.3867-2.3945 2.2148-4.0312 2.2148-1.6367 0-3.1445-0.82812-4.0312-2.2148-0.003906-0.003907-0.007812-0.007813-0.011718-0.011719-0.035156-0.054688-0.089844-0.09375-0.13281-0.13672-0.046875-0.050781-0.089843-0.10547-0.14844-0.14062l-0.011719-0.011719c-0.042969-0.027344-0.089844-0.03125-0.13672-0.050781-0.070312-0.03125-0.13672-0.066406-0.21094-0.082031-0.066407-0.011719-0.12891-0.003906-0.19141-0.003906s-0.125-0.007813-0.1875 0.003906c-0.074218 0.015625-0.13672 0.050781-0.20703 0.078125-0.046875 0.019531-0.097656 0.027343-0.14453 0.054687-0.003906 0.003906-0.007812 0.007813-0.011719 0.011719-0.050781 0.035156-0.085937 0.085937-0.13281 0.12891-0.050781 0.050781-0.10938 0.09375-0.14844 0.15234-0.003906 0.003906-0.007812 0.007813-0.011719 0.011719-0.88672 1.3867-2.3945 2.2148-4.0312 2.2148-1.6367 0-3.1445-0.82813-4.0312-2.2148-0.003906-0.003906-0.007812-0.007813-0.011718-0.011719-0.035156-0.054687-0.089844-0.097656-0.14062-0.14453-0.046875-0.046875-0.085938-0.10156-0.14062-0.13672l-0.011719-0.011719c-0.042969-0.027344-0.09375-0.035156-0.14062-0.054687-0.070312-0.03125-0.13281-0.066407-0.20703-0.082031-0.0625-0.011719-0.125-0.003907-0.19141-0.003907-0.0625 0-0.12891-0.007812-0.19141 0.003907-0.070312 0.015624-0.13672 0.050781-0.20312 0.078124-0.046875 0.019532-0.097656 0.027344-0.14453 0.054688l-0.011719 0.011719c-0.050781 0.035156-0.089843 0.085937-0.13672 0.12891-0.050781 0.050781-0.10547 0.09375-0.14453 0.14844-0.003906 0.003907-0.007812 0.007813-0.011719 0.011719-0.88672 1.3867-2.3945 2.2148-4.0312 2.2148-1.6367 0-3.1445-0.82812-4.0312-2.2148-0.003906-0.003906-0.007812-0.007812-0.011718-0.011719-0.035156-0.054687-0.089844-0.09375-0.13672-0.14062-0.046875-0.046876-0.089844-0.10156-0.14453-0.13672-0.003906-0.003907-0.007813-0.007813-0.011719-0.011719-0.042969-0.027344-0.09375-0.03125-0.13672-0.054688-0.070312-0.03125-0.13672-0.066406-0.21094-0.082031-0.0625-0.011719-0.125-0.003906-0.19141-0.003906-0.0625 0-0.12891-0.007813-0.19141 0.003906-0.070312 0.015625-0.13672 0.046875-0.20312 0.078125-0.046875 0.019532-0.097656 0.027344-0.14453 0.054688-0.003906 0.003906-0.007812 0.007812-0.011719 0.011718-0.050781 0.035157-0.089843 0.085938-0.13281 0.12891-0.050781 0.050781-0.10938 0.09375-0.14453 0.14844-0.003907 0.003906-0.007813 0.007813-0.011719 0.011719-0.88672 1.3867-2.3945 2.2148-4.0312 2.2148s-3.1445-0.82812-4.0312-2.2148c-0.003907-0.003906-0.007813-0.007813-0.011719-0.011719-0.039062-0.058594-0.09375-0.10156-0.14453-0.14844-0.046875-0.046875-0.085938-0.097657-0.13672-0.13281-0.003906-0.003906-0.007812-0.007812-0.011719-0.011718-0.042969-0.027344-0.09375-0.03125-0.13672-0.054688-0.070312-0.03125-0.13672-0.066406-0.21094-0.082031-0.0625-0.011719-0.125-0.003907-0.1875-0.003907-0.066406 0-0.12891-0.007812-0.19141 0.003907-0.074219 0.015625-0.13672 0.050781-0.20703 0.078125-0.046876 0.019531-0.097657 0.027344-0.14063 0.054687-0.003906 0.003907-0.007812 0.007813-0.011718 0.011719-0.054688 0.035156-0.09375 0.089844-0.14062 0.13672s-0.10156 0.089843-0.14062 0.14453c-0.003906 0.003906-0.007813 0.007812-0.011719 0.011719-0.88672 1.3867-2.3945 2.2148-4.0312 2.2148s-3.1445-0.82812-4.0312-2.2148c-0.003906-0.003907-0.007813-0.007813-0.011719-0.011719-0.035156-0.054688-0.089844-0.09375-0.13281-0.13672-0.046875-0.050781-0.089844-0.10547-0.14844-0.14062l-0.011718-0.011718c-0.042969-0.027344-0.089844-0.03125-0.13672-0.050782-0.070313-0.03125-0.13672-0.066406-0.21094-0.082031-0.066406-0.011719-0.12891-0.003906-0.19141-0.003906s-0.125-0.007813-0.1875 0.003906c-0.074219 0.015625-0.13672 0.050781-0.20703 0.078125-0.046875 0.019531-0.097656 0.027344-0.14453 0.054688l-0.011718 0.011718c-0.050782 0.035156-0.085938 0.085938-0.13281 0.12891-0.050781 0.050782-0.10938 0.09375-0.14844 0.15234l-0.011719 0.011719c-0.88672 1.3867-2.3945 2.2148-4.0312 2.2148s-3.1445-0.82812-4.0312-2.2148l-0.011719-0.011719c-0.035156-0.054687-0.089844-0.097656-0.14062-0.14453-0.046875-0.046875-0.085937-0.10156-0.14062-0.13672l-0.011718-0.011718c-0.042969-0.027344-0.09375-0.035157-0.14063-0.054688-0.070312-0.03125-0.13281-0.066406-0.20703-0.082031-0.0625-0.011719-0.125-0.003907-0.19141-0.003907-0.0625 0-0.12891-0.007812-0.19141 0.003907-0.070313 0.015625-0.13672 0.050781-0.20312 0.078125-0.046875 0.019531-0.097656 0.027344-0.14453 0.054687-0.003906 0.003907-0.007812 0.007813-0.011718 0.011719-0.050782 0.035156-0.089844 0.085938-0.13672 0.12891-0.050781 0.050782-0.10547 0.09375-0.14453 0.14844-0.003906 0.003906-0.007813 0.007812-0.011719 0.011718-0.88672 1.3867-2.3945 2.2148-4.0312 2.2148s-3.1445-0.82812-4.0312-2.2148c-0.29688-0.46484-0.91406-0.60156-1.3828-0.30469-0.46484 0.29688-0.60156 0.91406-0.30469 1.3828 1.2422 1.9844 3.3828 3.1602 5.707 3.1602z" fill="#338cc8"/>
 <path d="m10.16 86.859c1.2539 1.9688 3.3945 3.1406 5.7188 3.1406 1.8672 0 3.6094-0.76953 4.875-2.0898 1.2656 1.3203 3.0039 2.0898 4.875 2.0898 1.8672 0 3.6094-0.76953 4.875-2.0898 1.2656 1.3203 3.0039 2.0898 4.8711 2.0898s3.6094-0.76953 4.875-2.0898c1.2695 1.3203 3.0078 2.0898 4.875 2.0898s3.6094-0.76953 4.875-2.0898c1.2695 1.3203 3.0078 2.0898 4.875 2.0898s3.6094-0.76953 4.875-2.0898c1.2656 1.3203 3.0078 2.0898 4.875 2.0898s3.6094-0.76953 4.875-2.0898c1.2656 1.3203 3.0078 2.0898 4.875 2.0898s3.6094-0.76953 4.875-2.0898c1.2656 1.3203 3.0078 2.0898 4.875 2.0898 2.3242 0 4.4609-1.1719 5.7188-3.1406 0.29688-0.46484 0.16016-1.0859-0.30469-1.3828-0.46484-0.29687-1.0859-0.16016-1.3828 0.30469-0.88672 1.3906-2.3945 2.2188-4.0312 2.2188s-3.1445-0.82812-4.0312-2.2148c-0.003906-0.003906-0.007812-0.007812-0.011719-0.011718-0.039062-0.058594-0.09375-0.10156-0.14453-0.14844-0.046875-0.042969-0.085938-0.097656-0.13672-0.13281-0.003906-0.003907-0.007812-0.007813-0.011719-0.011719-0.042968-0.027344-0.09375-0.035157-0.14062-0.054688-0.066407-0.03125-0.13281-0.066406-0.20703-0.078125-0.0625-0.011718-0.12891-0.003906-0.19141-0.003906s-0.125-0.007812-0.19141 0.003906c-0.074219 0.015625-0.14062 0.050782-0.20703 0.082032-0.046874 0.019531-0.09375 0.027343-0.13672 0.054687l-0.011719 0.011719c-0.054687 0.035156-0.09375 0.089844-0.14062 0.13672-0.046875 0.046876-0.10156 0.089844-0.13672 0.14453-0.003906 0.003906-0.007812 0.007812-0.011719 0.011718-0.89453 1.3828-2.3984 2.2109-4.0391 2.2109-1.6367 0-3.1445-0.82812-4.0312-2.2148-0.003906-0.003906-0.007812-0.007812-0.011719-0.011718-0.035156-0.054688-0.089843-0.09375-0.13281-0.13672-0.046875-0.050781-0.089844-0.10547-0.14844-0.14453-0.003906-0.003907-0.007812-0.007813-0.011719-0.011719-0.042968-0.027344-0.089843-0.03125-0.13281-0.050781-0.070312-0.03125-0.13672-0.066407-0.21484-0.082032-0.0625-0.011718-0.125-0.003906-0.19141-0.003906s-0.12891-0.007812-0.19141 0.003906c-0.070313 0.015625-0.13672 0.046875-0.20312 0.078125-0.046875 0.019531-0.10156 0.027344-0.14453 0.054688-0.003907 0.003906-0.007813 0.007812-0.011719 0.011719-0.050781 0.03125-0.085938 0.082031-0.12891 0.125-0.050781 0.050781-0.10937 0.09375-0.14844 0.15625-0.003906 0.003906-0.007813 0.007812-0.011719 0.011718-0.88672 1.3867-2.3945 2.2148-4.0352 2.2148-1.6367 0-3.1445-0.82812-4.0312-2.2148-0.003906-0.003906-0.007812-0.007812-0.011719-0.011718-0.035156-0.054688-0.089843-0.097657-0.13672-0.14453-0.046874-0.046875-0.085937-0.10156-0.14062-0.13672l-0.011719-0.011719c-0.042969-0.027344-0.09375-0.03125-0.13672-0.054688-0.070312-0.03125-0.13672-0.066406-0.21094-0.082031-0.0625-0.011719-0.125-0.003906-0.19141-0.003906-0.0625 0-0.12891-0.007813-0.19141 0.003906-0.074219 0.015625-0.13672 0.050781-0.20312 0.078125-0.046875 0.019531-0.097656 0.027344-0.14453 0.054687-0.003906 0.003907-0.007813 0.007813-0.011719 0.011719-0.050781 0.035157-0.089844 0.085938-0.13672 0.13281-0.050781 0.050781-0.10547 0.09375-0.14453 0.14844-0.003906 0.003907-0.007813 0.007813-0.011719 0.011719-0.88672 1.3906-2.3945 2.2188-4.0352 2.2188-1.6367 0-3.1445-0.82812-4.0312-2.2148-0.003906-0.003906-0.007812-0.007812-0.011719-0.011718-0.035156-0.054688-0.089843-0.09375-0.13672-0.14063-0.046874-0.046874-0.089843-0.10156-0.14453-0.14062-0.003906-0.003907-0.007812-0.007813-0.011719-0.011719-0.042968-0.027344-0.089843-0.03125-0.13672-0.050781-0.070313-0.03125-0.13672-0.066407-0.21094-0.082032-0.0625-0.011718-0.125-0.003906-0.19141-0.003906-0.0625 0-0.12891-0.007812-0.19141 0.003906-0.070313 0.015625-0.13672 0.050782-0.20312 0.078125-0.046875 0.019531-0.097657 0.027344-0.14453 0.054688-0.003907 0.003906-0.007813 0.007812-0.011719 0.011719-0.050781 0.035156-0.089844 0.085937-0.13672 0.12891-0.050781 0.050781-0.10547 0.09375-0.14453 0.14844l-0.011719 0.011719c-0.88281 1.3906-2.3906 2.2188-4.0312 2.2188-1.6367 0-3.1445-0.82812-4.0312-2.2148-0.003906-0.003906-0.007812-0.007812-0.011719-0.011718-0.039062-0.058594-0.09375-0.10156-0.14453-0.14844-0.046875-0.042969-0.085938-0.097656-0.13672-0.13281-0.003906-0.003907-0.007812-0.007813-0.011719-0.011719-0.042968-0.027344-0.09375-0.035157-0.14062-0.054688-0.066407-0.03125-0.13281-0.066406-0.20703-0.078125-0.0625-0.011718-0.12891-0.003906-0.19141-0.003906s-0.125-0.007812-0.19141 0.003906c-0.074219 0.015625-0.14062 0.050782-0.20703 0.082032-0.046874 0.019531-0.09375 0.027343-0.13672 0.054687l-0.011719 0.011719c-0.054687 0.035156-0.09375 0.089844-0.14062 0.13672-0.046875 0.046876-0.10156 0.089844-0.13672 0.14453-0.003906 0.003906-0.007812 0.007812-0.011719 0.011718-0.89062 1.3828-2.3984 2.2109-4.0391 2.2109-1.6367 0-3.1445-0.82812-4.0312-2.2148-0.003906-0.003906-0.007812-0.007812-0.011719-0.011718-0.035156-0.054688-0.089843-0.09375-0.13281-0.13672-0.046875-0.050781-0.089844-0.10547-0.14844-0.14453-0.003906-0.003907-0.007812-0.007813-0.011719-0.011719-0.042968-0.027344-0.089843-0.03125-0.13281-0.050781-0.070312-0.03125-0.13672-0.066407-0.21484-0.082032-0.0625-0.011718-0.125-0.003906-0.19141-0.003906s-0.12891-0.007812-0.19141 0.003906c-0.070313 0.015625-0.13672 0.046875-0.20312 0.078125-0.046875 0.019531-0.10156 0.027344-0.14453 0.054688-0.003907 0.003906-0.007813 0.007812-0.011719 0.011719-0.050781 0.03125-0.085938 0.082031-0.12891 0.125-0.050781 0.050781-0.10937 0.09375-0.14844 0.15625-0.003906 0.003906-0.007813 0.007812-0.011719 0.011718-0.88672 1.3867-2.3945 2.2148-4.0312 2.2148-1.6367 0-3.1445-0.82812-4.0312-2.2148l-0.011718-0.011718c-0.035157-0.054688-0.089844-0.097657-0.13672-0.14453s-0.085938-0.10156-0.14062-0.13672c-0.003906-0.003907-0.007813-0.007813-0.011719-0.011719-0.042969-0.027344-0.09375-0.03125-0.13672-0.054688-0.070312-0.03125-0.13672-0.066406-0.21094-0.082031-0.0625-0.011719-0.125-0.003906-0.19141-0.003906-0.0625 0-0.12891-0.007813-0.19141 0.003906-0.074218 0.015625-0.13672 0.050781-0.20312 0.078125-0.046875 0.019531-0.097656 0.027344-0.14453 0.054687-0.003906 0.003907-0.007812 0.007813-0.011719 0.011719-0.050781 0.035157-0.089843 0.085938-0.13672 0.13281-0.050781 0.050781-0.10547 0.09375-0.14453 0.14844-0.003906 0.003907-0.007812 0.007813-0.011719 0.011719-0.89062 1.3906-2.3984 2.2188-4.0352 2.2188-1.6367 0-3.1445-0.82812-4.0312-2.2148-0.29688-0.46484-0.91406-0.60156-1.3828-0.30469-0.46484 0.29688-0.60156 0.91406-0.30469 1.3789z" fill="#338cc8"/>
</svg>
