<?xml version="1.0" encoding="UTF-8"?>
<svg width="100pt" height="100pt" version="1.1" viewBox="0 0 100 100" xmlns="http://www.w3.org/2000/svg">
 <path d="m45.199 36.5c0.82812 0 1.5 0.67188 1.5 1.5s-0.67188 1.5-1.5 1.5h-3.1992c-3.5898 0-6.5 2.9102-6.5 6.5v12c0 3.5898 2.9102 6.5 6.5 6.5h12c3.5898 0 6.5-2.9102 6.5-6.5v-3.1992c0-0.82812 0.67188-1.5 1.5-1.5s1.5 0.67188 1.5 1.5v3.1992c0 5.2461-4.2539 9.5-9.5 9.5h-12c-5.2461 0-9.5-4.2539-9.5-9.5v-12c0-5.2461 4.2539-9.5 9.5-9.5z" fill="#338cc8"/>
 <path d="m66 32.5c0.82812 0 1.5 0.67188 1.5 1.5v12c0 0.82812-0.67188 1.5-1.5 1.5s-1.5-0.67188-1.5-1.5v-8.3789l-15.441 15.438c-0.58203 0.58594-1.5352 0.58594-2.1172 0-0.58594-0.58203-0.58594-1.5352 0-2.1172l15.438-15.441h-8.3789c-0.82812 0-1.5-0.67188-1.5-1.5s0.67188-1.5 1.5-1.5z" fill="#338cc8"/>
</svg>
