<?xml version="1.0" encoding="UTF-8"?>
<svg width="100pt" height="100pt" version="1.1" viewBox="0 0 100 100" xmlns="http://www.w3.org/2000/svg">
 <path d="m38.973 61.41-3.6484 3.7227c-0.62109 0.63672-1.5664 0.82813-2.3867 0.49219-0.82031-0.32812-1.3555-1.1289-1.3555-2.0195v-5.6289c-1.4453-0.078124-2.8164-0.67969-3.8438-1.7031-1.0977-1.0977-1.7109-2.582-1.7109-4.1367v-17.75c0-1.5508 0.61328-3.0352 1.7109-4.1328 1.0938-1.0938 2.5781-1.7109 4.1289-1.7109h27.297c1.5469 0 3.0352 0.61719 4.1289 1.7109 0.64062 0.64062 1.1172 1.4219 1.4023 2.2617h4.0273c1.5469 0 3.0312 0.61328 4.1289 1.707 1.0938 1.0977 1.7109 2.582 1.7109 4.1289v17.758c0 1.5469-0.61719 3.0312-1.7109 4.1289-1.0977 1.0977-2.582 1.707-4.1289 1.707h-2.4609v5.6328c0 0.88281-0.53516 1.6836-1.3555 2.0195-0.82422 0.33594-1.7656 0.13672-2.3867-0.49219l-7.0078-7.1602h-14.086c-0.85547 0-1.6914-0.1875-2.4531-0.53516zm23.691-28.895c-0.18359-0.34375-0.41406-0.66016-0.69531-0.94141-0.74219-0.74219-1.7539-1.1602-2.8047-1.1602h-27.297c-1.0508 0-2.0625 0.41797-2.8086 1.1602-0.74219 0.75-1.1602 1.7578-1.1602 2.8125v17.75c0 1.0547 0.41797 2.0664 1.1602 2.8086 0.74609 0.74609 1.7578 1.1641 2.8086 1.1641h0.64844c0.51562 0 0.9375 0.41797 0.9375 0.9375v6.5586c0 0.12891 0.074219 0.24219 0.19141 0.29297 0.11719 0.042968 0.25391 0.019531 0.34375-0.074219l3.4102-3.4805c-0.035157-0.035156-0.070313-0.066406-0.10547-0.10547-1.0938-1.0977-1.707-2.582-1.707-4.1289v-17.758c0-1.5469 0.61328-3.0312 1.707-4.1289 1.0977-1.0938 2.582-1.707 4.1328-1.707zm-23.367 26.941c0.63281 0.40625 1.3672 0.61719 2.1289 0.61719h14.48c0.25 0 0.49219 0.10938 0.66797 0.28125l7.2812 7.4414c0.089843 0.085937 0.22656 0.11719 0.34375 0.066406 0.11719-0.042969 0.19141-0.16016 0.19141-0.28516v-6.5664c0-0.51172 0.41797-0.9375 0.9375-0.9375h3.3945c1.0508 0 2.0625-0.41406 2.8047-1.1562 0.74609-0.74219 1.1641-1.7539 1.1641-2.8086v-17.758c0-1.0547-0.41797-2.0586-1.1641-2.8047-0.74219-0.74219-1.7539-1.1602-2.8047-1.1602h-27.297c-1.0547 0-2.0625 0.41797-2.8086 1.1602-0.74219 0.74609-1.1602 1.75-1.1602 2.8047v17.758c0 1.0547 0.41797 2.0664 1.1602 2.8086 0.20703 0.20312 0.4375 0.38672 0.67969 0.53906zm15.645-3.9648c-0.45312 0-0.84766-0.14063-1.1836-0.4375-0.33594-0.29297-0.50391-0.70313-0.50391-1.2266 0-0.46875 0.16406-0.85547 0.48828-1.1719 0.32422-0.31641 0.72266-0.48047 1.1992-0.48047 0.46484 0 0.85547 0.16406 1.1719 0.48047 0.32031 0.31641 0.47656 0.70312 0.47656 1.1719 0 0.51953-0.16406 0.92188-0.49609 1.2227-0.33203 0.29297-0.71875 0.44141-1.1523 0.44141zm-5.4102-12.152c0-0.69922 0.22266-1.4102 0.67578-2.1328 0.44922-0.71484 1.1094-1.3164 1.9727-1.7891 0.86328-0.47266 1.875-0.71094 3.0273-0.71094 1.0703 0 2.0156 0.19922 2.8359 0.59375 0.82031 0.39844 1.4531 0.93359 1.9023 1.6133 0.44531 0.67969 0.67188 1.418 0.67188 2.2227 0 0.62109-0.12891 1.1758-0.38281 1.6445-0.25781 0.47266-0.55859 0.88672-0.91016 1.2266-0.35156 0.34375-0.98047 0.92578-1.8906 1.7344-0.25 0.23047-0.45312 0.42969-0.60547 0.60547-0.14844 0.17578-0.26172 0.33203-0.33594 0.48047-0.074219 0.14453-0.13281 0.28516-0.17188 0.42969-0.039062 0.14453-0.10156 0.39453-0.18359 0.76172-0.14062 0.76562-0.57812 1.1523-1.3203 1.1523-0.38281 0-0.70703-0.12891-0.96875-0.37891-0.26172-0.25-0.39453-0.625-0.39453-1.1172 0-0.625 0.097656-1.1602 0.28906-1.6133 0.19141-0.45703 0.44922-0.85547 0.76562-1.1992 0.31641-0.34375 0.74609-0.75391 1.2852-1.2266 0.47266-0.41406 0.81641-0.72656 1.0273-0.9375 0.21094-0.21094 0.38672-0.44141 0.53125-0.70312 0.14453-0.25781 0.21484-0.53516 0.21484-0.84375 0-0.58984-0.21875-1.0898-0.66016-1.4961-0.4375-0.40625-1.0078-0.60938-1.6992-0.60938-0.8125 0-1.4141 0.20312-1.7969 0.61719-0.38281 0.41016-0.71094 1.0156-0.97656 1.8125-0.25 0.83594-0.72656 1.2539-1.4297 1.2539-0.41406 0-0.76172-0.14844-1.0469-0.44141-0.28516-0.28906-0.42578-0.60547-0.42578-0.94922z" fill="#fff" fill-rule="evenodd"/>
</svg>
