<?xml version="1.0" encoding="UTF-8" standalone="no"?>
<!DOCTYPE svg PUBLIC "-//W3C//DTD SVG 1.1//EN" "http://www.w3.org/Graphics/SVG/1.1/DTD/svg11.dtd">
<svg width="100%" height="100%" viewBox="0 0 49 42" version="1.1" xmlns="http://www.w3.org/2000/svg" xmlns:xlink="http://www.w3.org/1999/xlink" xml:space="preserve" xmlns:serif="http://www.serif.com/" style="fill-rule:evenodd;clip-rule:evenodd;stroke-linejoin:round;stroke-miterlimit:2;">
    <g transform="matrix(1,0,0,1,-26.0277,-28.54299)">
        <path d="M38.973,61.41L35.325,65.133C34.704,65.769 33.758,65.961 32.938,65.625C32.118,65.297 31.582,64.496 31.582,63.605L31.582,57.976C30.137,57.898 28.766,57.297 27.739,56.273C26.641,55.176 26.028,53.691 26.028,52.137L26.028,34.387C26.028,32.836 26.641,31.351 27.739,30.254C28.832,29.16 30.317,28.543 31.867,28.543L59.165,28.543C60.711,28.543 62.2,29.16 63.293,30.254C63.934,30.895 64.411,31.676 64.696,32.516L68.723,32.516C70.27,32.516 71.754,33.129 72.852,34.223C73.946,35.32 74.563,36.805 74.563,38.351L74.563,56.109C74.563,57.656 73.946,59.141 72.852,60.238C71.754,61.336 70.27,61.945 68.723,61.945L66.262,61.945L66.262,67.578C66.262,68.461 65.727,69.262 64.907,69.598C64.082,69.934 63.141,69.734 62.52,69.105L55.512,61.945L41.426,61.945C40.571,61.945 39.735,61.758 38.973,61.41L38.973,61.41ZM62.664,32.515C62.48,32.171 62.25,31.855 61.969,31.574C61.227,30.831 60.215,30.413 59.164,30.413L31.867,30.413C30.816,30.413 29.804,30.831 29.058,31.574C28.316,32.324 27.898,33.331 27.898,34.386L27.898,52.136C27.898,53.191 28.316,54.202 29.058,54.945C29.804,55.691 30.816,56.109 31.867,56.109L32.515,56.109C33.031,56.109 33.453,56.527 33.453,57.046L33.453,63.605C33.453,63.734 33.527,63.847 33.644,63.898C33.762,63.941 33.898,63.917 33.988,63.824L37.398,60.343C37.363,60.308 37.328,60.277 37.293,60.238C36.199,59.14 35.586,57.656 35.586,56.109L35.586,38.351C35.586,36.804 36.199,35.32 37.293,34.222C38.391,33.128 39.875,32.515 41.426,32.515L62.664,32.515ZM39.297,59.456C39.93,59.862 40.664,60.073 41.426,60.073L55.906,60.073C56.156,60.073 56.398,60.183 56.574,60.354L63.855,67.796C63.945,67.882 64.082,67.913 64.199,67.862C64.316,67.819 64.39,67.702 64.39,67.577L64.39,61.011C64.39,60.499 64.808,60.073 65.328,60.073L68.722,60.073C69.773,60.073 70.785,59.659 71.527,58.917C72.273,58.175 72.691,57.163 72.691,56.108L72.691,38.35C72.691,37.296 72.273,36.292 71.527,35.546C70.785,34.803 69.773,34.385 68.722,34.385L41.425,34.385C40.371,34.385 39.363,34.803 38.617,35.546C37.874,36.292 37.456,37.296 37.456,38.35L37.456,56.108C37.456,57.163 37.874,58.175 38.617,58.917C38.824,59.12 39.054,59.304 39.296,59.456L39.297,59.456ZM54.942,55.491C54.489,55.491 54.094,55.351 53.758,55.054C53.422,54.761 53.254,54.351 53.254,53.827C53.254,53.358 53.419,52.972 53.743,52.655C54.067,52.339 54.465,52.175 54.942,52.175C55.407,52.175 55.797,52.339 56.114,52.655C56.434,52.972 56.59,53.358 56.59,53.827C56.59,54.347 56.426,54.749 56.094,55.05C55.762,55.343 55.376,55.491 54.942,55.491L54.942,55.491ZM49.532,43.339C49.532,42.64 49.754,41.929 50.208,41.206C50.657,40.492 51.317,39.89 52.18,39.417C53.044,38.945 54.055,38.706 55.208,38.706C56.278,38.706 57.223,38.906 58.043,39.3C58.864,39.699 59.497,40.234 59.946,40.913C60.391,41.593 60.618,42.331 60.618,43.136C60.618,43.757 60.489,44.312 60.235,44.781C59.977,45.253 59.676,45.667 59.325,46.007C58.973,46.351 58.344,46.933 57.434,47.742C57.184,47.972 56.981,48.171 56.829,48.347C56.68,48.523 56.567,48.679 56.493,48.828C56.418,48.972 56.36,49.113 56.321,49.257C56.282,49.402 56.219,49.652 56.137,50.019C55.997,50.785 55.559,51.171 54.817,51.171C54.434,51.171 54.11,51.042 53.848,50.792C53.586,50.542 53.454,50.167 53.454,49.675C53.454,49.05 53.551,48.515 53.743,48.062C53.934,47.605 54.192,47.206 54.508,46.863C54.825,46.519 55.254,46.109 55.794,45.636C56.266,45.222 56.61,44.909 56.821,44.699C57.032,44.488 57.208,44.257 57.352,43.995C57.497,43.738 57.567,43.46 57.567,43.152C57.567,42.562 57.348,42.062 56.907,41.656C56.469,41.249 55.899,41.046 55.208,41.046C54.395,41.046 53.793,41.249 53.411,41.663C53.028,42.074 52.7,42.679 52.434,43.476C52.184,44.312 51.708,44.73 51.004,44.73C50.59,44.73 50.243,44.581 49.957,44.288C49.672,43.999 49.532,43.683 49.532,43.339L49.532,43.339Z" style="fill:white;"/>
    </g>
</svg>
