<?xml version="1.0" encoding="UTF-8"?>
<svg width="100pt" height="100pt" version="1.1" viewBox="0 0 100 100" xmlns="http://www.w3.org/2000/svg">
 <path d="m96.691 2.1211h-0.67188c-1.8008 0-3.3711 1.0586-4.1016 2.5781-0.92969-0.51953-2-0.80078-3.0898-0.80078-2 0-3.8594 0.96094-5.0391 2.5117-1.1172-0.89844-2.5195-1.4102-3.9805-1.4102-2.5703 0-4.7891 1.5117-5.7812 3.7305-0.96875-0.57812-2.1016-0.89844-3.2617-0.89844-2.8086 0-5.1914 1.8086-6.0195 4.3594-0.62891-0.21094-1.2891-0.30859-1.9688-0.30859-2.9688 0-5.4883 2.0781-6.1602 4.8594-0.17188-0.011719-0.35156-0.019532-0.51953-0.019532-3.3008 0-6.0195 2.5312-6.3086 5.7617-1.1094 0.76953-1.7891 2.0508-1.7891 3.4297 0 0.26172 0.03125 0.51953 0.070312 0.78125-4.4492 1.3008-9.0703 2.8008-13.922 4.5391-0.19141-0.050781-0.37109-0.10938-0.55859-0.16016v-12.543c0.078125-0.011719 0.17188-0.019531 0.25-0.039062 0.80859-0.17188 1.5-0.64063 1.9609-1.3281 0.44922-0.69141 0.60938-1.5117 0.44141-2.3203-0.17188-0.80859-0.64063-1.5-1.3281-1.9609l-10.402-6.8125c-1.3281-0.87891-2.9883-0.87891-4.3281 0l-10.383 6.8203c-0.69141 0.44922-1.1602 1.1484-1.3281 1.9609-0.17188 0.80859-0.011718 1.6289 0.44141 2.3203 0.44922 0.69141 1.1484 1.1602 1.9609 1.3281 0.078125 0.019531 0.16016 0.03125 0.25 0.039062v8.3711c-2.6211-0.17188-5.2383-0.21875-7.8516-0.10938-0.64063 0.03125-1.1406 0.55078-1.1406 1.1914v68.711c0 0.66016 0.53125 1.1914 1.1914 1.1914h93.371c0.66016 0 1.1914-0.53125 1.1914-1.1914l-0.007813-93.395c0-0.64844-0.53906-1.1875-1.1875-1.1875zm-69.402 65.367v-8.3398h5.0586v8.3398zm-22.777-4.6094c3.5781-1.5391 7.3008-2.9492 11.09-4.1992v10.012c0 0.66016 0.53125 1.1914 1.1914 1.1914h6.4805c-6.7383 2.0312-13.109 4.2305-18.762 6.5117zm38.688-11.84-12.73-8.3594c-0.19922-0.12891-0.42969-0.19922-0.64844-0.19922-0.23047 0-0.46094 0.070312-0.64844 0.19922l-12.73 8.3594c-0.28125 0.17969-0.62109 0.25-0.94922 0.17969-0.32813-0.070312-0.62109-0.26172-0.80078-0.53906-0.37891-0.58984-0.21875-1.3711 0.35938-1.7617l13.469-8.8398c0.82031-0.53906 1.7891-0.53906 2.6094 0l13.469 8.8398c0.28125 0.17969 0.46875 0.46875 0.53906 0.80078 0.070312 0.32812 0.011719 0.67188-0.17969 0.94922-0.38672 0.59375-1.1758 0.75391-1.7578 0.37109zm-9.6602 5.7305h-7.4414c-0.66016 0-1.1914 0.53125-1.1914 1.1914v9.5312h-6.9219l0.003906-14.621 11.828-7.7695 11.828 7.7695v14.621h-6.9219v-9.5312c0.007813-0.66016-0.53125-1.1914-1.1836-1.1914zm10.492-3.1484c1.1406-0.039063 2.2383-0.62109 2.9219-1.6406 0.050781-0.070313 0.078125-0.14062 0.12109-0.21094 14.281-1.7695 30.129-2.1289 48.422-1.1016v8.2695c-18.93-0.48047-38.129 2.6797-51.461 5.5781zm40.93-23.32c0.28125 0.17969 0.46875 0.46875 0.53906 0.80078 0.070312 0.32813 0.011719 0.67188-0.17969 0.94922-0.17969 0.28125-0.46875 0.46875-0.80078 0.53906-0.32812 0.070312-0.67188 0.011718-0.94922-0.17969l-12.73-8.3594c-0.39844-0.26172-0.91016-0.26172-1.3086 0l-12.73 8.3711c-0.58984 0.37891-1.3711 0.21875-1.7617-0.35938-0.17969-0.28125-0.25-0.62109-0.17969-0.94922s0.26172-0.62109 0.53906-0.80078l13.469-8.8398c0.41016-0.26953 0.85937-0.39844 1.3008-0.39844 0.44922 0 0.89844 0.12891 1.3008 0.39844zm-26.609 3.9492 11.828-7.7695 11.828 7.7695v13.52c-2.3516-0.039062-4.6484-0.058593-6.9219-0.050781v-8.3711c0-0.66016-0.53125-1.1914-1.1914-1.1914h-7.4414c-0.66016 0-1.1914 0.53125-1.1914 1.1914v8.5781c-2.3516 0.089844-4.6484 0.21875-6.9219 0.37109zm14.359 13.48c-1.7109 0.019531-3.3906 0.058593-5.0586 0.10938v-7.3086h5.0586zm11.688 0.089843v-12.82c0.19922-0.011719 0.39844-0.03125 0.60156-0.070312 0.96094-0.19922 1.7812-0.76172 2.3086-1.5703 0.53125-0.80859 0.71875-1.7891 0.51953-2.75s-0.76172-1.7812-1.5703-2.3086l-7.9609-5.2188c5.9688-0.53906 11.73-0.60156 17.18-0.17969v25.379c-3.7773-0.21094-7.4766-0.37109-11.078-0.46094zm-34.027-21.922c0-0.71094 0.42188-1.3516 1.0586-1.6406 0.44141-0.19922 0.71094-0.64062 0.69922-1.1094v-0.10156c0-2.1797 1.7695-3.9492 3.9492-3.9492 0.39844 0 0.80078 0.058594 1.1797 0.17969 0.35938 0.10938 0.75 0.050781 1.0586-0.17188 0.30078-0.21875 0.48828-0.57031 0.48828-0.94922 0.03125-2.1484 1.8008-3.8906 3.9492-3.8906 0.78906 0 1.5391 0.23047 2.1914 0.66016 0.35938 0.23828 0.82031 0.26953 1.1992 0.070313 0.37891-0.19141 0.62891-0.57812 0.64844-1.0117 0.10156-2.1094 1.8281-3.7695 3.9492-3.7695 1.1602 0 2.2617 0.51172 3.0117 1.3984 0.30859 0.37109 0.80859 0.51172 1.2695 0.37109 0.46094-0.14062 0.78125-0.55078 0.82812-1.0195 0.19922-2.0312 1.8906-3.5703 3.9297-3.5703 1.2891 0 2.5 0.62891 3.2383 1.6914 0.25 0.35937 0.67969 0.55078 1.1211 0.5 0.44141-0.050782 0.80859-0.33984 0.96875-0.76172 0.57812-1.5195 2.0703-2.5391 3.6914-2.5391 1.1211 0 2.1992 0.48047 2.9414 1.3203 0.33984 0.37109 0.87109 0.5 1.3398 0.30859 0.46875-0.19141 0.76172-0.64844 0.73828-1.1484v-0.089844c0-1.0117 0.69922-1.8594 1.6406-2.1016v15.941c-6.3906-0.48438-13.223-0.31641-20.312 0.48438l-2.3594-1.5508c-1.6094-1.0586-3.6094-1.0586-5.2188 0l-5.6602 3.7188c-3.7305 0.78906-7.5586 1.7305-11.531 2.8398 0-0.039062-0.007812-0.066406-0.007812-0.10937zm5.8008 1.043-2.0703 1.3594c-0.80859 0.53125-1.3711 1.3594-1.5703 2.3086-0.19922 0.96094-0.011719 1.9297 0.51953 2.75 0.67188 1.0195 1.7812 1.6016 2.9219 1.6406v4.1602c-5.5-2.3203-11.57-4.7109-17.98-6.7695 6.418-2.2109 12.438-4.0117 18.18-5.4492zm-45.262-11.082c-0.10156-0.16016-0.14062-0.33984-0.10156-0.53125 0.039062-0.19141 0.14844-0.33984 0.30078-0.44922l10.379-6.8203c0.26953-0.17969 0.55859-0.26953 0.85156-0.26953 0.28906 0 0.57812 0.089844 0.85156 0.26953l10.379 6.8203c0.16016 0.10156 0.26172 0.26172 0.30078 0.44922 0.039062 0.19141 0 0.37109-0.10156 0.53125-0.10156 0.16016-0.26172 0.26172-0.44922 0.30078-0.19141 0.039063-0.37109 0-0.53125-0.10156l-9.7891-6.4375c-0.39844-0.26172-0.91016-0.26172-1.3086 0l-9.8086 6.4414c-0.16016 0.10156-0.33984 0.14062-0.53125 0.10156-0.17969-0.042968-0.33984-0.15234-0.44141-0.30469zm2.5898 1.9922 8.8516-5.8086 8.8516 5.8086v12.531c-1.5781-0.42187-3.1797-0.82031-4.7891-1.1914v-7.5703c0-0.66016-0.53125-1.1914-1.1914-1.1914h-5.7305c-0.66016 0-1.1914 0.53125-1.1914 1.1914v6.0391c-1.5898-0.23047-3.1914-0.42969-4.7891-0.57812v-9.2305zm10.52 10.828c-1.1094-0.23047-2.2305-0.44141-3.3516-0.62891v-5.2305h3.3516zm31.949 13.07v6.7188c-2.8906 0.23047-5.7188 0.51172-8.4805 0.83984-0.17188-0.94922-0.71875-1.8281-1.5781-2.3906l-13.469-8.8398c-1.6094-1.0586-3.6094-1.0586-5.2188 0l-13.469 8.8398c-1.6797 1.1094-2.1484 3.3711-1.0508 5.0586 0.53125 0.80859 1.3594 1.3711 2.3086 1.5703 0.19922 0.039063 0.39844 0.058594 0.60156 0.070313v2.5508c-3.7812 1.2305-7.5 2.6094-11.09 4.1094l-0.003907-31.137c18.172-0.42188 36.922 6.418 51.449 12.609zm-51.457 37.219c7.9883-3.2812 17.469-6.4102 27.512-9.0898h10.828c0.66016 0 1.1914-0.53125 1.1914-1.1914v-1.7305c13.23-2.9102 32.5-6.1211 51.461-5.6406v10.27c-12.762-0.14844-31.629 3.7617-44.219 7.2383-13.891 3.8398-26.051 9.1406-38.23 16.672l-8.543 0.003906zm13.16 16.52c10.871-6.3516 21.859-10.949 34.238-14.371 12.449-3.4414 31.09-7.3008 43.578-7.1484v21.52zm51.316-61.957c0-0.66016 0.53125-1.1914 1.1914-1.1914 0.66016 0 1.1914 0.53125 1.1914 1.1914s-0.53125 1.1914-1.1914 1.1914c-0.66016-0.003906-1.1914-0.53125-1.1914-1.1914zm-37.977 18.617c0 0.66016-0.53125 1.1914-1.1914 1.1914-0.66016 0-1.1914-0.53125-1.1914-1.1914 0-0.66016 0.53125-1.1914 1.1914-1.1914 0.64844 0.003907 1.1914 0.53125 1.1914 1.1914zm-9.8516-35c0-0.66016 0.53125-1.1914 1.1914-1.1914 0.66016 0 1.1914 0.53125 1.1914 1.1914 0 0.66016-0.53125 1.1914-1.1914 1.1914-0.66016 0-1.1914-0.53125-1.1914-1.1914z" fill="#338cc8"/>
</svg>
