<?xml version="1.0" encoding="UTF-8"?>
<svg width="100pt" height="100pt" version="1.1" viewBox="0 0 100 100" xmlns="http://www.w3.org/2000/svg">
 <path d="m88.422 64.18h-2.8203v-32.02c2.1289-0.98047 3.5703-2.7891 3.5703-4.8711 0-0.039062-0.019531-0.078124-0.019531-0.12109v-0.078125l-5.8984-21.379c-0.089844-0.32813-0.39062-0.55078-0.71875-0.55078h-65.055c-0.33984 0-0.62891 0.23047-0.71875 0.55078l-5.8984 21.379c-0.011719 0.03125 0 0.050781 0 0.078125-0.011719 0.039062-0.019531 0.078125-0.019531 0.12109 0 2.0781 1.4414 3.8906 3.5703 4.8711v32.031h-2.8203c-0.41016 0-0.75 0.33984-0.75 0.75v29.148c0 0.41016 0.33984 0.75 0.75 0.75h76.84c0.41016 0 0.75-0.33984 0.75-0.75l-0.003906-29.16c-0.007813-0.41016-0.33984-0.75-0.75781-0.75zm-4.3203 0h-3.1992l0.12891-31.32c0.32812 0.039063 0.66016 0.058594 0.98828 0.058594 0.71875 0 1.4219-0.089844 2.0781-0.25zm-9.1133 0 2.3594-12.98c0.039063-0.21875-0.019531-0.44141-0.16016-0.60938-0.14062-0.17188-0.35156-0.26953-0.57812-0.26953h-2.2109l0.96875-7.8398c0.14062-1.1289 0.089843-2.2812-0.14063-3.0781-0.17969-0.64062-0.67187-1.1211-1.2695-1.2383-0.46875-0.10156-0.94922 0-1.3281 0.28125-0.19141 0.12891-0.33984 0.30078-0.46094 0.5l-3.3906-0.42187c-0.51172-0.058594-1.0117 0.078124-1.4102 0.39062l-0.019532 0.019532c-0.050781-0.058594-0.10156-0.14062-0.16016-0.19922-0.44922-0.48828-1.1016-0.69922-1.6914-0.55078-0.46094 0.12109-0.85156 0.42188-1.0703 0.83984-0.10938 0.19922-0.17188 0.42187-0.19141 0.64844l-3.2305 1.1211c-1 0.35156-1.5312 1.4414-1.1797 2.4414l1.1797 3.3984 1.2891 3.7109-1.5938-0.003906c-0.21875 0-0.42969 0.10156-0.57812 0.26953-0.14062 0.17188-0.19922 0.39844-0.16016 0.60938l2.3594 12.98h-12.082c0.21094-0.39062 0.32812-0.82031 0.32812-1.2891v-1.5391c0-0.80859-0.35156-1.5312-0.89844-2.0391 0.55859-0.51172 0.91016-1.2383 0.91016-2.0508v-1.5391c0-1.5391-1.25-2.7891-2.7891-2.7891h-0.19141l-6.1602-11.371c-1.0703-1.9805-3.5586-2.7188-5.5195-1.6602l-0.64062 0.32031c-1.2383-0.89844-2.9414-1.0781-4.3984-0.28906l-0.51953 0.32812c-0.39062-0.30078-0.82812-0.53125-1.3086-0.67969-1.0508-0.30859-2.1484-0.19922-3.1094 0.32031-0.51953 0.28125-0.89844 0.75-1.0703 1.3203-0.17188 0.57031-0.10938 1.1719 0.17969 1.6914l5.4219 10.012-0.27344-0.003906c-1.5391 0-2.7891 1.25-2.7891 2.7891v1.5391c0 0.80859 0.35156 1.5312 0.89844 2.0391-0.55859 0.51172-0.91016 1.2383-0.91016 2.0508v1.5391c0 0.46875 0.12891 0.91016 0.32812 1.2891l-7.125 0.003906v-31.66c1.6484-0.51172 3-1.5 3.7812-2.7383 1.1719 1.8594 3.6016 3.1406 6.3984 3.1406 2.8008 0 5.2305-1.2812 6.3984-3.1406 1.1719 1.8594 3.6016 3.1406 6.3984 3.1406 2.8086 0 5.2305-1.2812 6.3984-3.1406 1.1719 1.8594 3.6016 3.1406 6.3984 3.1406 2.8086 0 5.2305-1.2812 6.3984-3.1406 1.1719 1.8594 3.6016 3.1406 6.3984 3.1406 2.8008 0 5.2305-1.2812 6.3984-3.1406 0.80859 1.2812 2.1992 2.2812 3.9102 2.7812l-0.082031 31.605zm-9.25-24.32c-0.019531-0.070313 0-0.12109 0.011719-0.14844 0.019531-0.03125 0.050781-0.078126 0.12109-0.089844h0.011718c0.039063 0 0.12109 0.03125 0.19141 0.10938 0.42188 0.46094 0.89062 1.3203 1.1914 2.1914 0.35156 1 0.48828 1.8281 0.42969 2.5586 0 0.039062-0.039062 0.078125-0.10937 0.10938-0.070313 0.019531-0.10938 0.011718-0.14844-0.011719-0.039062-0.019531-0.070312-0.050781-0.10938-0.16016-0.070313-0.19141-0.19922-0.33984-0.37891-0.42969-0.17969-0.089843-0.37891-0.10156-0.57031-0.03125l-4.1914 1.4609-0.42188-1.1914-0.019531-0.050781-0.5-1.4492c-0.070313-0.21875 0.039062-0.44922 0.26172-0.53125l3.7891-1.3203c0.39453-0.14453 0.58203-0.625 0.44141-1.0156zm6.043 10.461-1.8711-5.3594 1.4805 0.17969c0.058594 0.19141 0.14844 0.37109 0.28125 0.53906 0.28125 0.35937 0.67969 0.57812 1.1484 0.64062 0.070313 0.011719 0.14063 0.011719 0.19922 0.011719 0.12109 0 0.23828-0.019531 0.35938-0.050781l-0.5 4.0312-1.0977-0.003906zm2.0977-8.0312c-0.12891 1.0508-0.37891 1.8594-0.75 2.4883-0.019531 0.039062-0.078125 0.050781-0.14062 0.050781-0.070312-0.011719-0.10938-0.039063-0.12891-0.070313s-0.039063-0.070312-0.03125-0.19922c0.050781-0.41016-0.23828-0.78125-0.64844-0.82812l-2.8203-0.35156-0.67969-1.9609c-0.14063-0.41016-0.32031-0.80859-0.51172-1.1914 0.03125-0.058593 0.058593-0.10937 0.12109-0.14844 0.089844-0.070313 0.19922-0.10156 0.30078-0.078125l3.9883 0.48828c0.42188 0.050781 0.78906-0.30078 0.83984-0.71094 0.011719-0.070313 0.050781-0.10938 0.078125-0.12891 0.03125-0.019532 0.070312-0.039063 0.14844-0.03125 0.03125 0.011718 0.10156 0.070312 0.12891 0.19141 0.1875 0.60156 0.21484 1.5703 0.10547 2.4805zm-7.5898 3.2695c0.14063 0.14844 0.30078 0.26953 0.48828 0.35938 0.39844 0.19922 0.85938 0.21875 1.3086 0.070312 0.17969-0.058593 0.33984-0.17188 0.48828-0.28125l1.6094 4.6094h-6.3008l-1.2188-3.4883zm9.4219 6.2617-2.25 12.371h-9.6211l-2.2383-12.371zm-46.82 11.07v-1.5391c0-0.71094 0.57812-1.2891 1.2891-1.2891h17.59c0.71094 0 1.2891 0.57812 1.2891 1.2891v1.5391c0 0.71094-0.57812 1.2891-1.2891 1.2891h-17.578c-0.72266 0-1.3008-0.57813-1.3008-1.2891zm10.41-18.652c0.17969 0.37109 0.62109 0.53125 1 0.35156 0.75-0.35938 1.1094 0.039062 1.2695 0.30859l1.9492 3.5898c-0.28125 0.039063-0.55859 0.10938-0.87109 0.25-0.37109 0.17969-0.53125 0.62891-0.35156 1 0.17969 0.37109 0.62109 0.53125 1 0.35156 0.76172-0.35938 1.1211 0.050781 1.2695 0.32031l1.3516 2.4805h-3.2812l-6.1602-11.371c-0.039062-0.070312-0.089843-0.12109-0.12891-0.19141l0.28125-0.14062c1.25-0.67969 2.8281-0.21094 3.5117 1.0391l0.39844 0.73047c-0.28125 0.039063-0.55859 0.10938-0.87109 0.25-0.38672 0.21484-0.54688 0.66406-0.36719 1.0312zm-4.1602-1.9766 0.39844 0.73047c-0.28125 0.039062-0.55859 0.10937-0.87109 0.25-0.37109 0.17969-0.53125 0.62891-0.35156 1 0.17969 0.37109 0.62109 0.53125 1 0.35156 0.75-0.35938 1.1094 0.039062 1.2695 0.30859l1.9492 3.5898c-0.28125 0.039062-0.55859 0.10156-0.87109 0.25-0.37109 0.17969-0.53125 0.62891-0.35937 1 0.17969 0.37109 0.62109 0.53125 1 0.35156 0.76172-0.35938 1.1211 0.039062 1.2695 0.32031l1.3516 2.4883h-3.2812l-1.7188-3.1602-2.9883-5.5117-1.4609-2.6914c-0.03125-0.058593-0.078124-0.10937-0.10937-0.16016l0.26172-0.17188c1.2617-0.66797 2.832-0.20703 3.5117 1.0547zm-4.9805 0 0.39844 0.73047c-0.28125 0.039062-0.55859 0.10937-0.87109 0.25-0.37109 0.17969-0.53125 0.62891-0.35156 1 0.17969 0.37109 0.62109 0.53125 1 0.35156 0.75-0.35938 1.1094 0.039062 1.2695 0.30859l1.9492 3.5898c-0.28125 0.039062-0.55859 0.10156-0.87109 0.25-0.37109 0.17969-0.53125 0.62891-0.35938 1 0.17969 0.37109 0.62109 0.53125 1 0.35156 0.75-0.35938 1.1211 0.039062 1.2695 0.32031l1.3516 2.4883h-3.7695l-5.8086-10.719c-0.089844-0.17188-0.10938-0.35938-0.058594-0.55078 0.058594-0.17969 0.17969-0.33984 0.35156-0.42969 0.60938-0.32812 1.3086-0.39844 1.9688-0.21094 0.65234 0.21875 1.1992 0.65625 1.5312 1.2695zm17.629 12.16c0.71094 0 1.2891 0.57812 1.2891 1.2891v1.5391c0 0.71094-0.57812 1.2891-1.2891 1.2891h-17.59c-0.71094 0-1.2891-0.57812-1.2891-1.2891v-1.5391c0-0.71094 0.57812-1.2891 1.2891-1.2891zm15.699-27.883-1.9883-19.879h9.2305l3.9688 19.879zm11.281 1.5c-0.48047 1.9219-2.7891 3.3789-5.5586 3.3789-2.7695 0-5.0703-1.4609-5.5586-3.3789zm-12.789-1.5h-11.23v-19.879h9.2383zm-0.019531 1.5c-0.48047 1.9219-2.7891 3.3789-5.5586 3.3789-2.7695 0-5.0703-1.4609-5.5586-3.3789zm-12.711-1.5h-11.23l1.9805-19.879h9.2383v19.879zm-0.10156 1.5c-0.48047 1.9219-2.7891 3.3789-5.5586 3.3789-2.7695 0-5.0703-1.4609-5.5586-3.3789zm-12.637-1.5h-11.211l3.9688-19.879h9.2305zm-0.17188 1.5c-0.48047 1.9219-2.7891 3.3789-5.5586 3.3789s-5.0703-1.4609-5.5586-3.3789zm45.68 3.3828c-2.7695 0-5.0703-1.4609-5.5586-3.3789h11.109c-0.48047 1.918-2.7812 3.3789-5.5508 3.3789zm5.4219-4.8828h-11.211l-3.9688-19.879h9.6914zm-69.391-19.879h9.6914l-3.9688 19.879h-11.215zm-5.6211 21.379h11.109c-0.48047 1.9219-2.7891 3.3789-5.5586 3.3789-2.7695 0.003906-5.0703-1.457-5.5508-3.3789zm3.4688 4.6406c0.66016 0.16016 1.3594 0.25 2.0781 0.25 0.37891 0 0.75-0.03125 1.1211-0.078126v31.34h-3.1992zm71.773 60.66h-75.344v-27.66h75.34z" fill="#338cc8"/>
 <path d="m30.98 57.422c0.41016 0 0.75-0.33984 0.75-0.75v-0.37109c0-0.41016-0.33984-0.75-0.75-0.75-0.41016 0-0.75 0.33984-0.75 0.75v0.35938c0 0.41797 0.33984 0.76172 0.75 0.76172z" fill="#338cc8"/>
 <path d="m46.98 57.422c0.41016 0 0.75-0.33984 0.75-0.75v-0.37109c0-0.41016-0.33984-0.75-0.75-0.75-0.41016 0-0.75 0.33984-0.75 0.75v0.35938c0 0.41797 0.33984 0.76172 0.75 0.76172z" fill="#338cc8"/>
 <path d="m30.98 61.191c-0.41016 0-0.75 0.33984-0.75 0.75v0.35938c0 0.41016 0.33984 0.75 0.75 0.75 0.41016 0 0.75-0.33984 0.75-0.75v-0.35938c0-0.42188-0.33203-0.75-0.75-0.75z" fill="#338cc8"/>
 <path d="m46.98 61.191c-0.41016 0-0.75 0.33984-0.75 0.75v0.35938c0 0.41016 0.33984 0.75 0.75 0.75 0.41016 0 0.75-0.33984 0.75-0.75v-0.35938c0-0.42188-0.33203-0.75-0.75-0.75z" fill="#338cc8"/>
 <path d="m50 73.172c-8.8398 0-18.238 2.2188-18.238 6.3398 0 4.1211 9.3984 6.3398 18.238 6.3398s18.238-2.2188 18.238-6.3398c0-4.1211-9.3984-6.3398-18.238-6.3398zm0 11.18c-9.8594 0-16.738-2.5508-16.738-4.8398 0-2.2891 6.8711-4.8398 16.738-4.8398 9.8711 0 16.738 2.5508 16.738 4.8398 0 2.2891-6.8789 4.8398-16.738 4.8398z" fill="#338cc8"/>
</svg>
