<?xml version="1.0" encoding="UTF-8"?>
<svg width="100pt" height="100pt" version="1.1" viewBox="0 0 100 100" xmlns="http://www.w3.org/2000/svg">
 <path d="m88.52 64.18h-2.8203v-32.02c2.1289-0.98047 3.5703-2.7891 3.5703-4.8711 0-0.039062-0.019531-0.078124-0.019531-0.12109v-0.078125l-5.8984-21.379c-0.089843-0.32813-0.39062-0.55078-0.71875-0.55078h-65.062c-0.33984 0-0.62891 0.23047-0.71875 0.55078l-5.8984 21.379c-0.011719 0.03125 0 0.058594 0 0.078125-0.011719 0.039062-0.019531 0.078125-0.019531 0.12109 0 2.0781 1.4414 3.8906 3.5703 4.8711v32.031h-2.8203c-0.41016 0-0.75 0.33984-0.75 0.75v29.148c0 0.41016 0.33984 0.75 0.75 0.75h76.84c0.41016 0 0.75-0.33984 0.75-0.75l-0.003907-29.16c0-0.41016-0.33984-0.75-0.75-0.75zm-4.3203 0h-3.1992l0.12891-31.32c0.32812 0.039063 0.64844 0.058594 0.98828 0.058594 0.73047 0 1.4219-0.089844 2.0781-0.25zm-8.6211 0 2.0508-4.5c0.10938-0.23047 0.089844-0.5-0.050781-0.71875-0.078125-0.12109-0.19141-0.21094-0.32031-0.26953 0.10938-0.35156 0.17969-0.71094 0.17969-1.0781 0-1.0703-0.5-2.0117-1.2695-2.6289 0.28906-0.78125 0.30078-1.6289 0-2.4102-0.32812-0.85938-0.96875-1.5391-1.8086-1.9219-1.6211-0.73047-3.5-0.089844-4.3789 1.4102-0.60156-0.17188-1.2305-0.19141-1.8516-0.019531h-0.011718c-0.87891-1.4805-2.75-2.1211-4.3711-1.3906-1.6094 0.71875-2.3711 2.5312-1.8594 4.1719-0.89062 0.62109-1.4688 1.6406-1.4688 2.8008 0 0.37109 0.070312 0.73047 0.17969 1.0781-0.12891 0.058594-0.23828 0.14062-0.32031 0.26953-0.14062 0.21094-0.16016 0.48047-0.050782 0.71875l2.0508 4.5h-4.7188l2.0508-4.5c0.10938-0.23047 0.089844-0.5-0.050781-0.71875-0.14062-0.21094-0.37891-0.33984-0.62891-0.33984h-0.070313c0.33984-1.5-0.98828-2.5-2.3906-3.5391-1.1602-0.85938-2.6016-1.9414-3.8594-3.6211-0.87891-1.1719-1.7305-1.3398-2.2891-1.2695-0.55078 0.070313-1.0195 0.39844-1.3281 0.89844-0.76953-0.83984-1.4883-0.96875-1.9883-0.89844-0.48828 0.058594-0.92969 0.32812-1.2305 0.73828-0.58984-0.69922-1.1992-0.85156-1.6484-0.82812-0.57031 0.03125-1.0898 0.35938-1.4492 0.87109-0.19922-0.10156-0.41016-0.19141-0.64844-0.21094-0.69141-0.070313-1.3594 0.23828-1.75 0.80859-0.28906 0.42969-0.66016 1.3594 0.10938 2.8086 0.83984 1.6094 2.0586 3.1602 3.25 4.2383h-0.73047c-0.26172 0-0.48828 0.12891-0.62891 0.33984s-0.16016 0.48047-0.050782 0.71875l2.0508 4.5h-6.7188l2.0508-4.5c0.10938-0.23047 0.089844-0.5-0.050781-0.71875-0.14062-0.21094-0.37891-0.33984-0.62891-0.33984h-0.64844c1.25-1.8281 0.80078-3.8516-0.14844-5.2188-0.37109-0.53125-0.35156-1.4297-0.32812-2.3008 0.03125-1.1992 0.070312-2.8398-1.5-3.1289-0.48047-0.089844-0.92188 0-1.2891 0.26172-0.83984 0.57812-1.0586 1.8711-1.2695 3.1094-0.10938 0.60938-0.21875 1.25-0.37891 1.6406-0.058594 0.12891-0.14063 0.26172-0.25 0.39062-0.35938-0.53125-0.33984-1.4219-0.32031-2.2812 0.03125-1.1992 0.070313-2.8398-1.5-3.1289-0.48047-0.089844-0.92188 0-1.2891 0.26172-0.83984 0.57812-1.0586 1.8711-1.2695 3.1094-0.10938 0.60938-0.21875 1.25-0.37891 1.6406-0.070313 0.16016-0.19141 0.32031-0.32031 0.46875-0.12891-0.16016-0.25-0.30859-0.32031-0.46875-0.17188-0.39062-0.28125-1.0312-0.37891-1.6484-0.21875-1.25-0.44141-2.5312-1.2695-3.1094-0.37109-0.26172-0.80859-0.33984-1.2891-0.26172-1.5703 0.28906-1.5312 1.9297-1.5 3.1289 0.019531 0.87109 0.039062 1.7695-0.32812 2.3008-0.94922 1.3711-1.3984 3.3984-0.14062 5.2383-0.21875 0.019532-0.42969 0.12891-0.55078 0.32031-0.14062 0.21094-0.16016 0.48047-0.050781 0.71875l2.0508 4.5h-3.6016l-0.019531-31.641c1.6484-0.51172 3-1.5 3.7812-2.7383 1.1719 1.8594 3.6016 3.1406 6.3984 3.1406 2.8086 0 5.2305-1.2812 6.3984-3.1406 1.1719 1.8594 3.6016 3.1406 6.3984 3.1406 2.8086 0 5.2305-1.2812 6.3984-3.1406 1.1719 1.8594 3.6016 3.1406 6.3984 3.1406 2.8086 0 5.2305-1.2812 6.3984-3.1406 1.1719 1.8594 3.6016 3.1406 6.3984 3.1406 2.8086 0 5.2305-1.2812 6.3984-3.1406 0.80859 1.2812 2.1992 2.2812 3.9102 2.7812l-0.12891 31.621-3.8125-0.003906zm-13.637-6.5586c0-1.0586 0.85938-1.9102 1.9219-1.9102 1.0312 0 1.8711 0.82031 1.9102 1.8516-0.14063 0.32812-0.21094 0.69141-0.23828 1.0586h-3.2695c-0.20703-0.30078-0.32422-0.64062-0.32422-1zm1.4297-4.5195c0.17969-0.48828 0.55078-0.87109 1.0195-1.0898 0.89062-0.39844 1.9219-0.070313 2.4414 0.73047-0.28906 0.25-0.55078 0.53906-0.75 0.89062-0.19922 0.35156-0.32031 0.73047-0.39062 1.1094-0.53125-0.33984-1.1602-0.53906-1.8398-0.53906-0.19141 0-0.37109 0.03125-0.55859 0.058594-0.09375-0.38281-0.074219-0.78125 0.078125-1.1602zm8.9883 5.5195c-0.03125-0.37109-0.10156-0.73047-0.23828-1.0586 0.039062-1.0195 0.87109-1.8516 1.9102-1.8516 1.0586 0 1.9219 0.85937 1.9219 1.9102 0 0.35938-0.12109 0.69922-0.30859 1zm-3.418-1.6719c0.98047 0 1.7812 0.73047 1.9219 1.6719h-3.8398c0.13672-0.94141 0.9375-1.6719 1.918-1.6719zm5.8867-2.6406c-0.26172-0.058594-0.51953-0.10156-0.80078-0.10156-0.60156 0-1.1602 0.17188-1.6484 0.44141-0.011718-0.070313-0.019531-0.14844-0.039062-0.21875-0.17969-0.64844-0.53906-1.2188-1.0391-1.6602 0.51172-0.80859 1.5508-1.1602 2.4492-0.75 0.48047 0.21094 0.83984 0.60156 1.0195 1.0898 0.15234 0.39062 0.17188 0.80078 0.058594 1.1992zm-4.8281-0.63672c0.44141 0.25 0.76172 0.66016 0.89844 1.1602 0.10937 0.39844 0.078124 0.80859-0.070313 1.1914-0.53906-0.35938-1.1914-0.57031-1.8906-0.57031-0.64062 0-1.2188 0.17969-1.7305 0.48828 0-0.03125 0-0.070312-0.011719-0.10156-0.12891-0.48828-0.070312-1.0117 0.17969-1.4492 0.25-0.44141 0.66016-0.76172 1.1602-0.89844 0.49609-0.14063 1.0156-0.082032 1.4648 0.17969zm5.7891 6.4492-1.8516 4.0586h-9.9883l-1.8516-4.0586zm-29.559-1.5508c-1.1016-0.37109-3.2188-2.4609-4.4883-4.8906-0.28906-0.55078-0.35938-1.0312-0.19922-1.2695 0.089843-0.14062 0.25-0.17188 0.35156-0.16016 0.17188 0.019531 0.21875 0.14062 0.23828 0.17969 0.058594 0.16016 0.14844 0.32031 0.23047 0.46875 0.070313 0.21875 0.16016 0.42969 0.30078 0.62109 0.019532 0.019531 0.039063 0.03125 0.050782 0.050781 0.55078 0.92969 1.3203 1.8906 2.3086 2.8906 0.64844 0.64844 1.3086 1.1289 1.8398 1.5117 0.28906 0.21094 0.67188 0.48047 0.82031 0.64844l-0.011719 0.011718h-1.3594c-0.023438-0.03125-0.050781-0.054687-0.082031-0.0625zm-2.3789-6.6406c0.089844-0.19922 0.23828-0.33984 0.37109-0.33984 0.14844 0.011718 0.42188 0.17188 0.71875 0.69141 1.3594 2.3281 3.3008 3.8906 4.7305 5.0391 0.48047 0.39063 1.0586 0.85156 1.3086 1.1406-0.050781 0.050781-0.078125 0.10156-0.10938 0.16016h-1.6406c0-0.03125 0.011719-0.050782 0.011719-0.078125-0.039063-0.75-0.67969-1.2109-1.4805-1.8008-0.51172-0.37109-1.0898-0.78906-1.6484-1.3594-1.0703-1.0703-1.8281-2.0781-2.3086-3.0195-0.042969-0.14453-0.015626-0.30469 0.046874-0.43359zm3.1367 0.67969c-0.16016-0.21094-0.12891-0.48828-0.058593-0.66016 0.050781-0.12109 0.14844-0.26172 0.28125-0.26953 0.16016-0.011719 0.5 0.14062 0.89844 0.67969 1.3906 1.8594 2.9297 3 4.1602 3.9297 1.8008 1.3398 2.0391 1.6797 1.6992 2.3398h-1.4102c0.058594-0.82812-0.71094-1.4492-1.9688-2.4688-1.0586-0.85938-2.4297-1.9688-3.5586-3.4414-0.011719-0.039062-0.011719-0.078125-0.042969-0.10938zm3.3203 0c-0.16016-0.21094-0.12891-0.48828-0.058594-0.66016 0.050781-0.12109 0.14844-0.26172 0.28125-0.26953 0.16016-0.011719 0.5 0.14062 0.89844 0.67969 1.3906 1.8594 2.9297 3 4.1602 3.9297 1.7891 1.3398 2.0391 1.6797 1.6992 2.3398h-1.7188c0.33984-1.5-0.98828-2.5-2.3906-3.5391-0.85938-0.64844-1.8906-1.4102-2.8711-2.4492v-0.03125zm7.4805 7.5117-1.8516 4.0586h-9.9883l-1.8516-4.0586zm-33.57-5.8594c0.64844-0.94141 0.62109-2.1406 0.58984-3.1914-0.03125-1.0781 0-1.5703 0.26953-1.6094 0.10938-0.019532 0.14062 0 0.16016 0.011718 0.32031 0.21875 0.51953 1.3789 0.64844 2.1406 0.12891 0.73047 0.25 1.4219 0.48047 1.9688 0.21094 0.5 0.55859 0.87891 0.87109 1.2109 0.73047 0.78906 1.2812 1.4414 0.019531 3.8281h-2.3984c-2.0898-1.75-1.1484-3.6211-0.64062-4.3594zm7.7109 0c0.078124 0.10938 0.14062 0.23828 0.21094 0.35938-0.57031 0.89844-0.78906 2.0586 0.078125 4h-3.2812c0.85156-1.9297 0.66016-3.0781 0.089844-3.9805 0.26953-0.30078 0.55859-0.62891 0.73828-1.0703 0.23047-0.55078 0.35156-1.2383 0.48047-1.9688 0.12891-0.76172 0.32812-1.9102 0.64844-2.1406 0.019531-0.011719 0.050781-0.03125 0.16016-0.011719 0.26172 0.050781 0.30078 0.53906 0.26953 1.6094-0.015625 1.0625-0.042969 2.2617 0.60547 3.2031zm5 0c0.51953 0.73828 1.4492 2.6211-0.64063 4.3594h-2.3984c-1.2617-2.3984-0.71094-3.0508 0.019531-3.8281 0.30859-0.32812 0.66016-0.71094 0.87109-1.2109 0.23047-0.55078 0.35156-1.2383 0.48047-1.9688 0.12891-0.76172 0.32812-1.9102 0.64844-2.1406 0.019532-0.011718 0.050782-0.03125 0.16016-0.011718 0.26172 0.050781 0.30078 0.53906 0.26953 1.6094-0.03125 1.0508-0.058594 2.25 0.58984 3.1914zm0.85937 5.8594-1.8516 4.0586h-9.9883l-1.8516-4.0586zm25.789-33.582-1.9766-19.879h9.2305l3.9688 19.879zm11.281 1.5c-0.48047 1.9219-2.7891 3.3789-5.5586 3.3789s-5.0703-1.4609-5.5586-3.3789zm-12.789-1.5h-11.23v-19.879h9.2383zm-0.019531 1.5c-0.48047 1.9219-2.7891 3.3789-5.5586 3.3789-2.7695 0-5.0703-1.4609-5.5586-3.3789zm-12.711-1.5h-11.219l1.9805-19.879h9.2383zm-0.089844 1.5c-0.48047 1.9219-2.7891 3.3789-5.5586 3.3789-2.7695 0-5.0703-1.4609-5.5586-3.3789zm-12.641-1.5h-11.219l3.9688-19.879h9.2305zm-0.16797 1.5c-0.48047 1.9219-2.7891 3.3789-5.5586 3.3789-2.7695 0-5.0703-1.4609-5.5586-3.3789zm45.668 3.3828c-2.7695 0-5.0703-1.4609-5.5586-3.3789h11.109c-0.48047 1.918-2.7812 3.3789-5.5508 3.3789zm5.4219-4.8828h-11.211l-3.9688-19.879h9.6914zm-69.391-19.879h9.6914l-3.9688 19.879h-11.203zm-5.6211 21.379h11.109c-0.48047 1.9219-2.7891 3.3789-5.5586 3.3789-2.7695 0.003906-5.0703-1.457-5.5508-3.3789zm3.4688 4.6406c0.66016 0.16016 1.3594 0.25 2.0781 0.25 0.37891 0 0.75-0.03125 1.1211-0.078126v31.34h-3.2109l0.003907-31.512zm0.0625 48.629c0-1.7891 1.4492-3.2383 3.2383-3.2383 1.7812 0 3.2305 1.4414 3.2383 3.2188-0.26172 0.58984-0.42188 1.2383-0.42188 1.9297 0 0.039062 0.019531 0.070312 0.019531 0.10938h-1.1719v-0.71094c0-0.41016-0.33984-0.75-0.75-0.75h-2.5391c-0.41016 0-0.75 0.33984-0.75 0.75v0.71094h-0.16016c-0.44531-0.56641-0.70312-1.2891-0.70312-2.0195zm3.7695-8.168c1.6094-0.62109 3.3984 0.12891 4.1406 1.6602-0.67969 0.53906-1.2305 1.2695-1.5312 2.1484-0.078126 0.21875-0.12891 0.44922-0.17188 0.67969-0.80859-0.66016-1.8398-1.0703-2.9609-1.0703-0.53906 0-1.0391 0.10938-1.5195 0.26953-0.30859-1.5273 0.52344-3.1094 2.043-3.6875zm17.148 16.688h1.1914v1.0391h-1.1914zm0-5h1.1914v1.0391h-1.1914zm0.082031-1.5h-0.078125v-0.71094c0-0.41016-0.33984-0.75-0.75-0.75h-2.5391c-0.41016 0-0.75 0.33984-0.75 0.75v0.71094h-1.2383c0.011719-0.039063 0.019532-0.070313 0.019532-0.10938 0-0.69141-0.14844-1.3398-0.42188-1.9297 0.011719-1.7812 1.4609-3.2188 3.2383-3.2188 1.7891 0 3.2383 1.4492 3.2383 3.2383-0.007812 0.73047-0.25781 1.4531-0.71875 2.0195zm-13.43-0.10938c0-1.8203 1.4805-3.2891 3.2891-3.2891s3.2891 1.4805 3.2891 3.2891c0 0.039062 0.019531 0.070312 0.019531 0.10938h-6.6289c0.011718-0.039063 0.03125-0.066406 0.03125-0.10938zm9.3008 1.6094v1.0391l-11.953 0.003906v-1.0391zm0 3.5h-11.953v-0.96094h11.961v0.96094zm-11.953 1.5h11.961v1.0391l-11.961 0.003906zm0 2.543h11.961v0.96094l-11.961-0.003906zm14.801-15.609c-0.39844-0.10938-0.80859-0.19141-1.2383-0.19141-1.1289 0-2.1602 0.42188-2.9688 1.0781-0.21875-1.2188-0.92188-2.3203-1.9688-3.0391 0.37109-0.78125 1-1.3789 1.8086-1.6797 0.82031-0.30859 1.7188-0.28125 2.5195 0.078124 0.80078 0.35938 1.4219 1.0117 1.7305 1.8398 0.22656 0.61328 0.26953 1.2734 0.11719 1.9141zm-5.8008 2.7773v0.019532c-0.82812-0.69922-1.8906-1.1406-3.0586-1.1406-1.1719 0-2.2188 0.44141-3.0508 1.1289-0.23828-0.67969-0.25-1.4297-0.011719-2.1211 0.57812-1.6914 2.4297-2.5898 4.1211-2.0117 1.6797 0.59766 2.582 2.4375 2 4.125zm-14.27 5.2891h1.2305v1.0391l-1.2305 0.003906zm1.2227 6.043h-1.2227v-1.0391h1.2305v1.0391zm1.5 2.4688v-9.9688h1.0391v9.9688zm16 0v-9.9688h1.0391v9.9688zm28.578-19.711 0.42188 0.73047c0.10938 0.19922 0.30859 0.33984 0.53906 0.37109 0.23047 0.03125 0.46094-0.039063 0.62891-0.19922l0.60156-0.57031-0.19141 2.3984c-0.37109-0.050781-0.73828-0.039063-1.1016 0.058594-0.42969 0.12109-0.80078 0.33984-1.1406 0.60938l-1.5508-2.1211 0.73047 0.39062c0.23828 0.12891 0.53125 0.12109 0.75-0.019531s0.35938-0.39844 0.35156-0.67188zm1.2812 4.2617c1.0508-0.28125 2.6797 1.0781 3.3281 3.5 0.17969 0.66016 0.23828 1.3086 0.21875 1.9414h-2.8711v-0.71094c0-0.41016-0.33984-0.75-0.75-0.75h-1.207c-0.42188-1.9805 0.10156-3.6602 1.2812-3.9805zm4.1602-6.6719 0.60156 0.57031c0.19922 0.17969 0.46875 0.25 0.73047 0.17188 0.26172-0.078126 0.44922-0.28906 0.51172-0.55078l0.21875-0.98047 0.21094 0.82031c0.058594 0.21875 0.21094 0.41016 0.42969 0.5 0.21094 0.089844 0.44922 0.078125 0.66016-0.03125l0.73047-0.39062-0.92188 2.5586c-0.21094-0.089844-0.44141-0.14844-0.67188-0.17969-0.51172-0.058593-1.0117 0.011719-1.4609 0.19922zm6.6602 1.1211 0.51953 0.64062c0.17188 0.21094 0.44141 0.30859 0.71094 0.26172 0.26953-0.050782 0.48828-0.23047 0.57812-0.48047l0.33984-0.94141 0.10938 0.83984c0.03125 0.23047 0.16016 0.42969 0.35938 0.55078 0.19922 0.12109 0.44141 0.14062 0.64844 0.058593l0.76953-0.30078-1.0781 2.1484c-0.32812-0.17969-0.67188-0.30859-1.0391-0.35938-0.44141-0.050781-0.87109 0.011719-1.2812 0.16016zm5.8672 17.488h1.1914v1.0391h-1.1914zm0-5h1.1914v1.0391h-1.1914zm-4.0469 0v1.0391l-11.953 0.003906v-1.0391zm-4.1211-1.5391c0 0.011719 0.011719 0.03125 0.011719 0.039063h-0.039062c0.015624-0.007813 0.027343-0.027344 0.027343-0.039063zm4.1211 5.0391h-11.953v-0.96094h11.961v0.96094zm-11.953 1.5h11.961v1.0391l-11.961 0.003906zm0 2.543h11.961v0.96094l-11.961-0.003906zm12.703-10.5c-0.41016 0-0.75 0.33984-0.75 0.75v0.71094h-2.5117c-0.37891-0.87109-0.53125-1.9805-0.39062-3.1602 0.30859-2.4883 1.7188-4.0586 2.8086-3.9414 0.85938 0.10938 1.7891 1.1719 1.7695 2.6992v0.10937c-0.011718 0.96875-0.03125 1.8789-0.44141 2.8086l-0.48438 0.003906zm-3.25-6.1016c-0.23828 0.23828-0.46094 0.51172-0.66016 0.80859-0.078125-0.23828-0.14844-0.48828-0.25-0.71094-0.17969-0.39063-0.39062-0.73047-0.64062-1.0312l0.78125-2.1719zm-3.6602-0.55859c0.73047 0.089843 1.1719 0.83984 1.3789 1.2812 0.39844 0.87109 0.53906 2.0391 0.39062 3.2188-0.17969 1.4688-0.78125 2.7695-1.5898 3.4805-0.050781 0.039063-0.078125 0.089844-0.10938 0.14062h-1.4609c0.011718-0.76172-0.078125-1.5508-0.30078-2.3281-0.21875-0.82031-0.53906-1.5508-0.92969-2.1914 0.28906-2.2422 1.3906-3.7539 2.6211-3.6016zm-9.8398 10.66h-1.2227v-1.0391h1.2305v1.0391zm0 5h-1.2227v-1.0391h1.2305v1.0391zm1.5 2.4688v-9.9688h1.0391v9.9688zm16 0v-9.9688h1.0391v9.9688zm9.3477 0h-6.8008v-0.96094h1.9414c0.41016 0 0.75-0.33984 0.75-0.75v-2.5391c0-0.41016-0.33984-0.75-0.75-0.75h-1.9414v-0.96094h1.9414c0.41016 0 0.75-0.33984 0.75-0.75v-2.5391c0-0.41016-0.33984-0.75-0.75-0.75h-1.9414v-0.71094c0-0.41016-0.33984-0.75-0.75-0.75h-0.42969c0.30859-0.98828 0.32031-1.9414 0.32813-2.8008v-0.10938c0.011718-1.0703-0.32813-2.0703-0.87891-2.8281l2.1289-4.2383c0.14062-0.28125 0.089843-0.60938-0.10938-0.83984-0.19922-0.23047-0.53906-0.30859-0.82812-0.19922l-1.6914 0.66016-0.37891-2.9609c-0.039063-0.33984-0.32031-0.60938-0.66016-0.64844-0.35156-0.039062-0.67188 0.17188-0.78906 0.48828l-0.94141 2.6211-1.8086-2.1992c-0.21875-0.26953-0.60156-0.35156-0.92188-0.19141-0.30859 0.16016-0.48047 0.51172-0.39062 0.85156l-0.89844 0.48047-0.73828-2.8906c-0.089844-0.32812-0.37891-0.55859-0.73047-0.55859h-0.011719c-0.35156 0-0.64062 0.25-0.71875 0.57812l-0.62109 2.7109-2.0586-1.9609c-0.25-0.23828-0.64062-0.28125-0.92969-0.078125-0.28906 0.19141-0.41016 0.57031-0.28125 0.89062l2.3789 6.1797c-0.57031 0.62109-1.0195 1.4688-1.3008 2.5117-0.14844-0.12891-0.30859-0.25-0.46875-0.35938l0.39062-4.8086c0.019531-0.30859-0.14062-0.60156-0.42188-0.73828-0.28125-0.12891-0.60938-0.078125-0.83984 0.12891l-1.3203 1.2383-1.4688-2.6016c-0.17188-0.30078-0.51953-0.44922-0.85938-0.35156-0.32812 0.089843-0.55859 0.41016-0.53906 0.75l0.10938 2.7812-2.5-1.3594c-0.30859-0.17188-0.69141-0.10156-0.92188 0.17188-0.23047 0.26172-0.25 0.64844-0.039062 0.94141l3.7891 5.1797c-0.44922 0.96875-0.57812 2.2188-0.32812 3.6016-0.32031 0.089844-0.55859 0.37109-0.55859 0.71094v0.71094h-1.9805c-0.41016 0-0.75 0.33984-0.75 0.75v2.5391c0 0.41016 0.33984 0.75 0.75 0.75h1.9805v0.96094h-1.9805c-0.41016 0-0.75 0.33984-0.75 0.75v2.5391c0 0.41016 0.33984 0.75 0.75 0.75h1.9805v0.96094l-23.992-0.015625v-0.96094h1.9414c0.41016 0 0.75-0.33984 0.75-0.75v-2.5391c0-0.41016-0.33984-0.75-0.75-0.75h-1.9414v-0.96094h1.9414c0.41016 0 0.75-0.33984 0.75-0.75v-2.5391c0-0.41016-0.33984-0.75-0.75-0.75h-0.10938c0.30078-0.62891 0.46875-1.3203 0.46875-2.0195 0-1.6484-0.85156-3.1016-2.1289-3.9492 0.30078-1 0.28125-2.0586-0.089844-3.0586-0.44922-1.1992-1.3516-2.1484-2.5117-2.6719-1.1719-0.53125-2.4688-0.57031-3.6719-0.10938-1.1719 0.44141-2.1016 1.3086-2.6289 2.4414-1.0117-0.30078-2.0508-0.23047-2.9805 0.12109-1.0898-2.1719-3.6602-3.2188-5.9805-2.3281-2.3516 0.89844-3.5586 3.4492-2.8594 5.8203-1.1289 0.87109-1.8711 2.2188-1.8711 3.75 0 0.71094 0.17188 1.3906 0.46875 2.0195h-0.078125c-0.41016 0-0.75 0.33984-0.75 0.75v2.5391c0 0.41016 0.33984 0.75 0.75 0.75h1.9805v0.96094h-1.9805c-0.41016 0-0.75 0.33984-0.75 0.75v2.5391c0 0.41016 0.33984 0.75 0.75 0.75h1.9805v0.96094h-4.5l0.003906-27.664h75.34v27.66z" fill="#338cc8"/>
</svg>
