<?xml version="1.0" encoding="UTF-8"?>
<svg width="100pt" height="100pt" version="1.1" viewBox="0 0 100 100" xmlns="http://www.w3.org/2000/svg">
 <path d="m20.398 57.246 3.6289 3.5312-0.85547 4.9844c-0.0625 0.375 0.089844 0.75391 0.39844 0.97656 0.30859 0.22656 0.71875 0.25391 1.0508 0.078125l4.4883-2.3555 4.4883 2.3555c0.14453 0.078125 0.30469 0.11328 0.46484 0.11328 0.20703 0 0.41406-0.0625 0.58594-0.19141 0.30859-0.22266 0.46094-0.60156 0.39844-0.97656l-0.85547-4.9844 3.6289-3.5312c0.27344-0.26562 0.37109-0.66406 0.25391-1.0234-0.11719-0.36328-0.42969-0.625-0.80859-0.67969l-5.0156-0.72656-2.2422-4.5391c-0.33594-0.68359-1.457-0.68359-1.793 0l-2.2422 4.5391-5.0156 0.72656c-0.375 0.054687-0.69141 0.32031-0.80859 0.67969-0.11719 0.35938-0.023438 0.75781 0.25 1.0234zm6.3789-0.53125c0.32422-0.046875 0.60547-0.25 0.75391-0.54688l1.5781-3.1953 1.5781 3.1953c0.14453 0.29297 0.42578 0.5 0.75391 0.54688l3.5273 0.51172-2.5508 2.4844c-0.23828 0.23047-0.34375 0.5625-0.28906 0.88672l0.60156 3.5078-3.1562-1.6562c-0.29297-0.15234-0.63672-0.15234-0.92969 0l-3.1562 1.6562 0.60156-3.5078c0.054687-0.32422-0.050782-0.65625-0.28906-0.88672l-2.5508-2.4844z" fill="#338cc8"/>
 <path d="m12.738 23.957v2.7852h-1.7383c-0.55078 0-1 0.44922-1 1v5.8867c0 0.55078 0.44922 1 1 1h1.0508l2.7891 54.422c0.027344 0.53125 0.46875 0.94922 1 0.94922h26.637c0.53125 0 0.97266-0.41797 1-0.94922l2.6914-54.422h1.0508c0.55078 0 1-0.44922 1-1v-5.8867c0-0.55078-0.44922-1-1-1h-1.7383v-2.7852c0-1.7695-1.3906-3.207-3.1016-3.207h-12.219c0.50391-4.9062 4.6602-8.75 9.6992-8.75h7.375c0.55078 0 1-0.44922 1-1s-0.44922-1-1-1h-7.375c-6.1406 0-11.188 4.7383-11.699 10.75h-12.32c-1.7109 0-3.1016 1.4375-3.1016 3.207zm29.672 46.168h-26.539l-1.207-23.602h28.914zm-25.621 17.875-0.8125-15.875h26.336l-0.78516 15.875zm26.887-43.477h-29.117l-0.50781-9.8945h30.113zm2.543-11.895h-34.219v-3.8867h34.219zm-30.379-9.8789h26.535c0.60938 0 1.1016 0.54297 1.1016 1.207v2.7852h-28.738v-2.7852c0-0.66406 0.49219-1.207 1.1016-1.207z" fill="#338cc8"/>
 <path d="m90 29.066c0-10.512-8.5508-19.062-19.062-19.062s-19.062 8.5508-19.062 19.062v34.129c0 2.1328 1.7344 3.8672 3.8672 3.8672h10.824v18.566c0 2.4102 1.9609 4.3711 4.3711 4.3711s4.3672-1.9609 4.3672-4.3711v-18.566h10.828c2.1328 0 3.8672-1.7344 3.8672-3.8672zm-19.062-17.062c9.4062 0 17.062 7.6523 17.062 17.062v24.258c-2.3359 0.21094-3.5781 1.7461-4.6758 3.125-1.1836 1.4922-1.9922 2.4102-3.6328 2.4102s-2.4492-0.91797-3.6328-2.4102c-1.1758-1.4844-2.5078-3.168-5.1992-3.168-2.6953 0-4.0273 1.6836-5.2031 3.168-1.1836 1.4922-1.9922 2.4102-3.6367 2.4102s-2.4531-0.91797-3.6367-2.4102c-1.0703-1.3516-2.2812-2.8477-4.5117-3.1133l0.003906-24.27c0-9.4102 7.6523-17.062 17.062-17.062zm2.3672 73.625c0 1.3047-1.0625 2.3711-2.3672 2.3711s-2.3711-1.0625-2.3711-2.3711v-18.566h4.7383zm12.828-20.566h-30.395c-1.0312 0-1.8672-0.83594-1.8672-1.8672v-7.8438c1.2031 0.23047 1.9414 1.0742 2.9453 2.3398 1.1758 1.4844 2.5117 3.168 5.2031 3.168 2.6953 0 4.0273-1.6836 5.2031-3.168 1.1836-1.4922 1.9922-2.4102 3.6367-2.4102 1.6406 0 2.4492 0.91406 3.6328 2.4102 1.1758 1.4844 2.5078 3.168 5.1992 3.168s4.0234-1.6836 5.1992-3.168c1.0469-1.3242 1.8047-2.1914 3.1055-2.3711v7.875c0.003906 1.0312-0.83203 1.8672-1.8633 1.8672z" fill="#338cc8"/>
 <path d="m75.312 20.273c3.5977 2.082 5.832 5.957 5.832 10.109 0 0.55078 0.44922 1 1 1s1-0.44922 1-1c0-4.8633-2.6172-9.3984-6.832-11.84-0.48047-0.27734-1.0898-0.11328-1.3672 0.36328-0.27344 0.48047-0.10937 1.0898 0.36719 1.3672z" fill="#338cc8"/>
 <path d="m82.148 35.266c-0.55078 0-1 0.44922-1 1v8.9141c0 0.55078 0.44922 1 1 1 0.55078 0 1-0.44922 1-1v-8.9141c0-0.55469-0.44922-1-1-1z" fill="#338cc8"/>
</svg>
