<?xml version="1.0" encoding="UTF-8"?>
<svg width="100pt" height="100pt" version="1.1" viewBox="0 0 100 100" xmlns="http://www.w3.org/2000/svg">
 <path d="m1.5625 88.281h21.094c0.86328 0 1.5625-0.69922 1.5625-1.5625s-0.69922-1.5625-1.5625-1.5625h-21.094c-0.86328 0-1.5625 0.69922-1.5625 1.5625s0.69922 1.5625 1.5625 1.5625z" fill="#338cc8"/>
 <path d="m20.312 92.969c0-0.86328-0.69922-1.5625-1.5625-1.5625h-17.188c-0.86328 0-1.5625 0.69922-1.5625 1.5625s0.69922 1.5625 1.5625 1.5625h17.188c0.86328 0 1.5625-0.69922 1.5625-1.5625z" fill="#338cc8"/>
 <path d="m1.5625 75.781h27.344c0.86328 0 1.5625-0.69922 1.5625-1.5625s-0.69922-1.5625-1.5625-1.5625h-27.344c-0.86328 0-1.5625 0.69922-1.5625 1.5625s0.69922 1.5625 1.5625 1.5625z" fill="#338cc8"/>
 <path d="m1.5625 82.031h24.219c0.86328 0 1.5625-0.69922 1.5625-1.5625s-0.69922-1.5625-1.5625-1.5625h-24.219c-0.86328 0-1.5625 0.69922-1.5625 1.5625s0.69922 1.5625 1.5625 1.5625z" fill="#338cc8"/>
 <path d="m76.562 51.562h-4.6875v3.125h6.25c0.86328 0 1.5625-0.69922 1.5625-1.5625v-29.688c0-0.86328-0.69922-1.5625-1.5625-1.5625h-56.25c-0.86328 0-1.5625 0.69922-1.5625 1.5625v29.688c0 0.86328 0.69922 1.5625 1.5625 1.5625h6.25v-3.125h-4.6875v-26.562h53.125z" fill="#338cc8"/>
 <path d="m98.438 85.156h-21.094c-0.86328 0-1.5625 0.69922-1.5625 1.5625s0.69922 1.5625 1.5625 1.5625h21.094c0.86328 0 1.5625-0.69922 1.5625-1.5625s-0.69922-1.5625-1.5625-1.5625z" fill="#338cc8"/>
 <path d="m98.438 91.406h-17.188c-0.86328 0-1.5625 0.69922-1.5625 1.5625s0.69922 1.5625 1.5625 1.5625h17.188c0.86328 0 1.5625-0.69922 1.5625-1.5625s-0.69922-1.5625-1.5625-1.5625z" fill="#338cc8"/>
 <path d="m98.438 72.656h-27.344c-0.86328 0-1.5625 0.69922-1.5625 1.5625s0.69922 1.5625 1.5625 1.5625h27.344c0.86328 0 1.5625-0.69922 1.5625-1.5625s-0.69922-1.5625-1.5625-1.5625z" fill="#338cc8"/>
 <path d="m98.438 78.906h-24.219c-0.86328 0-1.5625 0.69922-1.5625 1.5625s0.69922 1.5625 1.5625 1.5625h24.219c0.86328 0 1.5625-0.69922 1.5625-1.5625s-0.69922-1.5625-1.5625-1.5625z" fill="#338cc8"/>
 <path d="m100 18.863v-17.301c0-0.86328-0.69922-1.5625-1.5625-1.5625h-96.875c-0.86328 0-1.5625 0.69922-1.5625 1.5625v17.301c0 0.59766 0.33984 1.1445 0.875 1.4062 0.73047 0.32422 1.4844 0.58594 2.2539 0.78906 0 0.011718-0.003906 0.023437-0.003906 0.035156v39.062h-1.5625c-0.86328 0-1.5625 0.69922-1.5625 1.5625v6.25c0 0.86328 0.69922 1.5625 1.5625 1.5625h34.582l-14.105 28.207c-0.38672 0.77344-0.074218 1.7109 0.69922 2.0977 0.77344 0.38672 1.7109 0.070312 2.0977-0.69922l14.801-29.605h20.727l15.598 29.633c0.19141 0.36719 0.52344 0.64453 0.91797 0.76563 0.39844 0.125 0.82812 0.085937 1.1953-0.10938 0.36719-0.19141 0.64062-0.52344 0.76172-0.91797 0.125-0.39844 0.085937-0.82422-0.10938-1.1914l-14.832-28.18h34.543c0.86328 0 1.5625-0.69922 1.5625-1.5625v-6.25c0-0.86328-0.69922-1.5625-1.5625-1.5625h-1.5625v-39.062c0-0.011719-0.003906-0.023438-0.003906-0.035156 0.76953-0.20312 1.5234-0.46484 2.2539-0.78906 0.53516-0.26172 0.875-0.80859 0.875-1.4062zm-34.867 24.234c-1.1211-4.543-4.2266-8.3398-8.4531-10.344-4.2266-2.0039-9.1328-2.0039-13.359 0-4.2266 2.0039-7.332 5.8008-8.4531 10.344-2.1172 0.5-3.6133 2.3867-3.6172 4.5586v12.5h-18.75v-38.621c4.5625-0.82812 8.7812-2.9766 12.129-6.1836 2.3398 0.66797 4.7656 1.0078 7.1992 1.0078 5.0977 0 11.352-1.4766 18.172-6.2656 6.8203 4.7891 13.074 6.2656 18.172 6.2656 2.4375 0 4.8594-0.33984 7.2031-1.0078 3.3477 3.2031 7.5664 5.3555 12.125 6.1797v38.625h-18.75v-12.5c-0.003906-2.1719-1.5-4.0586-3.6172-4.5586zm0.49219 4.5586v12.5h-3.125v-12.5c0-0.86328 0.69922-1.5625 1.5625-1.5625s1.5625 0.69922 1.5625 1.5625zm-25 7.0312v-3.125h18.75v3.125zm18.75 3.125v2.3438h-18.75v-2.3438zm-18.75-9.375v-0.78125c-0.003906-1.7852-1.0195-3.4141-2.6211-4.1992 1.5156-5.3711 6.4141-9.082 11.996-9.082s10.48 3.7109 11.996 9.082c-1.6016 0.78516-2.6172 2.4141-2.6211 4.1992v0.78125zm-3.125-0.78125v12.5h-3.125v-12.5c0-0.86328 0.69922-1.5625 1.5625-1.5625s1.5625 0.69922 1.5625 1.5625zm-34.375-29.84v-14.691h45.312v4.2461c-15.715 11.211-27.496 3.1602-28 2.8047v-0.003906c-0.33594-0.23828-0.75781-0.33594-1.1641-0.26953-0.41016 0.070312-0.77344 0.29688-1.0156 0.63281-0.5 0.70312-0.33984 1.6797 0.36328 2.1797 0.83594 0.55078 1.7188 1.0234 2.6406 1.4219-7.9727 6.4297-15.594 4.582-18.137 3.6797zm6.25 4.0078v38.332h-3.125v-38.484c0.88281 0.10547 1.7734 0.16016 2.6602 0.16406 0.15234 0 0.30859-0.007813 0.46484-0.011719zm87.5 41.457v3.125h-93.75v-3.125zm-6.25-3.125v-38.328c1.043 0.019531 2.0898-0.03125 3.125-0.15625v38.484zm6.25-42.352c-2.5391 0.87891-10.211 2.6953-18.133-3.6719 0.91797-0.39453 1.8008-0.87109 2.6367-1.418 0.70312-0.5 0.86328-1.4766 0.35938-2.1797-0.50391-0.69922-1.4766-0.86328-2.1797-0.35938-0.12109 0.085938-12.191 8.4727-27.996-2.793v-4.2578h45.312z" fill="#338cc8"/>
</svg>
