<?xml version="1.0" encoding="UTF-8"?>
<svg width="100pt" height="100pt" version="1.1" viewBox="0 0 100 100" xmlns="http://www.w3.org/2000/svg">
 <path d="m50 97.059c-25.883 0-47.059-21.176-47.059-47.059 0-0.88281 0.58984-1.4688 1.4688-1.4688 0.88281 0 1.4688 0.58984 1.4688 1.4688 0 24.266 19.852 44.117 44.117 44.117s44.117-19.852 44.117-44.117c0.003907-24.266-19.848-44.117-44.113-44.117-11.766 0-22.793 4.5586-31.176 12.941-0.58984 0.58984-1.4688 0.58984-2.0586 0-0.58984-0.58984-0.58984-1.4688 0-2.0586 8.8242-8.9727 20.734-13.824 33.234-13.824 25.883 0 47.059 21.176 47.059 47.059s-21.176 47.059-47.059 47.059z" fill="#fff"/>
 <path d="m29.41 19.266h-11.617c-0.88281 0-1.4688-0.58984-1.4688-1.4688v-11.621c0-0.88281 0.58984-1.4688 1.4688-1.4688 0.88281 0 1.4688 0.58984 1.4688 1.4688v10.148h10.148c0.88281 0 1.4688 0.58984 1.4688 1.4688 0.003906 0.88281-0.73047 1.4727-1.4688 1.4727z" fill="#fff"/>
 <path d="m73.531 79.117h-46.621c-0.88281 0-1.4688-0.58984-1.4688-1.4688v-35.883c0-0.88281 0.58984-1.4688 1.4688-1.4688 0.88281 0 1.4688 0.58984 1.4688 1.4688v34.41h45.152c0.88281 0 1.4688 0.58984 1.4688 1.4688 0 0.88672-0.73438 1.4727-1.4688 1.4727z" fill="#fff"/>
 <path d="m73.531 79.117c-0.88281 0-1.4688-0.58984-1.4688-1.4688l-0.003906-35.883c0-0.88281 0.58984-1.4688 1.4688-1.4688 0.88281 0 1.4688 0.58984 1.4688 1.4688v35.883c0.003906 0.73437-0.73047 1.4688-1.4648 1.4688z" fill="#fff"/>
 <path d="m22.352 46.766c-0.44141 0-0.88281-0.14844-1.1758-0.58984-0.58984-0.58984-0.44141-1.6172 0.14844-2.0586l27.793-23.234c0.58984-0.44141 1.3242-0.44141 1.9102 0l27.793 23.234c0.58984 0.58984 0.73438 1.4688 0.14844 2.0586-0.58984 0.58984-1.4688 0.73438-2.0586 0.14844l-26.762-22.355-26.766 22.5c-0.29297 0.29688-0.58984 0.29688-1.0312 0.29688z" fill="#fff"/>
 <path d="m58.234 79.117h-16.176c-0.88281 0-1.4688-0.58984-1.4688-1.4688v-13.383c0-5.293 4.2656-9.5586 9.5586-9.5586 5.293 0 9.5586 4.2656 9.5586 9.5586v13.383c0 0.73437-0.58984 1.4688-1.4727 1.4688zm-14.703-2.9414h13.234v-11.91c0-3.6758-2.9414-6.6172-6.6172-6.6172-3.6758 0-6.6172 2.9414-6.6172 6.6172z" fill="#fff"/>
</svg>
