<?xml version="1.0" encoding="UTF-8"?>
<svg width="100pt" height="100pt" version="1.1" viewBox="0 0 100 100" xmlns="http://www.w3.org/2000/svg">
 <path d="m100 50c0 27.613-22.387 50-50 50s-50-22.387-50-50 22.387-50 50-50 50 22.387 50 50z" fill="#338cc8"/>
 <path d="m23.383 47.254c-0.11719 0-0.23437-0.007812-0.35156-0.023437-0.72266-0.09375-1.3594-0.47266-1.8008-1.0664-0.88672-1.1953-0.66406-2.9141 0.49609-3.832l26.621-21.07c0.96875-0.76953 2.3242-0.76953 3.2969 0l26.621 21.07c1.1602 0.91797 1.3828 2.6367 0.49609 3.832-0.51172 0.69141-1.2969 1.0859-2.1445 1.0859-0.60156 0-1.1719-0.19922-1.6484-0.57422l-24.969-19.766-24.973 19.766c-0.47656 0.37891-1.0508 0.57812-1.6445 0.57812zm26.617-24.734c-0.17969 0-0.35938 0.058594-0.51172 0.17969l-26.621 21.07c-0.39063 0.3125-0.46484 0.89453-0.16016 1.3047 0.14062 0.19141 0.34375 0.3125 0.56641 0.33984 0.21875 0.027344 0.4375-0.03125 0.61719-0.17187l25.543-20.215c0.33203-0.26562 0.80469-0.26562 1.1367 0l25.543 20.215c0.14844 0.11719 0.32422 0.17969 0.51172 0.17969 0.26562 0 0.51172-0.125 0.67578-0.34766 0.30469-0.41016 0.23047-0.99219-0.16016-1.3047l-26.621-21.07c-0.16016-0.12109-0.33984-0.17969-0.51953-0.17969z" fill="#fff"/>
 <path d="m72.898 79.312h-45.801c-0.50781 0-0.91797-0.41016-0.91797-0.91797l0.003906-34.527c0-0.50781 0.41016-0.91797 0.91797-0.91797 0.50781 0 0.91797 0.41016 0.91797 0.91797l-0.003906 33.613h43.969v-33.613c0-0.50781 0.41016-0.91797 0.91797-0.91797 0.50781 0 0.91797 0.41016 0.91797 0.91797l-0.003906 34.527c0 0.50781-0.41016 0.91797-0.91797 0.91797z" fill="#fff"/>
 <path d="m72.898 75.648h-45.801c-0.50781 0-0.91797-0.41016-0.91797-0.91797 0-0.50781 0.41016-0.91797 0.91797-0.91797h45.801c0.50781 0 0.91797 0.41016 0.91797 0.91797 0 0.50781-0.41016 0.91797-0.91797 0.91797z" fill="#fff"/>
 <path d="m50 71.984c-9.5977 0-17.406-7.8086-17.406-17.406s7.8086-17.406 17.406-17.406 17.406 7.8086 17.406 17.406c-0.003906 9.5977-7.8086 17.406-17.406 17.406zm0-32.977c-8.5859 0-15.574 6.9844-15.574 15.574 0 8.5859 6.9844 15.574 15.574 15.574 8.5859 0 15.574-6.9844 15.574-15.574-0.003907-8.5898-6.9883-15.574-15.574-15.574z" fill="#fff"/>
 <path d="m31.68 36.543c-0.50781 0-0.91797-0.41016-0.91797-0.91797v-10.359c0-0.50781 0.41016-0.91797 0.91797-0.91797h5.4961c0.50781 0 0.91797 0.41016 0.91797 0.91797v6.0078c0 0.50781-0.41016 0.91797-0.91797 0.91797-0.50781 0-0.91797-0.41016-0.91797-0.91797v-5.0898h-3.6641v9.4414c0 0.50781-0.41016 0.91797-0.91406 0.91797z" fill="#fff"/>
 <path d="m50 68.32c-7.5781 0-13.742-6.1641-13.742-13.742s6.1641-13.742 13.742-13.742 13.742 6.1641 13.742 13.742c-0.003907 7.5781-6.1641 13.742-13.742 13.742zm0-25.648c-6.5664 0-11.91 5.3438-11.91 11.91 0 6.5664 5.3438 11.91 11.91 11.91s11.91-5.3438 11.91-11.91c-0.003906-6.5703-5.3438-11.91-11.91-11.91z" fill="#fff"/>
 <path d="m50 60.992h-2.75c-0.50781 0-0.91797-0.41016-0.91797-0.91797 0-0.50781 0.41016-0.91797 0.91797-0.91797h2.75c1.0117 0 1.832-0.82031 1.832-1.832s-0.82031-1.832-1.832-1.832c-2.0195 0-3.6641-1.6445-3.6641-3.6641s1.6445-3.6641 3.6641-3.6641h2.75c0.50781 0 0.91797 0.41016 0.91797 0.91797 0 0.50781-0.41016 0.91797-0.91797 0.91797h-2.75c-1.0117 0-1.832 0.82031-1.832 1.832s0.82031 1.832 1.832 1.832c2.0195 0 3.6641 1.6445 3.6641 3.6641s-1.6445 3.6641-3.6641 3.6641z" fill="#fff"/>
 <path d="m50 50c-0.50781 0-0.91797-0.41016-0.91797-0.91797v-2.75c0-0.50781 0.41016-0.91797 0.91797-0.91797s0.91797 0.41016 0.91797 0.91797v2.75c-0.003907 0.50781-0.41406 0.91797-0.91797 0.91797z" fill="#fff"/>
 <path d="m50 63.738c-0.50781 0-0.91797-0.41016-0.91797-0.91797v-2.75c0-0.50781 0.41016-0.91797 0.91797-0.91797s0.91797 0.41016 0.91797 0.91797v2.75c-0.003907 0.50781-0.41406 0.91797-0.91797 0.91797z" fill="#fff"/>
</svg>
