<?xml version="1.0" encoding="UTF-8"?>
<svg width="100pt" height="100pt" version="1.1" viewBox="0 0 100 100" xmlns="http://www.w3.org/2000/svg">
 <path d="m44.352 45.398c0 4.207 3.4258 7.6328 7.6328 7.6328s7.6289-3.4258 7.6289-7.6328c0-4.207-3.4219-7.625-7.6289-7.625-4.2109 0-7.6328 3.4219-7.6328 7.625zm13.262 0c0 3.1055-2.5273 5.6328-5.6289 5.6328-3.1055 0-5.6328-2.5273-5.6328-5.6328 0-3.1055 2.5273-5.625 5.6328-5.625 3.1016 0 5.6289 2.5195 5.6289 5.625z" fill="#338cc8"/>
 <path d="m77.555 82.605-0.73047 0.19141c-0.94922 0.27344-9.2695 2.0781-18.125 2.0781-4.0508 0-7.7109-0.37109-10.883-1.0977-5.332-1.2227-10.422-2.3203-14.242-2.4844-0.11328 0.25391-0.21875 0.48828-0.32031 0.70703l-0.15625 0.34375c-0.125 0.27734-0.30859 0.59375-0.54688 0.92188 0.023438 0 0.042969-0.003906 0.066407-0.003906 3.6953 0 9.0859 1.168 14.754 2.4688 3.3164 0.76172 7.1289 1.1445 11.328 1.1445 4.7266 0 9.1406-0.47656 12.488-0.98047-4.2266 1.7891-10.383 3.6758-17.535 3.6758-4.2383 0-8.4258-0.66406-12.441-1.9766-3.7148-1.2148-8.0664-1.8281-12.941-1.8281-2.7383 0-5.2148 0.19531-7.1836 0.42188 0.83203-0.44531 1.8125-0.89453 2.8984-1.3086-0.33594-0.10938-0.58984-0.20312-0.69531-0.24219-0.59375-0.27344-1.1523-0.59766-1.6914-0.94531-3.3828 1.5547-5.3516 3.3086-5.4961 3.4453-0.33203 0.30469-0.42187 0.79688-0.21094 1.1992 0.20703 0.40234 0.65625 0.61328 1.1016 0.51953 0.046874-0.011719 5.0352-1.0781 11.273-1.0781 4.6602 0 8.8047 0.58203 12.316 1.7305 4.2148 1.3789 8.6094 2.0742 13.062 2.0742 14.145 0 24.301-6.8789 24.727-7.1719 0.39844-0.27734 0.54297-0.80078 0.33984-1.2422-0.19141-0.45703-0.67969-0.68359-1.1562-0.5625z" fill="#338cc8"/>
 <path d="m84.125 73.297c-0.20312-0.44141-0.69531-0.66406-1.1641-0.54688l-0.73047 0.19531c-0.074219 0.019532-8.5234 2.0742-18.121 2.0742-4.0547 0-7.7148-0.36719-10.887-1.0977-5.7891-1.3281-11.309-2.5234-15.203-2.5234-0.51562 0-1.0117 0.023437-1.5039 0.050781-0.050781 0.67188-0.14062 1.3438-0.26953 2.0156 0.57422-0.042969 1.168-0.066406 1.7734-0.066406 3.6875 0 9.082 1.168 14.758 2.4688 3.3164 0.76172 7.1289 1.1445 11.336 1.1445 4.6172 0 9.0781-0.47656 12.488-0.98047-4.2305 1.7891-10.383 3.6758-17.539 3.6758-4.2383 0-8.4297-0.66406-12.441-1.9766-3.207-1.0469-6.9141-1.625-10.992-1.7695-0.20703 0.68359-0.42969 1.3477-0.66406 1.9766 4.1289 0.10156 7.8516 0.65234 11.035 1.6953 4.2148 1.375 8.6133 2.0742 13.062 2.0742 14.145 0 24.301-6.8789 24.727-7.1758 0.39453-0.26953 0.53516-0.79297 0.33594-1.2344z" fill="#338cc8"/>
 <path d="m24.023 82.766c0.074218 0.03125 1.8672 0.73438 3.6484 0.73438 2.2344 0 3.1953-1.0781 3.6094-1.9883l0.15234-0.33984c1.3242-2.8984 4.8438-10.598 2.1094-14.699-0.097657-0.14453-0.23047-0.26562-0.38672-0.33984l-0.48438-0.24219 0.51172-1.1328 11.652 3.4922c2.125 0.64062 5.2305 0.34766 7.2031-0.6875l2.1211-1.1055 0.14453 0.46094c0.52344 1.668 1.1406 3.6094 1.8672 5.5312 0.73047 0.11719 1.4844 0.21094 2.2617 0.29297-0.87891-2.1836-1.6133-4.4844-2.2188-6.4219l-0.51172-1.6094c-0.089844-0.28125-0.29688-0.50781-0.57031-0.62109-0.27344-0.11328-0.58203-0.10156-0.84375 0.039062l-3.1758 1.6562c-1.5039 0.78906-4.0859 1.0312-5.6992 0.54297l-11.988-3.5938c-0.78516-0.23438-1.2305-1.0664-0.99609-1.8516 0.23437-0.78125 1.0703-1.2305 1.8516-1l11.988 3.5938c0.94531 0.28906 2.6016 0.125 3.4688-0.32812l4.3242-2.2617c0.32812-0.17188 0.53516-0.51562 0.53906-0.88281 0.007813-4.7695 4.8711-6.3359 5.0898-6.4023 1.3594-0.4375 2.6094-0.57812 3.7305-0.42969 0.28125 0.039063 0.57422-0.046875 0.79297-0.23438 0.21484-0.19141 0.34375-0.46484 0.34375-0.75391v-10.438c0-0.82812-0.68359-1.9922-1.4062-2.3945l-15.062-8.3906c-0.71875-0.39844-0.97656-1.3086-0.57812-2.0234 0.39844-0.71484 1.3008-0.97266 2.0234-0.57422l15.066 8.3945c1.6719 0.93359 2.9336 3.0781 2.9336 4.9922v13.664c0 0.20703 0.0625 0.41406 0.19141 0.58594 2.3242 3.2344 3.3008 8.4609 4.0859 12.66 0.28125 1.5039 0.52734 2.7891 0.80469 3.8594 0.69531-0.078125 1.3594-0.16016 1.9961-0.24609-0.003906-0.007813-0.003906-0.011719-0.003906-0.015626-0.28516-1.0312-0.53906-2.3906-0.83203-3.9609-0.80078-4.2852-1.7891-9.5938-4.2383-13.191v-13.352c0-2.668-1.625-5.4375-3.957-6.7383l-13.875-7.7305c4.9414-0.73438 8.1406-8.625 9.3633-11.645l0.12891-0.31641c1.1523-2.8203-2.0156-5.1836-4.1211-6.1523-0.074219-0.03125-1.8633-0.73438-3.6445-0.73438-2.2383 0-3.1992 1.082-3.6133 1.9883l-0.16016 0.35547c-1.3164 2.8906-4.8203 10.566-2.1172 14.668 0.097656 0.14453 0.23047 0.26562 0.38672 0.34375l0.50391 0.25391-0.085938 0.1875c-1.0469 0.14453-2.0234 0.74609-2.5742 1.7383-0.65625 1.1836-0.53906 2.5703 0.16016 3.625l-11.82 26.258c-1.5977-0.10938-3.1094 0.88281-3.5859 2.4688-0.38281 1.2812 0.015625 2.5977 0.90625 3.4727l-0.54297 1.207-0.61719-0.30469c-0.16016-0.082031-0.33984-0.11328-0.52344-0.10547-5.1445 0.39453-8.4609 8.6172-9.7109 11.711l-0.14062 0.30859c-1.1523 2.8164 2.0195 5.1797 4.125 6.1523zm27.438-71.156 0.16406-0.36328c0.089844-0.20312 0.37109-0.8125 1.7891-0.8125 1.3711 0 2.8477 0.57031 2.8555 0.57031 0.066407 0.03125 3.7617 1.8516 3.0586 3.5586l-0.12891 0.32031c-2.6406 6.5312-5.25 10.039-7.7695 10.434l-2.3672-1.1914c-1.8242-3.2695 1.3438-10.203 2.3984-12.516zm11.09 30.145v9.3711c-1.1289-0.050781-2.2617 0.19141-3.4609 0.57812-2.1484 0.65234-6.1328 3.0781-6.4688 7.6914l-3.8125 1.9922c-0.40234 0.20703-1.5273 0.3125-1.9648 0.1875l-10.773-3.2266 11.441-25.41 14.645 8.1562c0.13672 0.10156 0.375 0.50781 0.39453 0.66016zm-40.797 35.613 0.12891-0.32031c2.6328-6.5234 5.2383-10.031 7.7539-10.434l2.375 1.1797c1.8398 3.2773-1.3359 10.227-2.3945 12.543l-0.15625 0.34766c-0.089844 0.20312-0.37109 0.8125-1.7852 0.8125-1.375 0-2.8555-0.57031-2.8594-0.57031h0.003906c-0.80859-0.37109-3.6797-2.0625-3.0664-3.5586z" fill="#338cc8"/>
</svg>
