<?xml version="1.0" encoding="UTF-8"?>
<svg width="100pt" height="100pt" version="1.1" viewBox="0 0 100 100" xmlns="http://www.w3.org/2000/svg">
 <path d="m76.977 92.156-2-33.074v-56.402c0-0.98438-0.51562-1.8594-1.375-2.3359-0.86719-0.48047-1.8867-0.45312-2.7305 0.074219-5.4688 3.4141-14.277 14.254-11.863 48.469 0.078126 1.125 0.85547 2.0547 1.9258 2.3125 1.3203 0.31641 3.5156 1.7656 3.3984 7.9102l-2 33.043c-0.125 2.0352 0.60156 4.0547 1.9961 5.5391 1.3828 1.4805 3.25 2.3008 5.2578 2.3086h0.14062c2.0039-0.007812 3.8672-0.82812 5.25-2.3008 1.3945-1.4883 2.1211-3.5078 2-5.543zm-15.645-42.629c-0.33594-0.082032-0.58594-0.39453-0.61328-0.76172-2.4375-34.562 6.9258-44.309 11.062-46.895 0.30469-0.19141 0.67578-0.20312 0.98828-0.027344 0.14844 0.082031 0.48828 0.32812 0.48828 0.83594v55.59h-7.207c-0.10547-6.625-2.9688-8.3242-4.7188-8.7422zm12.391 46.996c-1.0586 1.1289-2.4805 1.7539-4 1.7578h-0.13281c-1.5273-0.007812-2.9492-0.63281-4.0039-1.7617-1.0703-1.1445-1.6289-2.6992-1.5352-4.2617l1.9531-32.273h7.3086l1.9531 32.273c0.089844 1.5664-0.46875 3.1211-1.543 4.2656z" fill="#338cc8"/>
 <path d="m46.555 1.6406-1.707 0.17578s1.0273 10.012 2.0859 20.273h-6.0625v-20.363c0-0.47266-0.38281-0.85937-0.85938-0.85937-0.47266 0-0.85938 0.38672-0.85938 0.85937v20.363h-6.0234v-20.363c0-0.47266-0.38281-0.85937-0.85938-0.85937-0.47266 0-0.85938 0.38281-0.85938 0.85937v20.363h-6.0625c1.0586-10.262 2.0859-20.273 2.0859-20.273l-1.707-0.17578s-1.3984 13.617-2.6094 25.367c-1.082 10.488 6.3906 14.09 8.7383 14.953l-3.0352 50.195c-0.12109 2.0352 0.60547 4.0547 2 5.543 1.3828 1.4766 3.2461 2.293 5.2539 2.3008h0.13672c2.0078-0.007812 3.8711-0.82812 5.2578-2.3047 1.3906-1.4883 2.1172-3.5078 1.9961-5.5391l-3.0391-50.195c2.3438-0.86328 9.8203-4.4648 8.7383-14.953-1.2109-11.75-2.6094-25.367-2.6094-25.367zm-7.2344 38.883c-0.40625 0.10156-0.66797 0.48047-0.64453 0.88281v0.003906l3.0742 50.852c0.097656 1.5625-0.46484 3.1172-1.5352 4.2617-1.0586 1.1289-2.4805 1.7539-4.0078 1.7617h-0.12891c-1.5273-0.007812-2.9492-0.63281-4.0039-1.7578-1.0742-1.1445-1.6328-2.6992-1.5391-4.2656l3.0742-50.84c0.03125-0.41016-0.23438-0.79297-0.64453-0.89844-0.37891-0.09375-9.2617-2.4531-8.1367-13.34 0.11328-1.1133 0.23047-2.2422 0.34766-3.375h21.934c0.11719 1.1328 0.23438 2.2617 0.34766 3.375 1.1211 10.844-7.7578 13.242-8.1367 13.34z" fill="#338cc8"/>
</svg>
