<?xml version="1.0" encoding="UTF-8"?>
<svg width="100pt" height="100pt" version="1.1" viewBox="0 0 100 100" xmlns="http://www.w3.org/2000/svg">
 <path d="m78.172 24.715c-0.52344 0-0.95312-0.41016-0.97656-0.93359-0.085937-1.9805 0.97656-6.1797 5.6133-7.8984 4.6367-1.7188 8.0859 0.83984 9.2422 2.4375v0.007813c0.31641 0.43359 0.22266 1.0469-0.21484 1.3633s-1.0469 0.22266-1.3672-0.21484c-0.10156-0.14062-2.5742-3.3906-6.9883-1.7578-4.4805 1.6562-4.3438 5.9336-4.3398 5.9766h0.003906c0.011719 0.25781-0.078125 0.51172-0.25391 0.70313-0.17578 0.19141-0.41797 0.30469-0.67969 0.31641z" fill="#338cc8"/>
 <path d="m83.688 27.266c-2.1992-0.011719-4.3008-0.88672-5.8594-2.4375-0.94531 0.22656-2.7148 0.65625-3.2617 0.74219h0.003906c-0.26172 0.054688-0.53125 0-0.75-0.14844-0.22266-0.15234-0.36719-0.38672-0.41016-0.64844-0.042968-0.26172 0.019532-0.53125 0.17969-0.74219 0.16016-0.21484 0.39844-0.35156 0.66016-0.38281 0.53906-0.085938 2.8398-0.64844 3.6797-0.85547 0.375-0.09375 0.76953 0.039062 1.0078 0.34375 0.10938 0.13281 2.7422 3.3594 7.1875 1.7148 4.4375-1.6406 4.1719-5.7109 4.1641-5.8789-0.042968-0.53906 0.35938-1.0117 0.89844-1.0508 0.53906-0.042969 1.0117 0.35938 1.0547 0.89844 0.039062 1.0664-0.13281 2.1289-0.50781 3.125-0.57422 1.5391-1.8906 3.6094-4.9297 4.7344-0.99609 0.37891-2.0508 0.57422-3.1172 0.58594z" fill="#338cc8"/>
 <path d="m31.25 44.336c-11.461 0-17.773-5.8984-17.773-16.602 0-4.7773 1.4766-8.832 4.2812-11.719 3.125-3.2344 7.668-4.8828 13.492-4.8828 6.0547 0 10.672 1.6406 13.727 4.8828 2.6797 2.8555 4.0469 6.7969 4.0469 11.719s-1.3672 8.8633-4.0469 11.719c-3.0547 3.2422-7.6719 4.8828-13.727 4.8828zm0-31.25c-5.2734 0-9.3438 1.4375-12.094 4.2812-2.4375 2.5195-3.7266 6.1055-3.7266 10.367 0 4.4375 1.1602 7.9297 3.4492 10.383 2.6367 2.8281 6.8008 4.2656 12.371 4.2656 5.4961 0 9.6328-1.4375 12.305-4.2695 2.3438-2.4805 3.5156-5.9727 3.5156-10.379s-1.1836-7.8984-3.5156-10.379c-2.6719-2.8359-6.8086-4.2695-12.305-4.2695z" fill="#338cc8"/>
 <path d="m12.062 27.574c-2.9297 0-5.1484-1.5625-6.1406-4.4805-1.582-4.6328 0.48828-11.84 5.4297-13.844 2.4219-0.97656 4.6094-1.0195 6.5-0.11328 3.1016 1.4922 4.1836 4.9883 4.2266 5.1367 0.15625 0.51953-0.13281 1.0664-0.65234 1.2227-0.51562 0.15625-1.0625-0.13672-1.2188-0.65234 0-0.039062-0.89453-2.8359-3.2148-3.9453-1.3672-0.65234-3.0234-0.59766-4.9062 0.16406-3.2461 1.3164-5.875 6.8359-4.3125 11.402 0.66406 1.9336 2.3203 3.9961 6.4727 2.832l-0.003906 0.003906c0.51953-0.14453 1.0586 0.15625 1.2031 0.67578 0.14844 0.51953-0.15625 1.0586-0.67578 1.207-0.87891 0.25-1.7891 0.38281-2.707 0.39062z" fill="#338cc8"/>
 <path d="m50.801 27.574c-0.91406-0.007813-1.8242-0.13672-2.7031-0.39062-0.51172-0.15234-0.80859-0.68359-0.66406-1.1992 0.14453-0.51172 0.67188-0.81641 1.1875-0.67969 4.1523 1.1719 5.8125-0.89844 6.4727-2.832 1.5625-4.5664-1.0703-10.086-4.3125-11.402-1.8828-0.76562-3.5352-0.82031-4.9062-0.16406-2.3203 1.0938-3.2109 3.9062-3.2188 3.9375-0.16797 0.5-0.70312 0.77344-1.207 0.62109-0.50391-0.15234-0.79688-0.67578-0.66016-1.1836 0.046876-0.14844 1.125-3.6484 4.2266-5.1367 1.8906-0.90625 4.0781-0.86719 6.5 0.11328 4.9414 2 7.0078 9.2109 5.4297 13.844-1 2.9023-3.2109 4.4727-6.1445 4.4727z" fill="#338cc8"/>
 <path d="m30.883 38.086c-1.6484 0-2.9609-0.45313-3.9141-1.3672-0.85938-0.84766-1.3711-1.9844-1.4375-3.1875-0.046875-0.51172-0.41797-5.2344 1.8516-7.75 0.9375-1.0391 2.1719-1.5625 3.6719-1.5625 1.4961 0 2.7344 0.52734 3.6719 1.5625 2.3086 2.5586 1.8828 7.3984 1.8516 7.7734-0.039063 0.59766-0.46094 4.2578-5.1836 4.5156-0.17578 0.015626-0.33984 0.015626-0.51172 0.015626zm-3.3984-4.6172h0.003906c0.039063 0.69922 0.33984 1.3594 0.83984 1.8555 0.64453 0.60156 1.6406 0.86719 2.9609 0.79688 1.4219-0.078125 2.4141-0.55469 2.9453-1.4297l-0.003906 0.003906c0.22656-0.37109 0.35938-0.78906 0.39062-1.2227-0.003906-0.03125-0.003906-0.066406 0-0.097656 0.12109-1.1953 0.10938-4.6562-1.3555-6.2812-0.5625-0.62109-1.2891-0.92188-2.2188-0.92188s-1.6562 0.30078-2.2188 0.92188c-1.4688 1.625-1.4766 5.0781-1.3555 6.2812 0.007813 0.03125 0.011719 0.0625 0.011719 0.09375z" fill="#338cc8"/>
 <path d="m24.07 26.637c-0.54297 0-0.97656-0.4375-0.97656-0.97656v-0.55469c0-0.53906 0.43359-0.97656 0.97656-0.97656 0.53906 0 0.97656 0.4375 0.97656 0.97656v0.55469c0 0.25781-0.10547 0.50781-0.28906 0.69141-0.18359 0.18359-0.42969 0.28516-0.6875 0.28516z" fill="#338cc8"/>
 <path d="m38.281 26.637c-0.53906 0-0.97656-0.4375-0.97656-0.97656v-0.55469c0-0.53906 0.4375-0.97656 0.97656-0.97656s0.97656 0.4375 0.97656 0.97656v0.55469c0 0.25781-0.10156 0.50781-0.28516 0.69141-0.18359 0.18359-0.43359 0.28516-0.69141 0.28516z" fill="#338cc8"/>
 <path d="m29.73 35.23c-0.53906 0-0.97656-0.4375-0.97656-0.97656v-0.55469c0-0.53906 0.4375-0.97656 0.97656-0.97656 0.53906 0 0.97656 0.4375 0.97656 0.97656v0.55469c0 0.25781-0.10156 0.50781-0.28516 0.69141-0.18359 0.18359-0.43359 0.28516-0.69141 0.28516z" fill="#338cc8"/>
 <path d="m32.617 35.23c-0.53906 0-0.97656-0.4375-0.97656-0.97656v-0.55469c0-0.53906 0.4375-0.97656 0.97656-0.97656 0.53906 0 0.97656 0.4375 0.97656 0.97656v0.55469c0 0.25781-0.10156 0.50781-0.28516 0.69141-0.18359 0.18359-0.43359 0.28516-0.69141 0.28516z" fill="#338cc8"/>
 <path d="m41.262 61.508c-4.4453 0-10.234-0.32422-16.074-1.5625-0.51953-0.12109-0.84766-0.63281-0.73828-1.1562 0.11328-0.51953 0.62109-0.85547 1.1445-0.75391 11.609 2.4766 23.398 1.1719 23.516 1.1562h0.085937c0.023438 0 2.7109-0.11328 4.2422-1.8438 0.84766-0.96094 1.207-2.2812 1.0625-3.9297-0.11328-1.2891-0.76953-2.1484-2-2.6406h-0.003906c-0.66406-0.24609-1.3672-0.375-2.0703-0.375h-0.035156c-17.758 0-25.625-3.0625-25.949-3.1953-0.24609-0.09375-0.44531-0.28125-0.55078-0.51953-0.10547-0.24219-0.10938-0.51562-0.011719-0.75781 0.097656-0.24219 0.28906-0.4375 0.53125-0.53906 0.24219-0.10156 0.51562-0.097656 0.75781 0.003906 0.13281 0.050781 7.9648 3.0547 25.207 3.0547 1.9531-0.0625 5.7188 0.84375 6.0703 4.7969 0.19531 2.2109-0.32812 4.0273-1.5625 5.4062-1.9961 2.2422-5.1484 2.4688-5.5938 2.4922h-0.003906c-2.6641 0.25781-5.3438 0.37891-8.0234 0.36328z" fill="#338cc8"/>
 <path d="m36.523 83.594c-0.35156 0-0.67969-0.19141-0.85156-0.5s-0.16406-0.68359 0.019531-0.98438c2.4531-4.0078 4.2617-13.414 1.7188-18.195-0.95312-1.7891-2.3711-2.7031-4.3398-2.7891-8.375-0.35938-13.039 7.6406-13.086 7.7188h0.003906c-0.26953 0.46875-0.86328 0.63281-1.332 0.36719-0.47266-0.26953-0.63672-0.86328-0.36719-1.3359 0.21484-0.375 5.3047-9.125 14.867-8.7031 2.6406 0.11719 4.7109 1.4375 5.9766 3.8281 1.3281 2.5 1.7734 6.1992 1.2578 10.422-0.45312 3.7109-1.5898 7.3398-3.0391 9.707v-0.003906c-0.17578 0.28906-0.48828 0.46875-0.82812 0.46875z" fill="#338cc8"/>
 <path d="m38.629 91.211c-1.2109 0-2.4375-0.40625-3.3594-0.71875h-0.027343c-0.48828-0.16406-0.96094-0.33984-1.4062-0.50781-2.9922-1.125-9.1211-2.0859-9.1797-2.0977-6.4453-0.97656-10.426-3.8242-10.766-4.0781-4.9297-3.3828-7.5625-9.5078-7.4219-17.242 0.11719-6.1797 2.0859-13.117 5.0117-17.672 4.9375-7.6797 3.5859-13.027 3.5703-13.086v0.003906c-0.12109-0.51172 0.18359-1.0273 0.6875-1.168 0.50781-0.14062 1.0352 0.14453 1.1914 0.64453 0.070312 0.25 1.6406 6.1875-3.8086 14.648-2.7422 4.2773-4.5898 10.812-4.6992 16.664-0.09375 5 0.97656 11.762 6.5859 15.609l0.03125 0.015624c0.039063 0.027344 3.8125 2.7969 9.9141 3.7227 0.26562 0.039062 6.3906 1.0078 9.5703 2.1992 0.42578 0.16016 0.88281 0.32812 1.3398 0.48047l0.027344 0.007813c1.1719 0.39062 2.7812 0.92969 3.7344 0.39062v0.003906c0.36328-0.23438 0.59375-0.62891 0.61719-1.0586 0.085937-0.71484-0.16797-1.5352-0.61328-1.9531-1.0391-0.97656-2.5898-1.5625-4.0859-2.0664h-0.003907c-0.89844-0.30859-1.8164-0.57031-2.75-0.78125-0.52344-0.11719-0.85547-0.64062-0.73437-1.168 0.11719-0.52734 0.64062-0.85547 1.1641-0.73828 1 0.22656 1.9844 0.50781 2.9492 0.84375 1.6992 0.57812 3.4688 1.2422 4.7969 2.4922 0.90625 0.84766 1.3828 2.2695 1.2109 3.6172-0.14062 1.1289-0.71094 2.0234-1.6094 2.5234l0.003906-0.007813c-0.59375 0.32422-1.2656 0.48828-1.9414 0.47656z" fill="#338cc8"/>
 <path d="m30.457 88.984c-0.058593 0-0.12109-0.007813-0.17969-0.015625-3.1055-0.58594-5.1523-2.7695-5.9141-6.3281-1.3438-6.25 1.6562-14.734 4.9609-17.031v-0.003906c0.21094-0.15625 0.47656-0.21875 0.73828-0.17188 0.25781 0.042968 0.48828 0.1875 0.63672 0.40234 0.15234 0.21484 0.20703 0.48047 0.16016 0.73828-0.050781 0.25781-0.19922 0.48828-0.41797 0.63281-2.75 1.9141-5.3125 9.6875-4.1719 15.023 0.58594 2.7656 2.0625 4.3906 4.3672 4.8203v-0.003906c0.5 0.089844 0.84375 0.54688 0.79688 1.0508s-0.46875 0.89062-0.97656 0.88672z" fill="#338cc8"/>
 <path d="m43.945 50.242h-0.035156c-0.53906-0.015626-0.96094-0.46875-0.94141-1.0078 0.16797-4.8828-2.5703-7.1797-2.6016-7.2031-0.40625-0.34375-0.46094-0.95312-0.125-1.3633 0.33984-0.41406 0.94531-0.48047 1.3633-0.14844 0.14453 0.11719 3.5156 2.9453 3.3203 8.7891-0.023437 0.52344-0.45703 0.9375-0.98047 0.93359z" fill="#338cc8"/>
 <path d="m39.629 70.996c-0.34766 0-0.66797-0.18359-0.84375-0.48438-0.17578-0.29688-0.17969-0.66797-0.007812-0.97266 2.8008-4.9805 3.8164-9.1797 3.8281-9.2188l-0.003907 0.003907c0.0625-0.25391 0.21875-0.47266 0.4375-0.60938 0.22266-0.13672 0.48828-0.17969 0.74219-0.11719 0.52344 0.12109 0.84766 0.64844 0.72656 1.1758-0.042968 0.17969-1.082 4.4922-4.0234 9.7266h-0.003906c-0.17188 0.30469-0.5 0.49609-0.85156 0.49609z" fill="#338cc8"/>
 <path d="m47.656 97.656h-23.242c-0.35547 0-0.68359-0.19531-0.85547-0.50391-0.17188-0.3125-0.16016-0.69141 0.027344-0.99219 3.25-5.1562 4.9023-8.5469 4.918-8.5781v-0.003906c0.23828-0.48438 0.82031-0.6875 1.3086-0.44922 0.48438 0.23438 0.6875 0.82031 0.44922 1.3047-0.0625 0.125-1.4062 2.875-4.1016 7.2695h20.816c4-10.695 8.4922-24.008 8.543-24.141 0.070313-0.20703 0.20703-0.38281 0.39062-0.50391 0.97656-0.63672 2.1484-1.6406 2.2305-2.8086s-0.95312-2.0703-0.96094-2.0781c-0.33594-0.29297-0.4375-0.76953-0.24219-1.1719 10.531-21.414 20.891-54.281 22.992-61.094h-12.559c-0.96094 3.8672-5.6641 21.695-14.004 34.898-0.11328 0.17578-0.28125 0.3125-0.48047 0.39062-0.32031 0.125-3.1445 1.3086-2.1719 3.8125 0.078125 0.19922 0.089844 0.42188 0.027344 0.625-0.039063 0.14063-1.0234 3.4453-2.4219 6.0547-0.11719 0.23828-0.32812 0.41797-0.57812 0.49609-0.25391 0.078125-0.52734 0.054687-0.75781-0.070313-0.23438-0.125-0.40625-0.33984-0.47656-0.59375-0.074218-0.25391-0.039062-0.52734 0.09375-0.75391 1.0703-1.9922 1.9062-4.5234 2.1758-5.375v-0.003906c-0.34766-1-0.30469-2.0977 0.125-3.0664 0.70312-1.5898 2.2891-2.4805 2.9688-2.8047 9.0664-14.516 13.73-34.602 13.777-34.805 0.10156-0.44141 0.49609-0.75781 0.95312-0.75781h14.648c0.30859 0 0.59766 0.14453 0.78516 0.39453 0.18359 0.24609 0.23828 0.56641 0.15234 0.86328-0.11719 0.38281-11.484 38-23.203 62.039 0.51172 0.625 1.1875 1.7227 1.1016 3.1016-0.09375 1.5117-1.0391 2.9062-2.8281 4.1445-0.71875 2.125-4.9727 14.602-8.6953 24.523l0.003906 0.003907c-0.14062 0.37891-0.50391 0.63281-0.91016 0.63281z" fill="#338cc8"/>
 <path d="m53.32 53.992c-1.4219 0-2.9297-0.078126-3.1719-0.089844v0.003906c-0.54297-0.03125-0.95703-0.48828-0.92969-1.0312 0.03125-0.53906 0.48828-0.95312 1.0312-0.92188 1.0078 0.054687 3.8477 0.15625 4.8828 0 0.53125-0.078125 1.0273 0.29297 1.1016 0.82812 0.078125 0.53125-0.29297 1.0273-0.82812 1.1016-0.69141 0.082032-1.3867 0.11719-2.0859 0.10938z" fill="#338cc8"/>
 <path d="m51.602 57.469c-1.1094 0-1.9727-0.046875-2.0469-0.050781v0.003906c-0.53906-0.03125-0.95313-0.49219-0.92188-1.0312 0.03125-0.54297 0.49219-0.95312 1.0312-0.92188 0.03125 0 3.4141 0.18359 5.2227-0.17969 0.52734-0.10937 1.043 0.23438 1.1523 0.76172 0.10938 0.52734-0.23437 1.043-0.76172 1.1523-1.0625 0.21875-2.5039 0.26562-3.6758 0.26562z" fill="#338cc8"/>
 <path d="m73.453 81.805c-3.9336 0-7.0547-0.85547-9.3047-2.5625-2.7344-2.0781-3.1133-4.6719-3.125-4.7812v-0.003907c-0.074219-0.53125 0.30078-1.0234 0.83594-1.0977 0.53516-0.070313 1.0273 0.30469 1.1016 0.83594 0.046874 0.3125 1.2695 7.2695 15.039 5.3047 0.53125-0.074219 1.0273 0.29688 1.1016 0.82812 0.078126 0.53516-0.29297 1.0312-0.82812 1.1094h0.003906c-1.5977 0.23438-3.2109 0.35547-4.8242 0.36719z" fill="#338cc8"/>
 <path d="m84.906 60.922c-0.34375 0-0.66406-0.18359-0.83984-0.48047-1.0039-1.7109-2.0273-5.9141 1.2734-9.6016 2.1562-2.4062 4.5703-2.875 6.2109-2.8438h0.003907c1.0664 0.015625 2.1211 0.24609 3.0977 0.67969 0.48438 0.23828 0.6875 0.82422 0.44922 1.3086-0.23828 0.48438-0.82422 0.6875-1.3086 0.44922-0.16016-0.078125-3.8594-1.793-7 1.7109-3.1836 3.5586-1.0664 7.2734-1.0469 7.3125l0.003906-0.003906c0.17578 0.30469 0.17969 0.67578 0.003906 0.98047-0.17188 0.30469-0.49609 0.49219-0.84766 0.49219z" fill="#338cc8"/>
 <path d="m87.57 61.438c-1.0508 0.007812-2.0898-0.19531-3.0625-0.59766-0.49219-0.21875-0.71094-0.79688-0.49219-1.2891 0.22266-0.49219 0.79688-0.71484 1.2891-0.49609 0.15625 0.070312 3.9961 1.6875 7.1562-1.8398 3.1602-3.5273 0.96094-7.1016 0.9375-7.1367-0.29297-0.45703-0.16016-1.0586 0.29687-1.3516 0.45703-0.28906 1.0586-0.15625 1.3516 0.30078 1.0625 1.6641 2.1875 5.7891-1.1289 9.4922-2.0117 2.2422-4.3867 2.9141-6.3477 2.918z" fill="#338cc8"/>
 <path d="m74.594 70.898c-0.46484 0-0.86719-0.32813-0.95703-0.78516-0.09375-0.45312 0.14844-0.91016 0.57812-1.0898 0.16406-0.070313 3.8906-1.7188 3.3203-6.3906-0.57031-4.6992-4.6406-5.5703-4.8125-5.6094v0.003906c-0.53125-0.10547-0.875-0.61719-0.77344-1.1484 0.10547-0.52734 0.61719-0.875 1.1445-0.76953 1.9531 0.375 5.7852 2.3789 6.375 7.2891 0.58984 4.9102-2.6914 7.6719-4.5156 8.4258h0.003906c-0.11328 0.046875-0.23828 0.074219-0.36328 0.074219z" fill="#338cc8"/>
 <path d="m74.594 70.898c-0.050781 0-0.097656-0.003907-0.14844-0.011719-1.9531-0.29688-5.7969-2.1719-6.3906-7.1094-0.59375-4.9336 2.6562-7.7734 4.4609-8.5938v0.003906c0.23438-0.12109 0.51172-0.14062 0.76172-0.054688 0.25 0.085938 0.45703 0.27344 0.56641 0.51563 0.11328 0.24219 0.12109 0.51953 0.023438 0.76562-0.097657 0.24609-0.29297 0.44531-0.53906 0.54688-0.15625 0.074218-3.9062 1.8906-3.3359 6.5938 0.57031 4.6992 4.7109 5.4062 4.75 5.4141v-0.007812c0.50391 0.082031 0.86328 0.53125 0.82422 1.043-0.039062 0.50781-0.46484 0.89844-0.97266 0.90234z" fill="#338cc8"/>
 <path d="m78.367 81.641c-0.085938 0-0.17578-0.011719-0.25781-0.035156-0.51953-0.14453-0.82422-0.67969-0.67969-1.1992 0.52344-1.9102 2.8203-5.582 7.7656-5.7891 4.9453-0.20703 7.4375 3.2812 8.0469 5.1562 0.16797 0.51172-0.10938 1.0664-0.62109 1.2344-0.51172 0.16797-1.0664-0.10937-1.2344-0.625-0.054688-0.16797-1.4062-4.0156-6.1094-3.8164-4.707 0.19531-5.918 4.1914-5.9688 4.3594v0.003907c-0.11719 0.42187-0.50391 0.71094-0.94141 0.71094z" fill="#338cc8"/>
 <path d="m85.254 86.117c-4.6719 0-7.1367-3.3203-7.8008-5.125v0.003906c-0.10156-0.24609-0.09375-0.51953 0.011719-0.76172 0.10547-0.24219 0.30859-0.42969 0.55469-0.52344 0.25-0.089844 0.52344-0.078126 0.76172 0.039062 0.23828 0.11328 0.42188 0.32031 0.50391 0.57031 0.0625 0.16016 1.5781 4.0312 6.3125 3.8359s5.7578-4.2734 5.7656-4.3125h-0.003906c0.0625-0.25 0.21875-0.46875 0.4375-0.60547 0.22266-0.13672 0.48828-0.17969 0.73828-0.12109 0.52734 0.125 0.85156 0.65234 0.73047 1.1758-0.45312 1.9219-2.6172 5.6094-7.5859 5.8203-0.13281 0.003907-0.28516 0.003907-0.42578 0.003907z" fill="#338cc8"/>
 <path d="m58.859 75.402c-1.125 0.011718-2.2461-0.0625-3.3594-0.22266-0.52344-0.09375-0.87109-0.59375-0.78516-1.1211 0.089844-0.52344 0.58594-0.88281 1.1133-0.80078 0.042969 0 4.4258 0.71094 10.133-0.65625 7.6172-1.8281 13.867-6.2773 18.57-13.23v-0.003906c0.30078-0.44531 0.91016-0.56641 1.3555-0.26172 0.44922 0.30078 0.56641 0.91016 0.26172 1.3555-6.2344 9.2188-14.219 12.73-19.82 14.062-2.4492 0.57812-4.9531 0.875-7.4688 0.87891z" fill="#338cc8"/>
</svg>
