<?xml version="1.0" encoding="UTF-8"?>
<svg width="100pt" height="100pt" version="1.1" viewBox="0 0 100 100" xmlns="http://www.w3.org/2000/svg">
 <path d="m16.586 46.223c0-0.63672 0.51953-1.1523 1.1562-1.1523 0.63281 0 1.1523 0.51563 1.1523 1.1523v34.496c0 1.8203 0.71875 3.5664 2.0117 4.8516 1.2812 1.2852 3.0273 2.0078 4.8477 2.0078h47.168c1.8203 0 3.5664-0.72266 4.8516-2.0078 1.2891-1.2852 2.0078-3.0312 2.0078-4.8516v-34.496c0-0.63672 0.51953-1.1523 1.1562-1.1523s1.1523 0.51563 1.1523 1.1523v34.496c0 2.4297-0.96484 4.7656-2.6875 6.4844-1.7188 1.7188-4.0469 2.6836-6.4805 2.6836h-47.168c-2.4297 0-4.7617-0.96484-6.4805-2.6836-1.7227-1.7188-2.6875-4.0547-2.6875-6.4844zm75.02-1.3789c0.48438 0.41406 0.53906 1.1406 0.125 1.6289-0.41406 0.48438-1.1406 0.53906-1.625 0.125l-40.738-34.793-40.793 34.797c-0.48438 0.41016-1.2148 0.35547-1.6289-0.12891-0.41016-0.48828-0.35547-1.2148 0.12891-1.6289l41.547-35.434c0.42969-0.36719 1.0664-0.36719 1.4961 0zm-42.27-14.207c10.016 0 18.508 8.1641 18.133 18.176-0.63281 16.906-17.547 27.68-17.547 27.68-0.40625 0.25781-0.92969 0.23437-1.3164-0.054688 0 0-6.2734-4.7227-11.266-11.57-3.4023-4.6641-6.1875-10.305-6.1367-16.105 0.078125-10.004 8.125-18.125 18.133-18.125zm0 2.3086c-8.7383 0-15.758 7.0977-15.832 15.836-0.039062 5.3164 2.582 10.457 5.6992 14.727 3.8438 5.2734 8.4805 9.2305 10.152 10.582 3.0312-2.1172 15.289-11.52 15.805-25.359 0.32812-8.7188-7.1055-15.785-15.824-15.785zm0.003906 6.2422c4.4727 0 8.1094 3.6328 8.1094 8.1094s-3.6367 8.1133-8.1094 8.1133c-4.4766 0-8.1133-3.6367-8.1133-8.1133s3.6367-8.1094 8.1133-8.1094zm0 2.3086c-3.2031 0-5.8008 2.6016-5.8008 5.8008 0 3.2031 2.5977 5.8008 5.8008 5.8008 3.1992 0 5.8008-2.5977 5.8008-5.8008 0-3.1992-2.6016-5.8008-5.8008-5.8008z" fill="#00449e" fill-rule="evenodd"/>
</svg>
