<?xml version="1.0" encoding="UTF-8"?>
<svg width="100pt" height="100pt" version="1.1" viewBox="0 0 100 100" xmlns="http://www.w3.org/2000/svg">
 <path d="m40.07 26.98h-18.832c-0.97266 0-1.7578 0.78906-1.7578 1.7578 0 0.97266 0.78516 1.7617 1.7578 1.7617h18.832c0.97266 0 1.7617-0.78906 1.7617-1.7617 0-0.96875-0.78906-1.7578-1.7617-1.7578zm16.812 10.434v0.003907l-35.645-0.003907c-0.97266 0-1.7578 0.78906-1.7578 1.7617 0 0.96875 0.78516 1.7578 1.7578 1.7578h35.645c0.97266 0 1.7578-0.78906 1.7578-1.7617 0-0.96875-0.78516-1.7578-1.7578-1.7578zm0 10.434v0.003906l-35.645-0.003906c-0.97266 0-1.7578 0.78906-1.7578 1.7617s0.78516 1.7578 1.7578 1.7578h35.645c0.97266 0 1.7578-0.78516 1.7578-1.7578s-0.78516-1.7617-1.7578-1.7617v0.003906zm9.082-31.57h0.027344c3.0273 0.03125 5.4844 2.4883 5.4844 5.5195 0.019532 34.543 0 35.031 0 35.031-0.011718 2.9492-2.332 5.3555-5.2461 5.5156h-33.465c-0.93359 0-1.832 0.37109-2.4922 1.0273l-11.121 11.129c-0.46094 0.45703-1.0781 0.70312-1.707 0.70312-0.30859 0-0.61328-0.054687-0.91406-0.17969l-0.007812-0.003907c-0.89844-0.375-1.4883-1.25-1.4883-2.2266v-6.9531c0.003906-1.8359-1.4102-3.3711-3.2539-3.5039-2.8633-0.21094-5.1211-2.5938-5.1367-5.5078v-35.043c0.019531-3.0273 2.4727-5.4805 5.5-5.5078zm0.042968-3.5195h-53.895c-4.9609 0.042969-8.9688 4.0664-8.9883 9.0273 0 0.12891-0.003906 34.848 0 35.055 0.019531 4.7656 3.7148 8.6602 8.3945 9.0039l-0.003906 6.9492c0 2.3984 1.4453 4.5625 3.6602 5.4805 0.73438 0.30078 1.5078 0.44922 2.2695 0.44922 1.543 0 3.0586-0.60156 4.1953-1.7344l11.125-11.125h33.547c4.8203-0.20312 8.6641-4.1641 8.6875-9.0234v-35.055c-0.023438-4.9609-4.0312-8.9844-8.9922-9.0273zm14.414 8.5195c-0.96875 0-1.7578 0.78906-1.7578 1.7578 0 0.97266 0.78906 1.7617 1.7617 1.7617h7.4297c3.0273 0.027344 5.5 2.4805 5.5 5.5117 0.019531 34.617 0 35.039 0 35.039v0.003906c-0.015625 2.9102-2.2734 5.293-5.1328 5.5039-1.8477 0.13672-3.2617 1.668-3.2578 3.5039v6.9531c0 0.97656-0.58984 1.8555-1.4883 2.2305h-0.007812c-0.30078 0.125-0.60547 0.17969-0.91406 0.17969-0.62891 0-1.2461-0.24609-1.707-0.70312l-11.121-11.125c-0.66016-0.66016-1.5586-1.0312-2.4922-1.0312-33.52-0.003906-33.555-0.003906-33.555-0.003906-0.97266 0-1.7578 0.78906-1.7578 1.7617 0 0.95703 0.76953 1.7383 1.7227 1.7617h33.59l11.125 11.125c1.1367 1.1328 2.6523 1.7344 4.1953 1.7344 0.76172 0 1.5352-0.14844 2.2695-0.44922 2.2148-0.91797 3.6602-3.0781 3.6602-5.4805l-0.003906-6.9453c4.6797-0.34375 8.375-4.2422 8.3945-9.0078 0.003906-0.20703 0-34.926 0-35.051-0.019531-4.9648-4.0273-8.9883-8.9883-9.0312z" fill="#00426f"/>
</svg>
