<?xml version="1.0" encoding="UTF-8" standalone="no"?>
<!DOCTYPE svg PUBLIC "-//W3C//DTD SVG 1.1//EN" "http://www.w3.org/Graphics/SVG/1.1/DTD/svg11.dtd">
<svg width="100%" height="100%" viewBox="0 0 94 75" version="1.1" xmlns="http://www.w3.org/2000/svg" xmlns:xlink="http://www.w3.org/1999/xlink" xml:space="preserve" xmlns:serif="http://www.serif.com/" style="fill-rule:evenodd;clip-rule:evenodd;stroke-linejoin:round;stroke-miterlimit:2;">
    <g transform="matrix(1,0,0,1,-3.121932,-12.7585)">
        <path d="M40.07,26.98L21.238,26.98C20.265,26.98 19.48,27.769 19.48,28.738C19.48,29.71 20.265,30.5 21.238,30.5L40.07,30.5C41.043,30.5 41.832,29.71 41.832,28.738C41.832,27.769 41.043,26.98 40.07,26.98ZM56.882,37.414L56.882,37.418L21.237,37.414C20.264,37.414 19.479,38.203 19.479,39.176C19.479,40.144 20.264,40.934 21.237,40.934L56.882,40.934C57.855,40.934 58.64,40.144 58.64,39.172C58.64,38.203 57.855,37.414 56.882,37.414ZM56.882,47.848L56.882,47.852L21.237,47.848C20.264,47.848 19.479,48.637 19.479,49.61C19.479,50.582 20.264,51.367 21.237,51.367L56.882,51.367C57.855,51.367 58.64,50.582 58.64,49.61C58.64,48.637 57.855,47.848 56.882,47.848L56.882,47.852L56.882,47.848ZM65.964,16.278L65.991,16.278C69.019,16.309 71.476,18.766 71.476,21.797C71.495,56.34 71.476,56.828 71.476,56.828C71.464,59.778 69.144,62.184 66.23,62.344L32.765,62.344C31.831,62.344 30.933,62.715 30.272,63.371L19.151,74.5C18.691,74.957 18.073,75.204 17.444,75.204C17.136,75.204 16.831,75.149 16.53,75.024L16.523,75.02C15.624,74.645 15.034,73.77 15.034,72.793L15.034,65.84C15.038,64.004 13.624,62.469 11.78,62.336C8.917,62.125 6.659,59.743 6.644,56.829L6.644,21.786C6.663,18.758 9.116,16.305 12.144,16.278L65.964,16.278ZM66.007,12.758L12.112,12.758C7.151,12.801 3.143,16.825 3.124,21.786C3.124,21.915 3.12,56.634 3.124,56.841C3.143,61.606 6.838,65.501 11.518,65.845L11.514,72.794C11.514,75.192 12.96,77.356 15.174,78.274C15.909,78.575 16.682,78.724 17.444,78.724C18.987,78.724 20.503,78.122 21.639,76.989L32.764,65.864L66.311,65.864C71.132,65.661 74.975,61.7 74.999,56.841L74.999,21.786C74.975,16.825 70.968,12.801 66.007,12.759L66.007,12.758ZM80.421,21.278C79.452,21.278 78.663,22.067 78.663,23.036C78.663,24.008 79.452,24.797 80.425,24.797L87.855,24.797C90.882,24.825 93.355,27.278 93.355,30.309C93.374,64.926 93.355,65.348 93.355,65.348L93.355,65.352C93.339,68.262 91.081,70.645 88.222,70.856C86.374,70.993 84.96,72.524 84.964,74.36L84.964,81.313C84.964,82.29 84.374,83.169 83.476,83.544L83.468,83.544C83.167,83.669 82.862,83.723 82.554,83.723C81.925,83.723 81.308,83.477 80.847,83.02L69.726,71.895C69.066,71.235 68.167,70.864 67.234,70.864C33.714,70.86 33.679,70.86 33.679,70.86C32.706,70.86 31.921,71.649 31.921,72.622C31.921,73.579 32.69,74.36 33.643,74.383L67.233,74.383L78.358,85.508C79.495,86.641 81.011,87.243 82.554,87.243C83.316,87.243 84.089,87.094 84.823,86.794C87.038,85.876 88.483,83.715 88.483,81.313L88.48,74.368C93.159,74.024 96.855,70.126 96.874,65.36C96.878,65.153 96.874,30.434 96.874,30.309C96.855,25.344 92.847,21.321 87.886,21.278L80.421,21.278Z" style="fill:rgb(0,66,111);fill-rule:nonzero;"/>
    </g>
</svg>
