<?xml version="1.0" encoding="UTF-8"?>
<svg width="100pt" height="100pt" version="1.1" viewBox="0 0 100 100" xmlns="http://www.w3.org/2000/svg">
 <path transform="matrix(.0016667 0 0 .0016667 -6.063e-15 -6.063e-15)" d="m13088 14039c58.594 0 867.19 5486.7-557.81 11391s-2484.4 10915-2543 10915 414.84-5102.3 1842.2-11006c1425-5903.9 1200-11297 1258.6-11297zm-10758-5805.5h55343c138.28 0 250.78 112.5 250.78 250.78v43034c0 138.28-112.5 250.78-250.78 250.78h-55343c-138.28 0-250.78-112.5-250.78-250.78v-43034c0-138.28 112.5-250.78 250.78-250.78zm55092 499.22h-54841v42534h54841zm-7253.9 5521.9c-173.44-28.125-522.66 5838.3-1678.1 12696-1155.5 6860.2-1132 12338-960.94 12366 173.44 28.125 428.91-5402.3 1586.7-12260 1155.5-6860.2 1225.8-12773 1052.3-12804zm-6820.3 5158.6c246.09 28.125 1204.7 6255.5 410.16 13226-794.53 6968-2432.8 12914-2678.9 12886s991.41-6018.8 1785.9-12987 236.72-13151 482.81-13123zm-4343-6056.2c-260.16-44.531-110.16 8739.8-1692.2 17986s-3499.2 16725-3239.1 16772c260.16 44.531 3232-7521.1 4814.1-16770 1582-9246.1 377.34-17944 117.19-17988zm-6457 2395.3c-173.44-18.75-4.6875 6614.1-796.88 14421s-1291.4 14149-1118 14168 958.59-6297.7 1748.4-14105c792.19-7807 339.84-14468 164.06-14484zm-3864.8 986.72c-203.91-21.094 138.28 6728.9-675 14168-810.94 7436.7-2046.1 13221-1842.2 13242s2296.9-5723.4 3110.2-13162c810.94-7436.7-389.06-14224-590.62-14248zm-3740.6-1699.2c173.44 30.469 836.72 5845.3-314.06 12469-1148.4 6623.4-3914.1 12338-4087.5 12307s1678.1-5793.8 2826.6-12415c1148.4-6623.4 1401.6-12391 1575-12361zm-7839.8 6337.5c203.91 21.094 466.41 5643.8-196.88 12068s-2634.4 12040-2838.3 12019 1439.1-5669.5 2102.3-12094 728.91-12014 935.16-11993z" fill="#338cc8" fill-rule="evenodd" stroke="#338cc8" stroke-width="20"/>
</svg>
