<?xml version="1.0" encoding="UTF-8"?>
<svg width="100pt" height="100pt" version="1.1" viewBox="0 0 100 100" xmlns="http://www.w3.org/2000/svg">
 <path d="m80.562 30.969c0.28516 0.32812 0.25391 0.82031-0.074219 1.1055l-4.7031 4.1133c-0.32422 0.28516-0.81641 0.25-1.1016-0.074219l-1.0273-1.1758-1.7148 1.5c1.4609 3.0195 2.2773 6.3867 2.2773 9.9375 0 0.58984-0.023438 1.1719-0.066406 1.7461 0.042968 0.10156 0.066406 0.20703 0.066406 0.31641v21.094c0 1.7266-1.3984 3.125-3.125 3.125h-11.719c-1.7266 0-3.125-1.3984-3.125-3.125v-7.7148c0-1.7969-1.418-3.2227-3.125-3.2227h-6.25c-1.707 0-3.125 1.4258-3.125 3.2227v7.7148c0 1.7266-1.3984 3.125-3.125 3.125h-11.719c-1.7266 0-3.125-1.3984-3.125-3.125v-21.094c0-0.11328 0.023438-0.21875 0.066406-0.31641-0.042968-0.57422-0.066406-1.1562-0.066406-1.7461 0-12.973 10.867-23.445 24.219-23.445 5.375 0 10.344 1.6953 14.363 4.5664l1.5742-1.3789-1.0273-1.1758c-0.28516-0.32422-0.25-0.81641 0.074219-1.1016l4.7031-4.1172c0.32422-0.28125 0.82031-0.25 1.1016 0.074219zm-53.18 16.688c-0.027343-0.42188-0.039062-0.85156-0.039062-1.2812 0-12.062 10.117-21.883 22.656-21.883 4.9062 0 9.4453 1.5039 13.152 4.0625l-7.2109 6.3086 1.0312 1.1758-6.1914 5.4141c-0.25781-0.03125-0.51562-0.046875-0.78125-0.046875-3.4531 0-6.25 2.7969-6.25 6.25zm22.078 4.6562c0.17578 0.019531 0.35547 0.03125 0.53906 0.03125 0.15625 0 0.3125-0.007812 0.46484-0.023438 0.95312-0.09375 1.8203-0.47266 2.5195-1.0508 0.027344-0.023437 0.054687-0.046875 0.085937-0.070312 0.92969-0.80859 1.5391-1.9766 1.6094-3.2891 0.003906-0.082031 0.007812-0.16797 0.007812-0.25391 0-0.32422-0.03125-0.64062-0.09375-0.94531-0.125-0.60938-0.37109-1.1758-0.70703-1.6758-0.84375-1.2461-2.2695-2.0664-3.8867-2.0664-2.5898 0-4.6875 2.0977-4.6875 4.6875 0 0.0625 0 0.12109 0.003906 0.18359 0.089844 2.3203 1.8672 4.2109 4.1445 4.4727zm-22.117-3.0938v20.312c0 0.86328 0.69922 1.5625 1.5625 1.5625h11.719c0.86328 0 1.5625-0.69922 1.5625-1.5625v-7.7148c0-2.625 2.082-4.7852 4.6875-4.7852h6.25c2.6055 0 4.6875 2.1602 4.6875 4.7852v7.7148c0 0.86328 0.69922 1.5625 1.5625 1.5625h11.719c0.86328 0 1.5625-0.69922 1.5625-1.5625v-20.309c-5.5312 0.03125-11.07 0.039063-16.613 0.035156-0.32812 1.2461-1.0352 2.3438-1.9883 3.1562-0.03125 0.027344-0.066407 0.054688-0.097657 0.082032-0.81641 0.66797-1.8047 1.1328-2.8906 1.3203-0.34375 0.058594-0.70312 0.089844-1.0664 0.089844-2.9023 0-5.3477-1.9805-6.0469-4.6641l-1.1758-0.003907c-4.8164-0.007812-9.6289-0.019531-14.43-0.019531zm25.23-7.2578c0.69922 0.31641 1.332 0.75781 1.8633 1.293 0.066406 0.066406 0.12891 0.13281 0.1875 0.19922 0.69141 0.75781 1.1953 1.6875 1.4453 2.7148l5.5312-4.8359-3.6016-4.1172zm10.055 0.54687-5.8867 5.1484h15.875c0.027343-0.42188 0.039062-0.85156 0.039062-1.2812 0-3.1562-0.69141-6.1562-1.9375-8.8672l-7.0586 6.1758zm1.1758-1.0312-5.6562-6.4688 8.8203-7.7148 5.6562 6.4688zm3.8203-15.805-1.0234-1.1719 3.5273-3.0859 8.7461 9.9961-3.5312 3.0859-1.0234-1.168-0.003906-0.007813-6.6875-7.6445z" fill="#338cc8" fill-rule="evenodd"/>
</svg>
