<?xml version="1.0" encoding="UTF-8"?>
<svg width="100pt" height="100pt" version="1.1" viewBox="0 0 100 100" xmlns="http://www.w3.org/2000/svg">
 <path d="m12.703 16.156h12.551c0.21875 0 0.31641-0.26953 0.14844-0.41016l-6.2734-5.2148c-0.085937-0.070312-0.21094-0.070312-0.29297 0l-6.2734 5.2148c-0.17188 0.13672-0.078125 0.41016 0.14062 0.41016zm12.672 1.1445h-12.793c-0.26953 0-0.47656 0.24219-0.43359 0.51172l1.6562 9.8672c0.035156 0.21094 0.21875 0.36719 0.43359 0.36719h9.4844c0.21484 0 0.39844-0.15625 0.43359-0.36719l1.6484-9.8672c0.046874-0.26953-0.16016-0.51172-0.42969-0.51172zm-6.9727 9.168c0 0.24219-0.19531 0.4375-0.4375 0.4375h-2.7461c-0.21484 0-0.39844-0.15625-0.43359-0.36328l-1.2734-7.5977c-0.046875-0.26953 0.16016-0.51172 0.43359-0.51172h4.0234c0.24219 0 0.4375 0.19531 0.4375 0.4375zm4.7734 0.074219c-0.035156 0.21094-0.21875 0.36719-0.43359 0.36719h-2.7539c-0.24219 0-0.4375-0.19531-0.4375-0.4375v-7.5977c0-0.24219 0.19531-0.4375 0.4375-0.4375h4.0234c0.26953 0 0.47656 0.24219 0.43359 0.51172zm-5.7148 6.2148v51.469h3.0469l0.003907-51.469zm4.6445 52.609h-6.2383c-0.38672 0-0.71484 0.28906-0.76172 0.67578l-0.94922 8.1016c-0.050781 0.45703 0.30469 0.85547 0.76172 0.85547h8.1367c0.45703 0 0.8125-0.39844 0.76172-0.85547l-0.94922-8.1016c-0.046876-0.38281-0.375-0.67578-0.76172-0.67578zm1.8086-56.18h-9.8672c-0.10156 0-0.18359 0.082031-0.18359 0.18359v1.25c0 0.10156 0.082031 0.18359 0.18359 0.18359h1.1797c0.10156 0 0.18359 0.082031 0.18359 0.18359v0.44531c0 0.10156 0.082032 0.18359 0.18359 0.18359h6.7773c0.10156 0 0.18359-0.082032 0.18359-0.18359v-0.44531c0-0.10156 0.082031-0.18359 0.18359-0.18359h1.1797c0.10156 0 0.18359-0.082032 0.18359-0.18359v-1.25c-0.003906-0.10156-0.082031-0.18359-0.1875-0.18359zm50.832-13.031h12.551c0.21484 0 0.3125-0.26953 0.14844-0.41016l-6.2734-5.2148c-0.085937-0.070312-0.21094-0.070312-0.29688 0l-6.2734 5.2148c-0.16797 0.13672-0.070312 0.41016 0.14453 0.41016zm12.672 1.1445h-12.789c-0.26953 0-0.47656 0.24219-0.43359 0.51172l1.6562 9.8672c0.035157 0.21094 0.21875 0.36719 0.43359 0.36719h9.4844c0.21484 0 0.39453-0.15625 0.43359-0.36719l1.6484-9.8672c0.042969-0.26953-0.16406-0.51172-0.43359-0.51172zm-6.9727 9.168c0 0.24219-0.19531 0.4375-0.4375 0.4375h-2.7461c-0.21484 0-0.39453-0.15625-0.43359-0.36328l-1.2734-7.5977c-0.046876-0.26953 0.16016-0.51172 0.43359-0.51172h4.0195c0.24219 0 0.4375 0.19531 0.4375 0.4375zm4.7734 0.074219c-0.035156 0.21094-0.21875 0.36719-0.43359 0.36719h-2.75c-0.24219 0-0.4375-0.19531-0.4375-0.4375v-7.5977c0-0.24219 0.19531-0.4375 0.4375-0.4375h4.0234c0.26953 0 0.47656 0.24219 0.43359 0.51172zm-5.7109 6.2148v51.469h3.0469v-51.469zm4.6406 52.609h-6.2383c-0.38672 0-0.71484 0.28906-0.76172 0.67578l-0.94922 8.1016c-0.050781 0.45703 0.30469 0.85547 0.76172 0.85547h8.1367c0.45703 0 0.8125-0.39844 0.76172-0.85547l-0.94922-8.1016c-0.046875-0.38281-0.375-0.67578-0.76172-0.67578zm1.8125-56.18h-9.8672c-0.10156 0-0.18359 0.082031-0.18359 0.18359v1.25c0 0.10156 0.082032 0.18359 0.18359 0.18359h1.1797c0.10156 0 0.18359 0.082031 0.18359 0.18359v0.44531c0 0.10156 0.082031 0.18359 0.18359 0.18359h6.7773c0.10156 0 0.18359-0.082032 0.18359-0.18359v-0.44531c0-0.10156 0.082032-0.18359 0.18359-0.18359h1.1797c0.10156 0 0.18359-0.082032 0.18359-0.18359l-0.003907-1.25c0-0.10156-0.082031-0.18359-0.18359-0.18359zm-43.824-15.453c0.44922 4.5508 4.3828 10.582 6.5156 13.555 0.66406 0.92969 2.043 0.92969 2.707 0 2.125-2.9688 6.0508-8.9922 6.5078-13.539 0.027343-0.23828 0.035156-0.48047 0.039062-0.72266 0.003906-0.039063 0.007812-0.078125 0.007812-0.11719 0-0.22266-0.011718-0.42578-0.03125-0.61719-0.32031-4.0781-3.7227-7.293-7.8828-7.293-4.1523 0-7.5547 3.2031-7.8789 7.2734-0.019532 0.19922-0.035156 0.40625-0.035156 0.63672 0 0.15234 0.015624 0.3125 0.023437 0.46875 0.011719 0.11719 0.011719 0.23828 0.027344 0.35547zm7.8672-4.3477c1.9453 0 3.5234 1.5781 3.5234 3.5234 0 1.9453-1.5781 3.5234-3.5234 3.5234-1.9453 0-3.5234-1.5781-3.5234-3.5234 0-1.9453 1.5781-3.5234 3.5234-3.5234zm-15.047 39.586c0.42969 0 0.77734-0.34766 0.77734-0.77734 0-3.7148 3.0273-6.7422 6.7461-6.7422 3.7148 0 6.7422 3.0273 6.7422 6.7422v8.0859h1.5508v-14.289c0-3.7227 3.0273-6.7461 6.7461-6.7461 3.7227 0 6.7461 3.0273 6.7461 6.7461 0 0.42969 0.34766 0.77344 0.77734 0.77344 0.42969 0 0.77344-0.34766 0.77344-0.77344 0-4.5781-3.7227-8.3008-8.3008-8.3008s-8.3008 3.7227-8.3008 8.3008v1.4062c-1.5039-2.1094-3.9609-3.5-6.7422-3.5-4.5781 0-8.3008 3.7227-8.3008 8.293 0.007813 0.42969 0.35547 0.78125 0.78516 0.78125zm19.91 20.531v-3.5195c5.5859-1.0039 8.9297-3.6914 9.8867-6.6992 0.29297-0.92188-0.4375-1.8555-1.4023-1.8555l-26.703 0.003906c-0.96484 0-1.6953 0.93359-1.4023 1.8555 0.95703 3.0039 4.3008 5.6914 9.8828 6.6992v3.5195zm14.473 1.1719h-38.68c-0.875 0-1.5781 0.76953-1.4453 1.6328 0.80469 5.25 5.5625 10.145 14.02 11.879v4.0547h13.535v-4.0547c8.4531-1.7344 13.215-6.6289 14.02-11.879 0.12891-0.86328-0.57422-1.6328-1.4492-1.6328zm-9.9844 18.719h-18.715c-1.2383 0-2.2383 1.0039-2.2383 2.2383v2.5352c0 0.46094 0.37109 0.82812 0.82812 0.82812h21.531c0.45703 0 0.82812-0.37109 0.82812-0.82812v-2.5352c0.007812-1.2344-0.99609-2.2383-2.2344-2.2383z" fill="#338cc8"/>
</svg>
