<?xml version="1.0" encoding="UTF-8"?>
<svg width="100pt" height="100pt" version="1.1" viewBox="0 0 100 100" xmlns="http://www.w3.org/2000/svg">
 <path d="m80.676 45.84c-5.25-0.47656-9.043 5.4609-13.008 11.738-3.6836 5.8359-7.4961 11.867-12.113 11.867-7.7109 0-10.926-9.6992-14.039-19.078-3-9.0586-6.1055-18.422-13.738-18.422-6.0273 0-20.391 6.082-23.609 62.422-0.023438 0.38281 0.11328 0.75391 0.37891 1.0312 0.26172 0.27734 0.625 0.43359 1.0078 0.43359h88.891c0.76953 0 1.3906-0.62109 1.3906-1.3906l-0.003907-19.441c0-0.097656-0.007812-0.19141-0.03125-0.28906-4.0039-18.883-8.9531-28.328-15.125-28.871zm12.379 47.215h-2.7773v-23.609c0-0.76562-0.62109-1.3906-1.3906-1.3906s-1.3906 0.62109-1.3906 1.3906v23.609h-5.5547l0.003906-40.277c0-0.76562-0.62109-1.3906-1.3906-1.3906-0.76953 0-1.3906 0.62109-1.3906 1.3906v40.277h-5.5547v-31.945c0-0.76562-0.62109-1.3906-1.3906-1.3906s-1.3906 0.62109-1.3906 1.3906v31.945h-5.5547l0.003906-20.832c0-0.76562-0.62109-1.3906-1.3906-1.3906s-1.3906 0.62109-1.3906 1.3906v20.832h-5.5547l0.003906-16.664c0-0.76562-0.62109-1.3906-1.3906-1.3906-0.76953 0-1.3906 0.62109-1.3906 1.3906v16.668h-5.5547v-19.449c0-0.76562-0.62109-1.3906-1.3906-1.3906s-1.3906 0.62109-1.3906 1.3906v19.445h-5.5547l0.003906-30.555c0-0.76562-0.62109-1.3906-1.3906-1.3906s-1.3906 0.62109-1.3906 1.3906v30.555h-5.5547l0.003906-52.777c0-0.76562-0.62109-1.3906-1.3906-1.3906-0.76953 0-1.3906 0.62109-1.3906 1.3906v52.777h-5.5547v-50c0-0.76563-0.62109-1.3906-1.3906-1.3906s-1.3906 0.62109-1.3906 1.3906v50h-5.5547l0.003906-30.555c0-0.76562-0.62109-1.3906-1.3906-1.3906s-1.3906 0.62109-1.3906 1.3906v30.555h-5.4688c3.3281-54.094 16.699-58.332 20.75-58.332 5.625 0 8.2852 8.0234 11.105 16.52 3.2617 9.832 6.957 20.98 16.672 20.98 6.1484 0 10.375-6.6914 14.461-13.16 3.3477-5.2969 6.8281-10.762 10.414-10.457 3.2461 0.28516 8.0664 5.1289 12.625 26.539z" fill="#338cc8"/>
 <path d="m35.129 30.961c-0.48828 0.48828-0.54297 1.2617-0.12891 1.8164l4.168 5.5547c0.24219 0.32031 0.60938 0.52344 1.0117 0.55078 0.03125 0.003907 0.066406 0.007813 0.097656 0.007813 0.36719 0 0.71875-0.14453 0.98047-0.40625l0.61328-0.61328c1.7188-1.7188 1.918-4.4844 0.45703-6.4297l-2.3281-3.1094c-0.24219-0.32031-0.60938-0.52344-1.0117-0.55078-0.41406-0.027344-0.79688 0.11719-1.082 0.40234zm3.6094 0.32031 1.3711 1.8242c0.47656 0.63672 0.54688 1.4727 0.23438 2.168l-2.3984-3.1992z" fill="#338cc8"/>
 <path d="m24.895 30.309 6.9102 0.70703c0.046874 0.003906 0.09375 0.007813 0.14062 0.007813 0.35156 0 0.69141-0.13281 0.95313-0.37891 0.29297-0.27734 0.45312-0.66406 0.43359-1.0664l-0.035156-0.86719c-0.097656-2.4297-1.9961-4.4492-4.4141-4.6953l-3.8633-0.39453c-0.39453-0.035156-0.80078 0.09375-1.0938 0.37109-0.29297 0.27344-0.45312 0.66406-0.4375 1.0664l0.15625 3.9258c0.03125 0.6875 0.5625 1.2539 1.25 1.3242zm3.707-3.5312c0.78906 0.082031 1.4531 0.59766 1.7539 1.2969l-3.9766-0.40625-0.046875-1.1211z" fill="#338cc8"/>
 <path d="m11.109 31.832c-0.03125 0.40234 0.11719 0.79688 0.39844 1.082l2.7695 2.7891c0.26953 0.26953 0.62891 0.40625 0.98828 0.40625 0.28906 0 0.58203-0.089844 0.83203-0.27344l5.5703-4.1484c0.32422-0.24219 0.52344-0.60938 0.55469-1.0117 0.03125-0.40234-0.11719-0.79688-0.39844-1.082l-0.60938-0.61328c-1.7148-1.7266-4.4766-1.9297-6.4258-0.48047l-3.1133 2.3203c-0.33203 0.24219-0.53516 0.60938-0.56641 1.0117zm5.3281-1.1016c0.64062-0.47656 1.4727-0.54297 2.168-0.23047l-3.2031 2.3867-0.78906-0.79688z" fill="#338cc8"/>
 <path d="m6.3242 26.242 2.7773 1.3906c0.19922 0.097657 0.41016 0.14453 0.62109 0.14453 0.51172 0 1-0.28125 1.2422-0.76953 0.34375-0.6875 0.066406-1.5195-0.62109-1.8633l-2.7773-1.3906c-0.6875-0.34375-1.5195-0.066406-1.8633 0.62109-0.34375 0.69141-0.066406 1.5234 0.62109 1.8672z" fill="#338cc8"/>
 <path d="m11.258 22.844c0.24219 0.48828 0.73438 0.76562 1.2422 0.76562 0.20703 0 0.42188-0.046875 0.62109-0.14844 0.6875-0.34375 0.96484-1.1758 0.62109-1.8633l-4.168-8.332c-0.34375-0.6875-1.1758-0.96484-1.8633-0.62109s-0.96484 1.1758-0.62109 1.8633z" fill="#338cc8"/>
 <path d="m18.055 20.832c0.76953 0 1.3906-0.62109 1.3906-1.3906v-4.168c0-0.76563-0.62109-1.3906-1.3906-1.3906-0.76953 0-1.3906 0.62109-1.3906 1.3906v4.168c0.003907 0.76953 0.625 1.3906 1.3906 1.3906z" fill="#338cc8"/>
 <path d="m26.43 18.395c0.16016 0.62891 0.72266 1.0508 1.3477 1.0508 0.10938 0 0.22656-0.011718 0.33594-0.042968 0.74609-0.1875 1.1992-0.94141 1.0117-1.6836l-1.3906-5.5547c-0.1875-0.74219-0.94531-1.1992-1.6836-1.0117-0.74609 0.1875-1.1992 0.94141-1.0117 1.6836z" fill="#338cc8"/>
 <path d="m32.996 18.016c0.11328 0.027344 0.22656 0.039063 0.33984 0.039063 0.62109 0 1.1875-0.42188 1.3438-1.0508l2.7773-11.109c0.1875-0.74609-0.26562-1.5-1.0117-1.6836-0.74219-0.19141-1.5 0.26562-1.6836 1.0117l-2.7773 11.109c-0.18359 0.74219 0.26953 1.4961 1.0117 1.6836z" fill="#338cc8"/>
 <path d="m36.73 18.289-4.168 2.7773c-0.64062 0.42578-0.8125 1.2891-0.38672 1.9258 0.26953 0.40234 0.71094 0.61719 1.1602 0.61719 0.26562 0 0.53125-0.074219 0.76953-0.23438l4.168-2.7773c0.64062-0.42578 0.8125-1.2891 0.38672-1.9258-0.42969-0.63672-1.293-0.80859-1.9297-0.38281z" fill="#338cc8"/>
 <path d="m44.004 27.707c0.14844 0.050781 0.29297 0.070313 0.44141 0.070313 0.58203 0 1.1211-0.36719 1.3164-0.94922l1.3906-4.168c0.24219-0.72656-0.15234-1.5156-0.87891-1.7578-0.73438-0.24609-1.5117 0.15234-1.7578 0.87891l-1.3906 4.168c-0.24219 0.72656 0.15234 1.5156 0.87891 1.7578z" fill="#338cc8"/>
 <path d="m46.094 31.363c0.26953 0.37891 0.69531 0.58203 1.1289 0.58203 0.28125 0 0.5625-0.085937 0.80469-0.25781l9.7227-6.9453c0.625-0.44531 0.76953-1.3125 0.32422-1.9375-0.44531-0.625-1.3125-0.76953-1.9375-0.32422l-9.7227 6.9453c-0.62109 0.44531-0.76953 1.3125-0.32031 1.9375z" fill="#338cc8"/>
 <path d="m47.223 33.332c-0.76953 0-1.3906 0.62109-1.3906 1.3906 0 0.76562 0.62109 1.3906 1.3906 1.3906h2.7773c0.76953 0 1.3906-0.62109 1.3906-1.3906 0-0.76562-0.62109-1.3906-1.3906-1.3906z" fill="#338cc8"/>
 <path d="m75 25h15.277c3.0625 0 5.5547-2.4922 5.5547-5.5547 0-2.0547-1.1367-3.8984-2.8867-4.8555 0.074219-0.46094 0.10938-0.92969 0.10938-1.3945 0-4.9805-4.0508-9.0273-9.0273-9.0273-4.9766 0-9.0273 4.0469-9.0273 9.0273 0 0.23047 0.007812 0.46484 0.027344 0.69531h-0.027344c-3.0625 0-5.5547 2.4922-5.5547 5.5547s2.4922 5.5547 5.5547 5.5547zm0-8.332c0.40625 0 0.8125 0.097656 1.2109 0.29297 0.50781 0.24609 1.1133 0.16797 1.5352-0.20703s0.57812-0.96484 0.39062-1.5c-0.23828-0.67188-0.35938-1.3672-0.35938-2.0586 0-3.4492 2.8047-6.25 6.25-6.25 3.4453 0 6.25 2.8008 6.25 6.25 0 0.62109-0.09375 1.2344-0.27344 1.8281-0.10938 0.36328-0.070312 0.75391 0.11719 1.082 0.18359 0.33203 0.49219 0.57031 0.85938 0.66797 1.2227 0.32031 2.0742 1.418 2.0742 2.6719 0 1.5312-1.2461 2.7773-2.7773 2.7773h-15.277c-1.5312 0-2.7773-1.2461-2.7773-2.7773s1.2461-2.7773 2.7773-2.7773z" fill="#338cc8"/>
</svg>
