<?xml version="1.0" encoding="UTF-8"?>
<svg width="100pt" height="100pt" version="1.1" viewBox="0 0 100 100" xmlns="http://www.w3.org/2000/svg">
 <path d="m18.77 86.812c-0.64844 0.82422-1.3359 1.6289-2.0859 2.2773-1.0195 0.87891-2.1523 1.4766-3.4375 1.5625-2.0195 0.13281-4.5273-1.0352-7.6094-4.918-0.26562-0.33594-0.21094-0.82812 0.125-1.0977 0.33594-0.26953 0.82812-0.21094 1.0977 0.125 2.5938 3.2695 4.5781 4.4414 6.2812 4.3281 1.207-0.078125 2.207-0.82031 3.1172-1.75 0.36719-0.37891 0.72266-0.78906 1.0625-1.2109l-5.0938-14.48c-0.085937-0.23828-0.046874-0.50391 0.10156-0.71094 0.14453-0.20703 0.38281-0.32812 0.63672-0.32812h26.25v-50.434c0-0.33594 0.21484-0.63672 0.53516-0.74219 0.32031-0.10547 0.67188 0.007812 0.875 0.27734l28.453 38.41c0.14062 0.19141 0.1875 0.43359 0.12891 0.66406-0.058593 0.23047-0.21875 0.41797-0.4375 0.51562l-25.133 11.312h34.77c0.25391 0 0.49219 0.12109 0.63672 0.32812 0.14844 0.20703 0.18359 0.46875 0.10156 0.71094l-6.2891 17.879c0.023437 0 0.046875 0.003906 0.074219 0.003906 1.168 0.039063 2.125-0.71094 3.0391-1.7031 1.0703-1.1602 2.0469-2.6641 3.0664-3.9883 0.15234-0.19922 0.39453-0.3125 0.64844-0.30469 0.25 0.007813 0.48438 0.13672 0.625 0.34766 2.8477 4.2812 3.0156 4.1172 6.8984 5.918 0.39062 0.17969 0.5625 0.64453 0.37891 1.0391-0.17969 0.39062-0.64844 0.5625-1.0391 0.37891-3.9453-1.8281-4.3828-1.8047-6.9258-5.5508-1.0391 1.4141-2.0703 2.9023-3.2109 3.9336-1.0625 0.96094-2.2227 1.543-3.5312 1.5-0.41406-0.015625-0.84766-0.09375-1.3008-0.25-0.003906 0-0.007813-0.003907-0.007813-0.003907-0.70312-0.24609-1.457-0.67969-2.2578-1.3516-1.0234-0.85938-2.1523-2.1328-3.4023-3.9297-0.83594 1.1641-1.9023 2.5781-3.2031 3.6719-1.1992 1.0117-2.5938 1.7539-4.1836 1.8711-2.375 0.17969-5.2695-1.0391-8.6172-5.2148-0.60547 0.94531-1.6758 2.4453-3.0703 3.6914-1.5977 1.4297-3.6133 2.5117-5.8398 2.2812-2.1523-0.22266-4.582-1.6797-7.0195-5.5-0.71094 0.72266-1.8516 1.8047-3.1211 2.7305-1.3594 0.98828-2.875 1.7734-4.2109 1.8633-1.7461 0.11719-3.3125-0.75781-4.5703-1.9492-1.1094-1.0469-1.9688-2.3281-2.5078-3.2344-0.23047 0.30469-0.46875 0.61719-0.70703 0.92578-0.027344 0.039063-0.054687 0.074219-0.085937 0.10938zm21.223-14.637h-25.926l4.3906 12.477c0.20312-0.26562 0.39844-0.53125 0.59766-0.78125 0.16406-0.21094 0.42578-0.32031 0.69141-0.29688 0.26562 0.027343 0.5 0.1875 0.62109 0.42188 0.20703 0.40234 1.2188 2.4023 2.7812 3.8789 0.94141 0.89062 2.082 1.6133 3.3906 1.5234 1.082-0.074219 2.2891-0.76563 3.3945-1.5703 1.7891-1.3008 3.3008-2.9453 3.6016-3.2734 0.16797-0.17969 0.41406-0.27344 0.66016-0.24609 0.24609 0.027344 0.46484 0.16797 0.58984 0.38281 2.2422 3.8438 4.3828 5.4102 6.3672 5.6172 1.7812 0.18359 3.3633-0.75 4.6406-1.8906 2.0898-1.8672 3.3828-4.3477 3.3906-4.3594 0.14453-0.20312 0.37891-0.32812 0.62891-0.33203 0.25-0.003906 0.48828 0.11719 0.63672 0.31641 3.1641 4.2656 5.7539 5.6719 7.9531 5.5078 1.5859-0.11719 2.9102-1.0625 4.0156-2.1797 1.207-1.2148 2.1562-2.6484 2.875-3.6367 0.15234-0.20703 0.39453-0.32812 0.65234-0.32031 0.25781 0.007813 0.49219 0.13672 0.63281 0.35156 1.3984 2.1328 2.625 3.5938 3.7344 4.5273 0.37109 0.3125 0.72266 0.55859 1.0586 0.75l5.9336-16.871h-37.309zm27.25-13.898-26.469-35.73v47.641zm-17.793-17.078c0.082031-0.42188 0.49219-0.70312 0.91406-0.62109 0.42578 0.082031 0.70312 0.49219 0.62109 0.91406-1.6523 8.6055-2.9531 10.031-6.3555 14.715-0.25391 0.34766-0.74219 0.42578-1.0898 0.17188-0.34766-0.25391-0.42578-0.74219-0.17187-1.0938 3.2617-4.4844 4.5039-5.8516 6.0859-14.09zm3.4609 7.75c0.13672-0.41016 0.58203-0.62891 0.98828-0.49219 0.41016 0.13672 0.62891 0.57812 0.49219 0.98828-1.4141 4.2188-1.3516 4.2031-2.1055 8.5586-0.074218 0.42578-0.47656 0.71094-0.90234 0.63672-0.42578-0.074219-0.71094-0.47656-0.63672-0.90234 0.77734-4.4727 0.71094-4.457 2.1641-8.7891zm-33.961 27.172c-0.42969-0.015625-0.76562-0.37891-0.75-0.80859s0.37891-0.76562 0.80859-0.75c19.645 0.71875 19.641 0.50781 22.438 0.41406 0.42969-0.015624 0.79297 0.32422 0.80469 0.75781 0.015625 0.42969-0.32422 0.79297-0.75391 0.80469-2.8047 0.09375-2.8047 0.30469-22.547-0.41406zm26.59 0.23047c-0.42969-0.003906-0.77734-0.35547-0.77344-0.78906 0.003906-0.42969 0.35547-0.77734 0.78906-0.77344l3.1602 0.023438c0.42969 0.003906 0.77734 0.35547 0.77344 0.78906-0.003906 0.42969-0.35547 0.77734-0.78906 0.77344zm33.434-59.984c3.1641 0 5.7344 2.5703 5.7344 5.7344 0 3.1641-2.5703 5.7344-5.7344 5.7344-3.1641 0-5.7344-2.5703-5.7344-5.7344 0-3.1641 2.5703-5.7344 5.7344-5.7344zm0 1.5625c-2.3047 0-4.1719 1.8672-4.1719 4.1719 0 2.3047 1.8711 4.1719 4.1719 4.1719 2.3008 0 4.1719-1.8672 4.1719-4.1719 0-2.3047-1.8711-4.1719-4.1719-4.1719zm-0.78125-9.0391c0-0.42969 0.35156-0.78125 0.78125-0.78125 0.42969 0 0.78125 0.35156 0.78125 0.78125v4.9531c0 0.42969-0.35156 0.78125-0.78125 0.78125-0.42969 0-0.78125-0.35156-0.78125-0.78125zm13.992 12.43c0.42969 0 0.78125 0.35156 0.78125 0.78125 0 0.42969-0.35156 0.78125-0.78125 0.78125h-4.9531c-0.42969 0-0.78125-0.35156-0.78125-0.78125 0-0.42969 0.35156-0.78125 0.78125-0.78125zm-12.43 13.992c0 0.42969-0.35156 0.78125-0.78125 0.78125-0.42969 0-0.78125-0.35156-0.78125-0.78125v-4.9531c0-0.42969 0.35156-0.78125 0.78125-0.78125 0.42969 0 0.78125 0.35156 0.78125 0.78125zm-13.992-12.43c-0.42969 0-0.78125-0.35156-0.78125-0.78125 0-0.42969 0.35156-0.78125 0.78125-0.78125h4.9531c0.42969 0 0.78125 0.35156 0.78125 0.78125 0 0.42969-0.35156 0.78125-0.78125 0.78125zm22-10.676c0.30469-0.30469 0.80078-0.30469 1.1055 0 0.30469 0.30469 0.30469 0.80078 0 1.1055l-3.5 3.5039c-0.30469 0.30469-0.80078 0.30469-1.1055 0-0.30469-0.30469-0.30469-0.80078 0-1.1055l3.5039-3.5039zm1.1055 18.684c0.30469 0.30469 0.30469 0.79688 0 1.1055-0.30469 0.30469-0.80078 0.30469-1.1055 0l-3.5039-3.5039c-0.30469-0.30469-0.30469-0.80078 0-1.1055 0.30469-0.30469 0.80078-0.30469 1.1055 0l3.5 3.5039zm-18.68 1.1055c-0.30469 0.30469-0.80078 0.30469-1.1055 0-0.30469-0.30469-0.30469-0.80078 0-1.1055l3.5039-3.5039c0.30469-0.30469 0.80078-0.30469 1.1055 0 0.30469 0.30469 0.30469 0.80078 0 1.1055zm-1.1055-18.684c-0.30469-0.30469-0.30469-0.80078 0-1.1055 0.30469-0.30469 0.80078-0.30469 1.1055 0l3.5039 3.5039c0.30469 0.30469 0.30469 0.80078 0 1.1055-0.30469 0.30469-0.80078 0.30469-1.1055 0z" fill="#338cc8" fill-rule="evenodd"/>
</svg>
