<?xml version="1.0" encoding="UTF-8"?>
<svg width="100pt" height="100pt" version="1.1" viewBox="0 0 100 100" xmlns="http://www.w3.org/2000/svg">
 <path d="m99.391 50c0-9.3906-2.6836-18.535-7.6836-26.465v-7.375c0-0.12109-0.0625-0.30469-0.18359-0.42578l-10.977-10.977c-0.12109-0.12109-0.30469-0.18359-0.42578-0.18359h-10.793c-6.0977-2.6211-12.621-3.9648-19.328-3.9648-10.062 0-19.758 2.9883-27.988 8.7188l-1.0977-2.5-2.1328-4.7578c-0.12109-0.24219-0.30469-0.36719-0.54688-0.36719s-0.42578 0.12109-0.54688 0.36719l-4.7578 10.488c-0.0625 0.125-0.125 0.18359-0.125 0.24609v4.6328c-7.8672 9.0273-12.195 20.609-12.195 32.562 0 9.6328 2.7422 18.902 7.9883 26.891l-0.18359 0.18359c-0.73047 0.91406-1.0977 2.0742-1.0977 3.2305 0 2.8672 2.3164 5.1836 5.1836 5.1836h3.2305c9.207 8.9648 21.402 13.902 34.27 13.902 27.195 0 49.391-22.195 49.391-49.391zm-1.2188 0c0 13.414-5.4883 25.547-14.391 34.27h-20.062c1.0977-0.97656 1.8281-2.3789 1.8281-3.9648 0-1.1602-0.42578-2.3164-1.0977-3.2305l-11.77-14.758h38.414c0.36719 0 0.60938-0.24219 0.60938-0.60938l0.003906-35.793c4.207 7.3164 6.4648 15.551 6.4648 24.086zm-28.965-44.27h10.305v10.367c0 0.36719 0.24219 0.60938 0.60938 0.60938h10.367v44.391h-38.781l-2.1328-2.6836v-52.684zm20.426 9.8164h-8.9023v-8.9023zm-75.609 35.551h8.293v1.7695h-8.293zm8.293-1.2188h-8.293v-26.953h8.293zm0-28.172h-8.293v-8.293h8.293zm0 32.379c-0.12109 2.1953-1.8906 3.9023-4.1445 3.9023-2.1953 0-4.0234-1.7695-4.1445-3.9023zm-7.9258-41.891 2.0742-4.5117h3.5352l2.0742 4.5117zm3.7812-8.3555 0.97656 2.1953 0.24219 0.48828h-2.4375l0.36719-0.79297zm-16.344 46.16c0-11.219 3.9023-22.012 10.977-30.609v34.512c0 2.9258 2.3789 5.3672 5.3672 5.3672s5.3672-2.3789 5.3672-5.3672v-3.4141l-0.003906-28.172v-9.5117c0-0.0625 0-0.12109-0.0625-0.18359v-0.0625l-0.97656-2.1328c8.1133-5.6094 17.625-8.5977 27.504-8.5977 5.4883 0 10.855 0.91406 15.914 2.6836h-16.891c-0.36719 0-0.60938 0.24219-0.60938 0.60938v51.77l-4.4531-5.5469 0.003906-26.891h0.18359c1.1602 0 2.0742-0.91406 2.0742-2.0742l-0.003906-2.8672c0-1.1602-0.91406-2.0742-2.0742-2.0742h-15.426c-1.1602 0-2.0742 0.91406-2.0742 2.0742v2.9258c0 1.1602 0.91406 2.0742 2.0742 2.0742h0.18359v26.891l-19.512 24.512c-4.9375-7.7422-7.5625-16.707-7.5625-25.914zm26.891-26.77c-0.48828 0-0.85547-0.36719-0.85547-0.85547l0.003907-2.8633c0-0.48828 0.36719-0.85547 0.85547-0.85547h15.488c0.48828 0 0.85547 0.36719 0.85547 0.85547v2.9258c0 0.48828-0.36719 0.85547-0.85547 0.85547h-15.492zm-20.184 57.074c0-0.91406 0.30469-1.7695 0.85547-2.4375l20.609-25.914c0.0625-0.12109 0.12109-0.24219 0.12109-0.36719v-27.133h12.621v27.074c0 0.12109 0.0625 0.24219 0.12109 0.36719l20.609 25.914c0.54688 0.67188 0.85547 1.5859 0.85547 2.4375 0 2.1953-1.7695 3.9648-3.9648 3.9648h-47.926c-2.1328 0.058593-3.9023-1.7109-3.9023-3.9062zm8.9023 5.1836h65.059c-8.5312 7.8672-19.996 12.684-32.496 12.684-12.133 0-23.66-4.5117-32.562-12.684z" fill="#338cc8"/>
 <path d="m48.598 89.207c0-0.36719-0.24219-0.60938-0.60938-0.60938h-14.758c-0.36719 0-0.60938 0.24219-0.60938 0.60938 0 0.36719 0.24219 0.60938 0.60938 0.60938h14.758c0.30469 0 0.60938-0.30469 0.60938-0.60938z" fill="#338cc8"/>
 <path d="m53.414 89.207c0-0.36719-0.24219-0.60938-0.60937-0.60938h-2.4375c-0.36719 0-0.60938 0.24219-0.60938 0.60938 0 0.36719 0.24219 0.60938 0.60938 0.60938h2.4375c0.30469 0 0.60937-0.30469 0.60937-0.60938z" fill="#338cc8"/>
 <path d="m54.879 89.816h1.5859c0.36719 0 0.60938-0.24219 0.60938-0.60938 0-0.36719-0.24219-0.60938-0.60938-0.60938h-1.5859c-0.36719 0-0.60938 0.24219-0.60938 0.60938 0 0.30469 0.24219 0.60938 0.60938 0.60938z" fill="#338cc8"/>
 <path d="m66.77 91.586h-14.758c-0.36719 0-0.60938 0.24219-0.60938 0.60937 0 0.36719 0.24219 0.60938 0.60938 0.60938h14.758c0.36719 0 0.60938-0.24219 0.60938-0.60938 0-0.36719-0.24609-0.60937-0.60938-0.60937z" fill="#338cc8"/>
 <path d="m49.633 91.586h-2.4375c-0.36719 0-0.60937 0.24219-0.60937 0.60937 0 0.36719 0.24219 0.60938 0.60937 0.60938h2.4375c0.36719 0 0.60938-0.24219 0.60938-0.60938 0-0.36719-0.24219-0.60937-0.60938-0.60937z" fill="#338cc8"/>
 <path d="m45.121 91.586h-1.5859c-0.36719 0-0.60938 0.24219-0.60938 0.60937 0 0.36719 0.24219 0.60938 0.60938 0.60938h1.5859c0.36719 0 0.60938-0.24219 0.60938-0.60938 0-0.36719-0.24219-0.60937-0.60938-0.60937z" fill="#338cc8"/>
 <path d="m60.426 81.465c0.60938 0 1.1602-0.48828 1.1602-1.1602 0-0.24219-0.0625-0.48828-0.24219-0.73047l-12.316-15.488c-0.12109-0.12109-0.30469-0.24219-0.48828-0.24219l-24.211-0.003906c-0.18359 0-0.36719 0.0625-0.48828 0.24219l-12.254 15.551c-0.18359 0.18359-0.24219 0.42578-0.24219 0.73047 0 0.60938 0.48828 1.1602 1.1602 1.1602h47.922zm-35.793-16.344h23.598l12.012 15.121h-47.621z" fill="#338cc8"/>
 <path d="m59.086 23.84h0.36719l2.4375 10c-0.48828 0.18359-0.91406 0.48828-1.2812 0.85547-1.5859 1.5859-1.5859 4.1445 0 5.6719 0.79297 0.79297 1.8281 1.1602 2.8672 1.1602 1.0352 0 2.0742-0.36719 2.8672-1.1602 0.73047-0.73047 1.1602-1.7695 1.1602-2.8672 0-0.85547-0.30469-1.707-0.79297-2.3789l7.6797-7.6836c0.73047 0.48828 1.5234 0.79297 2.3789 0.79297 1.0352 0 2.0742-0.36719 2.8672-1.1602 1.5859-1.5859 1.5859-4.1445 0-5.6719-1.5859-1.5859-4.1445-1.5859-5.6719 0-0.36719 0.36719-0.67188 0.85547-0.85547 1.2812l-10-2.4375v-0.36719c0-1.0977-0.42578-2.0742-1.1602-2.8672-0.73047-0.73047-1.7695-1.1602-2.8672-1.1602-1.0977 0-2.0742 0.42578-2.8672 1.1602-1.5859 1.5859-1.5859 4.1445 0 5.6719 0.79688 0.79687 1.7734 1.1602 2.8711 1.1602zm6.3398 15.672c-1.0977 1.0977-2.8672 1.0977-3.9648 0-1.0977-1.0977-1.0977-2.8672 0-3.9648 0.54687-0.54688 1.2188-0.79297 1.9531-0.79297 0.73047 0 1.4648 0.30469 1.9531 0.79297 0.54687 0.54688 0.79297 1.2188 0.79297 1.9531 0.12109 0.79297-0.18359 1.5234-0.73438 2.0117zm11.344-18.109c0.73047 0 1.4648 0.24219 1.9531 0.79297 1.0977 1.0977 1.0977 2.8672 0 3.9648s-2.8672 1.0977-3.9648 0c-1.0977-1.0977-1.0977-2.8672 0-3.9648 0.60938-0.48828 1.3398-0.79297 2.0117-0.79297zm-3.9648 2.4375c-0.0625 0.97656 0.18359 1.9531 0.79297 2.7422l-7.7422 7.7461c-0.67188-0.48828-1.5234-0.79297-2.3789-0.79297h-0.36719l-2.4375-10c0.48828-0.18359 0.91406-0.48828 1.2812-0.85547 0.36719-0.36719 0.67188-0.79297 0.85547-1.2812zm-15.672-5.9727c0.54688-0.54688 1.2188-0.79297 1.9531-0.79297 0.73047 0 1.4648 0.30469 1.9531 0.79297 0.54688 0.54687 0.79297 1.2188 0.79297 1.9531 0 0.73047-0.30469 1.4648-0.79297 1.9531-0.54687 0.54687-1.2188 0.79297-1.9531 0.79297-0.73047 0-1.4648-0.30469-1.9531-0.79297-1.0977-1.043-1.0977-2.8086 0-3.9062z" fill="#338cc8"/>
 <path d="m47.988 72.621c-1.6445 0-2.9883 1.3398-2.9883 2.9883 0 1.6445 1.3398 2.9883 2.9883 2.9883 1.6445 0 2.9883-1.3398 2.9883-2.9883 0-1.6445-1.3438-2.9883-2.9883-2.9883zm0 4.6953c-0.97656 0-1.7695-0.79297-1.7695-1.7695s0.79297-1.7695 1.7695-1.7695c0.97656 0 1.7695 0.79297 1.7695 1.7695s-0.79297 1.7695-1.7695 1.7695z" fill="#338cc8"/>
 <path d="m46.828 70.305c0-1.0977-0.91406-1.9531-1.9531-1.9531-1.0977 0-1.9531 0.91406-1.9531 1.9531 0 1.0977 0.91406 1.9531 1.9531 1.9531 1.0391 0.058594 1.9531-0.85547 1.9531-1.9531zm-1.9492 0.79297c-0.42578 0-0.73047-0.36719-0.73047-0.73047 0-0.36719 0.36719-0.73047 0.73047-0.73047 0.42578 0 0.73047 0.36719 0.73047 0.73047 0 0.36328-0.36719 0.73047-0.73047 0.73047z" fill="#338cc8"/>
 <path d="m42.133 72.867c-1.2188 0-2.1953 0.97656-2.1953 2.1953s0.97656 2.1953 2.1953 2.1953 2.1953-0.97656 2.1953-2.1953c0-1.2227-0.97266-2.1953-2.1953-2.1953zm0 3.168c-0.54687 0-0.97656-0.42578-0.97656-0.97656 0-0.54688 0.42578-0.97656 0.97656-0.97656 0.54688 0 0.97656 0.42578 0.97656 0.97656 0 0.55078-0.42578 0.97656-0.97656 0.97656z" fill="#338cc8"/>
 <path d="m54.27 47.684h31.586c0.36719 0 0.60938-0.24219 0.60938-0.60938 0-0.36719-0.24219-0.60938-0.60938-0.60938h-31.586c-0.36719 0-0.60938 0.24219-0.60938 0.60938 0 0.30469 0.24219 0.60938 0.60938 0.60938z" fill="#338cc8"/>
 <path d="m85.855 53.109h-17.621c-0.36719 0-0.60938 0.24219-0.60938 0.60938s0.24219 0.60938 0.60938 0.60938h17.621c0.36719 0 0.60938-0.24219 0.60938-0.60938 0-0.36328-0.30469-0.60938-0.60938-0.60938z" fill="#338cc8"/>
</svg>
