<?xml version="1.0" encoding="UTF-8"?>
<svg width="100pt" height="100pt" version="1.1" viewBox="0 0 100 100" xmlns="http://www.w3.org/2000/svg">
 <path d="m10.953 90h78.062c0.55078 0 1-0.44922 1-1v-78.062c0-0.55078-0.44922-1-1-1h-26.133c-0.55078 0-1 0.44922-1 1s0.44922 1 1 1h1.3086v15.496h-1.3125c-0.55078 0-1 0.44922-1 1 0 0.55078 0.44922 1 1 1h1.1992c-0.34375 3.2383-1.6953 11.457-6.9492 19.57-8.9844 13.879-24.52 20.914-46.176 20.914-0.55078 0-1 0.44922-1 1v18.082c0 0.55078 0.44922 1 1 1zm77.062-62.566h-6.1484v-15.496h6.1484zm-13.984 0v-15.496h5.8359v15.496zm-2-15.496v15.496h-5.8359l-0.003906-15.496zm-60.078 59.977c15.305-0.16406 35.488-4.1836 46.906-21.902 5.6055-8.6992 6.9297-17.293 7.2383-20.578h21.918v58.566h-76.062z" fill="#338cc8"/>
 <path d="m46.082 41.906c1.0586 1.0586 2.4648 1.6406 3.9609 1.6406 1.4961 0 2.9023-0.58203 3.9609-1.6406s1.6406-2.4648 1.6406-3.9609c0-1.4961-0.58203-2.9023-1.6406-3.9609s-2.4648-1.6406-3.9609-1.6406c-0.14844 0-0.29297 0.03125-0.4375 0.042969 1.5469-2.5234 2.3047-5.4883 2.0977-8.5-0.039063-0.55078-0.51172-0.96094-1.0664-0.92969-0.55078 0.039063-0.96875 0.51562-0.92969 1.0664 0.24609 3.5703-1.0664 7.0742-3.5977 9.6055l-18.191 18.191c-2.5312 2.5312-6.0273 3.8438-9.6055 3.5977-0.55859-0.027344-1.0273 0.37891-1.0664 0.92969-0.039063 0.55078 0.37891 1.0273 0.92969 1.0664 0.33203 0.023438 0.66016 0.035157 0.98828 0.035157 2.668 0 5.2617-0.75781 7.5078-2.1367-0.011719 0.14844-0.042969 0.29297-0.042969 0.44141 0 1.4961 0.58203 2.9023 1.6406 3.9609 1.0586 1.0586 2.4648 1.6406 3.9609 1.6406 1.4961 0 2.9023-0.58203 3.9609-1.6406s1.6406-2.4648 1.6406-3.9609-0.58203-2.9023-1.6406-3.9609c-1.0195-1.0195-2.3633-1.582-3.7969-1.625l12.059-12.059c0.046875 1.4375 0.61328 2.7812 1.6289 3.7969zm6.5078-6.5078c0.67969 0.67969 1.0547 1.5859 1.0547 2.5469 0 0.96094-0.375 1.8672-1.0547 2.5469-1.3594 1.3594-3.7344 1.3594-5.0938 0-0.67969-0.67969-1.0547-1.5859-1.0547-2.5469 0-0.96094 0.375-1.8672 1.0547-2.5469 0.67969-0.67969 1.5859-1.0547 2.5469-1.0547 0.96484 0 1.8672 0.375 2.5469 1.0547zm-16.754 20.355c0 0.96094-0.375 1.8672-1.0547 2.5469-1.3633 1.3594-3.7344 1.3594-5.0938 0-0.67969-0.67969-1.0547-1.5859-1.0547-2.5469 0-0.96094 0.375-1.8672 1.0547-2.5469 0.67969-0.67969 1.5859-1.0547 2.5469-1.0547s1.8672 0.375 2.5469 1.0547c0.67969 0.68359 1.0547 1.5859 1.0547 2.5469z" fill="#338cc8"/>
</svg>
