<?xml version="1.0" encoding="UTF-8"?>
<svg width="100pt" height="100pt" version="1.1" viewBox="0 0 100 100" xmlns="http://www.w3.org/2000/svg">
 <path d="m51.285 22.609c-3.125 0-5.668 2.543-5.668 5.668s2.543 5.668 5.668 5.668 5.668-2.543 5.668-5.668-2.543-5.668-5.668-5.668zm0 1.25c2.4336 0 4.3945 1.9648 4.3945 4.418 0 2.4336-1.9648 4.3945-4.3945 4.3945-2.4531 0-4.418-1.9648-4.418-4.3945 0-2.4531 1.9648-4.418 4.418-4.418zm20.484 6.9375c-3.9727 0.22266-7.9219 0.42578-11.895 0.625-1.2266 0.19922-2.2109 0.80469-3.3242 1.2734-0.066406 0.023438-0.15625 0.089844-0.19922 0.13281-1.1172 1.0938-3.6172 2.3008-5.1992 2.3008-1.7422 0-3.4805-0.58203-4.5742-1.6719-0.11328-0.089843-0.26953-0.15625-0.42578-0.15625h-9.418-0.15625l-9.3906 2.4961c-0.13281 0.023437-0.26953 0.13281-0.35547 0.24609-0.69141 1.0469-0.9375 2.1406-0.625 3.0781 0.3125 0.96094 1.25 1.6055 2.4102 1.6055 0.042968 0 0.089843 0 0.13281-0.023437l7.4102-1.8281 7.2734 0.55859c-0.96094 3.2578-1.9648 6.5156-2.9219 9.7969-0.64844 2.6328 0.64844 5.2227 2.9883 7.6523l-4.7969 7.6523c-0.042969 0.089844-0.066406 0.19922-0.066406 0.3125 0 1.4492 0.82422 2.543 1.9414 2.8555 1.1367 0.3125 2.4336-0.11328 3.5039-1.1602l0.089844-0.089844 6.0039-8.9688 2.4336 0.42578-5.7578 9.082c-0.042968 0.11328-0.089843 0.22266-0.089843 0.33594 0 1.2266 0.89062 2.1211 1.9414 2.4102 1.0703 0.28906 2.3438 0.089844 3.4375-0.625 0.066406-0.042969 0.11328-0.11328 0.15625-0.15625 2.9453-4.1523 5.8672-8.3438 8.8125-12.473 0.82422-1.6055-0.042969-3.8828-2.2539-4.5977-1.6719-0.37891-3.3711-0.75781-5.043-1.1172l2.8789-10.844c1.8984-0.71484 3.6367-2.0078 5.332-2.9453l10.484-1.207c0.13281-0.023438 0.26953-0.089844 0.35547-0.17969 0.73828-0.73828 1.1602-1.6719 1.0469-2.6094-0.11328-0.91406-0.78125-1.7852-1.8984-2.1641-0.089844-0.023437-0.17969 0-0.24609-0.023437zm-0.089843 1.2734c0.69141 0.24609 0.9375 0.625 1.0039 1.0703 0.042968 0.40234-0.17969 0.9375-0.60156 1.4297l-10.375 1.2031c-0.066406 0-0.15625 0.023437-0.22266 0.042968-1.9414 1.0703-3.793 2.5-5.5117 3.0586-0.19922 0.066406-0.37891 0.24609-0.42578 0.44531l-3.125 11.758c-0.089844 0.33594 0.13281 0.71484 0.46875 0.78125 1.875 0.42578 3.7695 0.80469 5.625 1.25 1.4961 0.51172 1.875 1.918 1.4727 2.7656-2.832 4.0625-5.7344 8.1211-8.6133 12.184-0.78125 0.49219-1.6719 0.625-2.3438 0.44531-0.60156-0.15625-0.9375-0.51172-0.98047-1.0469l6.1133-9.6836c0.24609-0.35547 0-0.89063-0.40234-0.98047l-3.75-0.60156c-0.33594-0.042968-0.49219 0.066406-0.64844 0.26953l-6.2031 9.2148c-0.80469 0.78125-1.6719 0.98047-2.2539 0.82422-0.55859-0.15625-0.9375-0.625-0.98047-1.5391l4.8633-7.832c0.13281-0.22266 0.11328-0.55859-0.089843-0.75781-2.4102-2.3867-3.5039-4.6172-2.9688-6.8047 1.0273-3.5039 2.0742-7.0273 3.125-10.531 0.11328-0.35547-0.17969-0.78125-0.53516-0.80469l-8.1641-0.60547c-0.066406-0.023438-0.13281 0-0.17969 0l-7.4062 1.832c-0.69141 0-1.0039-0.26953-1.1602-0.71484-0.13281-0.42578-0.042968-1.0938 0.40234-1.8281l9.0156-2.3672h9.125c1.3828 1.2266 3.2812 1.8516 5.1992 1.8516 2.0742 0 4.418-1.2031 5.8672-2.5234 1.0039-0.42578 2.0078-0.91406 2.8789-1.2031 3.9258-0.19922 7.8555-0.40234 11.781-0.60156zm-43.113 33.941c-0.023437 0.28906 0.19922 0.58203 0.49219 0.625l4.707 1.4062c-0.46875 0.46875-0.75781 1.0938-0.75781 1.7852 0 1.4062 1.1367 2.5234 2.5234 2.5234 1.4062 0 2.5234-1.1172 2.5234-2.5234 0-0.17969-0.023438-0.35547-0.066407-0.53516l12.34 3.6602c-0.55859 0.44531-0.9375 1.1367-0.9375 1.918 0 1.3828 1.1367 2.5234 2.5234 2.5234 1.3828 0 2.5234-1.1367 2.5234-2.5234 0-0.26953-0.042969-0.51172-0.11328-0.73828l0.69141 0.17969c2.0547 0.625 4.6875-0.042969 6.1602-1.5156 0.28906-0.22266 0.3125-0.69141 0.066407-0.9375-0.24609-0.24609-0.71484-0.22266-0.9375 0.042969-1.0469 1.0273-3.4375 1.6289-4.9297 1.2031l-25.957-7.6523c-0.46875-0.13281-0.78125 0.19922-0.84766 0.55859z" fill="#338cc8"/>
</svg>
