<?xml version="1.0" encoding="UTF-8"?>
<svg width="100pt" height="100pt" version="1.1" viewBox="0 0 100 100" xmlns="http://www.w3.org/2000/svg">
 <path d="m98.438 12.5h-21.781c-0.86328 0-1.5625 0.69922-1.5625 1.5625 0 28.516-32.609 65.125-70.688 67.188-2.4766 0.14844-4.4102 2.2031-4.4062 4.6875 0 0.41406 0.16406 0.8125 0.45703 1.1055s0.69141 0.45703 1.1055 0.45703h96.875c0.41406 0 0.8125-0.16406 1.1055-0.45703s0.45703-0.69141 0.45703-1.1055v-71.875c0-0.41406-0.16406-0.8125-0.45703-1.1055s-0.69141-0.45703-1.1055-0.45703zm-1.5625 71.875h-92.062c32.688-1.9219 72.234-33.734 73.312-68.75h18.75z" fill="#338cc8"/>
 <path d="m11.219 69.078c0.39844 0.0625 0.80078 0.09375 1.2031 0.09375 1.3633 0.003906 2.707-0.35547 3.8906-1.0312l0.20312-0.125c0.070313 0.25391 0.17578 0.49219 0.3125 0.71875 0.59766 0.99219 1.6289 1.6406 2.7812 1.75 0.1875 0.015625 0.375 0.015625 0.5625 0 0.9375-0.007813 1.8594-0.26172 2.6719-0.73438 0.95703-0.55469 1.7109-1.3945 2.1562-2.4062 0.51172-1.0352 0.51172-2.2461 0-3.2812-0.12891-0.22656-0.28516-0.4375-0.46875-0.625l14.984-8.75c0.078125 0.25 0.18359 0.49219 0.3125 0.71875 0.60156 0.99609 1.6406 1.6445 2.7969 1.75 0.18359 0.015625 0.36328 0.015625 0.54688 0 0.94141-0.007812 1.8594-0.26172 2.6719-0.73438 0.98438-0.55078 1.7617-1.4062 2.2188-2.4375 0.48438-1.0547 0.44531-2.2773-0.10938-3.2969-0.13281-0.22266-0.29297-0.43359-0.46875-0.625l0.20312-0.125c2.293-1.3672 3.7305-3.8086 3.8086-6.4805 0.078125-2.668-1.2109-5.1914-3.418-6.6914-2.5469-1.668-5.8906-1.4375-8.1875 0.5625l-2.875 2.5469-24.094 13.984-3.6406 1.2344c-2.8906 0.96875-4.7734 3.7539-4.5938 6.7969 0.19531 3.6406 2.9258 6.6445 6.5312 7.1875zm10.938-2.9688c-0.19141 0.41016-0.50781 0.75-0.90625 0.96875-0.39062 0.23047-0.84375 0.33984-1.2969 0.3125-0.16016-0.011719-0.3125-0.082031-0.42188-0.20312-0.066406-0.15625-0.066406-0.32812 0-0.48438 0.19531-0.41406 0.51953-0.75391 0.92188-0.96875 0.33594-0.19922 0.71875-0.3125 1.1094-0.32812h0.17188c0.17188 0.003906 0.33594 0.078125 0.45312 0.20312 0.074219 0.16016 0.074219 0.33984 0 0.5zm23-13.281c-0.1875 0.41406-0.50391 0.75391-0.90625 0.96875-0.39062 0.23047-0.84375 0.33984-1.2969 0.3125-0.17578-0.007813-0.33984-0.085937-0.45312-0.21875-0.125-0.23438 0.125-0.96875 0.96875-1.4531 0.33594-0.20312 0.71875-0.31641 1.1094-0.32812 0.23438-0.023437 0.46875 0.058594 0.64062 0.21875 0.054688 0.16406 0.042969 0.34375-0.03125 0.5zm-34.875 5.2188 3.7812-1.2812c0.097656-0.027344 0.19531-0.070313 0.28125-0.125l24.359-14.062c0.09375-0.046875 0.17578-0.11328 0.25-0.1875l3-2.6406c0.66797-0.57812 1.5234-0.89453 2.4062-0.89062 0.71094-0.007813 1.4062 0.19922 2 0.59375 1.2852 0.90625 2.0273 2.3984 1.9805 3.9688s-0.87891 3.0156-2.2148 3.8438l-4.1875 2.4219-23 13.281-4.1875 2.4688c-0.92188 0.52734-1.9961 0.72656-3.0469 0.5625-2.1328-0.36328-3.7422-2.1367-3.8906-4.2969-0.089844-1.6328 0.92188-3.1289 2.4688-3.6562z" fill="#338cc8"/>
</svg>
