<?xml version="1.0" encoding="UTF-8"?>
<svg width="100pt" height="100pt" version="1.1" viewBox="0 0 100 100" xmlns="http://www.w3.org/2000/svg">
 <path d="m48.742 20.402c-2.0703 0-3.7773 1.707-3.7773 3.7773 0 2.0703 1.707 3.7773 3.7773 3.7773 2.0703 0 3.7773-1.707 3.7773-3.7773 0-2.0703-1.707-3.7773-3.7773-3.7773zm0 2.5195c0.71094 0 1.2578 0.55078 1.2578 1.2578 0 0.71094-0.55078 1.2578-1.2578 1.2578-0.71094 0-1.2578-0.55078-1.2578-1.2578 0-0.71094 0.55078-1.2578 1.2578-1.2578zm-14.426 2.0078c-0.85547 0.42578-1.6016 1.1172-1.8906 2.125-0.28906 1.0078 0.09375 2.1992 0.94531 3.0508 0.16797 0.16406 0.37891 0.28125 0.60938 0.33594l6.8281 1.5742-0.55078 1.6133h-2.8555c-0.30078 0-0.60156 0.11719-0.82812 0.31641l-5.668 5.0391c-0.11328 0.10156-0.20703 0.22266-0.27734 0.35547-0.33984-0.23047-0.57422-0.53516-0.80859-0.86719-0.085937-0.64062-0.73437-1.1484-1.3789-1.082-0.61719 0.066406-1.1367 0.65625-1.1211 1.2773 0.050782 0.91797 0.625 1.5508 1.1602 2.1445 0.94141 0.94922 1.7266 1.3555 2.8945 1.8281-0.90234 0.38281-1.5352 1.2773-1.5352 2.3203 0 0.46484 0.13281 0.88672 0.35547 1.2578h-6.1406c-0.62109 0.058594-1.1445 0.63672-1.1406 1.2578v30.859c0 0.66016 0.60156 1.2578 1.2578 1.2578h51.641c0.66016 0 1.2578-0.60156 1.2578-1.2578v-2.5195c0.007813-0.53906-0.37109-1.0586-0.88672-1.2188-18.094-5.6133-28.434-12.895-39.027-27.848-0.23047-0.32422-0.625-0.53125-1.0234-0.53125h-1.6133c0.21875-0.375 0.35547-0.79297 0.35547-1.2578 0-0.38672-0.097656-0.75391-0.25391-1.082l12.477 4.8398c-0.53125 0.46094-0.88672 1.1484-0.88672 1.9102 0 1.3906 1.1289 2.5195 2.5195 2.5195s2.5195-1.1289 2.5195-2.5195c0-0.12891-0.019531-0.25391-0.039062-0.375 0.52734 0.1875 1.0391 0.37109 1.5742 0.49219 0.86328 0.19141 1.8828 0.21094 2.8125-0.25781 0.59375-0.29688 0.85938-1.1094 0.5625-1.7031-0.30078-0.59375-1.1094-0.85938-1.7031-0.5625-0.32812 0.16406-0.56641 0.18359-1.1211 0.058594-0.44141-0.097656-1.0703-0.32422-1.7891-0.57031 0.21484-0.23438 0.33594-0.55078 0.33594-0.86719v-6.2969c0.003907-0.375-0.16797-0.74609-0.45312-0.98438l-3.1094-2.5977 0.47266-1.3984 8.0703 5.3906c0.20312 0.13672 0.44531 0.21484 0.6875 0.21484 0.83984 0 1.7891-0.17578 2.5391-0.92578s0.95703-2.043 0.55078-3.2656c-0.082031-0.24219-0.24609-0.46094-0.45312-0.60938-7.6094-5.707-14.188-9.6289-25.094-11.551-0.29688-0.078124-0.51953 0.03125-0.78906 0.097657zm0.86719 2.5c9.9648 1.8477 15.93 5.3398 23.105 10.688 0.23047 0.3125 0.0625 0.60156-0.43359 0.47266l-9.0312-6.0234c-0.64453-0.44141-1.668-0.089844-1.9102 0.64844l-1.2578 3.7773c-0.16406 0.48047 0 1.0547 0.39453 1.3789l3.3242 2.7734v3.8359l-0.62891-0.25391v-2.2812c0-0.39844-0.20703-0.79297-0.53125-1.0234l-4.4102-3.1484c-0.17188-0.12891-0.37891-0.21094-0.58984-0.23438l-5.668-0.62891c-0.37109-0.042968-0.75781 0.09375-1.0234 0.35547l-1.9297 1.9297-0.49219-0.19531 3.7773-3.3438h3.3047c0.52734 0 1.0352-0.36328 1.1992-0.86719l1.2578-3.7773c0.22656-0.66797-0.23438-1.4844-0.92578-1.6328l-7.6953-1.7695c-0.26562-0.29297-0.17578-0.60547 0.15625-0.66797zm2.6953 12.535 4.7227 0.53125 3.6211 2.5977v2.5781l-10.137-3.918zm-12.438 8.7773h10.078c10.512 14.656 21.387 22.359 39.047 27.984v0.35547h-49.121z" fill="#338cc8"/>
</svg>
