<?xml version="1.0" encoding="UTF-8"?>
<svg width="100pt" height="100pt" version="1.1" viewBox="0 0 100 100" xmlns="http://www.w3.org/2000/svg">
 <path d="m92.68 54.371h-12c-0.82813 0-1.5 0.67188-1.5 1.5 0 11.102-4.7383 19-14.09 23.59-4.543 2.1328-9.457 3.3594-14.469 3.6094-2.3906 0.007813-4.7695-0.25-7.1016-0.76953 0.10156-0.19922 0.16016-0.41797 0.17188-0.64062 0.35938 0.070313 0.73047 0.10547 1.0977 0.10938 0.80859 0.011719 1.6016-0.20312 2.2891-0.62109 0.65234-0.45313 0.83203-1.3359 0.41797-2.0117-0.41797-0.67578-1.2852-0.91016-1.9844-0.53516-1.0586 0.64844-3.6484-0.64844-5.7305-1.6914-1.5781-0.78125-1.6797-1.4805-1.6797-1.5781v-0.003906c0.17969-0.80859-0.32812-1.6094-1.1367-1.793s-1.6133 0.32422-1.793 1.1367c-0.22266 1.2891 0.23828 2.6055 1.2188 3.4766-0.078125 0.042968-0.15234 0.089843-0.21875 0.14062-0.070313 0.074219-0.13281 0.14844-0.19141 0.23047-0.054688 0.082031-0.10156 0.17188-0.14062 0.26172-0.03125 0.089844-0.058594 0.18359-0.078125 0.27734-3.8281-2.5469-6.8867-6.0977-8.8398-10.258-2.2109-4.5938-3.5234-9.5664-3.8711-14.652-0.023437-0.8125-0.6875-1.457-1.5-1.457h-15.16c-0.82812 0-1.5 0.67188-1.5 1.5v35.301-0.003907c-0.003906 0.40234 0.15234 0.78516 0.43359 1.0703 0.28125 0.28125 0.66797 0.44141 1.0664 0.44141h86.289c0.82812 0 1.5-0.67188 1.5-1.5v-33.629c0-0.82812-0.67188-1.5-1.5-1.5zm-54.371 26c0.19141-0.19141 0.32422-0.42969 0.39062-0.69141 0.75 0.37109 1.5117 0.75 2.2695 1.0703-0.054688 0.082031-0.10156 0.16797-0.14062 0.26172-0.039063 0.085937-0.066406 0.17969-0.078125 0.27734v0.14844 0.003906c-0.84375-0.29297-1.6719-0.625-2.4805-1zm52.871 7.6289h-83.289v-32.309h12.281c0.64844 6.2383 4.8281 30.379 30.488 30.379 0.30859 0 30.48-0.67969 31.52-28.699h9zm-47.309-67.141c0-1.6406-0.99219-3.1211-2.5078-3.75s-3.2617-0.28125-4.4258 0.87891c-1.1602 1.1602-1.5078 2.9102-0.87891 4.4258 0.62891 1.5156 2.1094 2.5078 3.75 2.5078 1.0781 0 2.1094-0.42969 2.8711-1.1914 0.76172-0.76172 1.1914-1.793 1.1914-2.8711zm-4.0586 1.0586-0.003906 0.003906c-0.42578 0-0.8125-0.26172-0.97656-0.65625-0.16406-0.39453-0.074219-0.85156 0.22656-1.1562 0.30469-0.30078 0.76172-0.39453 1.1562-0.23047 0.39844 0.16406 0.65625 0.55078 0.65625 0.98047-0.007813 0.58203-0.47656 1.0547-1.0625 1.0625zm-1.5-8.2109v-3.3984h-0.003906c0-0.82812 0.67188-1.5 1.5-1.5s1.5 0.67188 1.5 1.5v3.4023c0 0.82812-0.67188 1.5-1.5 1.5s-1.5-0.67188-1.5-1.5zm5.6875 18.383c0.12891 0.38672 0.09375 0.80859-0.09375 1.168-0.19141 0.35938-0.51562 0.62891-0.90625 0.74219-0.13672 0.046875-0.28516 0.070312-0.42969 0.070312-0.66406-0.003906-1.25-0.44141-1.4414-1.082l-1.1289-3.8672c-0.17188-0.76953 0.28125-1.543 1.0391-1.7695 0.75391-0.22266 1.5547 0.17969 1.832 0.91797zm7-4.6211c-0.27344 0.44531-0.75781 0.71875-1.2812 0.72266-0.28516 0.011719-0.56641-0.054687-0.82031-0.19141l-3.5391-2.1289c-0.71094-0.42969-0.9375-1.3516-0.50781-2.0625 0.42578-0.70703 1.3477-0.9375 2.0586-0.50781l3.5391 2.1289c0.71484 0.41406 0.95703 1.3242 0.55078 2.0391zm-6.2891-9.4219v0.003906c-0.36719-0.73047-0.082032-1.6211 0.64062-2l3.2383-1.6914c0.69531-0.19922 1.4336 0.12109 1.7656 0.76172 0.32812 0.64453 0.15625 1.4336-0.41406 1.8789l-3.25 1.6797c-0.21484 0.11328-0.44922 0.17187-0.69141 0.17187-0.55859 0-1.0703-0.30859-1.3281-0.80078zm-14.711-3.375c-0.44531-0.62109-0.35156-1.4766 0.21094-1.9883 0.56641-0.51172 1.4258-0.51562 2-0.011719l2.5117 2.7188h-0.003906c0.44531 0.62109 0.35547 1.4727-0.21094 1.9844-0.56641 0.51172-1.4258 0.51953-1.9961 0.015625zm2.25 9.1094-4.0781 0.33984h-0.17188c-0.82812 0.035156-1.5273-0.60938-1.5664-1.4375-0.035156-0.82812 0.60938-1.5273 1.4375-1.5625l4.1289-0.33203c0.82812-0.070312 1.5586 0.54297 1.6289 1.3711 0.074219 0.82812-0.53906 1.5586-1.3672 1.6289zm4.4883 4.2695-1.8516 3h0.003906c-0.27734 0.44141-0.76172 0.71094-1.2812 0.71094-0.28125 0-0.55469-0.082031-0.78906-0.23047-0.33984-0.21094-0.57812-0.54297-0.66797-0.92969-0.089844-0.38672-0.023438-0.79687 0.1875-1.1328l1.8594-3c0.46484-0.63281 1.3359-0.80078 2.0039-0.38672 0.66406 0.41406 0.89844 1.2734 0.53516 1.9688z" fill="#338cc8"/>
</svg>
