<?xml version="1.0" encoding="UTF-8"?>
<svg width="100pt" height="100pt" version="1.1" viewBox="0 0 100 100" xmlns="http://www.w3.org/2000/svg">
 <path d="m48.738 23.547c-1.7422 0-3.1445 1.4297-3.1445 3.1445 0 1.7422 1.4062 3.168 3.1445 3.168 1.7188 0 3.1484-1.4258 3.1484-3.168 0-1.7188-1.4297-3.1445-3.1484-3.1445zm0 1.2734c1.0469 0 1.8984 0.82422 1.8984 1.875 0 1.0703-0.84766 1.8984-1.8984 1.8984-1.0469 0-1.8984-0.82422-1.8984-1.8984 0-1.0469 0.84766-1.875 1.8984-1.875zm-14.125 1.9375c-0.75781 0.37891-1.3828 0.96094-1.6055 1.7422-0.22266 0.78125 0.042969 1.6719 0.78125 2.4102 0.089844 0.089844 0.19922 0.15625 0.33594 0.17969l7.5195 1.7422-0.91406 2.6992h-3.3242c-0.15625 0-0.3125 0.042969-0.42578 0.15625l-5.5547 4.9531c-1.0078-0.46875-1.832-1.1172-2.2109-1.9648 0.019531-0.37891-0.35938-0.69141-0.71484-0.64844-0.3125 0.023437-0.55859 0.33594-0.53516 0.64844 0.042968 0.71484 0.44531 1.2266 0.96094 1.6953 0.96094 0.98047 1.7617 1.3164 2.9883 1.7852-0.51172 0.33594-0.82422 0.91406-0.82422 1.5625 0 0.22266 0.042968 0.42578 0.11328 0.625h-7.1406c-0.29297 0.042969-0.51562 0.33594-0.51562 0.625v30.859c0 0.33594 0.28906 0.625 0.625 0.625h51.637c0.33594 0 0.64844-0.28906 0.64844-0.625v-2.5234c0-0.26953-0.17969-0.53516-0.44531-0.60156-18.168-5.6445-28.699-13.074-39.367-28.113-0.11328-0.15625-0.3125-0.24609-0.51172-0.24609h-1.3594c0.066406-0.19922 0.089843-0.40234 0.089843-0.625 0-0.15625-0.023437-0.3125-0.066406-0.44531l12.742 4.9297c-0.76562 0.24609-1.3203 0.96094-1.3203 1.8086 0 1.0273 0.84766 1.875 1.8945 1.875 1.0273 0 1.875-0.84766 1.875-1.875 0-0.35547-0.089843-0.66797-0.24609-0.96094 1.0469 0.42578 2.2109 0.87109 3.1914 1.0938 0.78125 0.17969 1.6055 0.17969 2.3672-0.22266 0.35547-0.11328 0.53516-0.55859 0.37891-0.87109s-0.625-0.44531-0.91406-0.24609c-0.49219 0.24609-0.9375 0.24609-1.5625 0.089843-0.53516-0.11328-1.2031-0.35547-1.9648-0.625 0.042969-2.1211 0.023438-4.3086 0.023438-6.4492 0-0.19922-0.089844-0.37891-0.22266-0.49219l-3.457-2.9023 0.87109-2.5664 8.7461 5.8242c0.11328 0.089844 0.22266 0.13281 0.35547 0.13281 0.73828 0 1.5391-0.17969 2.0977-0.75781 0.58203-0.55859 0.73828-1.5156 0.37891-2.6094-0.042969-0.11328-0.11328-0.22266-0.22266-0.28906-7.5664-5.6875-13.992-9.5469-24.816-11.469-0.13281-0.019531-0.26563 0.023438-0.37891 0.066406zm0.42578 1.25c10.332 1.8516 16.469 5.4883 23.832 11.023 0.17969 0.64844 0.089844 0.96094-0.11328 1.1602-0.19922 0.17969-0.625 0.28906-1.0703 0.33594l-9.2148-6.1602c-0.33594-0.22266-0.82422-0.066407-0.96094 0.3125l-1.25 3.7695c-0.089844 0.24609 0 0.53516 0.19922 0.69141l3.5273 2.9453-0.023437 5.6016-1.875-0.78125 0.023437-3.2148c0-0.17969-0.11328-0.37891-0.26953-0.49219l-4.3945-3.168c-0.089844-0.042969-0.19922-0.089844-0.3125-0.11328l-5.668-0.625c-0.17969-0.023438-0.37891 0.042969-0.51172 0.17969l-2.4102 2.3672-1.8086-0.73828 4.8867-4.3281h3.5469c0.26953 0 0.51172-0.17969 0.60156-0.42578l1.25-3.793c0.11328-0.33594-0.11328-0.73828-0.44531-0.82422l-7.9414-1.8242c-0.40234-0.44531-0.49219-0.78125-0.40234-1.0703 0.089844-0.29297 0.40234-0.58203 0.80469-0.82813zm2.5898 12.562 5.1758 0.58203 4.0391 2.8789v2.5664l-10.98-4.2383zm-12.832 5.0234c3.7031 0.023438 7.3867 0 11.047 0 10.598 14.863 21.398 22.492 39.34 28.137v1.4727h-50.387z" fill="#338cc8"/>
</svg>
