<?xml version="1.0" encoding="UTF-8"?>
<svg width="100pt" height="100pt" version="1.1" viewBox="0 0 100 100" xmlns="http://www.w3.org/2000/svg">
 <path d="m58.035 85.352c7.1719-1.9023 13.668-5.4297 18.922-10.438 9.1133-8.6875 13.551-20.719 12.496-33.875 0-0.015624-0.011719-0.03125-0.015625-0.046874-0.007812-0.054688-0.027344-0.10547-0.046875-0.15625-0.015625-0.046876-0.03125-0.089844-0.054687-0.13281-0.027344-0.042969-0.058594-0.078125-0.09375-0.11719-0.035157-0.039063-0.066407-0.074219-0.10547-0.10547-0.039063-0.027344-0.082031-0.050781-0.125-0.070313-0.050781-0.023437-0.097657-0.046875-0.14844-0.0625-0.015625-0.003906-0.027343-0.015625-0.046875-0.019531-9.3867-1.8398-18.508-0.72656-26.496 3.0898 0.26172-1.4883 0.39844-3.0039 0.39844-4.5234 0-1.8633-0.20312-3.6836-0.57812-5.4375-0.003906-0.023437-0.011719-0.050781-0.015625-0.074219-1.4883-6.8281-5.6758-12.652-11.387-16.305-0.050781-0.035156-0.097656-0.074219-0.15234-0.097656-3.9844-2.5078-8.6953-3.9648-13.738-3.9648-5.0469 0-9.7148 1.4453-13.688 3.9297-0.054687 0.023438-0.10156 0.058594-0.14844 0.097657-5.707 3.6289-9.9023 9.4219-11.414 16.223-0.054687 0.11328-0.089844 0.23828-0.085937 0.36719-0.35156 1.6992-0.53906 3.4609-0.53906 5.2617 0 6.0547 2.0859 11.82 5.9062 16.445 0.011719 0.015625 0.023438 0.03125 0.039063 0.046875 0.17969 0.21484 0.35547 0.42969 0.53906 0.63672-0.62891 0.30469-1.2383 0.64844-1.8164 1.0586-2.1445 1.5234-3.707 3.6445-4.543 6.0859-0.007812 0.027343-0.023437 0.054687-0.027344 0.085937-0.20312 0.60938-0.375 1.2344-0.48437 1.8828-0.55469 3.2695 0.19922 6.5625 2.1172 9.2695 1.9219 2.7031 4.7812 4.5 8.0508 5.0547 0.70312 0.11719 1.4062 0.17969 2.1016 0.17969 2.5547 0 5.0391-0.78906 7.1641-2.2969 4.1367-2.9375 5.9258-7.9648 4.9648-12.641 0.62109 0.042969 1.2422 0.074219 1.8633 0.074219 1.8203 0 3.6289-0.19141 5.3906-0.56641-0.30859 0.67969-0.60156 1.3711-0.87891 2.0703-0.070313 0.10156-0.125 0.21484-0.14062 0.34766v0.007813c-0.46875 1.2109-0.89844 2.4453-1.2695 3.7031-0.023438 0.046875-0.054688 0.089844-0.066407 0.14453-0.007812 0.03125 0 0.0625-0.003906 0.09375-1.3945 4.7852-2.0977 9.8984-2.0156 15.195 0 0.035156 0.015625 0.066406 0.023438 0.10156 0.007812 0.050781 0.015625 0.10156 0.03125 0.15234 0.019531 0.050781 0.042969 0.09375 0.066406 0.13672 0.023437 0.042969 0.050781 0.082032 0.082031 0.12109 0.035156 0.039063 0.074219 0.070313 0.11328 0.10156 0.039062 0.03125 0.078124 0.058593 0.12109 0.082031 0.046875 0.023438 0.097657 0.035156 0.15234 0.050781 0.035156 0.007813 0.0625 0.027344 0.097656 0.03125 2.2969 0.29688 4.5742 0.44141 6.8242 0.44141 2.7969 0 5.543-0.23438 8.2227-0.67969 0.011719 0 0.023438 0.007812 0.035156 0.007812 0.019532 0 0.039063 0 0.0625-0.003906 0.054688-0.003906 0.10156-0.027344 0.14844-0.042968 1.3125-0.22266 2.6055-0.50391 3.8789-0.83203 0.11328-0.003906 0.22266-0.03125 0.32031-0.082031zm-15.512-17.742c8.0742 1.3047 14.223 8.3203 14.363 16.398-0.84766 0.21094-1.6992 0.39844-2.5625 0.5625-0.86328-7.7656-5.0156-12.512-12.656-14.477 0.26172-0.83984 0.55078-1.6641 0.85938-2.4805zm33.34 6.1562c-4.8555 4.6289-10.82 7.9453-17.406 9.8281-0.33594-8.5547-6.8086-15.941-15.336-17.484 2.6133-6.2461 6.5508-11.723 11.641-15.977 4.3672-3.6484 9.332-6.2148 14.66-7.6719 0.26953 4.2734 2.0078 8.3633 4.9883 11.598 2.9258 3.1758 6.7305 5.2109 10.801 5.832-2.0469 5.1992-5.1836 9.9102-9.3516 13.879zm9.9141-15.402c-7.9531-1.0547-14.41-8.168-14.789-16.305 0.84375-0.19141 1.6953-0.35547 2.5547-0.49219 1.0859 7.8867 5.3516 12.582 13.004 14.312-0.23047 0.83984-0.48438 1.668-0.76953 2.4844zm2.1289-16.59c0.29297 4.3516-0.039062 8.5703-0.96875 12.57-7.0547-1.5781-10.84-5.7383-11.832-13.008 4.1406-0.49609 8.4375-0.35547 12.801 0.4375zm-32.523 5.8477c-1.3398-3.2891-3.2578-6.1719-5.1289-8.9609-2.2969-3.4297-4.4609-6.6641-4.8594-9.9023-0.027343-0.21094-0.019531-0.41797-0.027343-0.62891 5.1602 1.0078 10.246 2.9922 15.289 5.9844 0.30859 1.5469 0.47266 3.1445 0.47266 4.7773 0 1.8398-0.21484 3.668-0.62109 5.4414-1.7734 0.96094-3.4922 2.0508-5.1328 3.2891zm-17.395-21.824c-0.11719 0-0.23438 0.003906-0.35547 0.003906v-11.184c4.1094 0.13281 7.9609 1.2891 11.312 3.2227-3.2148 3.0273-4.7031 5.8047-5.082 8.4414-1.9492-0.29297-3.9102-0.46094-5.875-0.48438zm-8.0898 0.65234c-0.32813-2.6953-1.8086-5.5352-5.1055-8.6406 3.3398-1.9141 7.1719-3.0586 11.258-3.1914v11.203c-2.0312 0.066407-4.0859 0.27344-6.1523 0.625zm30.234 5.5508c-4.8086-2.6797-9.7227-4.4922-14.699-5.4297 0.35938-2.6055 1.9648-5.1562 4.918-7.8555 4.6445 3.1211 8.1562 7.8047 9.7812 13.289zm-36.75-13.32c3.0312 2.7734 4.6406 5.3867 4.9414 8.0664-4.8633 0.99219-9.8086 2.7656-14.789 5.3086 1.625-5.5273 5.1602-10.242 9.8477-13.371zm-10.363 15.438c5.2227-2.8008 10.324-4.7383 15.336-5.8047-0.011719 0.13672-0.003907 0.27344-0.019531 0.41016-0.39453 3.2383-2.5625 6.4766-4.8594 9.9023-2.7031 4.0391-5.7266 8.5664-6.5781 14.102-2.8125-4.0391-4.3516-8.8281-4.3516-13.84 0-1.6328 0.16406-3.2305 0.47266-4.7734zm3.5273 24.254c1.5977-1.1328 3.4297-1.7969 5.3281-1.9609 0.027344 0.039063 0.0625 0.078125 0.089844 0.11719l2.8164 3.9688c1.1836 1.668 1.793 3.5977 1.7109 5.4258-0.078126 1.7539-0.78516 3.1953-1.9961 4.0547-1.2109 0.85938-2.8008 1.0547-4.4844 0.54688-1.7539-0.52734-3.3711-1.7344-4.5586-3.4062l-2.7305-3.8477c0.75781-1.9609 2.0703-3.6562 3.8242-4.8984zm12.547 17.672c-1.8984 1.3477-4.0898 1.9961-6.2578 1.9961-3.3945 0-6.7422-1.5859-8.8516-4.5586-1.6758-2.3594-2.332-5.2305-1.8477-8.0859 0.007812-0.054687 0.027343-0.10938 0.035156-0.16406l1.9922 2.8047c1.3867 1.957 3.3047 3.3789 5.3945 4.0039 0.76562 0.23047 1.5234 0.34375 2.2539 0.34375 1.3242 0 2.5625-0.37891 3.6055-1.1172 1.6172-1.1484 2.5625-3.0195 2.6602-5.2734 0.097656-2.1797-0.61328-4.457-2.0039-6.4141l-2.2422-3.1602c0.26562 0.023437 0.53516 0.054687 0.80078 0.10156 2.8555 0.48438 5.3477 2.0508 7.0234 4.4102 3.4609 4.8711 2.3086 11.652-2.5625 15.109zm3.8555-16.027c-1.9219-2.7031-4.7812-4.5-8.0508-5.0547-1.9961-0.33984-4-0.18359-5.8711 0.41797-0.25391-0.27344-0.49609-0.55469-0.73438-0.83984 0.39844-5.8984 3.4961-10.543 6.5039-15.035 2.5508-3.8086 5.0195-7.5039 5.168-11.48 2.043-0.35938 4.0703-0.57031 6.0859-0.64063v35.773c-0.51172-0.015625-1.0195-0.046875-1.5273-0.097656-0.375-1.0586-0.89063-2.0898-1.5703-3.0508zm4.6836 3.1406-0.003906-35.809c2.0586 0.007813 4.1016 0.17578 6.1328 0.48828 0.0625 4.0625 2.5742 7.8281 5.1758 11.707 1.9062 2.8477 3.8633 5.7891 5.1445 9.1055-0.10938 0.089843-0.22656 0.17187-0.33594 0.26562-4.4141 3.6914-7.9922 8.2656-10.633 13.445-1.7852 0.47656-3.6211 0.73828-5.4805 0.80078zm7.7383 22.238c-1.9531 0-3.9336-0.13281-5.9258-0.35938-0.007812-4.6602 0.60547-9.1719 1.7812-13.422 7.0742 1.8008 10.762 6.0273 11.531 13.219-2.4102 0.36719-4.8789 0.56641-7.3867 0.56641zm26.996-29.27c0.28906 0.32422 0.26172 0.82812-0.0625 1.1172l-2.3281 2.0781 1.7539 1.9648c0.28906 0.32422 0.26172 0.82812-0.0625 1.1172-0.15234 0.13672-0.33984 0.19922-0.52734 0.19922-0.21875 0-0.43359-0.089843-0.58984-0.26562l-1.7539-1.9648-2.1406 1.9102 1.7539 1.9648c0.28906 0.32422 0.26172 0.82812-0.0625 1.1172-0.15234 0.13672-0.33984 0.19922-0.52734 0.19922-0.21875 0-0.43359-0.089844-0.58984-0.26562l-1.7539-1.9648-2.1406 1.9102 1.7539 1.9648c0.28906 0.32422 0.26172 0.82812-0.0625 1.1172-0.15234 0.13672-0.33984 0.19922-0.52734 0.19922-0.21875 0-0.43359-0.089844-0.58984-0.26563l-1.7539-1.9648-2.1406 1.9102 1.7539 1.9648c0.28906 0.32422 0.26172 0.82812-0.0625 1.1172-0.15234 0.13672-0.33984 0.19922-0.52734 0.19922-0.21875 0-0.43359-0.089844-0.58984-0.26562l-1.7539-1.9648-1.5156 1.3555c-0.15234 0.13672-0.33984 0.19922-0.52734 0.19922-0.21875 0-0.43359-0.089844-0.58984-0.26562-0.28906-0.32422-0.26172-0.82812 0.0625-1.1172l1.5156-1.3555-1.7695-1.9844c-0.28906-0.32422-0.26172-0.82813 0.0625-1.1172s0.82812-0.26172 1.1172 0.0625l1.7695 1.9844 2.1406-1.9102-1.7695-1.9844c-0.28906-0.32422-0.26172-0.82812 0.0625-1.1172 0.32422-0.28906 0.82812-0.26172 1.1172 0.0625l1.7695 1.9844 2.1406-1.9102-1.7695-1.9844c-0.28906-0.32422-0.26172-0.82812 0.0625-1.1172 0.32422-0.28906 0.82812-0.26172 1.1172 0.0625l1.7695 1.9844 2.1406-1.9102-1.7695-1.9844c-0.28906-0.32422-0.26172-0.82812 0.0625-1.1172 0.32422-0.28906 0.82812-0.26172 1.1172 0.0625l1.7695 1.9844 2.3281-2.0781c0.32422-0.28906 0.82812-0.26172 1.1172 0.0625z" fill="#338cc8"/>
</svg>
