<?xml version="1.0" encoding="UTF-8"?>
<svg width="32pt" height="32pt" version="1.1" viewBox="0 0 100 100" xmlns="http://www.w3.org/2000/svg">
 <path d="m71.238 72.426c0.62891-3.3633 1.1094-6.5312 0.48047-9.3047-0.83984-3.6641-3.4844-6.0273-8.0938-7.2305-3.4297-0.89062-7.2188-0.64844-11.578 0.75391-0.4375 0.14062-0.76172 0.48438-0.875 0.92188l-3.5547 13.363c-3.0586 11.477-8.4531 17.578-17.621 19.566 1.1445-0.92969 2.1953-1.9219 3.1484-2.9766 3.8555-4.2344 7.6445-15.562 9.6836-24.91 1.3008-5.957 3.9023-20.426-0.042969-26.16-2.6797-3.9062-7.7695-5.8867-15.133-5.8867-0.14453 0-0.30078 0.003906-0.46094 0.003906-1.4688 0.015625-2.8711 0.17188-4.1914 0.48047 1.9492-1.9297 4.3477-2.9492 7.2305-3.1016 3.8008-0.20312 6.9844 0.91797 10.348 2.1055 2.793 0.98828 5.6953 2.0078 8.9805 2.2266 2.5352 0.16797 5.1016-0.17969 7.8594-1.0586 4.3398-1.3906 14.035-6.6875 17.332-10.344 1.7812-1.9844 2.6016-4.1133 2.5117-6.5117-0.042969-1.0742-0.23438-2.2109-0.58203-3.4414 1.3242 1.293 2.1523 2.8477 2.5 4.6953 0.59375 3.2109-0.22266 6.0977-2.5898 9.082-2.8242 3.5586-5.8867 5.793-9.9102 8.2461-2.5117 1.5352-4.8984 3.1406-6.4102 5.8945-0.90625 1.6562-1.5703 3.5664-1.9375 5.668-0.23438 1.3516 0.125 2.7266 0.98828 3.7773 0.875 1.0508 2.1523 1.6641 3.5195 1.6875 5.1445 0.082032 10.984 0.17578 13.664 4.4375 3.1641 5.0352-1.2383 12.082-5.2656 18.016zm-18.484-54.328c-3.0039 0-5.4375 2.4453-5.4375 5.4453 0 3.0039 2.4336 5.4453 5.4375 5.4453s5.4492-2.4414 5.4492-5.4453c0-3-2.4453-5.4453-5.4492-5.4453zm10.121 29.223c-0.59375-0.011718-1.1328-0.26562-1.5117-0.72266-0.38281-0.45703-0.52734-1.0352-0.41406-1.625 0.3125-1.8164 0.875-3.4531 1.6484-4.8555 1.1992-2.1875 3.1836-3.5195 5.4609-4.9062 4.1602-2.5352 7.543-5.0078 10.605-8.8633 2.8477-3.5859 3.8672-7.2578 3.1289-11.223-0.73828-3.9141-3.1953-6.8867-7.2969-8.8242-0.50391-0.24609-1.1094-0.13281-1.5117 0.25781-0.39062 0.40234-0.49219 1.0078-0.25781 1.5117 1.1992 2.5117 1.8164 4.6016 1.8828 6.3945 0.066406 1.6953-0.51562 3.168-1.8281 4.6289-2.2422 2.4883-8.375 6.1367-12.859 8.2344 0.60547-1.1328 0.94141-2.418 0.94141-3.7852 0-4.4648-3.6328-8.1016-8.1055-8.1016-4.4609 0-8.0938 3.6367-8.0938 8.1016 0 2.2148 0.88672 4.2227 2.332 5.6875-1.8711-0.39844-3.6641-1.0312-5.5391-1.6875-3.4531-1.2188-7.0273-2.4805-11.367-2.2539-5.1914 0.27344-9.2148 2.9297-11.938 7.8984-0.29297 0.51562-0.20312 1.1562 0.21484 1.5742 0.41406 0.41797 1.0547 0.51562 1.5703 0.24219 2.1953-1.168 4.5859-1.7539 7.2969-1.7852 6.668-0.074219 11.164 1.5195 13.375 4.7305 2.2852 3.3359 2.1523 12.566-0.37109 24.09-2.2852 10.48-6.0859 20.445-9.0469 23.691-1.9727 2.1719-4.3828 4.0586-7.1641 5.6211-0.53906 0.30078-0.79688 0.93359-0.62891 1.5273 0.16797 0.57031 0.69531 0.96094 1.2773 0.96094 0.023438 0 0.042969 0 0.066407-0.003906 7.1953-0.35938 12.734-2.4297 16.926-6.3281 3.832-3.5586 6.6133-8.7578 8.5195-15.891l3.3633-12.652c3.5742-1.0547 6.6602-1.2148 9.4062-0.5 7.4883 1.9531 6.9844 6.625 5.4375 14.711-0.3125 1.6523-0.64062 3.3633-0.86328 5.0938-0.078125 0.62109 0.29297 1.2188 0.875 1.4258 0.59375 0.20703 1.2539-0.03125 1.582-0.57031 0.71875-1.1914 1.6484-2.5625 2.6445-4.0117 4.3945-6.4414 10.426-15.262 6.1211-22.105-3.457-5.4883-10.34-5.5977-15.879-5.6875z" fill="#338cc8" fill-rule="evenodd"/>
</svg>
