<?xml version="1.0" encoding="UTF-8"?>
<svg width="100pt" height="100pt" version="1.1" viewBox="0 0 100 100" xmlns="http://www.w3.org/2000/svg">
 <path d="m11.668 13.891c0-1.2305 0.99219-2.2227 2.2227-2.2227h72.219c1.2305 0 2.2227 0.99219 2.2227 2.2227v70h4.7227c1.2266 0 2.2227 0.99219 2.2227 2.2188 0 1.2305-0.99609 2.2227-2.2227 2.2227h-86.109c-1.2266 0-2.2227-0.99219-2.2227-2.2227 0-1.2266 0.99609-2.2188 2.2227-2.2188h4.7227zm4.4414 70h2.7812v-8.0586h-2.7812zm0-12.5h67.781v-55.281h-67.781zm67.781 4.4414h-2.7812v8.0586h2.7812zm-7.2227 8.0586v-8.0586h-2.7773v8.0586zm-7.2227 0v-8.0586h-2.7773v8.0586zm-7.2227 0v-8.0586h-2.7773v8.0586zm-7.2227 0v-8.0586h-2.7773v8.0586zm-7.2227 0v-8.0586h-2.7773v8.0586zm-7.2227 0v-8.0586h-2.7773v8.0586zm-7.2227 0v-8.0586h-2.7773v8.0586zm-7.2227 0v-8.0586h-2.7773v8.0586z" fill="#338cc8" fill-rule="evenodd"/>
 <path d="m34.648 25.922c0.41016-1.1562 1.6797-1.7617 2.8359-1.3477l6.5938 2.3398c1.1562 0.41016 1.7617 1.6797 1.3477 2.8359-0.41016 1.1562-1.6797 1.7617-2.8359 1.3516l-6.5938-2.3398c-1.1562-0.41016-1.7617-1.6836-1.3477-2.8398zm-4.25 4.4766c0.86719-0.86719 2.2734-0.86719 3.1406 0l5.293 5.2891c0.86719 0.87109 0.86719 2.2773 0 3.1445-0.86719 0.86719-2.2734 0.86719-3.1445 0l-5.2891-5.2891c-0.86719-0.87109-0.86719-2.2773 0-3.1445zm-4.4766 4.25c1.1562-0.41406 2.4297 0.19141 2.8398 1.3477l2.3398 6.5938c0.41016 1.1562-0.19531 2.4258-1.3516 2.8359-1.1562 0.41406-2.4258-0.19141-2.8359-1.3477l-2.3398-6.5938c-0.41406-1.1562 0.19141-2.4258 1.3477-2.8359z" fill="#338cc8" fill-rule="evenodd"/>
 <path d="m17.473 25.516c-0.46875-0.86328-0.30859-1.9336 0.38281-2.625l4.9492-4.9492c0.69531-0.69531 1.7617-0.85156 2.625-0.38672l7.1523 3.8516c0.61719 0.33203 1.043 0.9375 1.1445 1.6328 0.10156 0.69531-0.13281 1.3984-0.62891 1.8945l-8.25 8.25c-0.49609 0.49609-1.1992 0.72656-1.8945 0.625-0.69531-0.10156-1.3008-0.52734-1.6328-1.1445zm4.6953-0.65234 1.6484 3.0625 4.0273-4.0234-3.0625-1.6523z" fill="#338cc8" fill-rule="evenodd"/>
 <path d="m65.352 25.922c-0.41016-1.1562-1.6797-1.7617-2.8359-1.3477l-6.5938 2.3398c-1.1562 0.41016-1.7617 1.6797-1.3477 2.8359 0.41016 1.1562 1.6797 1.7617 2.8359 1.3516l6.5938-2.3398c1.1562-0.41016 1.7617-1.6836 1.3477-2.8398zm4.25 4.4766c-0.86719-0.86719-2.2734-0.86719-3.1445 0l-5.2891 5.2891c-0.86719 0.87109-0.86719 2.2773 0 3.1445 0.86719 0.86719 2.2734 0.86719 3.1445 0l5.2891-5.2891c0.86719-0.87109 0.86719-2.2773 0-3.1445zm4.4766 4.25c-1.1562-0.41406-2.4297 0.19141-2.8398 1.3477l-2.3398 6.5938c-0.41016 1.1562 0.19531 2.4258 1.3516 2.8359 1.1562 0.41406 2.4258-0.19141 2.8359-1.3477l2.3438-6.5938c0.41016-1.1562-0.19531-2.4258-1.3516-2.8359z" fill="#338cc8" fill-rule="evenodd"/>
 <path d="m82.527 25.516c0.46875-0.86328 0.30859-1.9336-0.38281-2.625l-4.9492-4.9492c-0.69531-0.69531-1.7617-0.85156-2.625-0.38672l-7.1523 3.8516c-0.61719 0.33203-1.043 0.9375-1.1445 1.6328-0.10156 0.69531 0.13281 1.3984 0.62891 1.8945l8.25 8.25c0.49609 0.49609 1.1992 0.72656 1.8945 0.625 0.69141-0.10156 1.3008-0.52734 1.6328-1.1445zm-4.6953-0.65234-1.6484 3.0625-4.0273-4.0234 3.0625-1.6523z" fill="#338cc8" fill-rule="evenodd"/>
 <path d="m52.777 46.109c0 5.1875-7.7773 5.1875-7.7773 0 0-5.1836 7.7773-5.1836 7.7773 0z" fill="#338cc8"/>
 <path d="m49.453 45.711c0.68359 0.62109 0.73438 1.6719 0.11328 2.3555l-5.1211 5.6328v19.91c0 0.92188-0.74609 1.668-1.668 1.668s-1.668-0.74609-1.668-1.668v-16.242l-2.6523 2.9219c-0.62109 0.67969-1.6758 0.73047-2.3555 0.10938-0.67969-0.61719-0.73047-1.6719-0.11328-2.3516l11.113-12.223c0.61719-0.68359 1.6719-0.73047 2.3516-0.11328z" fill="#338cc8" fill-rule="evenodd"/>
</svg>
