<?xml version="1.0" encoding="UTF-8"?>
<svg width="100pt" height="100pt" version="1.1" viewBox="0 0 100 100" xmlns="http://www.w3.org/2000/svg">
 <path d="m90.234 96.348c0.29688-0.33594 0.43359-0.78516 0.37891-1.2305l-6.2383-49.902v-12.402c0-0.03125-0.015625-0.054688-0.015625-0.082031-0.011719-0.13281-0.035156-0.26172-0.078125-0.38672-0.015625-0.058594-0.03125-0.11719-0.050781-0.17188-0.078125-0.17188-0.18359-0.32812-0.3125-0.46094l-0.011719-0.011719c-0.125-0.12109-0.26953-0.22266-0.42578-0.29688l-31.918-15.203v-2.7344l8.5117-4.2461c0.5625-0.28125 0.90234-0.87891 0.85938-1.5078-0.046875-0.62891-0.46484-1.1719-1.0664-1.3711l-9.375-3.125c-0.14844-0.050782-0.30078-0.074219-0.45703-0.074219-0.011718-0.007813-0.023437-0.011719-0.035156-0.015625-0.015625 0-0.03125 0.007812-0.046875 0.007812-0.19141 0.003907-0.37891 0.042969-0.55469 0.11328l-0.023438 0.011718c-0.10156 0.042969-0.19922 0.097657-0.28906 0.15625-0.046876 0.042969-0.09375 0.085938-0.13672 0.12891-0.027344 0.023437-0.054688 0.046875-0.078125 0.070312-0.11719 0.125-0.21484 0.26953-0.28906 0.42969-0.011719 0.03125-0.023437 0.0625-0.035156 0.09375-0.070313 0.17578-0.10547 0.36328-0.10938 0.55078v11.512l-31.922 15.207c-0.15625 0.074219-0.30078 0.17578-0.42188 0.29688l-0.011719 0.011719h-0.003906c-0.12891 0.13281-0.23438 0.28906-0.3125 0.46094-0.019531 0.054688-0.035156 0.11328-0.046875 0.17188-0.042969 0.125-0.070312 0.25391-0.078125 0.38672 0 0.027344-0.015625 0.050781-0.015625 0.082031v12.402l-6.2383 49.898c-0.054688 0.44531 0.082031 0.89453 0.37891 1.2305 0.29688 0.33594 0.72266 0.52734 1.1719 0.52734h78.125c0.44922 0 0.875-0.19141 1.1719-0.52734zm-71.484-61.973h62.5v9.375h-62.5zm32.812-24.402v-3.1172l3.7422 1.25zm-1.5625 8.9453 25.898 12.332h-51.797zm3.9492 35.656 14.723 14.746-2.2188 19.281zm-20.402 34.027-2.2188-19.281 14.723-14.746zm1.4414 5.1484 14.98-40.781 14.98 40.781zm34.016 0 2.8594-24.82c0.054688-0.47656-0.10938-0.94531-0.44531-1.2852l-20.281-20.312h0.003906c-0.19141-0.17969-0.42578-0.30859-0.68359-0.375l-0.046875-0.011719-0.078125-0.023437-0.027343-0.007813c-0.074219-0.011718-0.15234-0.019531-0.22656-0.023437-0.039063 0-0.070313-0.015625-0.10938-0.015625s-0.058594 0.011719-0.089844 0.015625h-0.003906c-0.058594 0.003906-0.12109 0.011719-0.17969 0.023437l-0.027343 0.007813h-0.003907c-0.089843 0.019531-0.18359 0.042969-0.27344 0.078125-0.0625 0.027344-0.12891 0.058594-0.1875 0.09375-0.085937 0.046875-0.16406 0.10547-0.23828 0.16797-0.035156 0.019531-0.070313 0.046875-0.10547 0.070312l-20.281 20.312h0.003906c-0.33594 0.33984-0.5 0.80859-0.44531 1.2852l2.8594 24.82h-18.289l5.8594-46.875h62.867l5.8594 46.875z" fill="#338cc8"/>
</svg>
