<?xml version="1.0" encoding="UTF-8"?>
<svg width="100pt" height="100pt" version="1.1" viewBox="0 0 100 100" xmlns="http://www.w3.org/2000/svg">
 <path d="m68.48 54.699c3.5781 0 6.4883-2.9102 6.4883-6.4883 0-3.5781-2.9102-6.4883-6.4883-6.4883s-6.4883 2.9102-6.4883 6.4883c0 3.5781 2.9102 6.4883 6.4883 6.4883zm0-11.43c2.7305 0 4.9492 2.2188 4.9492 4.9492s-2.2188 4.9492-4.9492 4.9492-4.9492-2.2188-4.9492-4.9492 2.2188-4.9492 4.9492-4.9492z" fill="#338cc8"/>
 <path d="m77.141 57.93c-1.2812 0.69141-2.1992 1.1914-4.3203 1.1914-2.1211 0-3.0391-0.5-4.3203-1.1914-1.4492-0.78125-3.2383-1.7383-6.3789-1.8711l-0.16016-4.6719-14.91-16.359-13.852 5.0195c-1.1484 0.42188-1.9297 1.5195-1.9297 2.75 0 0.33984 0.058594 0.67969 0.17188 1 0.55078 1.5195 2.2305 2.3008 3.7383 1.75l10.129-3.6719 5.6289 6.3281-26.891 10.34c-0.39844-0.17969-0.78125-0.37891-1.2109-0.60938-1.5586-0.83984-3.5-1.8906-7.0898-1.8906h-0.76953v5.8516h0.76953c2.1094 0 3.0391 0.5 4.3203 1.1914 1.5586 0.83984 3.5 1.8906 7.0898 1.8906s5.5312-1.0508 7.0898-1.8906c1.2812-0.69141 2.1992-1.1914 4.3203-1.1914s3.0391 0.5 4.3203 1.1914c1.5586 0.83984 3.5 1.8906 7.0898 1.8906 3.5898 0 5.5312-1.0508 7.0898-1.8906 1.2812-0.69141 2.1992-1.1914 4.3203-1.1914 2.1211 0 3.0391 0.5 4.3203 1.1914 1.5586 0.83984 3.5 1.8906 7.0898 1.8906s5.5312-1.0508 7.0898-1.8906c1.2812-0.69141 2.1992-1.1914 4.3203-1.1914h0.76953v-5.8516h-0.76953c-3.5898 0-5.5312 1.0508-7.0898 1.8906zm-23.551-9.0781-7.8008-8.7695-11.109 4.0312c-0.71875 0.26172-1.5117-0.10938-1.7695-0.82812-0.058594-0.14844-0.078125-0.30859-0.078125-0.46875 0-0.57812 0.37109-1.1016 0.91016-1.3008l12.879-4.6719 13.828 15.18 0.14062 4.0586c-3.0703 0.14844-4.8398 1.0898-6.2695 1.8711-1.2812 0.69141-2.1992 1.1914-4.3203 1.1914s-3.0391-0.5-4.3203-1.1914c-1.5586-0.83984-3.5-1.8906-7.0898-1.8906s-5.5312 1.0508-7.0898 1.8906c-1.2812 0.69141-2.1992 1.1914-4.3203 1.1914h-0.32031l26.719-10.27zm29.871 11.527c-1.9883 0.12109-3.0586 0.69141-4.2812 1.3516-1.5508 0.83984-3.1602 1.7109-6.3594 1.7109-3.1992 0-4.8086-0.87109-6.3594-1.7109-1.3711-0.73828-2.5391-1.3711-5.0508-1.3711-2.5117 0-3.6797 0.64062-5.0508 1.3711-1.5508 0.83984-3.1602 1.6992-6.3594 1.6992s-4.8086-0.87109-6.3594-1.7109c-1.3711-0.73828-2.5391-1.3711-5.0508-1.3711-2.5117 0-3.6797 0.64062-5.0508 1.3711-1.5508 0.83984-3.1602 1.6992-6.3594 1.6992-3.1992 0-4.8086-0.87109-6.3594-1.7109-1.2188-0.66016-2.2891-1.2305-4.2812-1.3516v-2.7695c2.6992 0.12891 4.1719 0.92187 5.5898 1.6914 1.3711 0.73828 2.5391 1.3711 5.0508 1.3711 2.5117 0 3.6797-0.64063 5.0508-1.3711 1.5508-0.83984 3.1602-1.6992 6.3594-1.6992 3.1992 0 4.8086 0.87109 6.3594 1.7109 1.3711 0.73828 2.5391 1.3711 5.0508 1.3711s3.6797-0.64062 5.0508-1.3711c1.5508-0.83984 3.1602-1.6992 6.3594-1.6992 3.1992 0 4.8086 0.87109 6.3594 1.7109 1.3711 0.73828 2.5391 1.3711 5.0508 1.3711 2.5117 0 3.6797-0.64062 5.0508-1.3711 1.4219-0.76953 2.8906-1.5586 5.5898-1.6914z" fill="#338cc8"/>
</svg>

