<?xml version="1.0" encoding="UTF-8"?>
<svg width="100pt" height="100pt" version="1.1" viewBox="0 0 100 100" xmlns="http://www.w3.org/2000/svg">
 <path d="m27.266 70.016h-6.0938c-4.3516 0.003906-8.5195 1.7344-11.598 4.8086-3.0742 3.0781-4.8047 7.2461-4.8086 11.598 0 4.7461 3.8477 8.5938 8.5938 8.5938h21.719c4.7461 0 8.5938-3.8477 8.5938-8.5938-0.003906-4.3516-1.7344-8.5195-4.8086-11.598-3.0781-3.0742-7.2461-4.8047-11.598-4.8086zm7.8125 21.875h-21.719c-3.0195 0-5.4688-2.4492-5.4688-5.4688 0.007813-7.332 5.9492-13.273 13.281-13.281h6.0938c7.332 0.007813 13.273 5.9492 13.281 13.281 0 1.4492-0.57422 2.8398-1.6016 3.8672-1.0273 1.0273-2.418 1.6016-3.8672 1.6016zm-1.3438-34.234c-0.007813-3.8477-2.3281-7.3125-5.8867-8.7812-3.5547-1.4688-7.6445-0.64844-10.363 2.0742-2.7188 2.7227-3.5273 6.8125-2.0547 10.367 1.4727 3.5547 4.9414 5.8711 8.7891 5.8711 2.5273 0 4.9492-1.0039 6.7344-2.793 1.7852-1.7891 2.7852-4.2109 2.7812-6.7383zm-15.906 0c0.007813-2.582 1.5664-4.9102 3.957-5.8945 2.3867-0.98438 5.1328-0.43359 6.957 1.3984 1.8242 1.8281 2.3711 4.5742 1.3789 6.9609-0.98828 2.3867-3.3203 3.9414-5.9023 3.9414-1.6992 0-3.3242-0.67578-4.5234-1.8789-1.1992-1.1992-1.8711-2.8281-1.8672-4.5273zm60.938 12.359h-6.0938c-4.3516 0.003906-8.5195 1.7344-11.598 4.8086-3.0742 3.0781-4.8047 7.2461-4.8086 11.598 0 4.7461 3.8477 8.5938 8.5938 8.5938h21.719c4.7461 0 8.5938-3.8477 8.5938-8.5938-0.003906-4.3398-1.7266-8.5-4.7891-11.574-3.0625-3.0742-7.2148-4.8125-11.555-4.832zm7.8125 21.875h-21.656c-3.0195 0-5.4688-2.4492-5.4688-5.4688 0.007813-7.332 5.9492-13.273 13.281-13.281h6.0938c7.332 0.007813 13.273 5.9492 13.281 13.281 0 3.0195-2.4492 5.4688-5.4688 5.4688zm-20.312-34.234c0 3.8477 2.3203 7.3203 5.875 8.793 3.5547 1.4727 7.6484 0.65625 10.371-2.0625 2.7188-2.7227 3.5352-6.8164 2.0625-10.371-1.4727-3.5547-4.9453-5.875-8.793-5.875-5.2539 0-9.5156 4.2617-9.5156 9.5156zm15.906 0c0 2.5859-1.5586 4.9141-3.9453 5.9023-2.3867 0.99219-5.1367 0.44531-6.9648-1.3828s-2.375-4.5781-1.3828-6.9648c0.98828-2.3867 3.3164-3.9453 5.9023-3.9453 3.5312 0 6.3906 2.8594 6.3906 6.3906zm-12.703-15.625 2.5 1.4062c0.21875 0.11328 0.45703 0.17188 0.70312 0.17188 0.34375 0 0.67969-0.11719 0.95312-0.32812 0.47656-0.36719 0.70312-0.97266 0.57812-1.5625-0.25781-1.3633-0.42578-2.7422-0.5-4.125 4.0312-0.6875 6.4688-4.1094 6.4688-9.2656v-4.8906c-0.12891-5.2891-4.5078-9.4805-9.7969-9.375h-8.8594c-1.543-5.375-6.4883-9.0547-12.078-8.9844h-20.531c-6.7422-0.15625-12.34 5.1797-12.5 11.922v6.6719c0 6.7188 3.25 11.125 8.5781 11.828-0.0625 2.0117-0.29297 4.0117-0.6875 5.9844-0.12109 0.59375 0.10938 1.1992 0.59375 1.5625 0.26953 0.20703 0.59766 0.32422 0.9375 0.32812 0.24609 0 0.48438-0.058594 0.70312-0.17188l3.3281-1.8594c3.0156-1.7031 9.1094-5.1406 10.422-5.75h8.1562c1.793 1.4883 4.0469 2.3008 6.375 2.2969h6.7969c1.1719 0.4375 5.5781 2.9531 7.8594 4.2031zm-29.438-9.6562c-0.59375 0-0.76562 0-11.672 6.1562l-0.46875 0.25c0.19922-1.6328 0.27734-3.2773 0.23438-4.9219 0-0.41406-0.16406-0.8125-0.45703-1.1055-0.29297-0.29297-0.69141-0.45703-1.1055-0.45703-6.0781 0-7-5.5156-7-8.7969v-6.5938c0.16016-5.0156 4.3594-8.9531 9.375-8.7969h20.5c2.4102-0.078125 4.7539 0.80078 6.5117 2.4531 1.7617 1.6484 2.7891 3.9336 2.8633 6.3438v6.6719c-0.16016 5.0156-4.3594 8.9531-9.375 8.7969zm14.141 2.2344c4.5977-1.7383 7.668-6.1133 7.7344-11.031v-6.4844h8.4062c3.5625-0.10547 6.543 2.6875 6.6719 6.25v5.0312c0 2.3438-0.64062 6.25-4.8906 6.25-0.83203 0-1.5195 0.65234-1.5625 1.4844-0.039062 1.0156-0.007812 2.0352 0.09375 3.0469-8.0469-4.5312-8.1562-4.5312-8.7188-4.5312h-7.0469c-0.17188 0.046875-0.45312 0-0.6875-0.015625z" fill="#338cc8"/>
</svg>
