<?xml version="1.0" encoding="UTF-8"?>
<svg width="100pt" height="100pt" version="1.1" viewBox="0 0 100 100" xmlns="http://www.w3.org/2000/svg">
 <path d="m88.961 58.41h-13.551c-2.5781 0-4.8008 0.92188-6.6094 2.7305l-9.5703 9.5391h-4.1992c-3.5781 0-6.4883 2.9219-6.4883 6.5195 0 3.6016 2.9102 6.5195 6.4883 6.5195h9.7812c0.39844 0 0.78125-0.16016 1.0586-0.44141l4.7812-4.7812v12.031c0 0.82812 0.67188 1.5 1.5 1.5h14.859c1.1719 1.1016 2.7383 1.7891 4.4688 1.7891 3.5898 0 6.5195-2.9219 6.5195-6.5195v-19.848c0-4.9883-4.0586-9.0391-9.0391-9.0391zm6.0391 28.879c0 1.9102-1.6094 3.5195-3.5195 3.5195-1.9102 0-3.5195-1.6094-3.5195-3.5195v-15.879c0-0.82812-0.67188-1.5-1.5-1.5-0.82813 0-1.5 0.67188-1.5 1.5v15.871c0 0.60156 0.089843 1.1797 0.23828 1.7305h-11.551v-14.141c0-0.60938-0.37109-1.1484-0.92969-1.3906-0.55859-0.23047-1.2109-0.10156-1.6289 0.32812l-6.8984 6.8984h-9.1602c-1.9219 0-3.4883-1.5781-3.4883-3.5195s1.5703-3.5195 3.4883-3.5195h4.8203c0.39844 0 0.78125-0.16016 1.0586-0.44141l10.012-9.9805c1.25-1.25 2.7188-1.8594 4.4883-1.8594h13.551c3.3281 0 6.0391 2.7109 6.0391 6.0391zm-49.762-44.469c-2.9414-1.6914-6.7109-0.69141-8.3984 2.25l-6.6406 11.449c-0.69922 1.2188-1.8516 1.8906-3.2383 1.8906h-14.961c-5.5195 0-10 4.4883-10 10v18.879c0 3.5898 2.9219 6.5195 6.5195 6.5195 1.7188 0 3.2891-0.67969 4.4492-1.7891h18.43c0.82812 0 1.5-0.67188 1.5-1.5v-12.27c0-1.2109 0.25-2.1484 0.85156-3.1602 2.6211-4.5586 4.75-8.25 6.8711-11.93 2.1289-3.6914 4.25-7.3711 6.8711-11.922 0.82812-1.3984 1.0508-3.0508 0.62891-4.6406-0.42969-1.6094-1.4492-2.9492-2.8828-3.7773zm-0.34766 6.8984c-2.6211 4.5586-4.75 8.25-6.8711 11.93-2.1289 3.6914-4.25 7.3711-6.8711 11.922-0.85938 1.4492-1.2617 2.9414-1.2617 4.6719v10.77h-15.117c0.14844-0.55078 0.23828-1.1289 0.23828-1.7305l0.003907-15.871c0-0.82812-0.67188-1.5-1.5-1.5s-1.5 0.67188-1.5 1.5v15.871c0 1.9414-1.5586 3.5195-3.4883 3.5195-1.9141 0.007813-3.5234-1.6094-3.5234-3.5117v-18.879c0-3.8594 3.1406-7 7-7h14.969c2.4688 0 4.5898-1.2305 5.8281-3.3789l6.6289-11.449c0.87109-1.5 2.7891-2.0195 4.3008-1.1484 0.73047 0.42188 1.2617 1.1094 1.4805 1.9414 0.22266 0.78516 0.10156 1.625-0.31641 2.3438zm-24.949 7.4297c5.9102 0 10.711-4.8086 10.711-10.711 0-5.9102-4.8086-10.711-10.711-10.711-5.9102 0-10.711 4.8086-10.711 10.711 0 5.9141 4.8008 10.711 10.711 10.711zm0-18.418c4.25 0 7.7109 3.4609 7.7109 7.7109s-3.4609 7.7109-7.7109 7.7109-7.7109-3.4609-7.7109-7.7109 3.4609-7.7109 7.7109-7.7109zm52.328 7.7109c0 5.9102 4.8086 10.711 10.711 10.711 5.9102 0 10.711-4.8086 10.711-10.711 0-5.9102-4.8086-10.711-10.711-10.711-5.9102 0-10.711 4.8086-10.711 10.711zm18.422 0c0 4.25-3.4609 7.7109-7.7109 7.7109s-7.7109-3.4609-7.7109-7.7109 3.4609-7.7109 7.7109-7.7109 7.7109 3.4609 7.7109 7.7109zm-67.941-19.223h0.48047v3.6602c0 0.60938 0.37109 1.1484 0.92969 1.3906 0.19141 0.078125 0.37891 0.10938 0.57031 0.10938 0.39062 0 0.76953-0.14844 1.0586-0.44141l4.7188-4.7188h13.27c1.7188 0 3.1211-1.3984 3.1211-3.1211v-14.816c0-1.6992-1.3984-3.0898-3.1211-3.0898h-21.027c-1.7188 0-3.1211 1.3789-3.1211 3.0898v14.82c0 1.7188 1.4023 3.1172 3.1211 3.1172zm-0.12109-17.938c0-0.03125 0.050782-0.089844 0.12109-0.089844h21.031c0.058594 0 0.12109 0.050782 0.12109 0.089844v14.82c0 0.050782-0.058594 0.12109-0.12109 0.12109l-13.891-0.003906c-0.39844 0-0.78125 0.16016-1.0586 0.44141l-2.6016 2.6016v-1.5391c0-0.82812-0.67188-1.5-1.5-1.5h-1.9805c-0.050781 0-0.12109-0.058594-0.12109-0.12109zm2.3594 4.3398c0-0.82812 0.67188-1.5 1.5-1.5h13.551c0.82813 0 1.5 0.67188 1.5 1.5s-0.67187 1.5-1.5 1.5h-13.551c-0.82812 0-1.5-0.67188-1.5-1.5zm0 6.1484c0-0.82812 0.67188-1.5 1.5-1.5h6.7695c0.82813 0 1.5 0.67188 1.5 1.5s-0.67187 1.5-1.5 1.5h-6.7695c-0.82812 0-1.5-0.66797-1.5-1.5zm34.152 7.4492h13.27l4.7188 4.7188c0.28906 0.28906 0.67188 0.44141 1.0586 0.44141 0.19141 0 0.39062-0.039062 0.57031-0.10938 0.55859-0.23047 0.92969-0.78125 0.92969-1.3906v-3.6602h0.51172c1.6992 0 3.0898-1.3984 3.0898-3.1211v-14.816c0-1.6992-1.3789-3.0898-3.0898-3.0898h-21.059c-1.6992 0-3.0898 1.3789-3.0898 3.0898v14.82c0 1.7188 1.3906 3.1172 3.0898 3.1172zm-0.089844-17.938c0-0.050781 0.039063-0.089844 0.089844-0.089844h21.059c0.050781 0 0.089843 0.039063 0.089843 0.089844v14.82c0 0.058594-0.050781 0.12109-0.089843 0.12109h-2.0117c-0.82812 0-1.5 0.67188-1.5 1.5v1.5391l-2.6016-2.6016c-0.28125-0.28125-0.66016-0.44141-1.0586-0.44141h-13.887c-0.03125 0-0.089844-0.050781-0.089844-0.12109zm2.3281 4.3398c0-0.82812 0.67188-1.5 1.5-1.5h13.578c0.82812 0 1.5 0.67188 1.5 1.5s-0.67188 1.5-1.5 1.5h-13.578c-0.82812 0-1.5-0.67188-1.5-1.5zm16.582 6.1484c0 0.82812-0.67188 1.5-1.5 1.5h-6.8008c-0.82812 0-1.5-0.67188-1.5-1.5s0.67188-1.5 1.5-1.5h6.8008c0.82812 0 1.5 0.67188 1.5 1.5z" fill="#ffffff"/>
</svg>
