<?xml version="1.0" encoding="UTF-8"?>
<svg width="100pt" height="100pt" version="1.1" viewBox="0 0 100 100" xmlns="http://www.w3.org/2000/svg">
 <path d="m11 10c-0.55078 0-1 0.44922-1 1v0.45312c0 0.94922 0.125 1.8867 0.375 2.7891 0.125 0.44141 0.52344 0.73437 0.96484 0.73437 0.089844 0 0.17969-0.011718 0.26562-0.035156 0.53125-0.14844 0.84375-0.69922 0.69531-1.2305-0.20312-0.72656-0.30469-1.4844-0.30469-2.2539v-0.45312c0-0.55078-0.44922-1-1-1z" fill="#338cc8"/>
 <path d="m42.055 55.73c0.15625 0.085937 0.32031 0.125 0.48437 0.125 0.35156 0 0.69141-0.18359 0.875-0.51562 0.26953-0.48438 0.09375-1.0938-0.38672-1.3594-1.5-0.83594-2.6836-2.2344-3.3281-3.9375-0.19531-0.51562-0.77344-0.77734-1.2891-0.58203-0.51562 0.19531-0.77734 0.77344-0.58203 1.2891 0.8125 2.1445 2.3125 3.9141 4.2266 4.9766z" fill="#338cc8"/>
 <path d="m38.945 74.641h5.9648c0.55078 0 1-0.44922 1-1s-0.44922-1-1-1h-5.9648c-0.55078 0-1 0.44922-1 1s0.44922 1 1 1z" fill="#338cc8"/>
 <path d="m46.801 38.633h3.4141c0.96875 0 1.9219-0.16406 2.832-0.48828 0.51953-0.18359 0.79297-0.75781 0.60938-1.2773-0.18359-0.51953-0.75391-0.79297-1.2773-0.60938-0.69531 0.24609-1.4219 0.37109-2.1641 0.37109h-3.4141c-0.55078 0-1 0.44922-1 1 0 0.55078 0.44922 1 1 1z" fill="#338cc8"/>
 <path d="m73.727 73.641c0 0.55078 0.44922 1 1 1h5.9648c0.55078 0 1-0.44922 1-1s-0.44922-1-1-1h-5.9648c-0.55078 0-1 0.44922-1 1z" fill="#338cc8"/>
 <path d="m87.891 66.273c-0.28906 1.7891-1.1523 3.418-2.4375 4.5859-0.40625 0.37109-0.4375 1.0039-0.066406 1.4141 0.19531 0.21484 0.46875 0.32812 0.73828 0.32812 0.24219 0 0.48047-0.085937 0.67188-0.26172 1.6133-1.4727 2.7031-3.5117 3.0625-5.7461 0.085937-0.54688-0.28125-1.0586-0.82812-1.1484-0.55469-0.089843-1.0586 0.28125-1.1484 0.82813z" fill="#338cc8"/>
 <path d="m61.797 73.641c0 0.55078 0.44922 1 1 1h5.9648c0.55078 0 1-0.44922 1-1s-0.44922-1-1-1h-5.9648c-0.55078 0-1 0.44922-1 1z" fill="#338cc8"/>
 <path d="m84.434 55.555c-0.50391-0.22656-1.0977 0-1.3203 0.50391-0.22656 0.50391 0 1.0938 0.50391 1.3203 1.5625 0.69922 2.8477 1.9961 3.6172 3.6484 0.17188 0.36328 0.53125 0.57812 0.90625 0.57812 0.14062 0 0.28516-0.03125 0.42188-0.09375 0.5-0.23438 0.71875-0.82812 0.48438-1.3281-0.97266-2.0898-2.6133-3.7344-4.6133-4.6289z" fill="#338cc8"/>
 <path d="m44.203 21.18c0.55078 0 1-0.44922 1-1 0-0.55078-0.44922-1-1-1h-5.9648c-0.55078 0-1 0.44922-1 1 0 0.55078 0.44922 1 1 1z" fill="#338cc8"/>
 <path d="m21.957 75.914c0.44531-0.32422 0.54688-0.94922 0.22266-1.3984-0.32422-0.44531-0.94922-0.54688-1.3984-0.22266-1.7695 1.2812-3.0664 3.2031-3.6484 5.4023-0.14062 0.53516 0.17578 1.082 0.71094 1.2227 0.085938 0.023437 0.17188 0.035156 0.25781 0.035156 0.44141 0 0.84766-0.29688 0.96484-0.74609 0.46484-1.7578 1.4922-3.2812 2.8906-4.293z" fill="#338cc8"/>
 <path d="m38.148 45.5c0.066406 0.011719 0.12891 0.019531 0.19531 0.019531 0.46875 0 0.88672-0.32812 0.98047-0.80469 0.35156-1.7773 1.2734-3.375 2.5977-4.4883 0.42188-0.35547 0.47656-0.98828 0.12109-1.4102s-0.98828-0.47656-1.4102-0.12109c-1.6719 1.4062-2.832 3.4062-3.2695 5.6328-0.10547 0.54297 0.24609 1.0664 0.78906 1.1758z" fill="#338cc8"/>
 <path d="m66.23 54.809h-5.9648c-0.55078 0-1 0.44922-1 1 0 0.55078 0.44922 1 1 1h5.9648c0.55078 0 1-0.44922 1-1 0-0.55078-0.44922-1-1-1z" fill="#338cc8"/>
 <path d="m78.156 54.809h-5.9648c-0.55078 0-1 0.44922-1 1 0 0.55078 0.44922 1 1 1h5.9648c0.55078 0 1-0.44922 1-1 0-0.55078-0.44922-1-1-1z" fill="#338cc8"/>
 <path d="m59.25 28.906c0-0.48047-0.03125-0.96094-0.097656-1.4297-0.074219-0.54687-0.58203-0.92969-1.125-0.85547-0.54688 0.074218-0.92969 0.57812-0.85547 1.125 0.050781 0.37891 0.078125 0.76953 0.078125 1.1602 0 1.4102-0.34766 2.7891-1.0117 3.9922-0.26562 0.48437-0.089843 1.0938 0.39453 1.3594 0.15234 0.085938 0.32031 0.125 0.48047 0.125 0.35156 0 0.69531-0.1875 0.875-0.51562 0.82422-1.4961 1.2578-3.207 1.2578-4.957z" fill="#338cc8"/>
 <path d="m26.02 73.641c0 0.55078 0.44922 1 1 1h5.9648c0.55078 0 1-0.44922 1-1s-0.44922-1-1-1h-5.9648c-0.55078 0-1 0.44922-1 1z" fill="#338cc8"/>
 <path d="m19.035 19.18c-1.3438 0-2.6523-0.41797-3.7812-1.2109-0.45312-0.32031-1.0781-0.20703-1.3945 0.24219-0.31641 0.45312-0.20703 1.0742 0.24219 1.3945 1.4688 1.0312 3.1719 1.5742 4.9297 1.5742h1.3164c0.55078 0 1-0.44922 1-1 0-0.55078-0.44922-1-1-1h-1.3164z" fill="#338cc8"/>
 <path d="m50.871 74.641h5.9648c0.55078 0 1-0.44922 1-1s-0.44922-1-1-1h-5.9648c-0.55078 0-1 0.44922-1 1s0.44922 1 1 1z" fill="#338cc8"/>
 <path d="m48.34 56.809h5.9648c0.55078 0 1-0.44922 1-1 0-0.55078-0.44922-1-1-1h-5.9648c-0.55078 0-1 0.44922-1 1 0 0.55078 0.44922 1 1 1z" fill="#338cc8"/>
 <path d="m54.852 23.098c0.19531 0.1875 0.44531 0.28125 0.69531 0.28125 0.26172 0 0.52344-0.10156 0.71875-0.30469 0.38281-0.39844 0.37109-1.0312-0.027344-1.4141-1.6562-1.5977-3.7969-2.4766-6.0234-2.4766h-0.050782c-0.55078 0-0.97656 0.44922-0.97656 1 0 0.55078 0.47266 1 1.0234 1 1.707 0 3.3555 0.67969 4.6367 1.918z" fill="#338cc8"/>
 <path d="m32.277 19.18h-5.9648c-0.55078 0-1 0.44922-1 1 0 0.55078 0.44922 1 1 1h5.9648c0.55078 0 1-0.44922 1-1 0-0.55078-0.44922-1-1-1z" fill="#338cc8"/>
 <path d="m17.793 85c-0.55078 0-1 0.44922-1 1v3c0 0.55078 0.44922 1 1 1s1-0.44922 1-1v-3c0-0.55078-0.44922-1-1-1z" fill="#338cc8"/>
 <path d="m12.621 49.402c-0.95312 2.332-0.22656 5.0664 1.8906 6.6055 1.7734 1.2891 4.0391 1.375 5.8633 0.41406v7.7031c0 0.55078 0.44922 1 1 1s1-0.44922 1-1v-7.7031c0.80469 0.42188 1.6875 0.65625 2.5859 0.65625 1.1367 0 2.2852-0.34766 3.2734-1.0703 2.1172-1.5391 2.8398-4.2734 1.8906-6.6055 2.1406-1.3281 3.1602-3.9688 2.3516-6.4531-0.80859-2.4883-3.1953-4.0312-5.6953-3.8398-0.60156-2.4453-2.793-4.2344-5.4102-4.2344-2.6133 0-4.8086 1.7852-5.4102 4.2344-2.5117-0.19141-4.8867 1.3516-5.6953 3.8398s0.21094 5.125 2.3516 6.4531zm-0.44922-5.8398c0.59375-1.8281 2.5117-2.8516 4.3633-2.3359 0.29297 0.082032 0.60938 0.027344 0.85938-0.15234 0.24609-0.17969 0.39844-0.46094 0.41016-0.76953 0.078124-1.9219 1.6484-3.4297 3.5703-3.4297s3.4883 1.5078 3.5703 3.4297c0.011719 0.30469 0.16406 0.58984 0.41016 0.76953 0.25 0.17969 0.5625 0.23828 0.85938 0.15234 1.8516-0.51953 3.7695 0.50781 4.3633 2.3359s-0.35547 3.7891-2.1562 4.457c-0.28516 0.10547-0.50781 0.33594-0.60156 0.62891-0.09375 0.28906-0.050781 0.60937 0.11719 0.86328 1.0664 1.6016 0.68359 3.7461-0.87109 4.875-1.5547 1.1289-3.707 0.83203-4.9023-0.67578-0.011718-0.015626-0.027343-0.019532-0.039062-0.03125-0.066406-0.074219-0.14453-0.13281-0.23047-0.1875-0.035156-0.019532-0.0625-0.050782-0.097656-0.066407-0.125-0.058593-0.26562-0.09375-0.41406-0.09375-0.14844 0-0.28516 0.035157-0.41406 0.09375-0.039062 0.015625-0.066406 0.046875-0.10156 0.070313-0.085938 0.050781-0.16406 0.10938-0.22656 0.18359-0.011719 0.011718-0.03125 0.019531-0.039063 0.03125-1.1953 1.5117-3.3477 1.8086-4.9023 0.67578-1.5547-1.1328-1.9375-3.2734-0.87109-4.875 0.16797-0.25391 0.21094-0.57031 0.11719-0.86328-0.09375-0.28906-0.31641-0.52344-0.60156-0.62891-1.8047-0.66797-2.7539-2.6289-2.1562-4.457z" fill="#338cc8"/>
 <path d="m89 33.594h-3.6875l-1.3711-3.8086h3.6953c0.55078 0 1-0.44922 1-1 0-0.55078-0.44922-1-1-1h-19.117c-0.55078 0-1 0.44922-1 1 0 0.55078 0.44922 1 1 1h3.6953l-1.3711 3.8086h-3.6875c-0.55078 0-1 0.44922-1 1s0.44922 1 1 1h2.9688l-1.5312 4.2578c-0.1875 0.51953 0.082031 1.0938 0.60156 1.2812 0.11328 0.039063 0.22656 0.058594 0.33984 0.058594 0.41016 0 0.79297-0.25391 0.94141-0.66406l1.7773-4.9336h11.652l1.7773 4.9336c0.14844 0.40625 0.53125 0.66406 0.94141 0.66406 0.11328 0 0.22656-0.019531 0.33984-0.058594 0.51953-0.1875 0.78906-0.75781 0.60156-1.2812l-1.5312-4.2578h2.9688c0.55078 0 1-0.44922 1-1s-0.44922-1-1-1zm-16.027 0 1.3711-3.8086h7.4727l1.3711 3.8086z" fill="#338cc8"/>
</svg>
