<?xml version="1.0" encoding="UTF-8"?>
<svg width="100pt" height="100pt" version="1.1" viewBox="0 0 100 100" xmlns="http://www.w3.org/2000/svg">
 <path d="m24.914 35.52c-2.3711 0-4.4336-1.6094-5.0039-3.9141-0.6875-2.7617 1.0039-5.5703 3.7695-6.2578 0.41016-0.10156 0.82812-0.15234 1.2461-0.15234 2.375 0 4.4375 1.6133 5.0117 3.9219 0.68359 2.7656-1.0078 5.5703-3.7695 6.2539-0.41016 0.097656-0.83203 0.14844-1.2539 0.14844zm0.015626-8.8594c-0.30078 0-0.59766 0.035156-0.89453 0.10938-1.9805 0.49219-3.1875 2.5039-2.6953 4.4766 0.41016 1.6484 1.8828 2.7969 3.5781 2.8008 0.30078 0 0.60547-0.035156 0.89844-0.10938 1.9766-0.48828 3.1836-2.4961 2.6953-4.4727-0.41016-1.6484-1.8867-2.8047-3.582-2.8047z" fill="#338cc8"/>
 <path d="m44.809 74.586c-2.3711 0-4.4297-1.6094-5.0039-3.9141-0.68359-2.7617 1.0039-5.5703 3.7656-6.2656 0.41016-0.10156 0.82813-0.15234 1.2461-0.15234 2.3789 0 4.4375 1.6133 5.0117 3.9258 0.33594 1.3359 0.125 2.7227-0.58594 3.9023-0.71094 1.1836-1.8398 2.0156-3.1797 2.3477-0.41016 0.10156-0.83203 0.15625-1.2539 0.15625zm0.007812-8.8594c-0.30078 0-0.59766 0.035157-0.89062 0.10938-1.9727 0.49609-3.1836 2.5078-2.6953 4.4805 0.41016 1.6484 1.8789 2.8008 3.5781 2.8008 0.30078 0 0.60547-0.035157 0.89844-0.10938 0.95703-0.23828 1.7656-0.83594 2.2734-1.6797 0.50781-0.84375 0.65625-1.8359 0.41797-2.7891-0.40625-1.6602-1.8789-2.8125-3.582-2.8125z" fill="#338cc8"/>
 <path d="m33.148 74.809-4.3008-11.449-5.3125-6.7148-2.8672 6.543c-0.30469 0.77344-0.94922 1.4102-1.7539 1.7188-0.75781 0.29688-1.6953 0.26172-2.4727-0.125l-11.441-5.7461 2.7578-5.4961 8.4453 4.2383 2.3789-5.8555-0.97266-9.1211-2.3672 1.2695-1.3438 8.5078-3.9844-0.35156 0.27344-9.9688c0.074219-0.90234 0.57422-1.6758 1.3359-2.0977l8.6523-4.6602 0.027344 0.039062c0.35547-0.13672 0.73047-0.22266 1.1133-0.26562 2.4766-0.27344 4.6758 1.5391 4.9297 3.9844l1.2578 11.855c0.003906 0.035157 0.007813 0.074219 0.007813 0.10938l6.5117 8.7695c0.17578 0.23828 0.31641 0.49609 0.42187 0.76953l4.4648 11.871zm-9.3984-20.234 0.24609 0.28516 6.1914 7.8711 3.8242 10.18 3.0078-1.1289-3.9453-10.496c-0.054688-0.14453-0.12891-0.28125-0.22266-0.40625l-6.7969-9.1602-0.007813-0.23047c0-0.050781 0-0.10547 0.003906-0.15625l-1.2578-11.914c-0.17188-1.6445-1.6367-2.8477-3.3125-2.6758-0.41016 0.042968-0.79297 0.16406-1.1484 0.36328l-0.57031 0.31641-0.011719-0.015625-7.5156 4.0469c-0.32422 0.17969-0.54297 0.51562-0.57031 0.88672l-0.23437 8.543 1.2383 0.10938 1.2383-7.8711 4.9375-2.6523 1.2734 11.578-0.097657 0.25781-3.0508 7.5039-8.5547-4.2891-1.4414 2.8672 10.125 5.0859c0.40625 0.19922 0.89844 0.21875 1.2852 0.066406 0.43359-0.16406 0.75781-0.48437 0.92578-0.90625l3.5-7.9922z" fill="#338cc8"/>
 <path d="m52.816 74.52-1.0742-6.0586 4.3398-0.77344 9.8203-7.9336c0.89453-0.71484 2.1016-0.875 3.1406-0.42969l5.2266 2.2422 5.6641-3.2734-2.7617-1.1641-10.48-2.9219 1.0547-3.9062 10.695 2.2773c0.10156 0.023437 0.17188 0.046875 0.23438 0.070313l8 2.8477c1.3867 0.19531 2.5742 0.98828 3.2617 2.1875l0.039062 0.066406 4.5078 6.168c0.79688 1.0898 0.63672 2.5938-0.375 3.4922l-8.6133 6.8359-2.6602-3.0039 6.0625-6.1289-0.84766-1.1641-10.066 5.8164c-0.53516 0.30859-1.1133 0.50391-1.7227 0.57031zm0.62891-4.8672 0.5625 3.1641 22.055-3.9219c0.44922-0.054687 0.83594-0.18359 1.1992-0.38672l10.32-5.9648c0.042969-0.023438 0.085938-0.0625 0.12891-0.097657l0.6875-0.51562 2.4375 3.3398-5.9766 6.0391 0.82422 0.92578 7.4922-5.9453c0.39844-0.35937 0.47266-1.0273 0.13281-1.4961l-4.6367-6.3672c-0.46484-0.81641-1.2852-1.3516-2.2461-1.4727l-0.15625-0.035156-8.0781-2.8789-9.3789-2.0039-0.3125 1.1523 9.1641 2.5625 5.5703 2.3477-8.8594 5.1211-5.9062-2.5352c-0.55078-0.23438-1.1758-0.14453-1.6445 0.22266l-7.7383 6.25 6.5898-1.1719 2.4062-1.9727 5.0078 2.1445z" fill="#338cc8"/>
 <path d="m87.094 55.215c-2.1055 0-3.9844-1.2656-4.7812-3.2227-1.0703-2.6367 0.19922-5.6562 2.8398-6.7266 0.62109-0.25391 1.2773-0.38281 1.9453-0.38281 2.1094 0 3.9844 1.2617 4.7812 3.2148 1.0742 2.6445-0.20312 5.6641-2.8398 6.7344-0.62891 0.25391-1.2812 0.38281-1.9453 0.38281zm0-8.8594c-0.47656 0-0.94531 0.09375-1.3906 0.27344-1.8867 0.76562-2.7969 2.9258-2.0273 4.8125 0.57031 1.3984 1.9102 2.3047 3.418 2.3047 0.47266 0 0.94141-0.09375 1.3906-0.26953 1.8867-0.76562 2.8008-2.9297 2.0312-4.8203-0.57031-1.3984-1.9141-2.3008-3.4219-2.3008z" fill="#338cc8"/>
 <path d="m44.809 74.586c-2.3711 0-4.4297-1.6094-5.0039-3.9141-0.68359-2.7617 1.0039-5.5703 3.7656-6.2656 0.41016-0.10156 0.82813-0.15234 1.2461-0.15234 2.3789 0 4.4375 1.6133 5.0117 3.9258 0.33594 1.3359 0.125 2.7227-0.58594 3.9023-0.71094 1.1836-1.8398 2.0156-3.1797 2.3477-0.41016 0.10156-0.83203 0.15625-1.2539 0.15625zm0.007812-8.8594c-0.30078 0-0.59766 0.035157-0.89062 0.10938-1.9727 0.49609-3.1836 2.5078-2.6953 4.4805 0.41016 1.6484 1.8789 2.8008 3.5781 2.8008 0.30078 0 0.60547-0.035157 0.89844-0.10938 0.95703-0.23828 1.7656-0.83594 2.2734-1.6797 0.50781-0.84375 0.65625-1.8359 0.41797-2.7891-0.40625-1.6602-1.8789-2.8125-3.582-2.8125z" fill="#338cc8"/>
</svg>
