<?xml version="1.0" encoding="UTF-8"?>
<svg width="100pt" height="100pt" version="1.1" viewBox="0 0 100 100" xmlns="http://www.w3.org/2000/svg">
 <path d="m0 96.773h100v3.2266h-100z" fill="#338cc8"/>
 <path d="m97.637 12.902h2.3633v-3.2266h-6.4531v-3.2227c0-1.7773-1.4453-3.2266-3.2266-3.2266h-1.6133l0.003907-3.2266h-3.2266v3.2266h-1.6133c-1.7773 0-3.2266 1.4453-3.2266 3.2266v3.2266h-6.4531v3.2266h2.3633l8.9297 13.387v34.996h-1.6133c-1.7773 0-3.2266 1.4453-3.2266 3.2266v9.6758l-61.289 0.003906v-9.6758c0-1.7773-1.4453-3.2266-3.2266-3.2266h-1.6133v-35l8.9297-13.391h2.3594v-3.2266h-6.4492v-3.2227c0-1.7773-1.4453-3.2266-3.2266-3.2266h-1.6133v-3.2266h-3.2266v3.2266h-1.6133c-1.7773 0-3.2266 1.4453-3.2266 3.2266v3.2266l-6.4492-0.003907v3.2266h2.3633l8.9258 13.391v34.996h-1.6133c-1.7773 0-3.2266 1.4453-3.2266 3.2266v9.6758l-3.2227 0.003906c-1.7773 0-3.2266 1.4453-3.2266 3.2266v3.2266c0 1.7773 1.4453 3.2266 3.2266 3.2266h93.547c1.7773 0 3.2266-1.4453 3.2266-3.2266v-3.2266c0-1.7773-1.4453-3.2266-3.2266-3.2266h-3.2266v-9.6758c0-1.7773-1.4453-3.2266-3.2266-3.2266h-1.6133l0.003907-35zm-87.961-6.4492h6.4531v3.2266l-6.4531-0.003907zm9.8906 6.4492-6.6641 9.9961-6.6641-9.9961zm-0.21094 64.516v3.2266h-6.4531v-3.2266zm3.2266 0h6.4531v3.2266h-6.4531zm9.6758 0h6.4531v3.2266h-6.4531zm9.6758 0h6.4531v3.2266h-6.4531zm9.6797 0h6.4531v3.2266h-6.4531zm9.6758 0h6.4531v3.2266h-6.4531zm9.6797 0h6.4531v3.2266h-6.4531zm9.6758 0h6.4531v3.2266h-6.4531zm-70.969-12.902h6.4531v9.6758l-6.4531 0.003906zm-6.4492 12.902h6.4531v3.2266h-6.4531zm93.551 3.2266h-0.003906-6.4531v-3.2266h6.4531zm-6.4531-6.4492h-6.4531v-9.6758h6.4531zm-6.4531-67.742h6.4531v3.2266h-6.4531zm9.8906 6.4492-6.6641 9.9961-6.6641-9.9961z" fill="#338cc8"/>
 <path d="m77.418 45.16v-6.4531c0-1.7773-1.4453-3.2266-3.2266-3.2266l-48.387 0.003906c-1.7773 0-3.2266 1.4453-3.2266 3.2266v6.4531c0 1.7773 1.4453 3.2266 3.2266 3.2266v3.2266c-1.7773 0-3.2266 1.4453-3.2266 3.2266v3.2266c0 1.7773 1.4453 3.2266 3.2266 3.2266v6.4531h3.2266v-6.4531h41.934v6.4531h3.2266v-6.4531c1.7773 0 3.2266-1.4453 3.2266-3.2266v-3.2266c0-1.7773-1.4453-3.2266-3.2266-3.2266v-3.2266c1.7812-0.003906 3.2266-1.4492 3.2266-3.2305zm-51.613-6.4492h48.387l0.003906 6.4531h-0.003906l-48.387-0.003906zm48.391 19.355h-0.003906-48.387v-3.2266h48.387zm-3.2266-6.4531h-41.938v-3.2266h41.934z" fill="#338cc8"/>
</svg>
